G04 #@! TF.GenerationSoftware,KiCad,Pcbnew,(5.0.1-3-g963ef8bb5)*
G04 #@! TF.CreationDate,2018-12-12T19:15:58+01:00*
G04 #@! TF.ProjectId,kim-uno-rev1,6B696D2D756E6F2D726576312E6B6963,1*
G04 #@! TF.SameCoordinates,Original*
G04 #@! TF.FileFunction,Legend,Top*
G04 #@! TF.FilePolarity,Positive*
%FSLAX46Y46*%
G04 Gerber Fmt 4.6, Leading zero omitted, Abs format (unit mm)*
G04 Created by KiCad (PCBNEW (5.0.1-3-g963ef8bb5)) date Wednesday, 12 December 2018 at 19:15:58*
%MOMM*%
%LPD*%
G01*
G04 APERTURE LIST*
%ADD10C,0.200000*%
%ADD11C,0.375000*%
%ADD12C,0.500000*%
%ADD13C,0.300000*%
%ADD14C,0.150000*%
%ADD15C,0.120000*%
G04 APERTURE END LIST*
D10*
X115062000Y-83058000D02*
X120650000Y-83058000D01*
X120650000Y-83058000D02*
X120650000Y-85344000D01*
X115062000Y-85344000D02*
X115062000Y-83058000D01*
X120650000Y-85344000D02*
X115062000Y-85344000D01*
D11*
X115606000Y-85006571D02*
X115606000Y-83506571D01*
X115963142Y-83506571D01*
X116177428Y-83578000D01*
X116320285Y-83720857D01*
X116391714Y-83863714D01*
X116463142Y-84149428D01*
X116463142Y-84363714D01*
X116391714Y-84649428D01*
X116320285Y-84792285D01*
X116177428Y-84935142D01*
X115963142Y-85006571D01*
X115606000Y-85006571D01*
X117034571Y-84578000D02*
X117748857Y-84578000D01*
X116891714Y-85006571D02*
X117391714Y-83506571D01*
X117891714Y-85006571D01*
X118177428Y-83506571D02*
X119034571Y-83506571D01*
X118606000Y-85006571D02*
X118606000Y-83506571D01*
X119463142Y-84578000D02*
X120177428Y-84578000D01*
X119320285Y-85006571D02*
X119820285Y-83506571D01*
X120320285Y-85006571D01*
D10*
X126746000Y-83058000D02*
X132842000Y-83058000D01*
X126746000Y-85344000D02*
X126746000Y-83058000D01*
X132842000Y-85344000D02*
X126746000Y-85344000D01*
X132842000Y-83058000D02*
X132842000Y-85344000D01*
D11*
X127186857Y-84578000D02*
X127901142Y-84578000D01*
X127044000Y-85006571D02*
X127544000Y-83506571D01*
X128044000Y-85006571D01*
X128544000Y-85006571D02*
X128544000Y-83506571D01*
X128901142Y-83506571D01*
X129115428Y-83578000D01*
X129258285Y-83720857D01*
X129329714Y-83863714D01*
X129401142Y-84149428D01*
X129401142Y-84363714D01*
X129329714Y-84649428D01*
X129258285Y-84792285D01*
X129115428Y-84935142D01*
X128901142Y-85006571D01*
X128544000Y-85006571D01*
X130044000Y-85006571D02*
X130044000Y-83506571D01*
X130401142Y-83506571D01*
X130615428Y-83578000D01*
X130758285Y-83720857D01*
X130829714Y-83863714D01*
X130901142Y-84149428D01*
X130901142Y-84363714D01*
X130829714Y-84649428D01*
X130758285Y-84792285D01*
X130615428Y-84935142D01*
X130401142Y-85006571D01*
X130044000Y-85006571D01*
X132401142Y-85006571D02*
X131901142Y-84292285D01*
X131544000Y-85006571D02*
X131544000Y-83506571D01*
X132115428Y-83506571D01*
X132258285Y-83578000D01*
X132329714Y-83649428D01*
X132401142Y-83792285D01*
X132401142Y-84006571D01*
X132329714Y-84149428D01*
X132258285Y-84220857D01*
X132115428Y-84292285D01*
X131544000Y-84292285D01*
D10*
X139446000Y-85344000D02*
X139446000Y-83058000D01*
X144526000Y-83058000D02*
X144526000Y-85344000D01*
X144526000Y-85344000D02*
X139446000Y-85344000D01*
X139446000Y-83058000D02*
X144526000Y-83058000D01*
D11*
X141021714Y-85006571D02*
X140521714Y-84292285D01*
X140164571Y-85006571D02*
X140164571Y-83506571D01*
X140736000Y-83506571D01*
X140878857Y-83578000D01*
X140950285Y-83649428D01*
X141021714Y-83792285D01*
X141021714Y-84006571D01*
X140950285Y-84149428D01*
X140878857Y-84220857D01*
X140736000Y-84292285D01*
X140164571Y-84292285D01*
X141664571Y-84220857D02*
X142164571Y-84220857D01*
X142378857Y-85006571D02*
X141664571Y-85006571D01*
X141664571Y-83506571D01*
X142378857Y-83506571D01*
X143807428Y-83578000D02*
X143664571Y-83506571D01*
X143450285Y-83506571D01*
X143236000Y-83578000D01*
X143093142Y-83720857D01*
X143021714Y-83863714D01*
X142950285Y-84149428D01*
X142950285Y-84363714D01*
X143021714Y-84649428D01*
X143093142Y-84792285D01*
X143236000Y-84935142D01*
X143450285Y-85006571D01*
X143593142Y-85006571D01*
X143807428Y-84935142D01*
X143878857Y-84863714D01*
X143878857Y-84363714D01*
X143593142Y-84363714D01*
D10*
X151384000Y-85344000D02*
X151384000Y-83058000D01*
X156464000Y-85344000D02*
X151384000Y-85344000D01*
X156464000Y-83058000D02*
X156464000Y-85344000D01*
X151384000Y-83058000D02*
X156464000Y-83058000D01*
D11*
X153102571Y-85006571D02*
X152602571Y-84292285D01*
X152245428Y-85006571D02*
X152245428Y-83506571D01*
X152816857Y-83506571D01*
X152959714Y-83578000D01*
X153031142Y-83649428D01*
X153102571Y-83792285D01*
X153102571Y-84006571D01*
X153031142Y-84149428D01*
X152959714Y-84220857D01*
X152816857Y-84292285D01*
X152245428Y-84292285D01*
X153674000Y-84935142D02*
X153888285Y-85006571D01*
X154245428Y-85006571D01*
X154388285Y-84935142D01*
X154459714Y-84863714D01*
X154531142Y-84720857D01*
X154531142Y-84578000D01*
X154459714Y-84435142D01*
X154388285Y-84363714D01*
X154245428Y-84292285D01*
X153959714Y-84220857D01*
X153816857Y-84149428D01*
X153745428Y-84078000D01*
X153674000Y-83935142D01*
X153674000Y-83792285D01*
X153745428Y-83649428D01*
X153816857Y-83578000D01*
X153959714Y-83506571D01*
X154316857Y-83506571D01*
X154531142Y-83578000D01*
X154959714Y-83506571D02*
X155816857Y-83506571D01*
X155388285Y-85006571D02*
X155388285Y-83506571D01*
D10*
X166116000Y-85344000D02*
X166116000Y-83058000D01*
X171196000Y-85344000D02*
X166116000Y-85344000D01*
X171196000Y-83058000D02*
X171196000Y-85344000D01*
X166116000Y-83058000D02*
X171196000Y-83058000D01*
D11*
X166691714Y-83649428D02*
X166763142Y-83578000D01*
X166906000Y-83506571D01*
X167263142Y-83506571D01*
X167406000Y-83578000D01*
X167477428Y-83649428D01*
X167548857Y-83792285D01*
X167548857Y-83935142D01*
X167477428Y-84149428D01*
X166620285Y-85006571D01*
X167548857Y-85006571D01*
X168191714Y-85006571D02*
X168191714Y-83506571D01*
X169048857Y-85006571D01*
X169048857Y-83506571D01*
X169763142Y-85006571D02*
X169763142Y-83506571D01*
X170120285Y-83506571D01*
X170334571Y-83578000D01*
X170477428Y-83720857D01*
X170548857Y-83863714D01*
X170620285Y-84149428D01*
X170620285Y-84363714D01*
X170548857Y-84649428D01*
X170477428Y-84792285D01*
X170334571Y-84935142D01*
X170120285Y-85006571D01*
X169763142Y-85006571D01*
X173418571Y-99675142D02*
X174561428Y-99675142D01*
X173990000Y-100246571D02*
X173990000Y-99103714D01*
X173418571Y-113391142D02*
X174561428Y-113391142D01*
D12*
X134473238Y-86982952D02*
X134473238Y-84482952D01*
X135068476Y-84482952D01*
X135425619Y-84602000D01*
X135663714Y-84840095D01*
X135782761Y-85078190D01*
X135901809Y-85554380D01*
X135901809Y-85911523D01*
X135782761Y-86387714D01*
X135663714Y-86625809D01*
X135425619Y-86863904D01*
X135068476Y-86982952D01*
X134473238Y-86982952D01*
X146276285Y-85419428D02*
X147109619Y-85419428D01*
X147466761Y-86728952D02*
X146276285Y-86728952D01*
X146276285Y-84228952D01*
X147466761Y-84228952D01*
X159361142Y-85419428D02*
X158527809Y-85419428D01*
X158527809Y-86728952D02*
X158527809Y-84228952D01*
X159718285Y-84228952D01*
X123709809Y-86744857D02*
X123590761Y-86863904D01*
X123233619Y-86982952D01*
X122995523Y-86982952D01*
X122638380Y-86863904D01*
X122400285Y-86625809D01*
X122281238Y-86387714D01*
X122162190Y-85911523D01*
X122162190Y-85554380D01*
X122281238Y-85078190D01*
X122400285Y-84840095D01*
X122638380Y-84602000D01*
X122995523Y-84482952D01*
X123233619Y-84482952D01*
X123590761Y-84602000D01*
X123709809Y-84721047D01*
X122697904Y-99270380D02*
X122459809Y-99151333D01*
X122340761Y-99032285D01*
X122221714Y-98794190D01*
X122221714Y-98675142D01*
X122340761Y-98437047D01*
X122459809Y-98318000D01*
X122697904Y-98198952D01*
X123174095Y-98198952D01*
X123412190Y-98318000D01*
X123531238Y-98437047D01*
X123650285Y-98675142D01*
X123650285Y-98794190D01*
X123531238Y-99032285D01*
X123412190Y-99151333D01*
X123174095Y-99270380D01*
X122697904Y-99270380D01*
X122459809Y-99389428D01*
X122340761Y-99508476D01*
X122221714Y-99746571D01*
X122221714Y-100222761D01*
X122340761Y-100460857D01*
X122459809Y-100579904D01*
X122697904Y-100698952D01*
X123174095Y-100698952D01*
X123412190Y-100579904D01*
X123531238Y-100460857D01*
X123650285Y-100222761D01*
X123650285Y-99746571D01*
X123531238Y-99508476D01*
X123412190Y-99389428D01*
X123174095Y-99270380D01*
X159182571Y-99135428D02*
X159539714Y-99254476D01*
X159658761Y-99373523D01*
X159777809Y-99611619D01*
X159777809Y-99968761D01*
X159658761Y-100206857D01*
X159539714Y-100325904D01*
X159301619Y-100444952D01*
X158349238Y-100444952D01*
X158349238Y-97944952D01*
X159182571Y-97944952D01*
X159420666Y-98064000D01*
X159539714Y-98183047D01*
X159658761Y-98421142D01*
X159658761Y-98659238D01*
X159539714Y-98897333D01*
X159420666Y-99016380D01*
X159182571Y-99135428D01*
X158349238Y-99135428D01*
X146216761Y-99730666D02*
X147407238Y-99730666D01*
X145978666Y-100444952D02*
X146812000Y-97944952D01*
X147645333Y-100444952D01*
X134651809Y-100698952D02*
X135128000Y-100698952D01*
X135366095Y-100579904D01*
X135485142Y-100460857D01*
X135723238Y-100103714D01*
X135842285Y-99627523D01*
X135842285Y-98675142D01*
X135723238Y-98437047D01*
X135604190Y-98318000D01*
X135366095Y-98198952D01*
X134889904Y-98198952D01*
X134651809Y-98318000D01*
X134532761Y-98437047D01*
X134413714Y-98675142D01*
X134413714Y-99270380D01*
X134532761Y-99508476D01*
X134651809Y-99627523D01*
X134889904Y-99746571D01*
X135366095Y-99746571D01*
X135604190Y-99627523D01*
X135723238Y-99508476D01*
X135842285Y-99270380D01*
X123412190Y-112748285D02*
X123412190Y-114414952D01*
X122816952Y-111795904D02*
X122221714Y-113581619D01*
X123769333Y-113581619D01*
X147288190Y-111660952D02*
X146812000Y-111660952D01*
X146573904Y-111780000D01*
X146454857Y-111899047D01*
X146216761Y-112256190D01*
X146097714Y-112732380D01*
X146097714Y-113684761D01*
X146216761Y-113922857D01*
X146335809Y-114041904D01*
X146573904Y-114160952D01*
X147050095Y-114160952D01*
X147288190Y-114041904D01*
X147407238Y-113922857D01*
X147526285Y-113684761D01*
X147526285Y-113089523D01*
X147407238Y-112851428D01*
X147288190Y-112732380D01*
X147050095Y-112613333D01*
X146573904Y-112613333D01*
X146335809Y-112732380D01*
X146216761Y-112851428D01*
X146097714Y-113089523D01*
X158170666Y-111660952D02*
X159837333Y-111660952D01*
X158765904Y-114160952D01*
X135723238Y-111914952D02*
X134532761Y-111914952D01*
X134413714Y-113105428D01*
X134532761Y-112986380D01*
X134770857Y-112867333D01*
X135366095Y-112867333D01*
X135604190Y-112986380D01*
X135723238Y-113105428D01*
X135842285Y-113343523D01*
X135842285Y-113938761D01*
X135723238Y-114176857D01*
X135604190Y-114295904D01*
X135366095Y-114414952D01*
X134770857Y-114414952D01*
X134532761Y-114295904D01*
X134413714Y-114176857D01*
D11*
X173597142Y-125742000D02*
X173454285Y-125670571D01*
X173240000Y-125670571D01*
X173025714Y-125742000D01*
X172882857Y-125884857D01*
X172811428Y-126027714D01*
X172740000Y-126313428D01*
X172740000Y-126527714D01*
X172811428Y-126813428D01*
X172882857Y-126956285D01*
X173025714Y-127099142D01*
X173240000Y-127170571D01*
X173382857Y-127170571D01*
X173597142Y-127099142D01*
X173668571Y-127027714D01*
X173668571Y-126527714D01*
X173382857Y-126527714D01*
X174597142Y-125670571D02*
X174882857Y-125670571D01*
X175025714Y-125742000D01*
X175168571Y-125884857D01*
X175240000Y-126170571D01*
X175240000Y-126670571D01*
X175168571Y-126956285D01*
X175025714Y-127099142D01*
X174882857Y-127170571D01*
X174597142Y-127170571D01*
X174454285Y-127099142D01*
X174311428Y-126956285D01*
X174240000Y-126670571D01*
X174240000Y-126170571D01*
X174311428Y-125884857D01*
X174454285Y-125742000D01*
X174597142Y-125670571D01*
D12*
X158170666Y-125122952D02*
X159718285Y-125122952D01*
X158884952Y-126075333D01*
X159242095Y-126075333D01*
X159480190Y-126194380D01*
X159599238Y-126313428D01*
X159718285Y-126551523D01*
X159718285Y-127146761D01*
X159599238Y-127384857D01*
X159480190Y-127503904D01*
X159242095Y-127622952D01*
X158527809Y-127622952D01*
X158289714Y-127503904D01*
X158170666Y-127384857D01*
X146097714Y-125361047D02*
X146216761Y-125242000D01*
X146454857Y-125122952D01*
X147050095Y-125122952D01*
X147288190Y-125242000D01*
X147407238Y-125361047D01*
X147526285Y-125599142D01*
X147526285Y-125837238D01*
X147407238Y-126194380D01*
X145978666Y-127622952D01*
X147526285Y-127622952D01*
X135842285Y-127876952D02*
X134413714Y-127876952D01*
X135128000Y-127876952D02*
X135128000Y-125376952D01*
X134889904Y-125734095D01*
X134651809Y-125972190D01*
X134413714Y-126091238D01*
X122816952Y-125376952D02*
X123055047Y-125376952D01*
X123293142Y-125496000D01*
X123412190Y-125615047D01*
X123531238Y-125853142D01*
X123650285Y-126329333D01*
X123650285Y-126924571D01*
X123531238Y-127400761D01*
X123412190Y-127638857D01*
X123293142Y-127757904D01*
X123055047Y-127876952D01*
X122816952Y-127876952D01*
X122578857Y-127757904D01*
X122459809Y-127638857D01*
X122340761Y-127400761D01*
X122221714Y-126924571D01*
X122221714Y-126329333D01*
X122340761Y-125853142D01*
X122459809Y-125615047D01*
X122578857Y-125496000D01*
X122816952Y-125376952D01*
D13*
X110787714Y-136787714D02*
X110716285Y-136930571D01*
X110716285Y-137216285D01*
X110787714Y-137359142D01*
X110930571Y-137502000D01*
X111073428Y-137573428D01*
X111359142Y-137573428D01*
X111502000Y-137502000D01*
X111644857Y-137359142D01*
X111716285Y-137216285D01*
X111716285Y-136930571D01*
X111644857Y-136787714D01*
X110216285Y-137073428D02*
X110287714Y-137430571D01*
X110502000Y-137787714D01*
X110859142Y-138002000D01*
X111216285Y-138073428D01*
X111573428Y-138002000D01*
X111930571Y-137787714D01*
X112144857Y-137430571D01*
X112216285Y-137073428D01*
X112144857Y-136716285D01*
X111930571Y-136359142D01*
X111573428Y-136144857D01*
X111216285Y-136073428D01*
X110859142Y-136144857D01*
X110502000Y-136359142D01*
X110287714Y-136716285D01*
X110216285Y-137073428D01*
X110573428Y-134359142D02*
X110502000Y-134287714D01*
X110430571Y-134144857D01*
X110430571Y-133787714D01*
X110502000Y-133644857D01*
X110573428Y-133573428D01*
X110716285Y-133502000D01*
X110859142Y-133502000D01*
X111073428Y-133573428D01*
X111930571Y-134430571D01*
X111930571Y-133502000D01*
X110430571Y-132573428D02*
X110430571Y-132430571D01*
X110502000Y-132287714D01*
X110573428Y-132216285D01*
X110716285Y-132144857D01*
X111002000Y-132073428D01*
X111359142Y-132073428D01*
X111644857Y-132144857D01*
X111787714Y-132216285D01*
X111859142Y-132287714D01*
X111930571Y-132430571D01*
X111930571Y-132573428D01*
X111859142Y-132716285D01*
X111787714Y-132787714D01*
X111644857Y-132859142D01*
X111359142Y-132930571D01*
X111002000Y-132930571D01*
X110716285Y-132859142D01*
X110573428Y-132787714D01*
X110502000Y-132716285D01*
X110430571Y-132573428D01*
X111930571Y-130644857D02*
X111930571Y-131502000D01*
X111930571Y-131073428D02*
X110430571Y-131073428D01*
X110644857Y-131216285D01*
X110787714Y-131359142D01*
X110859142Y-131502000D01*
X111073428Y-129787714D02*
X111002000Y-129930571D01*
X110930571Y-130002000D01*
X110787714Y-130073428D01*
X110716285Y-130073428D01*
X110573428Y-130002000D01*
X110502000Y-129930571D01*
X110430571Y-129787714D01*
X110430571Y-129502000D01*
X110502000Y-129359142D01*
X110573428Y-129287714D01*
X110716285Y-129216285D01*
X110787714Y-129216285D01*
X110930571Y-129287714D01*
X111002000Y-129359142D01*
X111073428Y-129502000D01*
X111073428Y-129787714D01*
X111144857Y-129930571D01*
X111216285Y-130002000D01*
X111359142Y-130073428D01*
X111644857Y-130073428D01*
X111787714Y-130002000D01*
X111859142Y-129930571D01*
X111930571Y-129787714D01*
X111930571Y-129502000D01*
X111859142Y-129359142D01*
X111787714Y-129287714D01*
X111644857Y-129216285D01*
X111359142Y-129216285D01*
X111216285Y-129287714D01*
X111144857Y-129359142D01*
X111073428Y-129502000D01*
X111930571Y-127430571D02*
X110430571Y-127430571D01*
X111502000Y-126930571D01*
X110430571Y-126430571D01*
X111930571Y-126430571D01*
X111930571Y-125073428D02*
X111144857Y-125073428D01*
X111002000Y-125144857D01*
X110930571Y-125287714D01*
X110930571Y-125573428D01*
X111002000Y-125716285D01*
X111859142Y-125073428D02*
X111930571Y-125216285D01*
X111930571Y-125573428D01*
X111859142Y-125716285D01*
X111716285Y-125787714D01*
X111573428Y-125787714D01*
X111430571Y-125716285D01*
X111359142Y-125573428D01*
X111359142Y-125216285D01*
X111287714Y-125073428D01*
X111930571Y-124502000D02*
X110930571Y-123716285D01*
X110930571Y-124502000D02*
X111930571Y-123716285D01*
X111930571Y-123144857D02*
X110930571Y-123144857D01*
X110430571Y-123144857D02*
X110502000Y-123216285D01*
X110573428Y-123144857D01*
X110502000Y-123073428D01*
X110430571Y-123144857D01*
X110573428Y-123144857D01*
X111930571Y-122430571D02*
X110930571Y-122430571D01*
X111073428Y-122430571D02*
X111002000Y-122359142D01*
X110930571Y-122216285D01*
X110930571Y-122002000D01*
X111002000Y-121859142D01*
X111144857Y-121787714D01*
X111930571Y-121787714D01*
X111144857Y-121787714D02*
X111002000Y-121716285D01*
X110930571Y-121573428D01*
X110930571Y-121359142D01*
X111002000Y-121216285D01*
X111144857Y-121144857D01*
X111930571Y-121144857D01*
X111930571Y-120430571D02*
X110930571Y-120430571D01*
X110430571Y-120430571D02*
X110502000Y-120502000D01*
X110573428Y-120430571D01*
X110502000Y-120359142D01*
X110430571Y-120430571D01*
X110573428Y-120430571D01*
X111930571Y-119502000D02*
X111859142Y-119644857D01*
X111716285Y-119716285D01*
X110430571Y-119716285D01*
X111930571Y-118930571D02*
X110930571Y-118930571D01*
X110430571Y-118930571D02*
X110502000Y-119002000D01*
X110573428Y-118930571D01*
X110502000Y-118859142D01*
X110430571Y-118930571D01*
X110573428Y-118930571D01*
X111930571Y-117573428D02*
X111144857Y-117573428D01*
X111002000Y-117644857D01*
X110930571Y-117787714D01*
X110930571Y-118073428D01*
X111002000Y-118216285D01*
X111859142Y-117573428D02*
X111930571Y-117716285D01*
X111930571Y-118073428D01*
X111859142Y-118216285D01*
X111716285Y-118287714D01*
X111573428Y-118287714D01*
X111430571Y-118216285D01*
X111359142Y-118073428D01*
X111359142Y-117716285D01*
X111287714Y-117573428D01*
X110930571Y-116859142D02*
X111930571Y-116859142D01*
X111073428Y-116859142D02*
X111002000Y-116787714D01*
X110930571Y-116644857D01*
X110930571Y-116430571D01*
X111002000Y-116287714D01*
X111144857Y-116216285D01*
X111930571Y-116216285D01*
X111859142Y-114430571D02*
X111930571Y-114216285D01*
X111930571Y-113859142D01*
X111859142Y-113716285D01*
X111787714Y-113644857D01*
X111644857Y-113573428D01*
X111502000Y-113573428D01*
X111359142Y-113644857D01*
X111287714Y-113716285D01*
X111216285Y-113859142D01*
X111144857Y-114144857D01*
X111073428Y-114287714D01*
X111002000Y-114359142D01*
X110859142Y-114430571D01*
X110716285Y-114430571D01*
X110573428Y-114359142D01*
X110502000Y-114287714D01*
X110430571Y-114144857D01*
X110430571Y-113787714D01*
X110502000Y-113573428D01*
X110930571Y-113144857D02*
X110930571Y-112573428D01*
X110430571Y-112930571D02*
X111716285Y-112930571D01*
X111859142Y-112859142D01*
X111930571Y-112716285D01*
X111930571Y-112573428D01*
X111930571Y-112073428D02*
X110930571Y-112073428D01*
X111216285Y-112073428D02*
X111073428Y-112002000D01*
X111002000Y-111930571D01*
X110930571Y-111787714D01*
X110930571Y-111644857D01*
X111930571Y-110502000D02*
X111144857Y-110502000D01*
X111002000Y-110573428D01*
X110930571Y-110716285D01*
X110930571Y-111002000D01*
X111002000Y-111144857D01*
X111859142Y-110502000D02*
X111930571Y-110644857D01*
X111930571Y-111002000D01*
X111859142Y-111144857D01*
X111716285Y-111216285D01*
X111573428Y-111216285D01*
X111430571Y-111144857D01*
X111359142Y-111002000D01*
X111359142Y-110644857D01*
X111287714Y-110502000D01*
X110930571Y-109144857D02*
X111930571Y-109144857D01*
X110930571Y-109787714D02*
X111716285Y-109787714D01*
X111859142Y-109716285D01*
X111930571Y-109573428D01*
X111930571Y-109359142D01*
X111859142Y-109216285D01*
X111787714Y-109144857D01*
X111859142Y-107787714D02*
X111930571Y-107930571D01*
X111930571Y-108216285D01*
X111859142Y-108359142D01*
X111787714Y-108430571D01*
X111644857Y-108501999D01*
X111216285Y-108501999D01*
X111073428Y-108430571D01*
X111002000Y-108359142D01*
X110930571Y-108216285D01*
X110930571Y-107930571D01*
X111002000Y-107787714D01*
X111930571Y-107144857D02*
X110430571Y-107144857D01*
X111930571Y-106501999D02*
X111144857Y-106501999D01*
X111002000Y-106573428D01*
X110930571Y-106716285D01*
X110930571Y-106930571D01*
X111002000Y-107073428D01*
X111073428Y-107144857D01*
X111359142Y-104644857D02*
X111359142Y-103501999D01*
X111930571Y-101644857D02*
X110430571Y-101644857D01*
X111930571Y-100787714D02*
X111073428Y-101430571D01*
X110430571Y-100787714D02*
X111287714Y-101644857D01*
X111930571Y-100144857D02*
X110430571Y-100144857D01*
X111930571Y-99430571D02*
X110430571Y-99430571D01*
X111502000Y-98930571D01*
X110430571Y-98430571D01*
X111930571Y-98430571D01*
X110430571Y-96573428D02*
X111644857Y-96573428D01*
X111787714Y-96502000D01*
X111859142Y-96430571D01*
X111930571Y-96287714D01*
X111930571Y-96002000D01*
X111859142Y-95859142D01*
X111787714Y-95787714D01*
X111644857Y-95716285D01*
X110430571Y-95716285D01*
X110930571Y-95001999D02*
X111930571Y-95001999D01*
X111073428Y-95001999D02*
X111002000Y-94930571D01*
X110930571Y-94787714D01*
X110930571Y-94573428D01*
X111002000Y-94430571D01*
X111144857Y-94359142D01*
X111930571Y-94359142D01*
X111930571Y-93430571D02*
X111859142Y-93573428D01*
X111787714Y-93644857D01*
X111644857Y-93716285D01*
X111216285Y-93716285D01*
X111073428Y-93644857D01*
X111002000Y-93573428D01*
X110930571Y-93430571D01*
X110930571Y-93216285D01*
X111002000Y-93073428D01*
X111073428Y-93001999D01*
X111216285Y-92930571D01*
X111644857Y-92930571D01*
X111787714Y-93001999D01*
X111859142Y-93073428D01*
X111930571Y-93216285D01*
X111930571Y-93430571D01*
X111859142Y-92216285D02*
X111930571Y-92216285D01*
X112073428Y-92287714D01*
X112144857Y-92359142D01*
X111930571Y-90430571D02*
X110930571Y-90430571D01*
X111216285Y-90430571D02*
X111073428Y-90359142D01*
X111002000Y-90287714D01*
X110930571Y-90144857D01*
X110930571Y-90001999D01*
X111859142Y-88930571D02*
X111930571Y-89073428D01*
X111930571Y-89359142D01*
X111859142Y-89501999D01*
X111716285Y-89573428D01*
X111144857Y-89573428D01*
X111002000Y-89501999D01*
X110930571Y-89359142D01*
X110930571Y-89073428D01*
X111002000Y-88930571D01*
X111144857Y-88859142D01*
X111287714Y-88859142D01*
X111430571Y-89573428D01*
X110930571Y-88359142D02*
X111930571Y-88002000D01*
X110930571Y-87644857D01*
X111787714Y-87073428D02*
X111859142Y-87002000D01*
X111930571Y-87073428D01*
X111859142Y-87144857D01*
X111787714Y-87073428D01*
X111930571Y-87073428D01*
X111930571Y-84430571D02*
X111930571Y-85287714D01*
X111930571Y-84859142D02*
X110430571Y-84859142D01*
X110644857Y-85002000D01*
X110787714Y-85144857D01*
X110859142Y-85287714D01*
D14*
G04 #@! TO.C,7SEG1*
X116699000Y-63463000D02*
X116699000Y-49313000D01*
X146699000Y-63463000D02*
X116699000Y-63463000D01*
X146699000Y-49313000D02*
X146699000Y-63463000D01*
X116699000Y-49313000D02*
X146699000Y-49313000D01*
G04 #@! TO.C,7SEG2*
X152039000Y-63463000D02*
X152039000Y-49313000D01*
X167239000Y-63463000D02*
X152039000Y-63463000D01*
X167239000Y-49313000D02*
X167239000Y-63463000D01*
X152039000Y-49313000D02*
X167239000Y-49313000D01*
D15*
G04 #@! TO.C,C1*
X120864000Y-78018000D02*
X120864000Y-72898000D01*
X123484000Y-78018000D02*
X123484000Y-72898000D01*
X120864000Y-78018000D02*
X123484000Y-78018000D01*
X120864000Y-72898000D02*
X123484000Y-72898000D01*
G04 #@! TO.C,J1*
X171330000Y-69342000D02*
X171330000Y-82162000D01*
X171330000Y-82162000D02*
X174110000Y-82162000D01*
X174110000Y-82162000D02*
X174110000Y-69342000D01*
X174110000Y-69342000D02*
X171330000Y-69342000D01*
X171330000Y-68072000D02*
X171330000Y-66682000D01*
X171330000Y-66682000D02*
X172720000Y-66682000D01*
G04 #@! TO.C,R1*
X146059000Y-67183000D02*
X144989000Y-67183000D01*
X140199000Y-67183000D02*
X141269000Y-67183000D01*
X144989000Y-66323000D02*
X141269000Y-66323000D01*
X144989000Y-68043000D02*
X144989000Y-66323000D01*
X141269000Y-68043000D02*
X144989000Y-68043000D01*
X141269000Y-66323000D02*
X141269000Y-68043000D01*
G04 #@! TO.C,R2*
X156509000Y-66323000D02*
X156509000Y-68043000D01*
X156509000Y-68043000D02*
X160229000Y-68043000D01*
X160229000Y-68043000D02*
X160229000Y-66323000D01*
X160229000Y-66323000D02*
X156509000Y-66323000D01*
X155439000Y-67183000D02*
X156509000Y-67183000D01*
X161299000Y-67183000D02*
X160229000Y-67183000D01*
G04 #@! TO.C,R3*
X123054000Y-67183000D02*
X124124000Y-67183000D01*
X128914000Y-67183000D02*
X127844000Y-67183000D01*
X124124000Y-68043000D02*
X127844000Y-68043000D01*
X124124000Y-66323000D02*
X124124000Y-68043000D01*
X127844000Y-66323000D02*
X124124000Y-66323000D01*
X127844000Y-68043000D02*
X127844000Y-66323000D01*
G04 #@! TO.C,R4*
X148619000Y-58248000D02*
X150339000Y-58248000D01*
X150339000Y-58248000D02*
X150339000Y-54528000D01*
X150339000Y-54528000D02*
X148619000Y-54528000D01*
X148619000Y-54528000D02*
X148619000Y-58248000D01*
X149479000Y-59318000D02*
X149479000Y-58248000D01*
X149479000Y-53458000D02*
X149479000Y-54528000D01*
G04 #@! TO.C,R5*
X171196000Y-53458000D02*
X171196000Y-54528000D01*
X171196000Y-59318000D02*
X171196000Y-58248000D01*
X170336000Y-54528000D02*
X170336000Y-58248000D01*
X172056000Y-54528000D02*
X170336000Y-54528000D01*
X172056000Y-58248000D02*
X172056000Y-54528000D01*
X170336000Y-58248000D02*
X172056000Y-58248000D01*
G04 #@! TO.C,R6*
X144989000Y-47723000D02*
X144989000Y-46003000D01*
X144989000Y-46003000D02*
X141269000Y-46003000D01*
X141269000Y-46003000D02*
X141269000Y-47723000D01*
X141269000Y-47723000D02*
X144989000Y-47723000D01*
X146059000Y-46863000D02*
X144989000Y-46863000D01*
X140199000Y-46863000D02*
X141269000Y-46863000D01*
G04 #@! TO.C,R7*
X121784000Y-46863000D02*
X122854000Y-46863000D01*
X127644000Y-46863000D02*
X126574000Y-46863000D01*
X122854000Y-47723000D02*
X126574000Y-47723000D01*
X122854000Y-46003000D02*
X122854000Y-47723000D01*
X126574000Y-46003000D02*
X122854000Y-46003000D01*
X126574000Y-47723000D02*
X126574000Y-46003000D01*
G04 #@! TO.C,R8*
X114652000Y-58846000D02*
X112932000Y-58846000D01*
X112932000Y-58846000D02*
X112932000Y-62566000D01*
X112932000Y-62566000D02*
X114652000Y-62566000D01*
X114652000Y-62566000D02*
X114652000Y-58846000D01*
X113792000Y-57776000D02*
X113792000Y-58846000D01*
X113792000Y-63636000D02*
X113792000Y-62566000D01*
D14*
G04 #@! TO.C,SW1*
X121031000Y-85598000D02*
X114427000Y-85598000D01*
X114427000Y-85598000D02*
X114427000Y-95758000D01*
X114427000Y-95758000D02*
X121031000Y-95758000D01*
X121031000Y-95758000D02*
X121031000Y-85598000D01*
G04 #@! TO.C,SW2*
X121031000Y-109403000D02*
X121031000Y-99243000D01*
X114427000Y-109403000D02*
X121031000Y-109403000D01*
X114427000Y-99243000D02*
X114427000Y-109403000D01*
X121031000Y-99243000D02*
X114427000Y-99243000D01*
G04 #@! TO.C,SW3*
X121031000Y-123063000D02*
X121031000Y-112903000D01*
X114427000Y-123063000D02*
X121031000Y-123063000D01*
X114427000Y-112903000D02*
X114427000Y-123063000D01*
X121031000Y-112903000D02*
X114427000Y-112903000D01*
G04 #@! TO.C,SW4*
X121031000Y-126238000D02*
X114427000Y-126238000D01*
X114427000Y-126238000D02*
X114427000Y-136398000D01*
X114427000Y-136398000D02*
X121031000Y-136398000D01*
X121031000Y-136398000D02*
X121031000Y-126238000D01*
G04 #@! TO.C,SW5*
X133096000Y-85598000D02*
X126492000Y-85598000D01*
X126492000Y-85598000D02*
X126492000Y-95758000D01*
X126492000Y-95758000D02*
X133096000Y-95758000D01*
X133096000Y-95758000D02*
X133096000Y-85598000D01*
G04 #@! TO.C,SW6*
X133096000Y-109403000D02*
X133096000Y-99243000D01*
X126492000Y-109403000D02*
X133096000Y-109403000D01*
X126492000Y-99243000D02*
X126492000Y-109403000D01*
X133096000Y-99243000D02*
X126492000Y-99243000D01*
G04 #@! TO.C,SW7*
X133096000Y-112903000D02*
X126492000Y-112903000D01*
X126492000Y-112903000D02*
X126492000Y-123063000D01*
X126492000Y-123063000D02*
X133096000Y-123063000D01*
X133096000Y-123063000D02*
X133096000Y-112903000D01*
G04 #@! TO.C,SW8*
X133096000Y-136398000D02*
X133096000Y-126238000D01*
X126492000Y-136398000D02*
X133096000Y-136398000D01*
X126492000Y-126238000D02*
X126492000Y-136398000D01*
X133096000Y-126238000D02*
X126492000Y-126238000D01*
G04 #@! TO.C,SW9*
X145161000Y-85598000D02*
X138557000Y-85598000D01*
X138557000Y-85598000D02*
X138557000Y-95758000D01*
X138557000Y-95758000D02*
X145161000Y-95758000D01*
X145161000Y-95758000D02*
X145161000Y-85598000D01*
G04 #@! TO.C,SW10*
X145161000Y-109403000D02*
X145161000Y-99243000D01*
X138557000Y-109403000D02*
X145161000Y-109403000D01*
X138557000Y-99243000D02*
X138557000Y-109403000D01*
X145161000Y-99243000D02*
X138557000Y-99243000D01*
G04 #@! TO.C,SW11*
X145161000Y-112903000D02*
X138557000Y-112903000D01*
X138557000Y-112903000D02*
X138557000Y-123063000D01*
X138557000Y-123063000D02*
X145161000Y-123063000D01*
X145161000Y-123063000D02*
X145161000Y-112903000D01*
G04 #@! TO.C,SW12*
X145161000Y-126238000D02*
X138557000Y-126238000D01*
X138557000Y-126238000D02*
X138557000Y-136398000D01*
X138557000Y-136398000D02*
X145161000Y-136398000D01*
X145161000Y-136398000D02*
X145161000Y-126238000D01*
G04 #@! TO.C,SW13*
X157226000Y-95758000D02*
X157226000Y-85598000D01*
X150622000Y-95758000D02*
X157226000Y-95758000D01*
X150622000Y-85598000D02*
X150622000Y-95758000D01*
X157226000Y-85598000D02*
X150622000Y-85598000D01*
G04 #@! TO.C,SW14*
X157226000Y-99243000D02*
X150622000Y-99243000D01*
X150622000Y-99243000D02*
X150622000Y-109403000D01*
X150622000Y-109403000D02*
X157226000Y-109403000D01*
X157226000Y-109403000D02*
X157226000Y-99243000D01*
G04 #@! TO.C,SW15*
X157226000Y-123063000D02*
X157226000Y-112903000D01*
X150622000Y-123063000D02*
X157226000Y-123063000D01*
X150622000Y-112903000D02*
X150622000Y-123063000D01*
X157226000Y-112903000D02*
X150622000Y-112903000D01*
G04 #@! TO.C,SW16*
X157226000Y-126238000D02*
X150622000Y-126238000D01*
X150622000Y-126238000D02*
X150622000Y-136398000D01*
X150622000Y-136398000D02*
X157226000Y-136398000D01*
X157226000Y-136398000D02*
X157226000Y-126238000D01*
G04 #@! TO.C,SW17*
X171831000Y-95758000D02*
X171831000Y-85598000D01*
X165227000Y-95758000D02*
X171831000Y-95758000D01*
X165227000Y-85598000D02*
X165227000Y-95758000D01*
X171831000Y-85598000D02*
X165227000Y-85598000D01*
G04 #@! TO.C,SW18*
X171831000Y-99243000D02*
X165227000Y-99243000D01*
X165227000Y-99243000D02*
X165227000Y-109403000D01*
X165227000Y-109403000D02*
X171831000Y-109403000D01*
X171831000Y-109403000D02*
X171831000Y-99243000D01*
G04 #@! TO.C,SW19*
X171831000Y-123063000D02*
X171831000Y-112903000D01*
X165227000Y-123063000D02*
X171831000Y-123063000D01*
X165227000Y-112903000D02*
X165227000Y-123063000D01*
X171831000Y-112903000D02*
X165227000Y-112903000D01*
G04 #@! TO.C,SW20*
X171831000Y-136398000D02*
X171831000Y-126238000D01*
X165227000Y-136398000D02*
X171831000Y-136398000D01*
X165227000Y-126238000D02*
X165227000Y-136398000D01*
X171831000Y-126238000D02*
X165227000Y-126238000D01*
G04 #@! TO.C,SW21*
X112395000Y-77851000D02*
X112395000Y-69215000D01*
X115443000Y-77851000D02*
X112395000Y-77851000D01*
X115443000Y-69215000D02*
X115443000Y-77851000D01*
X112395000Y-69215000D02*
X115443000Y-69215000D01*
G04 #@! TO.C,U1*
X126229000Y-79113000D02*
X127499000Y-79113000D01*
X126229000Y-71763000D02*
X127499000Y-71763000D01*
X163839000Y-71763000D02*
X162569000Y-71763000D01*
X163839000Y-79113000D02*
X162569000Y-79113000D01*
X126229000Y-79113000D02*
X126229000Y-71763000D01*
X163839000Y-79113000D02*
X163839000Y-71763000D01*
X127499000Y-79113000D02*
X127499000Y-80048000D01*
G04 #@! TD*
G04 #@! TO.C,7SEG1*
X129968904Y-57872380D02*
X130635571Y-57872380D01*
X130207000Y-58872380D01*
X130968904Y-58824761D02*
X131111761Y-58872380D01*
X131349857Y-58872380D01*
X131445095Y-58824761D01*
X131492714Y-58777142D01*
X131540333Y-58681904D01*
X131540333Y-58586666D01*
X131492714Y-58491428D01*
X131445095Y-58443809D01*
X131349857Y-58396190D01*
X131159380Y-58348571D01*
X131064142Y-58300952D01*
X131016523Y-58253333D01*
X130968904Y-58158095D01*
X130968904Y-58062857D01*
X131016523Y-57967619D01*
X131064142Y-57920000D01*
X131159380Y-57872380D01*
X131397476Y-57872380D01*
X131540333Y-57920000D01*
X131968904Y-58348571D02*
X132302238Y-58348571D01*
X132445095Y-58872380D02*
X131968904Y-58872380D01*
X131968904Y-57872380D01*
X132445095Y-57872380D01*
X133397476Y-57920000D02*
X133302238Y-57872380D01*
X133159380Y-57872380D01*
X133016523Y-57920000D01*
X132921285Y-58015238D01*
X132873666Y-58110476D01*
X132826047Y-58300952D01*
X132826047Y-58443809D01*
X132873666Y-58634285D01*
X132921285Y-58729523D01*
X133016523Y-58824761D01*
X133159380Y-58872380D01*
X133254619Y-58872380D01*
X133397476Y-58824761D01*
X133445095Y-58777142D01*
X133445095Y-58443809D01*
X133254619Y-58443809D01*
X134397476Y-58872380D02*
X133826047Y-58872380D01*
X134111761Y-58872380D02*
X134111761Y-57872380D01*
X134016523Y-58015238D01*
X133921285Y-58110476D01*
X133826047Y-58158095D01*
G04 #@! TO.C,7SEG2*
X157400904Y-57872380D02*
X158067571Y-57872380D01*
X157639000Y-58872380D01*
X158400904Y-58824761D02*
X158543761Y-58872380D01*
X158781857Y-58872380D01*
X158877095Y-58824761D01*
X158924714Y-58777142D01*
X158972333Y-58681904D01*
X158972333Y-58586666D01*
X158924714Y-58491428D01*
X158877095Y-58443809D01*
X158781857Y-58396190D01*
X158591380Y-58348571D01*
X158496142Y-58300952D01*
X158448523Y-58253333D01*
X158400904Y-58158095D01*
X158400904Y-58062857D01*
X158448523Y-57967619D01*
X158496142Y-57920000D01*
X158591380Y-57872380D01*
X158829476Y-57872380D01*
X158972333Y-57920000D01*
X159400904Y-58348571D02*
X159734238Y-58348571D01*
X159877095Y-58872380D02*
X159400904Y-58872380D01*
X159400904Y-57872380D01*
X159877095Y-57872380D01*
X160829476Y-57920000D02*
X160734238Y-57872380D01*
X160591380Y-57872380D01*
X160448523Y-57920000D01*
X160353285Y-58015238D01*
X160305666Y-58110476D01*
X160258047Y-58300952D01*
X160258047Y-58443809D01*
X160305666Y-58634285D01*
X160353285Y-58729523D01*
X160448523Y-58824761D01*
X160591380Y-58872380D01*
X160686619Y-58872380D01*
X160829476Y-58824761D01*
X160877095Y-58777142D01*
X160877095Y-58443809D01*
X160686619Y-58443809D01*
X161258047Y-57967619D02*
X161305666Y-57920000D01*
X161400904Y-57872380D01*
X161639000Y-57872380D01*
X161734238Y-57920000D01*
X161781857Y-57967619D01*
X161829476Y-58062857D01*
X161829476Y-58158095D01*
X161781857Y-58300952D01*
X161210428Y-58872380D01*
X161829476Y-58872380D01*
G04 #@! TO.C,C1*
X120221142Y-75624666D02*
X120268761Y-75672285D01*
X120316380Y-75815142D01*
X120316380Y-75910380D01*
X120268761Y-76053238D01*
X120173523Y-76148476D01*
X120078285Y-76196095D01*
X119887809Y-76243714D01*
X119744952Y-76243714D01*
X119554476Y-76196095D01*
X119459238Y-76148476D01*
X119364000Y-76053238D01*
X119316380Y-75910380D01*
X119316380Y-75815142D01*
X119364000Y-75672285D01*
X119411619Y-75624666D01*
X120316380Y-74672285D02*
X120316380Y-75243714D01*
X120316380Y-74958000D02*
X119316380Y-74958000D01*
X119459238Y-75053238D01*
X119554476Y-75148476D01*
X119602095Y-75243714D01*
G04 #@! TO.C,J1*
X172386666Y-65134380D02*
X172386666Y-65848666D01*
X172339047Y-65991523D01*
X172243809Y-66086761D01*
X172100952Y-66134380D01*
X172005714Y-66134380D01*
X173386666Y-66134380D02*
X172815238Y-66134380D01*
X173100952Y-66134380D02*
X173100952Y-65134380D01*
X173005714Y-65277238D01*
X172910476Y-65372476D01*
X172815238Y-65420095D01*
G04 #@! TO.C,R1*
X142962333Y-65775380D02*
X142629000Y-65299190D01*
X142390904Y-65775380D02*
X142390904Y-64775380D01*
X142771857Y-64775380D01*
X142867095Y-64823000D01*
X142914714Y-64870619D01*
X142962333Y-64965857D01*
X142962333Y-65108714D01*
X142914714Y-65203952D01*
X142867095Y-65251571D01*
X142771857Y-65299190D01*
X142390904Y-65299190D01*
X143914714Y-65775380D02*
X143343285Y-65775380D01*
X143629000Y-65775380D02*
X143629000Y-64775380D01*
X143533761Y-64918238D01*
X143438523Y-65013476D01*
X143343285Y-65061095D01*
G04 #@! TO.C,R2*
X158202333Y-65775380D02*
X157869000Y-65299190D01*
X157630904Y-65775380D02*
X157630904Y-64775380D01*
X158011857Y-64775380D01*
X158107095Y-64823000D01*
X158154714Y-64870619D01*
X158202333Y-64965857D01*
X158202333Y-65108714D01*
X158154714Y-65203952D01*
X158107095Y-65251571D01*
X158011857Y-65299190D01*
X157630904Y-65299190D01*
X158583285Y-64870619D02*
X158630904Y-64823000D01*
X158726142Y-64775380D01*
X158964238Y-64775380D01*
X159059476Y-64823000D01*
X159107095Y-64870619D01*
X159154714Y-64965857D01*
X159154714Y-65061095D01*
X159107095Y-65203952D01*
X158535666Y-65775380D01*
X159154714Y-65775380D01*
G04 #@! TO.C,R3*
X125817333Y-69495380D02*
X125484000Y-69019190D01*
X125245904Y-69495380D02*
X125245904Y-68495380D01*
X125626857Y-68495380D01*
X125722095Y-68543000D01*
X125769714Y-68590619D01*
X125817333Y-68685857D01*
X125817333Y-68828714D01*
X125769714Y-68923952D01*
X125722095Y-68971571D01*
X125626857Y-69019190D01*
X125245904Y-69019190D01*
X126150666Y-68495380D02*
X126769714Y-68495380D01*
X126436380Y-68876333D01*
X126579238Y-68876333D01*
X126674476Y-68923952D01*
X126722095Y-68971571D01*
X126769714Y-69066809D01*
X126769714Y-69304904D01*
X126722095Y-69400142D01*
X126674476Y-69447761D01*
X126579238Y-69495380D01*
X126293523Y-69495380D01*
X126198285Y-69447761D01*
X126150666Y-69400142D01*
G04 #@! TO.C,R4*
X148071380Y-56554666D02*
X147595190Y-56888000D01*
X148071380Y-57126095D02*
X147071380Y-57126095D01*
X147071380Y-56745142D01*
X147119000Y-56649904D01*
X147166619Y-56602285D01*
X147261857Y-56554666D01*
X147404714Y-56554666D01*
X147499952Y-56602285D01*
X147547571Y-56649904D01*
X147595190Y-56745142D01*
X147595190Y-57126095D01*
X147404714Y-55697523D02*
X148071380Y-55697523D01*
X147023761Y-55935619D02*
X147738047Y-56173714D01*
X147738047Y-55554666D01*
G04 #@! TO.C,R5*
X169788380Y-56554666D02*
X169312190Y-56888000D01*
X169788380Y-57126095D02*
X168788380Y-57126095D01*
X168788380Y-56745142D01*
X168836000Y-56649904D01*
X168883619Y-56602285D01*
X168978857Y-56554666D01*
X169121714Y-56554666D01*
X169216952Y-56602285D01*
X169264571Y-56649904D01*
X169312190Y-56745142D01*
X169312190Y-57126095D01*
X168788380Y-55649904D02*
X168788380Y-56126095D01*
X169264571Y-56173714D01*
X169216952Y-56126095D01*
X169169333Y-56030857D01*
X169169333Y-55792761D01*
X169216952Y-55697523D01*
X169264571Y-55649904D01*
X169359809Y-55602285D01*
X169597904Y-55602285D01*
X169693142Y-55649904D01*
X169740761Y-55697523D01*
X169788380Y-55792761D01*
X169788380Y-56030857D01*
X169740761Y-56126095D01*
X169693142Y-56173714D01*
G04 #@! TO.C,R6*
X142962333Y-49175380D02*
X142629000Y-48699190D01*
X142390904Y-49175380D02*
X142390904Y-48175380D01*
X142771857Y-48175380D01*
X142867095Y-48223000D01*
X142914714Y-48270619D01*
X142962333Y-48365857D01*
X142962333Y-48508714D01*
X142914714Y-48603952D01*
X142867095Y-48651571D01*
X142771857Y-48699190D01*
X142390904Y-48699190D01*
X143819476Y-48175380D02*
X143629000Y-48175380D01*
X143533761Y-48223000D01*
X143486142Y-48270619D01*
X143390904Y-48413476D01*
X143343285Y-48603952D01*
X143343285Y-48984904D01*
X143390904Y-49080142D01*
X143438523Y-49127761D01*
X143533761Y-49175380D01*
X143724238Y-49175380D01*
X143819476Y-49127761D01*
X143867095Y-49080142D01*
X143914714Y-48984904D01*
X143914714Y-48746809D01*
X143867095Y-48651571D01*
X143819476Y-48603952D01*
X143724238Y-48556333D01*
X143533761Y-48556333D01*
X143438523Y-48603952D01*
X143390904Y-48651571D01*
X143343285Y-48746809D01*
G04 #@! TO.C,R7*
X124547333Y-49175380D02*
X124214000Y-48699190D01*
X123975904Y-49175380D02*
X123975904Y-48175380D01*
X124356857Y-48175380D01*
X124452095Y-48223000D01*
X124499714Y-48270619D01*
X124547333Y-48365857D01*
X124547333Y-48508714D01*
X124499714Y-48603952D01*
X124452095Y-48651571D01*
X124356857Y-48699190D01*
X123975904Y-48699190D01*
X124880666Y-48175380D02*
X125547333Y-48175380D01*
X125118761Y-49175380D01*
G04 #@! TO.C,R8*
X116104380Y-60872666D02*
X115628190Y-61206000D01*
X116104380Y-61444095D02*
X115104380Y-61444095D01*
X115104380Y-61063142D01*
X115152000Y-60967904D01*
X115199619Y-60920285D01*
X115294857Y-60872666D01*
X115437714Y-60872666D01*
X115532952Y-60920285D01*
X115580571Y-60967904D01*
X115628190Y-61063142D01*
X115628190Y-61444095D01*
X115532952Y-60301238D02*
X115485333Y-60396476D01*
X115437714Y-60444095D01*
X115342476Y-60491714D01*
X115294857Y-60491714D01*
X115199619Y-60444095D01*
X115152000Y-60396476D01*
X115104380Y-60301238D01*
X115104380Y-60110761D01*
X115152000Y-60015523D01*
X115199619Y-59967904D01*
X115294857Y-59920285D01*
X115342476Y-59920285D01*
X115437714Y-59967904D01*
X115485333Y-60015523D01*
X115532952Y-60110761D01*
X115532952Y-60301238D01*
X115580571Y-60396476D01*
X115628190Y-60444095D01*
X115723428Y-60491714D01*
X115913904Y-60491714D01*
X116009142Y-60444095D01*
X116056761Y-60396476D01*
X116104380Y-60301238D01*
X116104380Y-60110761D01*
X116056761Y-60015523D01*
X116009142Y-59967904D01*
X115913904Y-59920285D01*
X115723428Y-59920285D01*
X115628190Y-59967904D01*
X115580571Y-60015523D01*
X115532952Y-60110761D01*
G04 #@! TO.C,SW1*
X116421066Y-90269961D02*
X116563923Y-90317580D01*
X116802019Y-90317580D01*
X116897257Y-90269961D01*
X116944876Y-90222342D01*
X116992495Y-90127104D01*
X116992495Y-90031866D01*
X116944876Y-89936628D01*
X116897257Y-89889009D01*
X116802019Y-89841390D01*
X116611542Y-89793771D01*
X116516304Y-89746152D01*
X116468685Y-89698533D01*
X116421066Y-89603295D01*
X116421066Y-89508057D01*
X116468685Y-89412819D01*
X116516304Y-89365200D01*
X116611542Y-89317580D01*
X116849638Y-89317580D01*
X116992495Y-89365200D01*
X117325828Y-89317580D02*
X117563923Y-90317580D01*
X117754400Y-89603295D01*
X117944876Y-90317580D01*
X118182971Y-89317580D01*
X119087733Y-90317580D02*
X118516304Y-90317580D01*
X118802019Y-90317580D02*
X118802019Y-89317580D01*
X118706780Y-89460438D01*
X118611542Y-89555676D01*
X118516304Y-89603295D01*
G04 #@! TO.C,SW2*
X116421066Y-103914961D02*
X116563923Y-103962580D01*
X116802019Y-103962580D01*
X116897257Y-103914961D01*
X116944876Y-103867342D01*
X116992495Y-103772104D01*
X116992495Y-103676866D01*
X116944876Y-103581628D01*
X116897257Y-103534009D01*
X116802019Y-103486390D01*
X116611542Y-103438771D01*
X116516304Y-103391152D01*
X116468685Y-103343533D01*
X116421066Y-103248295D01*
X116421066Y-103153057D01*
X116468685Y-103057819D01*
X116516304Y-103010200D01*
X116611542Y-102962580D01*
X116849638Y-102962580D01*
X116992495Y-103010200D01*
X117325828Y-102962580D02*
X117563923Y-103962580D01*
X117754400Y-103248295D01*
X117944876Y-103962580D01*
X118182971Y-102962580D01*
X118516304Y-103057819D02*
X118563923Y-103010200D01*
X118659161Y-102962580D01*
X118897257Y-102962580D01*
X118992495Y-103010200D01*
X119040114Y-103057819D01*
X119087733Y-103153057D01*
X119087733Y-103248295D01*
X119040114Y-103391152D01*
X118468685Y-103962580D01*
X119087733Y-103962580D01*
G04 #@! TO.C,SW3*
X116421066Y-117574961D02*
X116563923Y-117622580D01*
X116802019Y-117622580D01*
X116897257Y-117574961D01*
X116944876Y-117527342D01*
X116992495Y-117432104D01*
X116992495Y-117336866D01*
X116944876Y-117241628D01*
X116897257Y-117194009D01*
X116802019Y-117146390D01*
X116611542Y-117098771D01*
X116516304Y-117051152D01*
X116468685Y-117003533D01*
X116421066Y-116908295D01*
X116421066Y-116813057D01*
X116468685Y-116717819D01*
X116516304Y-116670200D01*
X116611542Y-116622580D01*
X116849638Y-116622580D01*
X116992495Y-116670200D01*
X117325828Y-116622580D02*
X117563923Y-117622580D01*
X117754400Y-116908295D01*
X117944876Y-117622580D01*
X118182971Y-116622580D01*
X118468685Y-116622580D02*
X119087733Y-116622580D01*
X118754400Y-117003533D01*
X118897257Y-117003533D01*
X118992495Y-117051152D01*
X119040114Y-117098771D01*
X119087733Y-117194009D01*
X119087733Y-117432104D01*
X119040114Y-117527342D01*
X118992495Y-117574961D01*
X118897257Y-117622580D01*
X118611542Y-117622580D01*
X118516304Y-117574961D01*
X118468685Y-117527342D01*
G04 #@! TO.C,SW4*
X116421066Y-130909961D02*
X116563923Y-130957580D01*
X116802019Y-130957580D01*
X116897257Y-130909961D01*
X116944876Y-130862342D01*
X116992495Y-130767104D01*
X116992495Y-130671866D01*
X116944876Y-130576628D01*
X116897257Y-130529009D01*
X116802019Y-130481390D01*
X116611542Y-130433771D01*
X116516304Y-130386152D01*
X116468685Y-130338533D01*
X116421066Y-130243295D01*
X116421066Y-130148057D01*
X116468685Y-130052819D01*
X116516304Y-130005200D01*
X116611542Y-129957580D01*
X116849638Y-129957580D01*
X116992495Y-130005200D01*
X117325828Y-129957580D02*
X117563923Y-130957580D01*
X117754400Y-130243295D01*
X117944876Y-130957580D01*
X118182971Y-129957580D01*
X118992495Y-130290914D02*
X118992495Y-130957580D01*
X118754400Y-129909961D02*
X118516304Y-130624247D01*
X119135352Y-130624247D01*
G04 #@! TO.C,SW5*
X128486066Y-90269961D02*
X128628923Y-90317580D01*
X128867019Y-90317580D01*
X128962257Y-90269961D01*
X129009876Y-90222342D01*
X129057495Y-90127104D01*
X129057495Y-90031866D01*
X129009876Y-89936628D01*
X128962257Y-89889009D01*
X128867019Y-89841390D01*
X128676542Y-89793771D01*
X128581304Y-89746152D01*
X128533685Y-89698533D01*
X128486066Y-89603295D01*
X128486066Y-89508057D01*
X128533685Y-89412819D01*
X128581304Y-89365200D01*
X128676542Y-89317580D01*
X128914638Y-89317580D01*
X129057495Y-89365200D01*
X129390828Y-89317580D02*
X129628923Y-90317580D01*
X129819400Y-89603295D01*
X130009876Y-90317580D01*
X130247971Y-89317580D01*
X131105114Y-89317580D02*
X130628923Y-89317580D01*
X130581304Y-89793771D01*
X130628923Y-89746152D01*
X130724161Y-89698533D01*
X130962257Y-89698533D01*
X131057495Y-89746152D01*
X131105114Y-89793771D01*
X131152733Y-89889009D01*
X131152733Y-90127104D01*
X131105114Y-90222342D01*
X131057495Y-90269961D01*
X130962257Y-90317580D01*
X130724161Y-90317580D01*
X130628923Y-90269961D01*
X130581304Y-90222342D01*
G04 #@! TO.C,SW6*
X128486066Y-103914961D02*
X128628923Y-103962580D01*
X128867019Y-103962580D01*
X128962257Y-103914961D01*
X129009876Y-103867342D01*
X129057495Y-103772104D01*
X129057495Y-103676866D01*
X129009876Y-103581628D01*
X128962257Y-103534009D01*
X128867019Y-103486390D01*
X128676542Y-103438771D01*
X128581304Y-103391152D01*
X128533685Y-103343533D01*
X128486066Y-103248295D01*
X128486066Y-103153057D01*
X128533685Y-103057819D01*
X128581304Y-103010200D01*
X128676542Y-102962580D01*
X128914638Y-102962580D01*
X129057495Y-103010200D01*
X129390828Y-102962580D02*
X129628923Y-103962580D01*
X129819400Y-103248295D01*
X130009876Y-103962580D01*
X130247971Y-102962580D01*
X131057495Y-102962580D02*
X130867019Y-102962580D01*
X130771780Y-103010200D01*
X130724161Y-103057819D01*
X130628923Y-103200676D01*
X130581304Y-103391152D01*
X130581304Y-103772104D01*
X130628923Y-103867342D01*
X130676542Y-103914961D01*
X130771780Y-103962580D01*
X130962257Y-103962580D01*
X131057495Y-103914961D01*
X131105114Y-103867342D01*
X131152733Y-103772104D01*
X131152733Y-103534009D01*
X131105114Y-103438771D01*
X131057495Y-103391152D01*
X130962257Y-103343533D01*
X130771780Y-103343533D01*
X130676542Y-103391152D01*
X130628923Y-103438771D01*
X130581304Y-103534009D01*
G04 #@! TO.C,SW7*
X128486066Y-117574961D02*
X128628923Y-117622580D01*
X128867019Y-117622580D01*
X128962257Y-117574961D01*
X129009876Y-117527342D01*
X129057495Y-117432104D01*
X129057495Y-117336866D01*
X129009876Y-117241628D01*
X128962257Y-117194009D01*
X128867019Y-117146390D01*
X128676542Y-117098771D01*
X128581304Y-117051152D01*
X128533685Y-117003533D01*
X128486066Y-116908295D01*
X128486066Y-116813057D01*
X128533685Y-116717819D01*
X128581304Y-116670200D01*
X128676542Y-116622580D01*
X128914638Y-116622580D01*
X129057495Y-116670200D01*
X129390828Y-116622580D02*
X129628923Y-117622580D01*
X129819400Y-116908295D01*
X130009876Y-117622580D01*
X130247971Y-116622580D01*
X130533685Y-116622580D02*
X131200352Y-116622580D01*
X130771780Y-117622580D01*
G04 #@! TO.C,SW8*
X128486066Y-130909961D02*
X128628923Y-130957580D01*
X128867019Y-130957580D01*
X128962257Y-130909961D01*
X129009876Y-130862342D01*
X129057495Y-130767104D01*
X129057495Y-130671866D01*
X129009876Y-130576628D01*
X128962257Y-130529009D01*
X128867019Y-130481390D01*
X128676542Y-130433771D01*
X128581304Y-130386152D01*
X128533685Y-130338533D01*
X128486066Y-130243295D01*
X128486066Y-130148057D01*
X128533685Y-130052819D01*
X128581304Y-130005200D01*
X128676542Y-129957580D01*
X128914638Y-129957580D01*
X129057495Y-130005200D01*
X129390828Y-129957580D02*
X129628923Y-130957580D01*
X129819400Y-130243295D01*
X130009876Y-130957580D01*
X130247971Y-129957580D01*
X130771780Y-130386152D02*
X130676542Y-130338533D01*
X130628923Y-130290914D01*
X130581304Y-130195676D01*
X130581304Y-130148057D01*
X130628923Y-130052819D01*
X130676542Y-130005200D01*
X130771780Y-129957580D01*
X130962257Y-129957580D01*
X131057495Y-130005200D01*
X131105114Y-130052819D01*
X131152733Y-130148057D01*
X131152733Y-130195676D01*
X131105114Y-130290914D01*
X131057495Y-130338533D01*
X130962257Y-130386152D01*
X130771780Y-130386152D01*
X130676542Y-130433771D01*
X130628923Y-130481390D01*
X130581304Y-130576628D01*
X130581304Y-130767104D01*
X130628923Y-130862342D01*
X130676542Y-130909961D01*
X130771780Y-130957580D01*
X130962257Y-130957580D01*
X131057495Y-130909961D01*
X131105114Y-130862342D01*
X131152733Y-130767104D01*
X131152733Y-130576628D01*
X131105114Y-130481390D01*
X131057495Y-130433771D01*
X130962257Y-130386152D01*
G04 #@! TO.C,SW9*
X140551066Y-90269961D02*
X140693923Y-90317580D01*
X140932019Y-90317580D01*
X141027257Y-90269961D01*
X141074876Y-90222342D01*
X141122495Y-90127104D01*
X141122495Y-90031866D01*
X141074876Y-89936628D01*
X141027257Y-89889009D01*
X140932019Y-89841390D01*
X140741542Y-89793771D01*
X140646304Y-89746152D01*
X140598685Y-89698533D01*
X140551066Y-89603295D01*
X140551066Y-89508057D01*
X140598685Y-89412819D01*
X140646304Y-89365200D01*
X140741542Y-89317580D01*
X140979638Y-89317580D01*
X141122495Y-89365200D01*
X141455828Y-89317580D02*
X141693923Y-90317580D01*
X141884400Y-89603295D01*
X142074876Y-90317580D01*
X142312971Y-89317580D01*
X142741542Y-90317580D02*
X142932019Y-90317580D01*
X143027257Y-90269961D01*
X143074876Y-90222342D01*
X143170114Y-90079485D01*
X143217733Y-89889009D01*
X143217733Y-89508057D01*
X143170114Y-89412819D01*
X143122495Y-89365200D01*
X143027257Y-89317580D01*
X142836780Y-89317580D01*
X142741542Y-89365200D01*
X142693923Y-89412819D01*
X142646304Y-89508057D01*
X142646304Y-89746152D01*
X142693923Y-89841390D01*
X142741542Y-89889009D01*
X142836780Y-89936628D01*
X143027257Y-89936628D01*
X143122495Y-89889009D01*
X143170114Y-89841390D01*
X143217733Y-89746152D01*
G04 #@! TO.C,SW10*
X140074876Y-103914961D02*
X140217733Y-103962580D01*
X140455828Y-103962580D01*
X140551066Y-103914961D01*
X140598685Y-103867342D01*
X140646304Y-103772104D01*
X140646304Y-103676866D01*
X140598685Y-103581628D01*
X140551066Y-103534009D01*
X140455828Y-103486390D01*
X140265352Y-103438771D01*
X140170114Y-103391152D01*
X140122495Y-103343533D01*
X140074876Y-103248295D01*
X140074876Y-103153057D01*
X140122495Y-103057819D01*
X140170114Y-103010200D01*
X140265352Y-102962580D01*
X140503447Y-102962580D01*
X140646304Y-103010200D01*
X140979638Y-102962580D02*
X141217733Y-103962580D01*
X141408209Y-103248295D01*
X141598685Y-103962580D01*
X141836780Y-102962580D01*
X142741542Y-103962580D02*
X142170114Y-103962580D01*
X142455828Y-103962580D02*
X142455828Y-102962580D01*
X142360590Y-103105438D01*
X142265352Y-103200676D01*
X142170114Y-103248295D01*
X143360590Y-102962580D02*
X143455828Y-102962580D01*
X143551066Y-103010200D01*
X143598685Y-103057819D01*
X143646304Y-103153057D01*
X143693923Y-103343533D01*
X143693923Y-103581628D01*
X143646304Y-103772104D01*
X143598685Y-103867342D01*
X143551066Y-103914961D01*
X143455828Y-103962580D01*
X143360590Y-103962580D01*
X143265352Y-103914961D01*
X143217733Y-103867342D01*
X143170114Y-103772104D01*
X143122495Y-103581628D01*
X143122495Y-103343533D01*
X143170114Y-103153057D01*
X143217733Y-103057819D01*
X143265352Y-103010200D01*
X143360590Y-102962580D01*
G04 #@! TO.C,SW11*
X140074876Y-117574961D02*
X140217733Y-117622580D01*
X140455828Y-117622580D01*
X140551066Y-117574961D01*
X140598685Y-117527342D01*
X140646304Y-117432104D01*
X140646304Y-117336866D01*
X140598685Y-117241628D01*
X140551066Y-117194009D01*
X140455828Y-117146390D01*
X140265352Y-117098771D01*
X140170114Y-117051152D01*
X140122495Y-117003533D01*
X140074876Y-116908295D01*
X140074876Y-116813057D01*
X140122495Y-116717819D01*
X140170114Y-116670200D01*
X140265352Y-116622580D01*
X140503447Y-116622580D01*
X140646304Y-116670200D01*
X140979638Y-116622580D02*
X141217733Y-117622580D01*
X141408209Y-116908295D01*
X141598685Y-117622580D01*
X141836780Y-116622580D01*
X142741542Y-117622580D02*
X142170114Y-117622580D01*
X142455828Y-117622580D02*
X142455828Y-116622580D01*
X142360590Y-116765438D01*
X142265352Y-116860676D01*
X142170114Y-116908295D01*
X143693923Y-117622580D02*
X143122495Y-117622580D01*
X143408209Y-117622580D02*
X143408209Y-116622580D01*
X143312971Y-116765438D01*
X143217733Y-116860676D01*
X143122495Y-116908295D01*
G04 #@! TO.C,SW12*
X140074876Y-130909961D02*
X140217733Y-130957580D01*
X140455828Y-130957580D01*
X140551066Y-130909961D01*
X140598685Y-130862342D01*
X140646304Y-130767104D01*
X140646304Y-130671866D01*
X140598685Y-130576628D01*
X140551066Y-130529009D01*
X140455828Y-130481390D01*
X140265352Y-130433771D01*
X140170114Y-130386152D01*
X140122495Y-130338533D01*
X140074876Y-130243295D01*
X140074876Y-130148057D01*
X140122495Y-130052819D01*
X140170114Y-130005200D01*
X140265352Y-129957580D01*
X140503447Y-129957580D01*
X140646304Y-130005200D01*
X140979638Y-129957580D02*
X141217733Y-130957580D01*
X141408209Y-130243295D01*
X141598685Y-130957580D01*
X141836780Y-129957580D01*
X142741542Y-130957580D02*
X142170114Y-130957580D01*
X142455828Y-130957580D02*
X142455828Y-129957580D01*
X142360590Y-130100438D01*
X142265352Y-130195676D01*
X142170114Y-130243295D01*
X143122495Y-130052819D02*
X143170114Y-130005200D01*
X143265352Y-129957580D01*
X143503447Y-129957580D01*
X143598685Y-130005200D01*
X143646304Y-130052819D01*
X143693923Y-130148057D01*
X143693923Y-130243295D01*
X143646304Y-130386152D01*
X143074876Y-130957580D01*
X143693923Y-130957580D01*
G04 #@! TO.C,SW13*
X152139876Y-90269961D02*
X152282733Y-90317580D01*
X152520828Y-90317580D01*
X152616066Y-90269961D01*
X152663685Y-90222342D01*
X152711304Y-90127104D01*
X152711304Y-90031866D01*
X152663685Y-89936628D01*
X152616066Y-89889009D01*
X152520828Y-89841390D01*
X152330352Y-89793771D01*
X152235114Y-89746152D01*
X152187495Y-89698533D01*
X152139876Y-89603295D01*
X152139876Y-89508057D01*
X152187495Y-89412819D01*
X152235114Y-89365200D01*
X152330352Y-89317580D01*
X152568447Y-89317580D01*
X152711304Y-89365200D01*
X153044638Y-89317580D02*
X153282733Y-90317580D01*
X153473209Y-89603295D01*
X153663685Y-90317580D01*
X153901780Y-89317580D01*
X154806542Y-90317580D02*
X154235114Y-90317580D01*
X154520828Y-90317580D02*
X154520828Y-89317580D01*
X154425590Y-89460438D01*
X154330352Y-89555676D01*
X154235114Y-89603295D01*
X155139876Y-89317580D02*
X155758923Y-89317580D01*
X155425590Y-89698533D01*
X155568447Y-89698533D01*
X155663685Y-89746152D01*
X155711304Y-89793771D01*
X155758923Y-89889009D01*
X155758923Y-90127104D01*
X155711304Y-90222342D01*
X155663685Y-90269961D01*
X155568447Y-90317580D01*
X155282733Y-90317580D01*
X155187495Y-90269961D01*
X155139876Y-90222342D01*
G04 #@! TO.C,SW14*
X152139876Y-103914961D02*
X152282733Y-103962580D01*
X152520828Y-103962580D01*
X152616066Y-103914961D01*
X152663685Y-103867342D01*
X152711304Y-103772104D01*
X152711304Y-103676866D01*
X152663685Y-103581628D01*
X152616066Y-103534009D01*
X152520828Y-103486390D01*
X152330352Y-103438771D01*
X152235114Y-103391152D01*
X152187495Y-103343533D01*
X152139876Y-103248295D01*
X152139876Y-103153057D01*
X152187495Y-103057819D01*
X152235114Y-103010200D01*
X152330352Y-102962580D01*
X152568447Y-102962580D01*
X152711304Y-103010200D01*
X153044638Y-102962580D02*
X153282733Y-103962580D01*
X153473209Y-103248295D01*
X153663685Y-103962580D01*
X153901780Y-102962580D01*
X154806542Y-103962580D02*
X154235114Y-103962580D01*
X154520828Y-103962580D02*
X154520828Y-102962580D01*
X154425590Y-103105438D01*
X154330352Y-103200676D01*
X154235114Y-103248295D01*
X155663685Y-103295914D02*
X155663685Y-103962580D01*
X155425590Y-102914961D02*
X155187495Y-103629247D01*
X155806542Y-103629247D01*
G04 #@! TO.C,SW15*
X152139876Y-117574961D02*
X152282733Y-117622580D01*
X152520828Y-117622580D01*
X152616066Y-117574961D01*
X152663685Y-117527342D01*
X152711304Y-117432104D01*
X152711304Y-117336866D01*
X152663685Y-117241628D01*
X152616066Y-117194009D01*
X152520828Y-117146390D01*
X152330352Y-117098771D01*
X152235114Y-117051152D01*
X152187495Y-117003533D01*
X152139876Y-116908295D01*
X152139876Y-116813057D01*
X152187495Y-116717819D01*
X152235114Y-116670200D01*
X152330352Y-116622580D01*
X152568447Y-116622580D01*
X152711304Y-116670200D01*
X153044638Y-116622580D02*
X153282733Y-117622580D01*
X153473209Y-116908295D01*
X153663685Y-117622580D01*
X153901780Y-116622580D01*
X154806542Y-117622580D02*
X154235114Y-117622580D01*
X154520828Y-117622580D02*
X154520828Y-116622580D01*
X154425590Y-116765438D01*
X154330352Y-116860676D01*
X154235114Y-116908295D01*
X155711304Y-116622580D02*
X155235114Y-116622580D01*
X155187495Y-117098771D01*
X155235114Y-117051152D01*
X155330352Y-117003533D01*
X155568447Y-117003533D01*
X155663685Y-117051152D01*
X155711304Y-117098771D01*
X155758923Y-117194009D01*
X155758923Y-117432104D01*
X155711304Y-117527342D01*
X155663685Y-117574961D01*
X155568447Y-117622580D01*
X155330352Y-117622580D01*
X155235114Y-117574961D01*
X155187495Y-117527342D01*
G04 #@! TO.C,SW16*
X152139876Y-130909961D02*
X152282733Y-130957580D01*
X152520828Y-130957580D01*
X152616066Y-130909961D01*
X152663685Y-130862342D01*
X152711304Y-130767104D01*
X152711304Y-130671866D01*
X152663685Y-130576628D01*
X152616066Y-130529009D01*
X152520828Y-130481390D01*
X152330352Y-130433771D01*
X152235114Y-130386152D01*
X152187495Y-130338533D01*
X152139876Y-130243295D01*
X152139876Y-130148057D01*
X152187495Y-130052819D01*
X152235114Y-130005200D01*
X152330352Y-129957580D01*
X152568447Y-129957580D01*
X152711304Y-130005200D01*
X153044638Y-129957580D02*
X153282733Y-130957580D01*
X153473209Y-130243295D01*
X153663685Y-130957580D01*
X153901780Y-129957580D01*
X154806542Y-130957580D02*
X154235114Y-130957580D01*
X154520828Y-130957580D02*
X154520828Y-129957580D01*
X154425590Y-130100438D01*
X154330352Y-130195676D01*
X154235114Y-130243295D01*
X155663685Y-129957580D02*
X155473209Y-129957580D01*
X155377971Y-130005200D01*
X155330352Y-130052819D01*
X155235114Y-130195676D01*
X155187495Y-130386152D01*
X155187495Y-130767104D01*
X155235114Y-130862342D01*
X155282733Y-130909961D01*
X155377971Y-130957580D01*
X155568447Y-130957580D01*
X155663685Y-130909961D01*
X155711304Y-130862342D01*
X155758923Y-130767104D01*
X155758923Y-130529009D01*
X155711304Y-130433771D01*
X155663685Y-130386152D01*
X155568447Y-130338533D01*
X155377971Y-130338533D01*
X155282733Y-130386152D01*
X155235114Y-130433771D01*
X155187495Y-130529009D01*
G04 #@! TO.C,SW17*
X166744876Y-90269961D02*
X166887733Y-90317580D01*
X167125828Y-90317580D01*
X167221066Y-90269961D01*
X167268685Y-90222342D01*
X167316304Y-90127104D01*
X167316304Y-90031866D01*
X167268685Y-89936628D01*
X167221066Y-89889009D01*
X167125828Y-89841390D01*
X166935352Y-89793771D01*
X166840114Y-89746152D01*
X166792495Y-89698533D01*
X166744876Y-89603295D01*
X166744876Y-89508057D01*
X166792495Y-89412819D01*
X166840114Y-89365200D01*
X166935352Y-89317580D01*
X167173447Y-89317580D01*
X167316304Y-89365200D01*
X167649638Y-89317580D02*
X167887733Y-90317580D01*
X168078209Y-89603295D01*
X168268685Y-90317580D01*
X168506780Y-89317580D01*
X169411542Y-90317580D02*
X168840114Y-90317580D01*
X169125828Y-90317580D02*
X169125828Y-89317580D01*
X169030590Y-89460438D01*
X168935352Y-89555676D01*
X168840114Y-89603295D01*
X169744876Y-89317580D02*
X170411542Y-89317580D01*
X169982971Y-90317580D01*
G04 #@! TO.C,SW18*
X166744876Y-103914961D02*
X166887733Y-103962580D01*
X167125828Y-103962580D01*
X167221066Y-103914961D01*
X167268685Y-103867342D01*
X167316304Y-103772104D01*
X167316304Y-103676866D01*
X167268685Y-103581628D01*
X167221066Y-103534009D01*
X167125828Y-103486390D01*
X166935352Y-103438771D01*
X166840114Y-103391152D01*
X166792495Y-103343533D01*
X166744876Y-103248295D01*
X166744876Y-103153057D01*
X166792495Y-103057819D01*
X166840114Y-103010200D01*
X166935352Y-102962580D01*
X167173447Y-102962580D01*
X167316304Y-103010200D01*
X167649638Y-102962580D02*
X167887733Y-103962580D01*
X168078209Y-103248295D01*
X168268685Y-103962580D01*
X168506780Y-102962580D01*
X169411542Y-103962580D02*
X168840114Y-103962580D01*
X169125828Y-103962580D02*
X169125828Y-102962580D01*
X169030590Y-103105438D01*
X168935352Y-103200676D01*
X168840114Y-103248295D01*
X169982971Y-103391152D02*
X169887733Y-103343533D01*
X169840114Y-103295914D01*
X169792495Y-103200676D01*
X169792495Y-103153057D01*
X169840114Y-103057819D01*
X169887733Y-103010200D01*
X169982971Y-102962580D01*
X170173447Y-102962580D01*
X170268685Y-103010200D01*
X170316304Y-103057819D01*
X170363923Y-103153057D01*
X170363923Y-103200676D01*
X170316304Y-103295914D01*
X170268685Y-103343533D01*
X170173447Y-103391152D01*
X169982971Y-103391152D01*
X169887733Y-103438771D01*
X169840114Y-103486390D01*
X169792495Y-103581628D01*
X169792495Y-103772104D01*
X169840114Y-103867342D01*
X169887733Y-103914961D01*
X169982971Y-103962580D01*
X170173447Y-103962580D01*
X170268685Y-103914961D01*
X170316304Y-103867342D01*
X170363923Y-103772104D01*
X170363923Y-103581628D01*
X170316304Y-103486390D01*
X170268685Y-103438771D01*
X170173447Y-103391152D01*
G04 #@! TO.C,SW19*
X166744876Y-117574961D02*
X166887733Y-117622580D01*
X167125828Y-117622580D01*
X167221066Y-117574961D01*
X167268685Y-117527342D01*
X167316304Y-117432104D01*
X167316304Y-117336866D01*
X167268685Y-117241628D01*
X167221066Y-117194009D01*
X167125828Y-117146390D01*
X166935352Y-117098771D01*
X166840114Y-117051152D01*
X166792495Y-117003533D01*
X166744876Y-116908295D01*
X166744876Y-116813057D01*
X166792495Y-116717819D01*
X166840114Y-116670200D01*
X166935352Y-116622580D01*
X167173447Y-116622580D01*
X167316304Y-116670200D01*
X167649638Y-116622580D02*
X167887733Y-117622580D01*
X168078209Y-116908295D01*
X168268685Y-117622580D01*
X168506780Y-116622580D01*
X169411542Y-117622580D02*
X168840114Y-117622580D01*
X169125828Y-117622580D02*
X169125828Y-116622580D01*
X169030590Y-116765438D01*
X168935352Y-116860676D01*
X168840114Y-116908295D01*
X169887733Y-117622580D02*
X170078209Y-117622580D01*
X170173447Y-117574961D01*
X170221066Y-117527342D01*
X170316304Y-117384485D01*
X170363923Y-117194009D01*
X170363923Y-116813057D01*
X170316304Y-116717819D01*
X170268685Y-116670200D01*
X170173447Y-116622580D01*
X169982971Y-116622580D01*
X169887733Y-116670200D01*
X169840114Y-116717819D01*
X169792495Y-116813057D01*
X169792495Y-117051152D01*
X169840114Y-117146390D01*
X169887733Y-117194009D01*
X169982971Y-117241628D01*
X170173447Y-117241628D01*
X170268685Y-117194009D01*
X170316304Y-117146390D01*
X170363923Y-117051152D01*
G04 #@! TO.C,SW20*
X166744876Y-130909961D02*
X166887733Y-130957580D01*
X167125828Y-130957580D01*
X167221066Y-130909961D01*
X167268685Y-130862342D01*
X167316304Y-130767104D01*
X167316304Y-130671866D01*
X167268685Y-130576628D01*
X167221066Y-130529009D01*
X167125828Y-130481390D01*
X166935352Y-130433771D01*
X166840114Y-130386152D01*
X166792495Y-130338533D01*
X166744876Y-130243295D01*
X166744876Y-130148057D01*
X166792495Y-130052819D01*
X166840114Y-130005200D01*
X166935352Y-129957580D01*
X167173447Y-129957580D01*
X167316304Y-130005200D01*
X167649638Y-129957580D02*
X167887733Y-130957580D01*
X168078209Y-130243295D01*
X168268685Y-130957580D01*
X168506780Y-129957580D01*
X168840114Y-130052819D02*
X168887733Y-130005200D01*
X168982971Y-129957580D01*
X169221066Y-129957580D01*
X169316304Y-130005200D01*
X169363923Y-130052819D01*
X169411542Y-130148057D01*
X169411542Y-130243295D01*
X169363923Y-130386152D01*
X168792495Y-130957580D01*
X169411542Y-130957580D01*
X170030590Y-129957580D02*
X170125828Y-129957580D01*
X170221066Y-130005200D01*
X170268685Y-130052819D01*
X170316304Y-130148057D01*
X170363923Y-130338533D01*
X170363923Y-130576628D01*
X170316304Y-130767104D01*
X170268685Y-130862342D01*
X170221066Y-130909961D01*
X170125828Y-130957580D01*
X170030590Y-130957580D01*
X169935352Y-130909961D01*
X169887733Y-130862342D01*
X169840114Y-130767104D01*
X169792495Y-130576628D01*
X169792495Y-130338533D01*
X169840114Y-130148057D01*
X169887733Y-130052819D01*
X169935352Y-130005200D01*
X170030590Y-129957580D01*
G04 #@! TO.C,SW21*
X112037761Y-74834523D02*
X112085380Y-74691666D01*
X112085380Y-74453571D01*
X112037761Y-74358333D01*
X111990142Y-74310714D01*
X111894904Y-74263095D01*
X111799666Y-74263095D01*
X111704428Y-74310714D01*
X111656809Y-74358333D01*
X111609190Y-74453571D01*
X111561571Y-74644047D01*
X111513952Y-74739285D01*
X111466333Y-74786904D01*
X111371095Y-74834523D01*
X111275857Y-74834523D01*
X111180619Y-74786904D01*
X111133000Y-74739285D01*
X111085380Y-74644047D01*
X111085380Y-74405952D01*
X111133000Y-74263095D01*
X111085380Y-73929761D02*
X112085380Y-73691666D01*
X111371095Y-73501190D01*
X112085380Y-73310714D01*
X111085380Y-73072619D01*
X111180619Y-72739285D02*
X111133000Y-72691666D01*
X111085380Y-72596428D01*
X111085380Y-72358333D01*
X111133000Y-72263095D01*
X111180619Y-72215476D01*
X111275857Y-72167857D01*
X111371095Y-72167857D01*
X111513952Y-72215476D01*
X112085380Y-72786904D01*
X112085380Y-72167857D01*
X112085380Y-71215476D02*
X112085380Y-71786904D01*
X112085380Y-71501190D02*
X111085380Y-71501190D01*
X111228238Y-71596428D01*
X111323476Y-71691666D01*
X111371095Y-71786904D01*
G04 #@! TO.C,U1*
X143637095Y-76160380D02*
X143637095Y-76969904D01*
X143684714Y-77065142D01*
X143732333Y-77112761D01*
X143827571Y-77160380D01*
X144018047Y-77160380D01*
X144113285Y-77112761D01*
X144160904Y-77065142D01*
X144208523Y-76969904D01*
X144208523Y-76160380D01*
X145208523Y-77160380D02*
X144637095Y-77160380D01*
X144922809Y-77160380D02*
X144922809Y-76160380D01*
X144827571Y-76303238D01*
X144732333Y-76398476D01*
X144637095Y-76446095D01*
G04 #@! TD*
M02*
