G04 #@! TF.GenerationSoftware,KiCad,Pcbnew,(5.0.1-3-g963ef8bb5)*
G04 #@! TF.CreationDate,2018-12-12T19:15:58+01:00*
G04 #@! TF.ProjectId,kim-uno-rev1,6B696D2D756E6F2D726576312E6B6963,1*
G04 #@! TF.SameCoordinates,Original*
G04 #@! TF.FileFunction,Legend,Bot*
G04 #@! TF.FilePolarity,Positive*
%FSLAX46Y46*%
G04 Gerber Fmt 4.6, Leading zero omitted, Abs format (unit mm)*
G04 Created by KiCad (PCBNEW (5.0.1-3-g963ef8bb5)) date Wednesday, 12 December 2018 at 19:15:58*
%MOMM*%
%LPD*%
G01*
G04 APERTURE LIST*
%ADD10C,0.150000*%
G04 APERTURE END LIST*
D10*
G04 #@! TO.C,BT1*
X155130500Y-135128000D02*
X155130500Y-127127000D01*
X161480500Y-135128000D02*
X155130500Y-135128000D01*
X161480500Y-127254000D02*
X161480500Y-135128000D01*
X155829000Y-127381000D02*
X155829000Y-134493000D01*
X160909000Y-134493000D02*
X155829000Y-134493000D01*
X160909000Y-127381000D02*
X160909000Y-134493000D01*
X154559000Y-101473000D02*
X153289000Y-101473000D01*
X153924000Y-102108000D02*
X153924000Y-100838000D01*
X160909000Y-106045000D02*
X160909000Y-99568000D01*
X160909000Y-99568000D02*
X155829000Y-99568000D01*
X155829000Y-99568000D02*
X155829000Y-106045000D01*
X161544000Y-99568000D02*
X161544000Y-98933000D01*
X161544000Y-98933000D02*
X155194000Y-98933000D01*
X155194000Y-98933000D02*
X155194000Y-99568000D01*
X161544000Y-100838000D02*
X161544000Y-99568000D01*
X155194000Y-99568000D02*
X155194000Y-106172000D01*
X161544000Y-106235500D02*
X161544000Y-100838000D01*
X167349256Y-116713000D02*
G75*
G03X167349256Y-116713000I-8980256J0D01*
G01*
X169293953Y-116713000D02*
G75*
G03X169293953Y-116713000I-10924953J0D01*
G01*
G04 #@! TO.C,BT2*
X138178953Y-116713000D02*
G75*
G03X138178953Y-116713000I-10924953J0D01*
G01*
X136234256Y-116713000D02*
G75*
G03X136234256Y-116713000I-8980256J0D01*
G01*
X130429000Y-106235500D02*
X130429000Y-100838000D01*
X124079000Y-99568000D02*
X124079000Y-106172000D01*
X130429000Y-100838000D02*
X130429000Y-99568000D01*
X124079000Y-98933000D02*
X124079000Y-99568000D01*
X130429000Y-98933000D02*
X124079000Y-98933000D01*
X130429000Y-99568000D02*
X130429000Y-98933000D01*
X124714000Y-99568000D02*
X124714000Y-106045000D01*
X129794000Y-99568000D02*
X124714000Y-99568000D01*
X129794000Y-106045000D02*
X129794000Y-99568000D01*
X122809000Y-102108000D02*
X122809000Y-100838000D01*
X123444000Y-101473000D02*
X122174000Y-101473000D01*
X129794000Y-127381000D02*
X129794000Y-134493000D01*
X129794000Y-134493000D02*
X124714000Y-134493000D01*
X124714000Y-127381000D02*
X124714000Y-134493000D01*
X130365500Y-127254000D02*
X130365500Y-135128000D01*
X130365500Y-135128000D02*
X124015500Y-135128000D01*
X124015500Y-135128000D02*
X124015500Y-127127000D01*
G04 #@! TD*
G04 #@! TO.C,BT1*
X160202571Y-115863785D02*
X160250190Y-116006642D01*
X160297809Y-116054261D01*
X160393047Y-116101880D01*
X160535904Y-116101880D01*
X160631142Y-116054261D01*
X160678761Y-116006642D01*
X160726380Y-115911404D01*
X160726380Y-115530452D01*
X159726380Y-115530452D01*
X159726380Y-115863785D01*
X159774000Y-115959023D01*
X159821619Y-116006642D01*
X159916857Y-116054261D01*
X160012095Y-116054261D01*
X160107333Y-116006642D01*
X160154952Y-115959023D01*
X160202571Y-115863785D01*
X160202571Y-115530452D01*
X159726380Y-116387595D02*
X159726380Y-116959023D01*
X160726380Y-116673309D02*
X159726380Y-116673309D01*
X160726380Y-117816166D02*
X160726380Y-117244738D01*
X160726380Y-117530452D02*
X159726380Y-117530452D01*
X159869238Y-117435214D01*
X159964476Y-117339976D01*
X160012095Y-117244738D01*
G04 #@! TO.C,BT2*
X129087571Y-115863785D02*
X129135190Y-116006642D01*
X129182809Y-116054261D01*
X129278047Y-116101880D01*
X129420904Y-116101880D01*
X129516142Y-116054261D01*
X129563761Y-116006642D01*
X129611380Y-115911404D01*
X129611380Y-115530452D01*
X128611380Y-115530452D01*
X128611380Y-115863785D01*
X128659000Y-115959023D01*
X128706619Y-116006642D01*
X128801857Y-116054261D01*
X128897095Y-116054261D01*
X128992333Y-116006642D01*
X129039952Y-115959023D01*
X129087571Y-115863785D01*
X129087571Y-115530452D01*
X128611380Y-116387595D02*
X128611380Y-116959023D01*
X129611380Y-116673309D02*
X128611380Y-116673309D01*
X128706619Y-117244738D02*
X128659000Y-117292357D01*
X128611380Y-117387595D01*
X128611380Y-117625690D01*
X128659000Y-117720928D01*
X128706619Y-117768547D01*
X128801857Y-117816166D01*
X128897095Y-117816166D01*
X129039952Y-117768547D01*
X129611380Y-117197119D01*
X129611380Y-117816166D01*
G04 #@! TD*
M02*
