G04 #@! TF.GenerationSoftware,KiCad,Pcbnew,(5.0.1-3-g963ef8bb5)*
G04 #@! TF.CreationDate,2018-12-12T19:15:58+01:00*
G04 #@! TF.ProjectId,kim-uno-rev1,6B696D2D756E6F2D726576312E6B6963,1*
G04 #@! TF.SameCoordinates,Original*
G04 #@! TF.FileFunction,Soldermask,Bot*
G04 #@! TF.FilePolarity,Negative*
%FSLAX46Y46*%
G04 Gerber Fmt 4.6, Leading zero omitted, Abs format (unit mm)*
G04 Created by KiCad (PCBNEW (5.0.1-3-g963ef8bb5)) date Wednesday, 12 December 2018 at 19:15:58*
%MOMM*%
%LPD*%
G01*
G04 APERTURE LIST*
%ADD10C,0.100000*%
G04 APERTURE END LIST*
D10*
G36*
X160169000Y-132963000D02*
X156569000Y-132963000D01*
X156569000Y-129763000D01*
X160169000Y-129763000D01*
X160169000Y-132963000D01*
X160169000Y-132963000D01*
G37*
G36*
X129054000Y-132963000D02*
X125454000Y-132963000D01*
X125454000Y-129763000D01*
X129054000Y-129763000D01*
X129054000Y-132963000D01*
X129054000Y-132963000D01*
G37*
G36*
X160169000Y-103663000D02*
X156569000Y-103663000D01*
X156569000Y-100463000D01*
X160169000Y-100463000D01*
X160169000Y-103663000D01*
X160169000Y-103663000D01*
G37*
G36*
X129054000Y-103663000D02*
X125454000Y-103663000D01*
X125454000Y-100463000D01*
X129054000Y-100463000D01*
X129054000Y-103663000D01*
X129054000Y-103663000D01*
G37*
G36*
X172886630Y-79934299D02*
X173046855Y-79982903D01*
X173194520Y-80061831D01*
X173323949Y-80168051D01*
X173430169Y-80297480D01*
X173509097Y-80445145D01*
X173557701Y-80605370D01*
X173574112Y-80772000D01*
X173557701Y-80938630D01*
X173509097Y-81098855D01*
X173430169Y-81246520D01*
X173323949Y-81375949D01*
X173194520Y-81482169D01*
X173046855Y-81561097D01*
X172886630Y-81609701D01*
X172761752Y-81622000D01*
X172678248Y-81622000D01*
X172553370Y-81609701D01*
X172393145Y-81561097D01*
X172245480Y-81482169D01*
X172116051Y-81375949D01*
X172009831Y-81246520D01*
X171930903Y-81098855D01*
X171882299Y-80938630D01*
X171865888Y-80772000D01*
X171882299Y-80605370D01*
X171930903Y-80445145D01*
X172009831Y-80297480D01*
X172116051Y-80168051D01*
X172245480Y-80061831D01*
X172393145Y-79982903D01*
X172553370Y-79934299D01*
X172678248Y-79922000D01*
X172761752Y-79922000D01*
X172886630Y-79934299D01*
X172886630Y-79934299D01*
G37*
G36*
X148961649Y-78455717D02*
X149000827Y-78459576D01*
X149076228Y-78482449D01*
X149151629Y-78505321D01*
X149290608Y-78579608D01*
X149412422Y-78679578D01*
X149512392Y-78801392D01*
X149586679Y-78940371D01*
X149586679Y-78940372D01*
X149625911Y-79069701D01*
X149632424Y-79091174D01*
X149647870Y-79248000D01*
X149632424Y-79404826D01*
X149586679Y-79555629D01*
X149512392Y-79694608D01*
X149412422Y-79816422D01*
X149290608Y-79916392D01*
X149151629Y-79990679D01*
X149076228Y-80013551D01*
X149000827Y-80036424D01*
X148961649Y-80040283D01*
X148883295Y-80048000D01*
X148804705Y-80048000D01*
X148726351Y-80040283D01*
X148687173Y-80036424D01*
X148611772Y-80013551D01*
X148536371Y-79990679D01*
X148397392Y-79916392D01*
X148275578Y-79816422D01*
X148175608Y-79694608D01*
X148101321Y-79555629D01*
X148055576Y-79404826D01*
X148040130Y-79248000D01*
X148055576Y-79091174D01*
X148062090Y-79069701D01*
X148101321Y-78940372D01*
X148101321Y-78940371D01*
X148175608Y-78801392D01*
X148275578Y-78679578D01*
X148397392Y-78579608D01*
X148536371Y-78505321D01*
X148611772Y-78482449D01*
X148687173Y-78459576D01*
X148726351Y-78455717D01*
X148804705Y-78448000D01*
X148883295Y-78448000D01*
X148961649Y-78455717D01*
X148961649Y-78455717D01*
G37*
G36*
X146421649Y-78455717D02*
X146460827Y-78459576D01*
X146536228Y-78482449D01*
X146611629Y-78505321D01*
X146750608Y-78579608D01*
X146872422Y-78679578D01*
X146972392Y-78801392D01*
X147046679Y-78940371D01*
X147046679Y-78940372D01*
X147085911Y-79069701D01*
X147092424Y-79091174D01*
X147107870Y-79248000D01*
X147092424Y-79404826D01*
X147046679Y-79555629D01*
X146972392Y-79694608D01*
X146872422Y-79816422D01*
X146750608Y-79916392D01*
X146611629Y-79990679D01*
X146536228Y-80013551D01*
X146460827Y-80036424D01*
X146421649Y-80040283D01*
X146343295Y-80048000D01*
X146264705Y-80048000D01*
X146186351Y-80040283D01*
X146147173Y-80036424D01*
X146071772Y-80013551D01*
X145996371Y-79990679D01*
X145857392Y-79916392D01*
X145735578Y-79816422D01*
X145635608Y-79694608D01*
X145561321Y-79555629D01*
X145515576Y-79404826D01*
X145500130Y-79248000D01*
X145515576Y-79091174D01*
X145522090Y-79069701D01*
X145561321Y-78940372D01*
X145561321Y-78940371D01*
X145635608Y-78801392D01*
X145735578Y-78679578D01*
X145857392Y-78579608D01*
X145996371Y-78505321D01*
X146071772Y-78482449D01*
X146147173Y-78459576D01*
X146186351Y-78455717D01*
X146264705Y-78448000D01*
X146343295Y-78448000D01*
X146421649Y-78455717D01*
X146421649Y-78455717D01*
G37*
G36*
X143881649Y-78455717D02*
X143920827Y-78459576D01*
X143996228Y-78482449D01*
X144071629Y-78505321D01*
X144210608Y-78579608D01*
X144332422Y-78679578D01*
X144432392Y-78801392D01*
X144506679Y-78940371D01*
X144506679Y-78940372D01*
X144545911Y-79069701D01*
X144552424Y-79091174D01*
X144567870Y-79248000D01*
X144552424Y-79404826D01*
X144506679Y-79555629D01*
X144432392Y-79694608D01*
X144332422Y-79816422D01*
X144210608Y-79916392D01*
X144071629Y-79990679D01*
X143996228Y-80013551D01*
X143920827Y-80036424D01*
X143881649Y-80040283D01*
X143803295Y-80048000D01*
X143724705Y-80048000D01*
X143646351Y-80040283D01*
X143607173Y-80036424D01*
X143531772Y-80013551D01*
X143456371Y-79990679D01*
X143317392Y-79916392D01*
X143195578Y-79816422D01*
X143095608Y-79694608D01*
X143021321Y-79555629D01*
X142975576Y-79404826D01*
X142960130Y-79248000D01*
X142975576Y-79091174D01*
X142982090Y-79069701D01*
X143021321Y-78940372D01*
X143021321Y-78940371D01*
X143095608Y-78801392D01*
X143195578Y-78679578D01*
X143317392Y-78579608D01*
X143456371Y-78505321D01*
X143531772Y-78482449D01*
X143607173Y-78459576D01*
X143646351Y-78455717D01*
X143724705Y-78448000D01*
X143803295Y-78448000D01*
X143881649Y-78455717D01*
X143881649Y-78455717D01*
G37*
G36*
X141341649Y-78455717D02*
X141380827Y-78459576D01*
X141456228Y-78482449D01*
X141531629Y-78505321D01*
X141670608Y-78579608D01*
X141792422Y-78679578D01*
X141892392Y-78801392D01*
X141966679Y-78940371D01*
X141966679Y-78940372D01*
X142005911Y-79069701D01*
X142012424Y-79091174D01*
X142027870Y-79248000D01*
X142012424Y-79404826D01*
X141966679Y-79555629D01*
X141892392Y-79694608D01*
X141792422Y-79816422D01*
X141670608Y-79916392D01*
X141531629Y-79990679D01*
X141456228Y-80013551D01*
X141380827Y-80036424D01*
X141341649Y-80040283D01*
X141263295Y-80048000D01*
X141184705Y-80048000D01*
X141106351Y-80040283D01*
X141067173Y-80036424D01*
X140991772Y-80013551D01*
X140916371Y-79990679D01*
X140777392Y-79916392D01*
X140655578Y-79816422D01*
X140555608Y-79694608D01*
X140481321Y-79555629D01*
X140435576Y-79404826D01*
X140420130Y-79248000D01*
X140435576Y-79091174D01*
X140442090Y-79069701D01*
X140481321Y-78940372D01*
X140481321Y-78940371D01*
X140555608Y-78801392D01*
X140655578Y-78679578D01*
X140777392Y-78579608D01*
X140916371Y-78505321D01*
X140991772Y-78482449D01*
X141067173Y-78459576D01*
X141106351Y-78455717D01*
X141184705Y-78448000D01*
X141263295Y-78448000D01*
X141341649Y-78455717D01*
X141341649Y-78455717D01*
G37*
G36*
X138801649Y-78455717D02*
X138840827Y-78459576D01*
X138916228Y-78482449D01*
X138991629Y-78505321D01*
X139130608Y-78579608D01*
X139252422Y-78679578D01*
X139352392Y-78801392D01*
X139426679Y-78940371D01*
X139426679Y-78940372D01*
X139465911Y-79069701D01*
X139472424Y-79091174D01*
X139487870Y-79248000D01*
X139472424Y-79404826D01*
X139426679Y-79555629D01*
X139352392Y-79694608D01*
X139252422Y-79816422D01*
X139130608Y-79916392D01*
X138991629Y-79990679D01*
X138916228Y-80013551D01*
X138840827Y-80036424D01*
X138801649Y-80040283D01*
X138723295Y-80048000D01*
X138644705Y-80048000D01*
X138566351Y-80040283D01*
X138527173Y-80036424D01*
X138451772Y-80013551D01*
X138376371Y-79990679D01*
X138237392Y-79916392D01*
X138115578Y-79816422D01*
X138015608Y-79694608D01*
X137941321Y-79555629D01*
X137895576Y-79404826D01*
X137880130Y-79248000D01*
X137895576Y-79091174D01*
X137902090Y-79069701D01*
X137941321Y-78940372D01*
X137941321Y-78940371D01*
X138015608Y-78801392D01*
X138115578Y-78679578D01*
X138237392Y-78579608D01*
X138376371Y-78505321D01*
X138451772Y-78482449D01*
X138527173Y-78459576D01*
X138566351Y-78455717D01*
X138644705Y-78448000D01*
X138723295Y-78448000D01*
X138801649Y-78455717D01*
X138801649Y-78455717D01*
G37*
G36*
X136261649Y-78455717D02*
X136300827Y-78459576D01*
X136376228Y-78482449D01*
X136451629Y-78505321D01*
X136590608Y-78579608D01*
X136712422Y-78679578D01*
X136812392Y-78801392D01*
X136886679Y-78940371D01*
X136886679Y-78940372D01*
X136925911Y-79069701D01*
X136932424Y-79091174D01*
X136947870Y-79248000D01*
X136932424Y-79404826D01*
X136886679Y-79555629D01*
X136812392Y-79694608D01*
X136712422Y-79816422D01*
X136590608Y-79916392D01*
X136451629Y-79990679D01*
X136376228Y-80013551D01*
X136300827Y-80036424D01*
X136261649Y-80040283D01*
X136183295Y-80048000D01*
X136104705Y-80048000D01*
X136026351Y-80040283D01*
X135987173Y-80036424D01*
X135911772Y-80013551D01*
X135836371Y-79990679D01*
X135697392Y-79916392D01*
X135575578Y-79816422D01*
X135475608Y-79694608D01*
X135401321Y-79555629D01*
X135355576Y-79404826D01*
X135340130Y-79248000D01*
X135355576Y-79091174D01*
X135362090Y-79069701D01*
X135401321Y-78940372D01*
X135401321Y-78940371D01*
X135475608Y-78801392D01*
X135575578Y-78679578D01*
X135697392Y-78579608D01*
X135836371Y-78505321D01*
X135911772Y-78482449D01*
X135987173Y-78459576D01*
X136026351Y-78455717D01*
X136104705Y-78448000D01*
X136183295Y-78448000D01*
X136261649Y-78455717D01*
X136261649Y-78455717D01*
G37*
G36*
X133721649Y-78455717D02*
X133760827Y-78459576D01*
X133836228Y-78482449D01*
X133911629Y-78505321D01*
X134050608Y-78579608D01*
X134172422Y-78679578D01*
X134272392Y-78801392D01*
X134346679Y-78940371D01*
X134346679Y-78940372D01*
X134385911Y-79069701D01*
X134392424Y-79091174D01*
X134407870Y-79248000D01*
X134392424Y-79404826D01*
X134346679Y-79555629D01*
X134272392Y-79694608D01*
X134172422Y-79816422D01*
X134050608Y-79916392D01*
X133911629Y-79990679D01*
X133836228Y-80013551D01*
X133760827Y-80036424D01*
X133721649Y-80040283D01*
X133643295Y-80048000D01*
X133564705Y-80048000D01*
X133486351Y-80040283D01*
X133447173Y-80036424D01*
X133371772Y-80013551D01*
X133296371Y-79990679D01*
X133157392Y-79916392D01*
X133035578Y-79816422D01*
X132935608Y-79694608D01*
X132861321Y-79555629D01*
X132815576Y-79404826D01*
X132800130Y-79248000D01*
X132815576Y-79091174D01*
X132822090Y-79069701D01*
X132861321Y-78940372D01*
X132861321Y-78940371D01*
X132935608Y-78801392D01*
X133035578Y-78679578D01*
X133157392Y-78579608D01*
X133296371Y-78505321D01*
X133371772Y-78482449D01*
X133447173Y-78459576D01*
X133486351Y-78455717D01*
X133564705Y-78448000D01*
X133643295Y-78448000D01*
X133721649Y-78455717D01*
X133721649Y-78455717D01*
G37*
G36*
X131181649Y-78455717D02*
X131220827Y-78459576D01*
X131296228Y-78482449D01*
X131371629Y-78505321D01*
X131510608Y-78579608D01*
X131632422Y-78679578D01*
X131732392Y-78801392D01*
X131806679Y-78940371D01*
X131806679Y-78940372D01*
X131845911Y-79069701D01*
X131852424Y-79091174D01*
X131867870Y-79248000D01*
X131852424Y-79404826D01*
X131806679Y-79555629D01*
X131732392Y-79694608D01*
X131632422Y-79816422D01*
X131510608Y-79916392D01*
X131371629Y-79990679D01*
X131296228Y-80013551D01*
X131220827Y-80036424D01*
X131181649Y-80040283D01*
X131103295Y-80048000D01*
X131024705Y-80048000D01*
X130946351Y-80040283D01*
X130907173Y-80036424D01*
X130831772Y-80013551D01*
X130756371Y-79990679D01*
X130617392Y-79916392D01*
X130495578Y-79816422D01*
X130395608Y-79694608D01*
X130321321Y-79555629D01*
X130275576Y-79404826D01*
X130260130Y-79248000D01*
X130275576Y-79091174D01*
X130282090Y-79069701D01*
X130321321Y-78940372D01*
X130321321Y-78940371D01*
X130395608Y-78801392D01*
X130495578Y-78679578D01*
X130617392Y-78579608D01*
X130756371Y-78505321D01*
X130831772Y-78482449D01*
X130907173Y-78459576D01*
X130946351Y-78455717D01*
X131024705Y-78448000D01*
X131103295Y-78448000D01*
X131181649Y-78455717D01*
X131181649Y-78455717D01*
G37*
G36*
X128641649Y-78455717D02*
X128680827Y-78459576D01*
X128756228Y-78482449D01*
X128831629Y-78505321D01*
X128970608Y-78579608D01*
X129092422Y-78679578D01*
X129192392Y-78801392D01*
X129266679Y-78940371D01*
X129266679Y-78940372D01*
X129305911Y-79069701D01*
X129312424Y-79091174D01*
X129327870Y-79248000D01*
X129312424Y-79404826D01*
X129266679Y-79555629D01*
X129192392Y-79694608D01*
X129092422Y-79816422D01*
X128970608Y-79916392D01*
X128831629Y-79990679D01*
X128756228Y-80013551D01*
X128680827Y-80036424D01*
X128641649Y-80040283D01*
X128563295Y-80048000D01*
X128484705Y-80048000D01*
X128406351Y-80040283D01*
X128367173Y-80036424D01*
X128291772Y-80013551D01*
X128216371Y-79990679D01*
X128077392Y-79916392D01*
X127955578Y-79816422D01*
X127855608Y-79694608D01*
X127781321Y-79555629D01*
X127735576Y-79404826D01*
X127720130Y-79248000D01*
X127735576Y-79091174D01*
X127742090Y-79069701D01*
X127781321Y-78940372D01*
X127781321Y-78940371D01*
X127855608Y-78801392D01*
X127955578Y-78679578D01*
X128077392Y-78579608D01*
X128216371Y-78505321D01*
X128291772Y-78482449D01*
X128367173Y-78459576D01*
X128406351Y-78455717D01*
X128484705Y-78448000D01*
X128563295Y-78448000D01*
X128641649Y-78455717D01*
X128641649Y-78455717D01*
G37*
G36*
X161661649Y-78455717D02*
X161700827Y-78459576D01*
X161776228Y-78482449D01*
X161851629Y-78505321D01*
X161990608Y-78579608D01*
X162112422Y-78679578D01*
X162212392Y-78801392D01*
X162286679Y-78940371D01*
X162286679Y-78940372D01*
X162325911Y-79069701D01*
X162332424Y-79091174D01*
X162347870Y-79248000D01*
X162332424Y-79404826D01*
X162286679Y-79555629D01*
X162212392Y-79694608D01*
X162112422Y-79816422D01*
X161990608Y-79916392D01*
X161851629Y-79990679D01*
X161776228Y-80013551D01*
X161700827Y-80036424D01*
X161661649Y-80040283D01*
X161583295Y-80048000D01*
X161504705Y-80048000D01*
X161426351Y-80040283D01*
X161387173Y-80036424D01*
X161311772Y-80013551D01*
X161236371Y-79990679D01*
X161097392Y-79916392D01*
X160975578Y-79816422D01*
X160875608Y-79694608D01*
X160801321Y-79555629D01*
X160755576Y-79404826D01*
X160740130Y-79248000D01*
X160755576Y-79091174D01*
X160762090Y-79069701D01*
X160801321Y-78940372D01*
X160801321Y-78940371D01*
X160875608Y-78801392D01*
X160975578Y-78679578D01*
X161097392Y-78579608D01*
X161236371Y-78505321D01*
X161311772Y-78482449D01*
X161387173Y-78459576D01*
X161426351Y-78455717D01*
X161504705Y-78448000D01*
X161583295Y-78448000D01*
X161661649Y-78455717D01*
X161661649Y-78455717D01*
G37*
G36*
X159121649Y-78455717D02*
X159160827Y-78459576D01*
X159236228Y-78482449D01*
X159311629Y-78505321D01*
X159450608Y-78579608D01*
X159572422Y-78679578D01*
X159672392Y-78801392D01*
X159746679Y-78940371D01*
X159746679Y-78940372D01*
X159785911Y-79069701D01*
X159792424Y-79091174D01*
X159807870Y-79248000D01*
X159792424Y-79404826D01*
X159746679Y-79555629D01*
X159672392Y-79694608D01*
X159572422Y-79816422D01*
X159450608Y-79916392D01*
X159311629Y-79990679D01*
X159236228Y-80013551D01*
X159160827Y-80036424D01*
X159121649Y-80040283D01*
X159043295Y-80048000D01*
X158964705Y-80048000D01*
X158886351Y-80040283D01*
X158847173Y-80036424D01*
X158771772Y-80013551D01*
X158696371Y-79990679D01*
X158557392Y-79916392D01*
X158435578Y-79816422D01*
X158335608Y-79694608D01*
X158261321Y-79555629D01*
X158215576Y-79404826D01*
X158200130Y-79248000D01*
X158215576Y-79091174D01*
X158222090Y-79069701D01*
X158261321Y-78940372D01*
X158261321Y-78940371D01*
X158335608Y-78801392D01*
X158435578Y-78679578D01*
X158557392Y-78579608D01*
X158696371Y-78505321D01*
X158771772Y-78482449D01*
X158847173Y-78459576D01*
X158886351Y-78455717D01*
X158964705Y-78448000D01*
X159043295Y-78448000D01*
X159121649Y-78455717D01*
X159121649Y-78455717D01*
G37*
G36*
X156581649Y-78455717D02*
X156620827Y-78459576D01*
X156696228Y-78482449D01*
X156771629Y-78505321D01*
X156910608Y-78579608D01*
X157032422Y-78679578D01*
X157132392Y-78801392D01*
X157206679Y-78940371D01*
X157206679Y-78940372D01*
X157245911Y-79069701D01*
X157252424Y-79091174D01*
X157267870Y-79248000D01*
X157252424Y-79404826D01*
X157206679Y-79555629D01*
X157132392Y-79694608D01*
X157032422Y-79816422D01*
X156910608Y-79916392D01*
X156771629Y-79990679D01*
X156696228Y-80013551D01*
X156620827Y-80036424D01*
X156581649Y-80040283D01*
X156503295Y-80048000D01*
X156424705Y-80048000D01*
X156346351Y-80040283D01*
X156307173Y-80036424D01*
X156231772Y-80013551D01*
X156156371Y-79990679D01*
X156017392Y-79916392D01*
X155895578Y-79816422D01*
X155795608Y-79694608D01*
X155721321Y-79555629D01*
X155675576Y-79404826D01*
X155660130Y-79248000D01*
X155675576Y-79091174D01*
X155682090Y-79069701D01*
X155721321Y-78940372D01*
X155721321Y-78940371D01*
X155795608Y-78801392D01*
X155895578Y-78679578D01*
X156017392Y-78579608D01*
X156156371Y-78505321D01*
X156231772Y-78482449D01*
X156307173Y-78459576D01*
X156346351Y-78455717D01*
X156424705Y-78448000D01*
X156503295Y-78448000D01*
X156581649Y-78455717D01*
X156581649Y-78455717D01*
G37*
G36*
X154041649Y-78455717D02*
X154080827Y-78459576D01*
X154156228Y-78482449D01*
X154231629Y-78505321D01*
X154370608Y-78579608D01*
X154492422Y-78679578D01*
X154592392Y-78801392D01*
X154666679Y-78940371D01*
X154666679Y-78940372D01*
X154705911Y-79069701D01*
X154712424Y-79091174D01*
X154727870Y-79248000D01*
X154712424Y-79404826D01*
X154666679Y-79555629D01*
X154592392Y-79694608D01*
X154492422Y-79816422D01*
X154370608Y-79916392D01*
X154231629Y-79990679D01*
X154156228Y-80013551D01*
X154080827Y-80036424D01*
X154041649Y-80040283D01*
X153963295Y-80048000D01*
X153884705Y-80048000D01*
X153806351Y-80040283D01*
X153767173Y-80036424D01*
X153691772Y-80013551D01*
X153616371Y-79990679D01*
X153477392Y-79916392D01*
X153355578Y-79816422D01*
X153255608Y-79694608D01*
X153181321Y-79555629D01*
X153135576Y-79404826D01*
X153120130Y-79248000D01*
X153135576Y-79091174D01*
X153142090Y-79069701D01*
X153181321Y-78940372D01*
X153181321Y-78940371D01*
X153255608Y-78801392D01*
X153355578Y-78679578D01*
X153477392Y-78579608D01*
X153616371Y-78505321D01*
X153691772Y-78482449D01*
X153767173Y-78459576D01*
X153806351Y-78455717D01*
X153884705Y-78448000D01*
X153963295Y-78448000D01*
X154041649Y-78455717D01*
X154041649Y-78455717D01*
G37*
G36*
X151501649Y-78455717D02*
X151540827Y-78459576D01*
X151616228Y-78482449D01*
X151691629Y-78505321D01*
X151830608Y-78579608D01*
X151952422Y-78679578D01*
X152052392Y-78801392D01*
X152126679Y-78940371D01*
X152126679Y-78940372D01*
X152165911Y-79069701D01*
X152172424Y-79091174D01*
X152187870Y-79248000D01*
X152172424Y-79404826D01*
X152126679Y-79555629D01*
X152052392Y-79694608D01*
X151952422Y-79816422D01*
X151830608Y-79916392D01*
X151691629Y-79990679D01*
X151616228Y-80013551D01*
X151540827Y-80036424D01*
X151501649Y-80040283D01*
X151423295Y-80048000D01*
X151344705Y-80048000D01*
X151266351Y-80040283D01*
X151227173Y-80036424D01*
X151151772Y-80013551D01*
X151076371Y-79990679D01*
X150937392Y-79916392D01*
X150815578Y-79816422D01*
X150715608Y-79694608D01*
X150641321Y-79555629D01*
X150595576Y-79404826D01*
X150580130Y-79248000D01*
X150595576Y-79091174D01*
X150602090Y-79069701D01*
X150641321Y-78940372D01*
X150641321Y-78940371D01*
X150715608Y-78801392D01*
X150815578Y-78679578D01*
X150937392Y-78579608D01*
X151076371Y-78505321D01*
X151151772Y-78482449D01*
X151227173Y-78459576D01*
X151266351Y-78455717D01*
X151344705Y-78448000D01*
X151423295Y-78448000D01*
X151501649Y-78455717D01*
X151501649Y-78455717D01*
G37*
G36*
X172886630Y-77394299D02*
X173046855Y-77442903D01*
X173194520Y-77521831D01*
X173323949Y-77628051D01*
X173430169Y-77757480D01*
X173509097Y-77905145D01*
X173557701Y-78065370D01*
X173574112Y-78232000D01*
X173557701Y-78398630D01*
X173509097Y-78558855D01*
X173430169Y-78706520D01*
X173323949Y-78835949D01*
X173194520Y-78942169D01*
X173046855Y-79021097D01*
X172886630Y-79069701D01*
X172761752Y-79082000D01*
X172678248Y-79082000D01*
X172553370Y-79069701D01*
X172393145Y-79021097D01*
X172245480Y-78942169D01*
X172116051Y-78835949D01*
X172009831Y-78706520D01*
X171930903Y-78558855D01*
X171882299Y-78398630D01*
X171865888Y-78232000D01*
X171882299Y-78065370D01*
X171930903Y-77905145D01*
X172009831Y-77757480D01*
X172116051Y-77628051D01*
X172245480Y-77521831D01*
X172393145Y-77442903D01*
X172553370Y-77394299D01*
X172678248Y-77382000D01*
X172761752Y-77382000D01*
X172886630Y-77394299D01*
X172886630Y-77394299D01*
G37*
G36*
X114094770Y-75548372D02*
X114210689Y-75571429D01*
X114392678Y-75646811D01*
X114556463Y-75756249D01*
X114695751Y-75895537D01*
X114805189Y-76059322D01*
X114880571Y-76241311D01*
X114919000Y-76434509D01*
X114919000Y-76631491D01*
X114880571Y-76824689D01*
X114805189Y-77006678D01*
X114695751Y-77170463D01*
X114556463Y-77309751D01*
X114392678Y-77419189D01*
X114210689Y-77494571D01*
X114094770Y-77517628D01*
X114017493Y-77533000D01*
X113820507Y-77533000D01*
X113743230Y-77517628D01*
X113627311Y-77494571D01*
X113445322Y-77419189D01*
X113281537Y-77309751D01*
X113142249Y-77170463D01*
X113032811Y-77006678D01*
X112957429Y-76824689D01*
X112919000Y-76631491D01*
X112919000Y-76434509D01*
X112957429Y-76241311D01*
X113032811Y-76059322D01*
X113142249Y-75895537D01*
X113281537Y-75756249D01*
X113445322Y-75646811D01*
X113627311Y-75571429D01*
X113743230Y-75548372D01*
X113820507Y-75533000D01*
X114017493Y-75533000D01*
X114094770Y-75548372D01*
X114094770Y-75548372D01*
G37*
G36*
X122407352Y-75938743D02*
X122552941Y-75999048D01*
X122683973Y-76086601D01*
X122795399Y-76198027D01*
X122882952Y-76329059D01*
X122943257Y-76474648D01*
X122974000Y-76629205D01*
X122974000Y-76786795D01*
X122943257Y-76941352D01*
X122882952Y-77086941D01*
X122795399Y-77217973D01*
X122683973Y-77329399D01*
X122552941Y-77416952D01*
X122407352Y-77477257D01*
X122252795Y-77508000D01*
X122095205Y-77508000D01*
X121940648Y-77477257D01*
X121795059Y-77416952D01*
X121664027Y-77329399D01*
X121552601Y-77217973D01*
X121465048Y-77086941D01*
X121404743Y-76941352D01*
X121374000Y-76786795D01*
X121374000Y-76629205D01*
X121404743Y-76474648D01*
X121465048Y-76329059D01*
X121552601Y-76198027D01*
X121664027Y-76086601D01*
X121795059Y-75999048D01*
X121940648Y-75938743D01*
X122095205Y-75908000D01*
X122252795Y-75908000D01*
X122407352Y-75938743D01*
X122407352Y-75938743D01*
G37*
G36*
X172886630Y-74854299D02*
X173046855Y-74902903D01*
X173194520Y-74981831D01*
X173323949Y-75088051D01*
X173430169Y-75217480D01*
X173509097Y-75365145D01*
X173557701Y-75525370D01*
X173574112Y-75692000D01*
X173557701Y-75858630D01*
X173509097Y-76018855D01*
X173430169Y-76166520D01*
X173323949Y-76295949D01*
X173194520Y-76402169D01*
X173046855Y-76481097D01*
X172886630Y-76529701D01*
X172761752Y-76542000D01*
X172678248Y-76542000D01*
X172553370Y-76529701D01*
X172393145Y-76481097D01*
X172245480Y-76402169D01*
X172116051Y-76295949D01*
X172009831Y-76166520D01*
X171930903Y-76018855D01*
X171882299Y-75858630D01*
X171865888Y-75692000D01*
X171882299Y-75525370D01*
X171930903Y-75365145D01*
X172009831Y-75217480D01*
X172116051Y-75088051D01*
X172245480Y-74981831D01*
X172393145Y-74902903D01*
X172553370Y-74854299D01*
X172678248Y-74842000D01*
X172761752Y-74842000D01*
X172886630Y-74854299D01*
X172886630Y-74854299D01*
G37*
G36*
X122407352Y-73438743D02*
X122552941Y-73499048D01*
X122683973Y-73586601D01*
X122795399Y-73698027D01*
X122882952Y-73829059D01*
X122943257Y-73974648D01*
X122974000Y-74129205D01*
X122974000Y-74286795D01*
X122943257Y-74441352D01*
X122882952Y-74586941D01*
X122795399Y-74717973D01*
X122683973Y-74829399D01*
X122552941Y-74916952D01*
X122407352Y-74977257D01*
X122252795Y-75008000D01*
X122095205Y-75008000D01*
X121940648Y-74977257D01*
X121795059Y-74916952D01*
X121664027Y-74829399D01*
X121552601Y-74717973D01*
X121465048Y-74586941D01*
X121404743Y-74441352D01*
X121374000Y-74286795D01*
X121374000Y-74129205D01*
X121404743Y-73974648D01*
X121465048Y-73829059D01*
X121552601Y-73698027D01*
X121664027Y-73586601D01*
X121795059Y-73499048D01*
X121940648Y-73438743D01*
X122095205Y-73408000D01*
X122252795Y-73408000D01*
X122407352Y-73438743D01*
X122407352Y-73438743D01*
G37*
G36*
X114093158Y-72548051D02*
X114210689Y-72571429D01*
X114392678Y-72646811D01*
X114556463Y-72756249D01*
X114695751Y-72895537D01*
X114805189Y-73059322D01*
X114880571Y-73241311D01*
X114919000Y-73434509D01*
X114919000Y-73631491D01*
X114880571Y-73824689D01*
X114805189Y-74006678D01*
X114695751Y-74170463D01*
X114556463Y-74309751D01*
X114392678Y-74419189D01*
X114210689Y-74494571D01*
X114094770Y-74517628D01*
X114017493Y-74533000D01*
X113820507Y-74533000D01*
X113743230Y-74517628D01*
X113627311Y-74494571D01*
X113445322Y-74419189D01*
X113281537Y-74309751D01*
X113142249Y-74170463D01*
X113032811Y-74006678D01*
X112957429Y-73824689D01*
X112919000Y-73631491D01*
X112919000Y-73434509D01*
X112957429Y-73241311D01*
X113032811Y-73059322D01*
X113142249Y-72895537D01*
X113281537Y-72756249D01*
X113445322Y-72646811D01*
X113627311Y-72571429D01*
X113744842Y-72548051D01*
X113820507Y-72533000D01*
X114017493Y-72533000D01*
X114093158Y-72548051D01*
X114093158Y-72548051D01*
G37*
G36*
X172886630Y-72314299D02*
X173046855Y-72362903D01*
X173194520Y-72441831D01*
X173323949Y-72548051D01*
X173430169Y-72677480D01*
X173509097Y-72825145D01*
X173557701Y-72985370D01*
X173574112Y-73152000D01*
X173557701Y-73318630D01*
X173509097Y-73478855D01*
X173430169Y-73626520D01*
X173323949Y-73755949D01*
X173194520Y-73862169D01*
X173046855Y-73941097D01*
X172886630Y-73989701D01*
X172761752Y-74002000D01*
X172678248Y-74002000D01*
X172553370Y-73989701D01*
X172393145Y-73941097D01*
X172245480Y-73862169D01*
X172116051Y-73755949D01*
X172009831Y-73626520D01*
X171930903Y-73478855D01*
X171882299Y-73318630D01*
X171865888Y-73152000D01*
X171882299Y-72985370D01*
X171930903Y-72825145D01*
X172009831Y-72677480D01*
X172116051Y-72548051D01*
X172245480Y-72441831D01*
X172393145Y-72362903D01*
X172553370Y-72314299D01*
X172678248Y-72302000D01*
X172761752Y-72302000D01*
X172886630Y-72314299D01*
X172886630Y-72314299D01*
G37*
G36*
X128641649Y-70835717D02*
X128680827Y-70839576D01*
X128756228Y-70862449D01*
X128831629Y-70885321D01*
X128970608Y-70959608D01*
X129092422Y-71059578D01*
X129192392Y-71181392D01*
X129266679Y-71320371D01*
X129266679Y-71320372D01*
X129305911Y-71449701D01*
X129312424Y-71471174D01*
X129327870Y-71628000D01*
X129312424Y-71784826D01*
X129266679Y-71935629D01*
X129192392Y-72074608D01*
X129092422Y-72196422D01*
X128970608Y-72296392D01*
X128831629Y-72370679D01*
X128756227Y-72393552D01*
X128680827Y-72416424D01*
X128641649Y-72420283D01*
X128563295Y-72428000D01*
X128484705Y-72428000D01*
X128406351Y-72420283D01*
X128367173Y-72416424D01*
X128291772Y-72393551D01*
X128216371Y-72370679D01*
X128077392Y-72296392D01*
X127955578Y-72196422D01*
X127855608Y-72074608D01*
X127781321Y-71935629D01*
X127735576Y-71784826D01*
X127720130Y-71628000D01*
X127735576Y-71471174D01*
X127742090Y-71449701D01*
X127781321Y-71320372D01*
X127781321Y-71320371D01*
X127855608Y-71181392D01*
X127955578Y-71059578D01*
X128077392Y-70959608D01*
X128216371Y-70885321D01*
X128291772Y-70862449D01*
X128367173Y-70839576D01*
X128406351Y-70835717D01*
X128484705Y-70828000D01*
X128563295Y-70828000D01*
X128641649Y-70835717D01*
X128641649Y-70835717D01*
G37*
G36*
X138801649Y-70835717D02*
X138840827Y-70839576D01*
X138916228Y-70862449D01*
X138991629Y-70885321D01*
X139130608Y-70959608D01*
X139252422Y-71059578D01*
X139352392Y-71181392D01*
X139426679Y-71320371D01*
X139426679Y-71320372D01*
X139465911Y-71449701D01*
X139472424Y-71471174D01*
X139487870Y-71628000D01*
X139472424Y-71784826D01*
X139426679Y-71935629D01*
X139352392Y-72074608D01*
X139252422Y-72196422D01*
X139130608Y-72296392D01*
X138991629Y-72370679D01*
X138916227Y-72393552D01*
X138840827Y-72416424D01*
X138801649Y-72420283D01*
X138723295Y-72428000D01*
X138644705Y-72428000D01*
X138566351Y-72420283D01*
X138527173Y-72416424D01*
X138451772Y-72393551D01*
X138376371Y-72370679D01*
X138237392Y-72296392D01*
X138115578Y-72196422D01*
X138015608Y-72074608D01*
X137941321Y-71935629D01*
X137895576Y-71784826D01*
X137880130Y-71628000D01*
X137895576Y-71471174D01*
X137902090Y-71449701D01*
X137941321Y-71320372D01*
X137941321Y-71320371D01*
X138015608Y-71181392D01*
X138115578Y-71059578D01*
X138237392Y-70959608D01*
X138376371Y-70885321D01*
X138451772Y-70862449D01*
X138527173Y-70839576D01*
X138566351Y-70835717D01*
X138644705Y-70828000D01*
X138723295Y-70828000D01*
X138801649Y-70835717D01*
X138801649Y-70835717D01*
G37*
G36*
X131181649Y-70835717D02*
X131220827Y-70839576D01*
X131296228Y-70862449D01*
X131371629Y-70885321D01*
X131510608Y-70959608D01*
X131632422Y-71059578D01*
X131732392Y-71181392D01*
X131806679Y-71320371D01*
X131806679Y-71320372D01*
X131845911Y-71449701D01*
X131852424Y-71471174D01*
X131867870Y-71628000D01*
X131852424Y-71784826D01*
X131806679Y-71935629D01*
X131732392Y-72074608D01*
X131632422Y-72196422D01*
X131510608Y-72296392D01*
X131371629Y-72370679D01*
X131296227Y-72393552D01*
X131220827Y-72416424D01*
X131181649Y-72420283D01*
X131103295Y-72428000D01*
X131024705Y-72428000D01*
X130946351Y-72420283D01*
X130907173Y-72416424D01*
X130831772Y-72393551D01*
X130756371Y-72370679D01*
X130617392Y-72296392D01*
X130495578Y-72196422D01*
X130395608Y-72074608D01*
X130321321Y-71935629D01*
X130275576Y-71784826D01*
X130260130Y-71628000D01*
X130275576Y-71471174D01*
X130282090Y-71449701D01*
X130321321Y-71320372D01*
X130321321Y-71320371D01*
X130395608Y-71181392D01*
X130495578Y-71059578D01*
X130617392Y-70959608D01*
X130756371Y-70885321D01*
X130831772Y-70862449D01*
X130907173Y-70839576D01*
X130946351Y-70835717D01*
X131024705Y-70828000D01*
X131103295Y-70828000D01*
X131181649Y-70835717D01*
X131181649Y-70835717D01*
G37*
G36*
X133721649Y-70835717D02*
X133760827Y-70839576D01*
X133836228Y-70862449D01*
X133911629Y-70885321D01*
X134050608Y-70959608D01*
X134172422Y-71059578D01*
X134272392Y-71181392D01*
X134346679Y-71320371D01*
X134346679Y-71320372D01*
X134385911Y-71449701D01*
X134392424Y-71471174D01*
X134407870Y-71628000D01*
X134392424Y-71784826D01*
X134346679Y-71935629D01*
X134272392Y-72074608D01*
X134172422Y-72196422D01*
X134050608Y-72296392D01*
X133911629Y-72370679D01*
X133836227Y-72393552D01*
X133760827Y-72416424D01*
X133721649Y-72420283D01*
X133643295Y-72428000D01*
X133564705Y-72428000D01*
X133486351Y-72420283D01*
X133447173Y-72416424D01*
X133371772Y-72393551D01*
X133296371Y-72370679D01*
X133157392Y-72296392D01*
X133035578Y-72196422D01*
X132935608Y-72074608D01*
X132861321Y-71935629D01*
X132815576Y-71784826D01*
X132800130Y-71628000D01*
X132815576Y-71471174D01*
X132822090Y-71449701D01*
X132861321Y-71320372D01*
X132861321Y-71320371D01*
X132935608Y-71181392D01*
X133035578Y-71059578D01*
X133157392Y-70959608D01*
X133296371Y-70885321D01*
X133371772Y-70862449D01*
X133447173Y-70839576D01*
X133486351Y-70835717D01*
X133564705Y-70828000D01*
X133643295Y-70828000D01*
X133721649Y-70835717D01*
X133721649Y-70835717D01*
G37*
G36*
X136261649Y-70835717D02*
X136300827Y-70839576D01*
X136376228Y-70862449D01*
X136451629Y-70885321D01*
X136590608Y-70959608D01*
X136712422Y-71059578D01*
X136812392Y-71181392D01*
X136886679Y-71320371D01*
X136886679Y-71320372D01*
X136925911Y-71449701D01*
X136932424Y-71471174D01*
X136947870Y-71628000D01*
X136932424Y-71784826D01*
X136886679Y-71935629D01*
X136812392Y-72074608D01*
X136712422Y-72196422D01*
X136590608Y-72296392D01*
X136451629Y-72370679D01*
X136376227Y-72393552D01*
X136300827Y-72416424D01*
X136261649Y-72420283D01*
X136183295Y-72428000D01*
X136104705Y-72428000D01*
X136026351Y-72420283D01*
X135987173Y-72416424D01*
X135911772Y-72393551D01*
X135836371Y-72370679D01*
X135697392Y-72296392D01*
X135575578Y-72196422D01*
X135475608Y-72074608D01*
X135401321Y-71935629D01*
X135355576Y-71784826D01*
X135340130Y-71628000D01*
X135355576Y-71471174D01*
X135362090Y-71449701D01*
X135401321Y-71320372D01*
X135401321Y-71320371D01*
X135475608Y-71181392D01*
X135575578Y-71059578D01*
X135697392Y-70959608D01*
X135836371Y-70885321D01*
X135911772Y-70862449D01*
X135987173Y-70839576D01*
X136026351Y-70835717D01*
X136104705Y-70828000D01*
X136183295Y-70828000D01*
X136261649Y-70835717D01*
X136261649Y-70835717D01*
G37*
G36*
X141341649Y-70835717D02*
X141380827Y-70839576D01*
X141456228Y-70862449D01*
X141531629Y-70885321D01*
X141670608Y-70959608D01*
X141792422Y-71059578D01*
X141892392Y-71181392D01*
X141966679Y-71320371D01*
X141966679Y-71320372D01*
X142005911Y-71449701D01*
X142012424Y-71471174D01*
X142027870Y-71628000D01*
X142012424Y-71784826D01*
X141966679Y-71935629D01*
X141892392Y-72074608D01*
X141792422Y-72196422D01*
X141670608Y-72296392D01*
X141531629Y-72370679D01*
X141456227Y-72393552D01*
X141380827Y-72416424D01*
X141341649Y-72420283D01*
X141263295Y-72428000D01*
X141184705Y-72428000D01*
X141106351Y-72420283D01*
X141067173Y-72416424D01*
X140991772Y-72393551D01*
X140916371Y-72370679D01*
X140777392Y-72296392D01*
X140655578Y-72196422D01*
X140555608Y-72074608D01*
X140481321Y-71935629D01*
X140435576Y-71784826D01*
X140420130Y-71628000D01*
X140435576Y-71471174D01*
X140442090Y-71449701D01*
X140481321Y-71320372D01*
X140481321Y-71320371D01*
X140555608Y-71181392D01*
X140655578Y-71059578D01*
X140777392Y-70959608D01*
X140916371Y-70885321D01*
X140991772Y-70862449D01*
X141067173Y-70839576D01*
X141106351Y-70835717D01*
X141184705Y-70828000D01*
X141263295Y-70828000D01*
X141341649Y-70835717D01*
X141341649Y-70835717D01*
G37*
G36*
X143881649Y-70835717D02*
X143920827Y-70839576D01*
X143996228Y-70862449D01*
X144071629Y-70885321D01*
X144210608Y-70959608D01*
X144332422Y-71059578D01*
X144432392Y-71181392D01*
X144506679Y-71320371D01*
X144506679Y-71320372D01*
X144545911Y-71449701D01*
X144552424Y-71471174D01*
X144567870Y-71628000D01*
X144552424Y-71784826D01*
X144506679Y-71935629D01*
X144432392Y-72074608D01*
X144332422Y-72196422D01*
X144210608Y-72296392D01*
X144071629Y-72370679D01*
X143996227Y-72393552D01*
X143920827Y-72416424D01*
X143881649Y-72420283D01*
X143803295Y-72428000D01*
X143724705Y-72428000D01*
X143646351Y-72420283D01*
X143607173Y-72416424D01*
X143531772Y-72393551D01*
X143456371Y-72370679D01*
X143317392Y-72296392D01*
X143195578Y-72196422D01*
X143095608Y-72074608D01*
X143021321Y-71935629D01*
X142975576Y-71784826D01*
X142960130Y-71628000D01*
X142975576Y-71471174D01*
X142982090Y-71449701D01*
X143021321Y-71320372D01*
X143021321Y-71320371D01*
X143095608Y-71181392D01*
X143195578Y-71059578D01*
X143317392Y-70959608D01*
X143456371Y-70885321D01*
X143531772Y-70862449D01*
X143607173Y-70839576D01*
X143646351Y-70835717D01*
X143724705Y-70828000D01*
X143803295Y-70828000D01*
X143881649Y-70835717D01*
X143881649Y-70835717D01*
G37*
G36*
X146421649Y-70835717D02*
X146460827Y-70839576D01*
X146536228Y-70862449D01*
X146611629Y-70885321D01*
X146750608Y-70959608D01*
X146872422Y-71059578D01*
X146972392Y-71181392D01*
X147046679Y-71320371D01*
X147046679Y-71320372D01*
X147085911Y-71449701D01*
X147092424Y-71471174D01*
X147107870Y-71628000D01*
X147092424Y-71784826D01*
X147046679Y-71935629D01*
X146972392Y-72074608D01*
X146872422Y-72196422D01*
X146750608Y-72296392D01*
X146611629Y-72370679D01*
X146536227Y-72393552D01*
X146460827Y-72416424D01*
X146421649Y-72420283D01*
X146343295Y-72428000D01*
X146264705Y-72428000D01*
X146186351Y-72420283D01*
X146147173Y-72416424D01*
X146071772Y-72393551D01*
X145996371Y-72370679D01*
X145857392Y-72296392D01*
X145735578Y-72196422D01*
X145635608Y-72074608D01*
X145561321Y-71935629D01*
X145515576Y-71784826D01*
X145500130Y-71628000D01*
X145515576Y-71471174D01*
X145522090Y-71449701D01*
X145561321Y-71320372D01*
X145561321Y-71320371D01*
X145635608Y-71181392D01*
X145735578Y-71059578D01*
X145857392Y-70959608D01*
X145996371Y-70885321D01*
X146071772Y-70862449D01*
X146147173Y-70839576D01*
X146186351Y-70835717D01*
X146264705Y-70828000D01*
X146343295Y-70828000D01*
X146421649Y-70835717D01*
X146421649Y-70835717D01*
G37*
G36*
X148961649Y-70835717D02*
X149000827Y-70839576D01*
X149076228Y-70862449D01*
X149151629Y-70885321D01*
X149290608Y-70959608D01*
X149412422Y-71059578D01*
X149512392Y-71181392D01*
X149586679Y-71320371D01*
X149586679Y-71320372D01*
X149625911Y-71449701D01*
X149632424Y-71471174D01*
X149647870Y-71628000D01*
X149632424Y-71784826D01*
X149586679Y-71935629D01*
X149512392Y-72074608D01*
X149412422Y-72196422D01*
X149290608Y-72296392D01*
X149151629Y-72370679D01*
X149076227Y-72393552D01*
X149000827Y-72416424D01*
X148961649Y-72420283D01*
X148883295Y-72428000D01*
X148804705Y-72428000D01*
X148726351Y-72420283D01*
X148687173Y-72416424D01*
X148611772Y-72393551D01*
X148536371Y-72370679D01*
X148397392Y-72296392D01*
X148275578Y-72196422D01*
X148175608Y-72074608D01*
X148101321Y-71935629D01*
X148055576Y-71784826D01*
X148040130Y-71628000D01*
X148055576Y-71471174D01*
X148062090Y-71449701D01*
X148101321Y-71320372D01*
X148101321Y-71320371D01*
X148175608Y-71181392D01*
X148275578Y-71059578D01*
X148397392Y-70959608D01*
X148536371Y-70885321D01*
X148611772Y-70862449D01*
X148687173Y-70839576D01*
X148726351Y-70835717D01*
X148804705Y-70828000D01*
X148883295Y-70828000D01*
X148961649Y-70835717D01*
X148961649Y-70835717D01*
G37*
G36*
X151501649Y-70835717D02*
X151540827Y-70839576D01*
X151616228Y-70862449D01*
X151691629Y-70885321D01*
X151830608Y-70959608D01*
X151952422Y-71059578D01*
X152052392Y-71181392D01*
X152126679Y-71320371D01*
X152126679Y-71320372D01*
X152165911Y-71449701D01*
X152172424Y-71471174D01*
X152187870Y-71628000D01*
X152172424Y-71784826D01*
X152126679Y-71935629D01*
X152052392Y-72074608D01*
X151952422Y-72196422D01*
X151830608Y-72296392D01*
X151691629Y-72370679D01*
X151616227Y-72393552D01*
X151540827Y-72416424D01*
X151501649Y-72420283D01*
X151423295Y-72428000D01*
X151344705Y-72428000D01*
X151266351Y-72420283D01*
X151227173Y-72416424D01*
X151151772Y-72393551D01*
X151076371Y-72370679D01*
X150937392Y-72296392D01*
X150815578Y-72196422D01*
X150715608Y-72074608D01*
X150641321Y-71935629D01*
X150595576Y-71784826D01*
X150580130Y-71628000D01*
X150595576Y-71471174D01*
X150602090Y-71449701D01*
X150641321Y-71320372D01*
X150641321Y-71320371D01*
X150715608Y-71181392D01*
X150815578Y-71059578D01*
X150937392Y-70959608D01*
X151076371Y-70885321D01*
X151151772Y-70862449D01*
X151227173Y-70839576D01*
X151266351Y-70835717D01*
X151344705Y-70828000D01*
X151423295Y-70828000D01*
X151501649Y-70835717D01*
X151501649Y-70835717D01*
G37*
G36*
X154041649Y-70835717D02*
X154080827Y-70839576D01*
X154156228Y-70862449D01*
X154231629Y-70885321D01*
X154370608Y-70959608D01*
X154492422Y-71059578D01*
X154592392Y-71181392D01*
X154666679Y-71320371D01*
X154666679Y-71320372D01*
X154705911Y-71449701D01*
X154712424Y-71471174D01*
X154727870Y-71628000D01*
X154712424Y-71784826D01*
X154666679Y-71935629D01*
X154592392Y-72074608D01*
X154492422Y-72196422D01*
X154370608Y-72296392D01*
X154231629Y-72370679D01*
X154156227Y-72393552D01*
X154080827Y-72416424D01*
X154041649Y-72420283D01*
X153963295Y-72428000D01*
X153884705Y-72428000D01*
X153806351Y-72420283D01*
X153767173Y-72416424D01*
X153691772Y-72393551D01*
X153616371Y-72370679D01*
X153477392Y-72296392D01*
X153355578Y-72196422D01*
X153255608Y-72074608D01*
X153181321Y-71935629D01*
X153135576Y-71784826D01*
X153120130Y-71628000D01*
X153135576Y-71471174D01*
X153142090Y-71449701D01*
X153181321Y-71320372D01*
X153181321Y-71320371D01*
X153255608Y-71181392D01*
X153355578Y-71059578D01*
X153477392Y-70959608D01*
X153616371Y-70885321D01*
X153691772Y-70862449D01*
X153767173Y-70839576D01*
X153806351Y-70835717D01*
X153884705Y-70828000D01*
X153963295Y-70828000D01*
X154041649Y-70835717D01*
X154041649Y-70835717D01*
G37*
G36*
X156581649Y-70835717D02*
X156620827Y-70839576D01*
X156696228Y-70862449D01*
X156771629Y-70885321D01*
X156910608Y-70959608D01*
X157032422Y-71059578D01*
X157132392Y-71181392D01*
X157206679Y-71320371D01*
X157206679Y-71320372D01*
X157245911Y-71449701D01*
X157252424Y-71471174D01*
X157267870Y-71628000D01*
X157252424Y-71784826D01*
X157206679Y-71935629D01*
X157132392Y-72074608D01*
X157032422Y-72196422D01*
X156910608Y-72296392D01*
X156771629Y-72370679D01*
X156696227Y-72393552D01*
X156620827Y-72416424D01*
X156581649Y-72420283D01*
X156503295Y-72428000D01*
X156424705Y-72428000D01*
X156346351Y-72420283D01*
X156307173Y-72416424D01*
X156231772Y-72393551D01*
X156156371Y-72370679D01*
X156017392Y-72296392D01*
X155895578Y-72196422D01*
X155795608Y-72074608D01*
X155721321Y-71935629D01*
X155675576Y-71784826D01*
X155660130Y-71628000D01*
X155675576Y-71471174D01*
X155682090Y-71449701D01*
X155721321Y-71320372D01*
X155721321Y-71320371D01*
X155795608Y-71181392D01*
X155895578Y-71059578D01*
X156017392Y-70959608D01*
X156156371Y-70885321D01*
X156231772Y-70862449D01*
X156307173Y-70839576D01*
X156346351Y-70835717D01*
X156424705Y-70828000D01*
X156503295Y-70828000D01*
X156581649Y-70835717D01*
X156581649Y-70835717D01*
G37*
G36*
X159121649Y-70835717D02*
X159160827Y-70839576D01*
X159236228Y-70862449D01*
X159311629Y-70885321D01*
X159450608Y-70959608D01*
X159572422Y-71059578D01*
X159672392Y-71181392D01*
X159746679Y-71320371D01*
X159746679Y-71320372D01*
X159785911Y-71449701D01*
X159792424Y-71471174D01*
X159807870Y-71628000D01*
X159792424Y-71784826D01*
X159746679Y-71935629D01*
X159672392Y-72074608D01*
X159572422Y-72196422D01*
X159450608Y-72296392D01*
X159311629Y-72370679D01*
X159236227Y-72393552D01*
X159160827Y-72416424D01*
X159121649Y-72420283D01*
X159043295Y-72428000D01*
X158964705Y-72428000D01*
X158886351Y-72420283D01*
X158847173Y-72416424D01*
X158771772Y-72393551D01*
X158696371Y-72370679D01*
X158557392Y-72296392D01*
X158435578Y-72196422D01*
X158335608Y-72074608D01*
X158261321Y-71935629D01*
X158215576Y-71784826D01*
X158200130Y-71628000D01*
X158215576Y-71471174D01*
X158222090Y-71449701D01*
X158261321Y-71320372D01*
X158261321Y-71320371D01*
X158335608Y-71181392D01*
X158435578Y-71059578D01*
X158557392Y-70959608D01*
X158696371Y-70885321D01*
X158771772Y-70862449D01*
X158847173Y-70839576D01*
X158886351Y-70835717D01*
X158964705Y-70828000D01*
X159043295Y-70828000D01*
X159121649Y-70835717D01*
X159121649Y-70835717D01*
G37*
G36*
X161661649Y-70835717D02*
X161700827Y-70839576D01*
X161776228Y-70862449D01*
X161851629Y-70885321D01*
X161990608Y-70959608D01*
X162112422Y-71059578D01*
X162212392Y-71181392D01*
X162286679Y-71320371D01*
X162286679Y-71320372D01*
X162325911Y-71449701D01*
X162332424Y-71471174D01*
X162347870Y-71628000D01*
X162332424Y-71784826D01*
X162286679Y-71935629D01*
X162212392Y-72074608D01*
X162112422Y-72196422D01*
X161990608Y-72296392D01*
X161851629Y-72370679D01*
X161776227Y-72393552D01*
X161700827Y-72416424D01*
X161661649Y-72420283D01*
X161583295Y-72428000D01*
X161504705Y-72428000D01*
X161426351Y-72420283D01*
X161387173Y-72416424D01*
X161311772Y-72393551D01*
X161236371Y-72370679D01*
X161097392Y-72296392D01*
X160975578Y-72196422D01*
X160875608Y-72074608D01*
X160801321Y-71935629D01*
X160755576Y-71784826D01*
X160740130Y-71628000D01*
X160755576Y-71471174D01*
X160762090Y-71449701D01*
X160801321Y-71320372D01*
X160801321Y-71320371D01*
X160875608Y-71181392D01*
X160975578Y-71059578D01*
X161097392Y-70959608D01*
X161236371Y-70885321D01*
X161311772Y-70862449D01*
X161387173Y-70839576D01*
X161426351Y-70835717D01*
X161504705Y-70828000D01*
X161583295Y-70828000D01*
X161661649Y-70835717D01*
X161661649Y-70835717D01*
G37*
G36*
X114094770Y-69548372D02*
X114210689Y-69571429D01*
X114392678Y-69646811D01*
X114556463Y-69756249D01*
X114695751Y-69895537D01*
X114805189Y-70059322D01*
X114880571Y-70241311D01*
X114919000Y-70434509D01*
X114919000Y-70631491D01*
X114880571Y-70824689D01*
X114805189Y-71006678D01*
X114695751Y-71170463D01*
X114556463Y-71309751D01*
X114392678Y-71419189D01*
X114210689Y-71494571D01*
X114094770Y-71517628D01*
X114017493Y-71533000D01*
X113820507Y-71533000D01*
X113743230Y-71517628D01*
X113627311Y-71494571D01*
X113445322Y-71419189D01*
X113281537Y-71309751D01*
X113142249Y-71170463D01*
X113032811Y-71006678D01*
X112957429Y-70824689D01*
X112919000Y-70631491D01*
X112919000Y-70434509D01*
X112957429Y-70241311D01*
X113032811Y-70059322D01*
X113142249Y-69895537D01*
X113281537Y-69756249D01*
X113445322Y-69646811D01*
X113627311Y-69571429D01*
X113743230Y-69548372D01*
X113820507Y-69533000D01*
X114017493Y-69533000D01*
X114094770Y-69548372D01*
X114094770Y-69548372D01*
G37*
G36*
X172886630Y-69774299D02*
X173046855Y-69822903D01*
X173194520Y-69901831D01*
X173323949Y-70008051D01*
X173430169Y-70137480D01*
X173509097Y-70285145D01*
X173557701Y-70445370D01*
X173574112Y-70612000D01*
X173557701Y-70778630D01*
X173509097Y-70938855D01*
X173430169Y-71086520D01*
X173323949Y-71215949D01*
X173194520Y-71322169D01*
X173046855Y-71401097D01*
X172886630Y-71449701D01*
X172761752Y-71462000D01*
X172678248Y-71462000D01*
X172553370Y-71449701D01*
X172393145Y-71401097D01*
X172245480Y-71322169D01*
X172116051Y-71215949D01*
X172009831Y-71086520D01*
X171930903Y-70938855D01*
X171882299Y-70778630D01*
X171865888Y-70612000D01*
X171882299Y-70445370D01*
X171930903Y-70285145D01*
X172009831Y-70137480D01*
X172116051Y-70008051D01*
X172245480Y-69901831D01*
X172393145Y-69822903D01*
X172553370Y-69774299D01*
X172678248Y-69762000D01*
X172761752Y-69762000D01*
X172886630Y-69774299D01*
X172886630Y-69774299D01*
G37*
G36*
X173570000Y-68922000D02*
X171870000Y-68922000D01*
X171870000Y-67222000D01*
X173570000Y-67222000D01*
X173570000Y-68922000D01*
X173570000Y-68922000D01*
G37*
G36*
X122311224Y-66493128D02*
X122443175Y-66533155D01*
X122564781Y-66598155D01*
X122671370Y-66685630D01*
X122758845Y-66792219D01*
X122823845Y-66913825D01*
X122863872Y-67045776D01*
X122877387Y-67183000D01*
X122863872Y-67320224D01*
X122823845Y-67452175D01*
X122758845Y-67573781D01*
X122671370Y-67680370D01*
X122564781Y-67767845D01*
X122443175Y-67832845D01*
X122311224Y-67872872D01*
X122208390Y-67883000D01*
X122139610Y-67883000D01*
X122036776Y-67872872D01*
X121904825Y-67832845D01*
X121783219Y-67767845D01*
X121676630Y-67680370D01*
X121589155Y-67573781D01*
X121524155Y-67452175D01*
X121484128Y-67320224D01*
X121470613Y-67183000D01*
X121484128Y-67045776D01*
X121524155Y-66913825D01*
X121589155Y-66792219D01*
X121676630Y-66685630D01*
X121783219Y-66598155D01*
X121904825Y-66533155D01*
X122036776Y-66493128D01*
X122139610Y-66483000D01*
X122208390Y-66483000D01*
X122311224Y-66493128D01*
X122311224Y-66493128D01*
G37*
G36*
X162316224Y-66493128D02*
X162448175Y-66533155D01*
X162569781Y-66598155D01*
X162676370Y-66685630D01*
X162763845Y-66792219D01*
X162828845Y-66913825D01*
X162868872Y-67045776D01*
X162882387Y-67183000D01*
X162868872Y-67320224D01*
X162828845Y-67452175D01*
X162763845Y-67573781D01*
X162676370Y-67680370D01*
X162569781Y-67767845D01*
X162448175Y-67832845D01*
X162316224Y-67872872D01*
X162213390Y-67883000D01*
X162144610Y-67883000D01*
X162041776Y-67872872D01*
X161909825Y-67832845D01*
X161788219Y-67767845D01*
X161681630Y-67680370D01*
X161594155Y-67573781D01*
X161529155Y-67452175D01*
X161489128Y-67320224D01*
X161475613Y-67183000D01*
X161489128Y-67045776D01*
X161529155Y-66913825D01*
X161594155Y-66792219D01*
X161681630Y-66685630D01*
X161788219Y-66598155D01*
X161909825Y-66533155D01*
X162041776Y-66493128D01*
X162144610Y-66483000D01*
X162213390Y-66483000D01*
X162316224Y-66493128D01*
X162316224Y-66493128D01*
G37*
G36*
X154763183Y-66509900D02*
X154890574Y-66562668D01*
X154943685Y-66598155D01*
X155005225Y-66639275D01*
X155102725Y-66736775D01*
X155179332Y-66851426D01*
X155232100Y-66978817D01*
X155259000Y-67114055D01*
X155259000Y-67251945D01*
X155232100Y-67387183D01*
X155179332Y-67514574D01*
X155102726Y-67629224D01*
X155005224Y-67726726D01*
X154890574Y-67803332D01*
X154763183Y-67856100D01*
X154627945Y-67883000D01*
X154490055Y-67883000D01*
X154354817Y-67856100D01*
X154227426Y-67803332D01*
X154112776Y-67726726D01*
X154015274Y-67629224D01*
X153938668Y-67514574D01*
X153885900Y-67387183D01*
X153859000Y-67251945D01*
X153859000Y-67114055D01*
X153885900Y-66978817D01*
X153938668Y-66851426D01*
X154015275Y-66736775D01*
X154112775Y-66639275D01*
X154174316Y-66598155D01*
X154227426Y-66562668D01*
X154354817Y-66509900D01*
X154490055Y-66483000D01*
X154627945Y-66483000D01*
X154763183Y-66509900D01*
X154763183Y-66509900D01*
G37*
G36*
X139523183Y-66509900D02*
X139650574Y-66562668D01*
X139703685Y-66598155D01*
X139765225Y-66639275D01*
X139862725Y-66736775D01*
X139939332Y-66851426D01*
X139992100Y-66978817D01*
X140019000Y-67114055D01*
X140019000Y-67251945D01*
X139992100Y-67387183D01*
X139939332Y-67514574D01*
X139862726Y-67629224D01*
X139765224Y-67726726D01*
X139650574Y-67803332D01*
X139523183Y-67856100D01*
X139387945Y-67883000D01*
X139250055Y-67883000D01*
X139114817Y-67856100D01*
X138987426Y-67803332D01*
X138872776Y-67726726D01*
X138775274Y-67629224D01*
X138698668Y-67514574D01*
X138645900Y-67387183D01*
X138619000Y-67251945D01*
X138619000Y-67114055D01*
X138645900Y-66978817D01*
X138698668Y-66851426D01*
X138775275Y-66736775D01*
X138872775Y-66639275D01*
X138934316Y-66598155D01*
X138987426Y-66562668D01*
X139114817Y-66509900D01*
X139250055Y-66483000D01*
X139387945Y-66483000D01*
X139523183Y-66509900D01*
X139523183Y-66509900D01*
G37*
G36*
X147076224Y-66493128D02*
X147208175Y-66533155D01*
X147329781Y-66598155D01*
X147436370Y-66685630D01*
X147523845Y-66792219D01*
X147588845Y-66913825D01*
X147628872Y-67045776D01*
X147642387Y-67183000D01*
X147628872Y-67320224D01*
X147588845Y-67452175D01*
X147523845Y-67573781D01*
X147436370Y-67680370D01*
X147329781Y-67767845D01*
X147208175Y-67832845D01*
X147076224Y-67872872D01*
X146973390Y-67883000D01*
X146904610Y-67883000D01*
X146801776Y-67872872D01*
X146669825Y-67832845D01*
X146548219Y-67767845D01*
X146441630Y-67680370D01*
X146354155Y-67573781D01*
X146289155Y-67452175D01*
X146249128Y-67320224D01*
X146235613Y-67183000D01*
X146249128Y-67045776D01*
X146289155Y-66913825D01*
X146354155Y-66792219D01*
X146441630Y-66685630D01*
X146548219Y-66598155D01*
X146669825Y-66533155D01*
X146801776Y-66493128D01*
X146904610Y-66483000D01*
X146973390Y-66483000D01*
X147076224Y-66493128D01*
X147076224Y-66493128D01*
G37*
G36*
X129998183Y-66509900D02*
X130125574Y-66562668D01*
X130178685Y-66598155D01*
X130240225Y-66639275D01*
X130337725Y-66736775D01*
X130414332Y-66851426D01*
X130467100Y-66978817D01*
X130494000Y-67114055D01*
X130494000Y-67251945D01*
X130467100Y-67387183D01*
X130414332Y-67514574D01*
X130337726Y-67629224D01*
X130240224Y-67726726D01*
X130125574Y-67803332D01*
X129998183Y-67856100D01*
X129862945Y-67883000D01*
X129725055Y-67883000D01*
X129589817Y-67856100D01*
X129462426Y-67803332D01*
X129347776Y-67726726D01*
X129250274Y-67629224D01*
X129173668Y-67514574D01*
X129120900Y-67387183D01*
X129094000Y-67251945D01*
X129094000Y-67114055D01*
X129120900Y-66978817D01*
X129173668Y-66851426D01*
X129250275Y-66736775D01*
X129347775Y-66639275D01*
X129409316Y-66598155D01*
X129462426Y-66562668D01*
X129589817Y-66509900D01*
X129725055Y-66483000D01*
X129862945Y-66483000D01*
X129998183Y-66509900D01*
X129998183Y-66509900D01*
G37*
G36*
X113929224Y-63826128D02*
X114061175Y-63866155D01*
X114182781Y-63931155D01*
X114289370Y-64018630D01*
X114376845Y-64125219D01*
X114441845Y-64246825D01*
X114481872Y-64378776D01*
X114495387Y-64516000D01*
X114481872Y-64653224D01*
X114441845Y-64785175D01*
X114376845Y-64906781D01*
X114289370Y-65013370D01*
X114182781Y-65100845D01*
X114061175Y-65165845D01*
X113929224Y-65205872D01*
X113826390Y-65216000D01*
X113757610Y-65216000D01*
X113654776Y-65205872D01*
X113522825Y-65165845D01*
X113401219Y-65100845D01*
X113294630Y-65013370D01*
X113207155Y-64906781D01*
X113142155Y-64785175D01*
X113102128Y-64653224D01*
X113088613Y-64516000D01*
X113102128Y-64378776D01*
X113142155Y-64246825D01*
X113207155Y-64125219D01*
X113294630Y-64018630D01*
X113401219Y-63931155D01*
X113522825Y-63866155D01*
X113654776Y-63826128D01*
X113757610Y-63816000D01*
X113826390Y-63816000D01*
X113929224Y-63826128D01*
X113929224Y-63826128D01*
G37*
G36*
X157329926Y-60478029D02*
X157395356Y-60491044D01*
X157580256Y-60567632D01*
X157746665Y-60678823D01*
X157888177Y-60820335D01*
X157999368Y-60986744D01*
X158075956Y-61171645D01*
X158115000Y-61367931D01*
X158115000Y-61568069D01*
X158075956Y-61764355D01*
X157999368Y-61949256D01*
X157888177Y-62115665D01*
X157746665Y-62257177D01*
X157746662Y-62257179D01*
X157580256Y-62368368D01*
X157395356Y-62444956D01*
X157329926Y-62457971D01*
X157199069Y-62484000D01*
X156998931Y-62484000D01*
X156868074Y-62457971D01*
X156802644Y-62444956D01*
X156617744Y-62368368D01*
X156451338Y-62257179D01*
X156451335Y-62257177D01*
X156309823Y-62115665D01*
X156198632Y-61949256D01*
X156122044Y-61764355D01*
X156083000Y-61568069D01*
X156083000Y-61367931D01*
X156122044Y-61171645D01*
X156198632Y-60986744D01*
X156309823Y-60820335D01*
X156451335Y-60678823D01*
X156617744Y-60567632D01*
X156802644Y-60491044D01*
X156868074Y-60478029D01*
X156998931Y-60452000D01*
X157199069Y-60452000D01*
X157329926Y-60478029D01*
X157329926Y-60478029D01*
G37*
G36*
X130659926Y-60478029D02*
X130725356Y-60491044D01*
X130910256Y-60567632D01*
X131076665Y-60678823D01*
X131218177Y-60820335D01*
X131329368Y-60986744D01*
X131405956Y-61171645D01*
X131445000Y-61367931D01*
X131445000Y-61568069D01*
X131405956Y-61764355D01*
X131329368Y-61949256D01*
X131218177Y-62115665D01*
X131076665Y-62257177D01*
X131076662Y-62257179D01*
X130910256Y-62368368D01*
X130725356Y-62444956D01*
X130659926Y-62457971D01*
X130529069Y-62484000D01*
X130328931Y-62484000D01*
X130198074Y-62457971D01*
X130132644Y-62444956D01*
X129947744Y-62368368D01*
X129781338Y-62257179D01*
X129781335Y-62257177D01*
X129639823Y-62115665D01*
X129528632Y-61949256D01*
X129452044Y-61764355D01*
X129413000Y-61568069D01*
X129413000Y-61367931D01*
X129452044Y-61171645D01*
X129528632Y-60986744D01*
X129639823Y-60820335D01*
X129781335Y-60678823D01*
X129947744Y-60567632D01*
X130132644Y-60491044D01*
X130198074Y-60478029D01*
X130328931Y-60452000D01*
X130529069Y-60452000D01*
X130659926Y-60478029D01*
X130659926Y-60478029D01*
G37*
G36*
X155575000Y-62484000D02*
X153543000Y-62484000D01*
X153543000Y-60452000D01*
X155575000Y-60452000D01*
X155575000Y-62484000D01*
X155575000Y-62484000D01*
G37*
G36*
X162409926Y-60478029D02*
X162475356Y-60491044D01*
X162660256Y-60567632D01*
X162826665Y-60678823D01*
X162968177Y-60820335D01*
X163079368Y-60986744D01*
X163155956Y-61171645D01*
X163195000Y-61367931D01*
X163195000Y-61568069D01*
X163155956Y-61764355D01*
X163079368Y-61949256D01*
X162968177Y-62115665D01*
X162826665Y-62257177D01*
X162826662Y-62257179D01*
X162660256Y-62368368D01*
X162475356Y-62444956D01*
X162409926Y-62457971D01*
X162279069Y-62484000D01*
X162078931Y-62484000D01*
X161948074Y-62457971D01*
X161882644Y-62444956D01*
X161697744Y-62368368D01*
X161531338Y-62257179D01*
X161531335Y-62257177D01*
X161389823Y-62115665D01*
X161278632Y-61949256D01*
X161202044Y-61764355D01*
X161163000Y-61568069D01*
X161163000Y-61367931D01*
X161202044Y-61171645D01*
X161278632Y-60986744D01*
X161389823Y-60820335D01*
X161531335Y-60678823D01*
X161697744Y-60567632D01*
X161882644Y-60491044D01*
X161948074Y-60478029D01*
X162078931Y-60452000D01*
X162279069Y-60452000D01*
X162409926Y-60478029D01*
X162409926Y-60478029D01*
G37*
G36*
X164949926Y-60478029D02*
X165015356Y-60491044D01*
X165200256Y-60567632D01*
X165366665Y-60678823D01*
X165508177Y-60820335D01*
X165619368Y-60986744D01*
X165695956Y-61171645D01*
X165735000Y-61367931D01*
X165735000Y-61568069D01*
X165695956Y-61764355D01*
X165619368Y-61949256D01*
X165508177Y-62115665D01*
X165366665Y-62257177D01*
X165366662Y-62257179D01*
X165200256Y-62368368D01*
X165015356Y-62444956D01*
X164949926Y-62457971D01*
X164819069Y-62484000D01*
X164618931Y-62484000D01*
X164488074Y-62457971D01*
X164422644Y-62444956D01*
X164237744Y-62368368D01*
X164071338Y-62257179D01*
X164071335Y-62257177D01*
X163929823Y-62115665D01*
X163818632Y-61949256D01*
X163742044Y-61764355D01*
X163703000Y-61568069D01*
X163703000Y-61367931D01*
X163742044Y-61171645D01*
X163818632Y-60986744D01*
X163929823Y-60820335D01*
X164071335Y-60678823D01*
X164237744Y-60567632D01*
X164422644Y-60491044D01*
X164488074Y-60478029D01*
X164618931Y-60452000D01*
X164819069Y-60452000D01*
X164949926Y-60478029D01*
X164949926Y-60478029D01*
G37*
G36*
X138279926Y-60478029D02*
X138345356Y-60491044D01*
X138530256Y-60567632D01*
X138696665Y-60678823D01*
X138838177Y-60820335D01*
X138949368Y-60986744D01*
X139025956Y-61171645D01*
X139065000Y-61367931D01*
X139065000Y-61568069D01*
X139025956Y-61764355D01*
X138949368Y-61949256D01*
X138838177Y-62115665D01*
X138696665Y-62257177D01*
X138696662Y-62257179D01*
X138530256Y-62368368D01*
X138345356Y-62444956D01*
X138279926Y-62457971D01*
X138149069Y-62484000D01*
X137948931Y-62484000D01*
X137818074Y-62457971D01*
X137752644Y-62444956D01*
X137567744Y-62368368D01*
X137401338Y-62257179D01*
X137401335Y-62257177D01*
X137259823Y-62115665D01*
X137148632Y-61949256D01*
X137072044Y-61764355D01*
X137033000Y-61568069D01*
X137033000Y-61367931D01*
X137072044Y-61171645D01*
X137148632Y-60986744D01*
X137259823Y-60820335D01*
X137401335Y-60678823D01*
X137567744Y-60567632D01*
X137752644Y-60491044D01*
X137818074Y-60478029D01*
X137948931Y-60452000D01*
X138149069Y-60452000D01*
X138279926Y-60478029D01*
X138279926Y-60478029D01*
G37*
G36*
X135739926Y-60478029D02*
X135805356Y-60491044D01*
X135990256Y-60567632D01*
X136156665Y-60678823D01*
X136298177Y-60820335D01*
X136409368Y-60986744D01*
X136485956Y-61171645D01*
X136525000Y-61367931D01*
X136525000Y-61568069D01*
X136485956Y-61764355D01*
X136409368Y-61949256D01*
X136298177Y-62115665D01*
X136156665Y-62257177D01*
X136156662Y-62257179D01*
X135990256Y-62368368D01*
X135805356Y-62444956D01*
X135739926Y-62457971D01*
X135609069Y-62484000D01*
X135408931Y-62484000D01*
X135278074Y-62457971D01*
X135212644Y-62444956D01*
X135027744Y-62368368D01*
X134861338Y-62257179D01*
X134861335Y-62257177D01*
X134719823Y-62115665D01*
X134608632Y-61949256D01*
X134532044Y-61764355D01*
X134493000Y-61568069D01*
X134493000Y-61367931D01*
X134532044Y-61171645D01*
X134608632Y-60986744D01*
X134719823Y-60820335D01*
X134861335Y-60678823D01*
X135027744Y-60567632D01*
X135212644Y-60491044D01*
X135278074Y-60478029D01*
X135408931Y-60452000D01*
X135609069Y-60452000D01*
X135739926Y-60478029D01*
X135739926Y-60478029D01*
G37*
G36*
X133199926Y-60478029D02*
X133265356Y-60491044D01*
X133450256Y-60567632D01*
X133616665Y-60678823D01*
X133758177Y-60820335D01*
X133869368Y-60986744D01*
X133945956Y-61171645D01*
X133985000Y-61367931D01*
X133985000Y-61568069D01*
X133945956Y-61764355D01*
X133869368Y-61949256D01*
X133758177Y-62115665D01*
X133616665Y-62257177D01*
X133616662Y-62257179D01*
X133450256Y-62368368D01*
X133265356Y-62444956D01*
X133199926Y-62457971D01*
X133069069Y-62484000D01*
X132868931Y-62484000D01*
X132738074Y-62457971D01*
X132672644Y-62444956D01*
X132487744Y-62368368D01*
X132321338Y-62257179D01*
X132321335Y-62257177D01*
X132179823Y-62115665D01*
X132068632Y-61949256D01*
X131992044Y-61764355D01*
X131953000Y-61568069D01*
X131953000Y-61367931D01*
X131992044Y-61171645D01*
X132068632Y-60986744D01*
X132179823Y-60820335D01*
X132321335Y-60678823D01*
X132487744Y-60567632D01*
X132672644Y-60491044D01*
X132738074Y-60478029D01*
X132868931Y-60452000D01*
X133069069Y-60452000D01*
X133199926Y-60478029D01*
X133199926Y-60478029D01*
G37*
G36*
X159869926Y-60478029D02*
X159935356Y-60491044D01*
X160120256Y-60567632D01*
X160286665Y-60678823D01*
X160428177Y-60820335D01*
X160539368Y-60986744D01*
X160615956Y-61171645D01*
X160655000Y-61367931D01*
X160655000Y-61568069D01*
X160615956Y-61764355D01*
X160539368Y-61949256D01*
X160428177Y-62115665D01*
X160286665Y-62257177D01*
X160286662Y-62257179D01*
X160120256Y-62368368D01*
X159935356Y-62444956D01*
X159869926Y-62457971D01*
X159739069Y-62484000D01*
X159538931Y-62484000D01*
X159408074Y-62457971D01*
X159342644Y-62444956D01*
X159157744Y-62368368D01*
X158991338Y-62257179D01*
X158991335Y-62257177D01*
X158849823Y-62115665D01*
X158738632Y-61949256D01*
X158662044Y-61764355D01*
X158623000Y-61568069D01*
X158623000Y-61367931D01*
X158662044Y-61171645D01*
X158738632Y-60986744D01*
X158849823Y-60820335D01*
X158991335Y-60678823D01*
X159157744Y-60567632D01*
X159342644Y-60491044D01*
X159408074Y-60478029D01*
X159538931Y-60452000D01*
X159739069Y-60452000D01*
X159869926Y-60478029D01*
X159869926Y-60478029D01*
G37*
G36*
X128119926Y-60478029D02*
X128185356Y-60491044D01*
X128370256Y-60567632D01*
X128536665Y-60678823D01*
X128678177Y-60820335D01*
X128789368Y-60986744D01*
X128865956Y-61171645D01*
X128905000Y-61367931D01*
X128905000Y-61568069D01*
X128865956Y-61764355D01*
X128789368Y-61949256D01*
X128678177Y-62115665D01*
X128536665Y-62257177D01*
X128536662Y-62257179D01*
X128370256Y-62368368D01*
X128185356Y-62444956D01*
X128119926Y-62457971D01*
X127989069Y-62484000D01*
X127788931Y-62484000D01*
X127658074Y-62457971D01*
X127592644Y-62444956D01*
X127407744Y-62368368D01*
X127241338Y-62257179D01*
X127241335Y-62257177D01*
X127099823Y-62115665D01*
X126988632Y-61949256D01*
X126912044Y-61764355D01*
X126873000Y-61568069D01*
X126873000Y-61367931D01*
X126912044Y-61171645D01*
X126988632Y-60986744D01*
X127099823Y-60820335D01*
X127241335Y-60678823D01*
X127407744Y-60567632D01*
X127592644Y-60491044D01*
X127658074Y-60478029D01*
X127788931Y-60452000D01*
X127989069Y-60452000D01*
X128119926Y-60478029D01*
X128119926Y-60478029D01*
G37*
G36*
X126365000Y-62484000D02*
X124333000Y-62484000D01*
X124333000Y-60452000D01*
X126365000Y-60452000D01*
X126365000Y-62484000D01*
X126365000Y-62484000D01*
G37*
G36*
X171400183Y-59524900D02*
X171527574Y-59577668D01*
X171642225Y-59654275D01*
X171739725Y-59751775D01*
X171816332Y-59866426D01*
X171869100Y-59993817D01*
X171896000Y-60129055D01*
X171896000Y-60266945D01*
X171869100Y-60402183D01*
X171816332Y-60529574D01*
X171739725Y-60644225D01*
X171642225Y-60741725D01*
X171527574Y-60818332D01*
X171400183Y-60871100D01*
X171264945Y-60898000D01*
X171127055Y-60898000D01*
X170991817Y-60871100D01*
X170864426Y-60818332D01*
X170749775Y-60741725D01*
X170652275Y-60644225D01*
X170575668Y-60529574D01*
X170522900Y-60402183D01*
X170496000Y-60266945D01*
X170496000Y-60129055D01*
X170522900Y-59993817D01*
X170575668Y-59866426D01*
X170652275Y-59751775D01*
X170749775Y-59654275D01*
X170864426Y-59577668D01*
X170991817Y-59524900D01*
X171127055Y-59498000D01*
X171264945Y-59498000D01*
X171400183Y-59524900D01*
X171400183Y-59524900D01*
G37*
G36*
X149683183Y-59524900D02*
X149810574Y-59577668D01*
X149925225Y-59654275D01*
X150022725Y-59751775D01*
X150099332Y-59866426D01*
X150152100Y-59993817D01*
X150179000Y-60129055D01*
X150179000Y-60266945D01*
X150152100Y-60402183D01*
X150099332Y-60529574D01*
X150022725Y-60644225D01*
X149925225Y-60741725D01*
X149810574Y-60818332D01*
X149683183Y-60871100D01*
X149547945Y-60898000D01*
X149410055Y-60898000D01*
X149274817Y-60871100D01*
X149147426Y-60818332D01*
X149032775Y-60741725D01*
X148935275Y-60644225D01*
X148858668Y-60529574D01*
X148805900Y-60402183D01*
X148779000Y-60266945D01*
X148779000Y-60129055D01*
X148805900Y-59993817D01*
X148858668Y-59866426D01*
X148935275Y-59751775D01*
X149032775Y-59654275D01*
X149147426Y-59577668D01*
X149274817Y-59524900D01*
X149410055Y-59498000D01*
X149547945Y-59498000D01*
X149683183Y-59524900D01*
X149683183Y-59524900D01*
G37*
G36*
X113996183Y-56222900D02*
X114123574Y-56275668D01*
X114238225Y-56352275D01*
X114335725Y-56449775D01*
X114412332Y-56564426D01*
X114465100Y-56691817D01*
X114492000Y-56827055D01*
X114492000Y-56964945D01*
X114465100Y-57100183D01*
X114412332Y-57227574D01*
X114335725Y-57342225D01*
X114238225Y-57439725D01*
X114123574Y-57516332D01*
X113996183Y-57569100D01*
X113860945Y-57596000D01*
X113723055Y-57596000D01*
X113587817Y-57569100D01*
X113460426Y-57516332D01*
X113345775Y-57439725D01*
X113248275Y-57342225D01*
X113171668Y-57227574D01*
X113118900Y-57100183D01*
X113092000Y-56964945D01*
X113092000Y-56827055D01*
X113118900Y-56691817D01*
X113171668Y-56564426D01*
X113248275Y-56449775D01*
X113345775Y-56352275D01*
X113460426Y-56275668D01*
X113587817Y-56222900D01*
X113723055Y-56196000D01*
X113860945Y-56196000D01*
X113996183Y-56222900D01*
X113996183Y-56222900D01*
G37*
G36*
X149616224Y-51888128D02*
X149748175Y-51928155D01*
X149869781Y-51993155D01*
X149976370Y-52080630D01*
X150063845Y-52187219D01*
X150128845Y-52308825D01*
X150168872Y-52440776D01*
X150182387Y-52578000D01*
X150168872Y-52715224D01*
X150128845Y-52847175D01*
X150063845Y-52968781D01*
X149976370Y-53075370D01*
X149869781Y-53162845D01*
X149748175Y-53227845D01*
X149616224Y-53267872D01*
X149513390Y-53278000D01*
X149444610Y-53278000D01*
X149341776Y-53267872D01*
X149209825Y-53227845D01*
X149088219Y-53162845D01*
X148981630Y-53075370D01*
X148894155Y-52968781D01*
X148829155Y-52847175D01*
X148789128Y-52715224D01*
X148775613Y-52578000D01*
X148789128Y-52440776D01*
X148829155Y-52308825D01*
X148894155Y-52187219D01*
X148981630Y-52080630D01*
X149088219Y-51993155D01*
X149209825Y-51928155D01*
X149341776Y-51888128D01*
X149444610Y-51878000D01*
X149513390Y-51878000D01*
X149616224Y-51888128D01*
X149616224Y-51888128D01*
G37*
G36*
X171333224Y-51888128D02*
X171465175Y-51928155D01*
X171586781Y-51993155D01*
X171693370Y-52080630D01*
X171780845Y-52187219D01*
X171845845Y-52308825D01*
X171885872Y-52440776D01*
X171899387Y-52578000D01*
X171885872Y-52715224D01*
X171845845Y-52847175D01*
X171780845Y-52968781D01*
X171693370Y-53075370D01*
X171586781Y-53162845D01*
X171465175Y-53227845D01*
X171333224Y-53267872D01*
X171230390Y-53278000D01*
X171161610Y-53278000D01*
X171058776Y-53267872D01*
X170926825Y-53227845D01*
X170805219Y-53162845D01*
X170698630Y-53075370D01*
X170611155Y-52968781D01*
X170546155Y-52847175D01*
X170506128Y-52715224D01*
X170492613Y-52578000D01*
X170506128Y-52440776D01*
X170546155Y-52308825D01*
X170611155Y-52187219D01*
X170698630Y-52080630D01*
X170805219Y-51993155D01*
X170926825Y-51928155D01*
X171058776Y-51888128D01*
X171161610Y-51878000D01*
X171230390Y-51878000D01*
X171333224Y-51888128D01*
X171333224Y-51888128D01*
G37*
G36*
X135739926Y-50318029D02*
X135805356Y-50331044D01*
X135990256Y-50407632D01*
X136156665Y-50518823D01*
X136298177Y-50660335D01*
X136409368Y-50826744D01*
X136485956Y-51011645D01*
X136525000Y-51207931D01*
X136525000Y-51408069D01*
X136485956Y-51604355D01*
X136409368Y-51789256D01*
X136298177Y-51955665D01*
X136156665Y-52097177D01*
X136156662Y-52097179D01*
X135990256Y-52208368D01*
X135805356Y-52284956D01*
X135739926Y-52297971D01*
X135609069Y-52324000D01*
X135408931Y-52324000D01*
X135278074Y-52297971D01*
X135212644Y-52284956D01*
X135027744Y-52208368D01*
X134861338Y-52097179D01*
X134861335Y-52097177D01*
X134719823Y-51955665D01*
X134608632Y-51789256D01*
X134532044Y-51604355D01*
X134493000Y-51408069D01*
X134493000Y-51207931D01*
X134532044Y-51011645D01*
X134608632Y-50826744D01*
X134719823Y-50660335D01*
X134861335Y-50518823D01*
X135027744Y-50407632D01*
X135212644Y-50331044D01*
X135278074Y-50318029D01*
X135408931Y-50292000D01*
X135609069Y-50292000D01*
X135739926Y-50318029D01*
X135739926Y-50318029D01*
G37*
G36*
X133199926Y-50318029D02*
X133265356Y-50331044D01*
X133450256Y-50407632D01*
X133616665Y-50518823D01*
X133758177Y-50660335D01*
X133869368Y-50826744D01*
X133945956Y-51011645D01*
X133985000Y-51207931D01*
X133985000Y-51408069D01*
X133945956Y-51604355D01*
X133869368Y-51789256D01*
X133758177Y-51955665D01*
X133616665Y-52097177D01*
X133616662Y-52097179D01*
X133450256Y-52208368D01*
X133265356Y-52284956D01*
X133199926Y-52297971D01*
X133069069Y-52324000D01*
X132868931Y-52324000D01*
X132738074Y-52297971D01*
X132672644Y-52284956D01*
X132487744Y-52208368D01*
X132321338Y-52097179D01*
X132321335Y-52097177D01*
X132179823Y-51955665D01*
X132068632Y-51789256D01*
X131992044Y-51604355D01*
X131953000Y-51408069D01*
X131953000Y-51207931D01*
X131992044Y-51011645D01*
X132068632Y-50826744D01*
X132179823Y-50660335D01*
X132321335Y-50518823D01*
X132487744Y-50407632D01*
X132672644Y-50331044D01*
X132738074Y-50318029D01*
X132868931Y-50292000D01*
X133069069Y-50292000D01*
X133199926Y-50318029D01*
X133199926Y-50318029D01*
G37*
G36*
X125579926Y-50318029D02*
X125645356Y-50331044D01*
X125830256Y-50407632D01*
X125996665Y-50518823D01*
X126138177Y-50660335D01*
X126249368Y-50826744D01*
X126325956Y-51011645D01*
X126365000Y-51207931D01*
X126365000Y-51408069D01*
X126325956Y-51604355D01*
X126249368Y-51789256D01*
X126138177Y-51955665D01*
X125996665Y-52097177D01*
X125996662Y-52097179D01*
X125830256Y-52208368D01*
X125645356Y-52284956D01*
X125579926Y-52297971D01*
X125449069Y-52324000D01*
X125248931Y-52324000D01*
X125118074Y-52297971D01*
X125052644Y-52284956D01*
X124867744Y-52208368D01*
X124701338Y-52097179D01*
X124701335Y-52097177D01*
X124559823Y-51955665D01*
X124448632Y-51789256D01*
X124372044Y-51604355D01*
X124333000Y-51408069D01*
X124333000Y-51207931D01*
X124372044Y-51011645D01*
X124448632Y-50826744D01*
X124559823Y-50660335D01*
X124701335Y-50518823D01*
X124867744Y-50407632D01*
X125052644Y-50331044D01*
X125118074Y-50318029D01*
X125248931Y-50292000D01*
X125449069Y-50292000D01*
X125579926Y-50318029D01*
X125579926Y-50318029D01*
G37*
G36*
X128119926Y-50318029D02*
X128185356Y-50331044D01*
X128370256Y-50407632D01*
X128536665Y-50518823D01*
X128678177Y-50660335D01*
X128789368Y-50826744D01*
X128865956Y-51011645D01*
X128905000Y-51207931D01*
X128905000Y-51408069D01*
X128865956Y-51604355D01*
X128789368Y-51789256D01*
X128678177Y-51955665D01*
X128536665Y-52097177D01*
X128536662Y-52097179D01*
X128370256Y-52208368D01*
X128185356Y-52284956D01*
X128119926Y-52297971D01*
X127989069Y-52324000D01*
X127788931Y-52324000D01*
X127658074Y-52297971D01*
X127592644Y-52284956D01*
X127407744Y-52208368D01*
X127241338Y-52097179D01*
X127241335Y-52097177D01*
X127099823Y-51955665D01*
X126988632Y-51789256D01*
X126912044Y-51604355D01*
X126873000Y-51408069D01*
X126873000Y-51207931D01*
X126912044Y-51011645D01*
X126988632Y-50826744D01*
X127099823Y-50660335D01*
X127241335Y-50518823D01*
X127407744Y-50407632D01*
X127592644Y-50331044D01*
X127658074Y-50318029D01*
X127788931Y-50292000D01*
X127989069Y-50292000D01*
X128119926Y-50318029D01*
X128119926Y-50318029D01*
G37*
G36*
X130659926Y-50318029D02*
X130725356Y-50331044D01*
X130910256Y-50407632D01*
X131076665Y-50518823D01*
X131218177Y-50660335D01*
X131329368Y-50826744D01*
X131405956Y-51011645D01*
X131445000Y-51207931D01*
X131445000Y-51408069D01*
X131405956Y-51604355D01*
X131329368Y-51789256D01*
X131218177Y-51955665D01*
X131076665Y-52097177D01*
X131076662Y-52097179D01*
X130910256Y-52208368D01*
X130725356Y-52284956D01*
X130659926Y-52297971D01*
X130529069Y-52324000D01*
X130328931Y-52324000D01*
X130198074Y-52297971D01*
X130132644Y-52284956D01*
X129947744Y-52208368D01*
X129781338Y-52097179D01*
X129781335Y-52097177D01*
X129639823Y-51955665D01*
X129528632Y-51789256D01*
X129452044Y-51604355D01*
X129413000Y-51408069D01*
X129413000Y-51207931D01*
X129452044Y-51011645D01*
X129528632Y-50826744D01*
X129639823Y-50660335D01*
X129781335Y-50518823D01*
X129947744Y-50407632D01*
X130132644Y-50331044D01*
X130198074Y-50318029D01*
X130328931Y-50292000D01*
X130529069Y-50292000D01*
X130659926Y-50318029D01*
X130659926Y-50318029D01*
G37*
G36*
X138279926Y-50318029D02*
X138345356Y-50331044D01*
X138530256Y-50407632D01*
X138696665Y-50518823D01*
X138838177Y-50660335D01*
X138949368Y-50826744D01*
X139025956Y-51011645D01*
X139065000Y-51207931D01*
X139065000Y-51408069D01*
X139025956Y-51604355D01*
X138949368Y-51789256D01*
X138838177Y-51955665D01*
X138696665Y-52097177D01*
X138696662Y-52097179D01*
X138530256Y-52208368D01*
X138345356Y-52284956D01*
X138279926Y-52297971D01*
X138149069Y-52324000D01*
X137948931Y-52324000D01*
X137818074Y-52297971D01*
X137752644Y-52284956D01*
X137567744Y-52208368D01*
X137401338Y-52097179D01*
X137401335Y-52097177D01*
X137259823Y-51955665D01*
X137148632Y-51789256D01*
X137072044Y-51604355D01*
X137033000Y-51408069D01*
X137033000Y-51207931D01*
X137072044Y-51011645D01*
X137148632Y-50826744D01*
X137259823Y-50660335D01*
X137401335Y-50518823D01*
X137567744Y-50407632D01*
X137752644Y-50331044D01*
X137818074Y-50318029D01*
X137948931Y-50292000D01*
X138149069Y-50292000D01*
X138279926Y-50318029D01*
X138279926Y-50318029D01*
G37*
G36*
X154789926Y-50318029D02*
X154855356Y-50331044D01*
X155040256Y-50407632D01*
X155206665Y-50518823D01*
X155348177Y-50660335D01*
X155459368Y-50826744D01*
X155535956Y-51011645D01*
X155575000Y-51207931D01*
X155575000Y-51408069D01*
X155535956Y-51604355D01*
X155459368Y-51789256D01*
X155348177Y-51955665D01*
X155206665Y-52097177D01*
X155206662Y-52097179D01*
X155040256Y-52208368D01*
X154855356Y-52284956D01*
X154789926Y-52297971D01*
X154659069Y-52324000D01*
X154458931Y-52324000D01*
X154328074Y-52297971D01*
X154262644Y-52284956D01*
X154077744Y-52208368D01*
X153911338Y-52097179D01*
X153911335Y-52097177D01*
X153769823Y-51955665D01*
X153658632Y-51789256D01*
X153582044Y-51604355D01*
X153543000Y-51408069D01*
X153543000Y-51207931D01*
X153582044Y-51011645D01*
X153658632Y-50826744D01*
X153769823Y-50660335D01*
X153911335Y-50518823D01*
X154077744Y-50407632D01*
X154262644Y-50331044D01*
X154328074Y-50318029D01*
X154458931Y-50292000D01*
X154659069Y-50292000D01*
X154789926Y-50318029D01*
X154789926Y-50318029D01*
G37*
G36*
X157329926Y-50318029D02*
X157395356Y-50331044D01*
X157580256Y-50407632D01*
X157746665Y-50518823D01*
X157888177Y-50660335D01*
X157999368Y-50826744D01*
X158075956Y-51011645D01*
X158115000Y-51207931D01*
X158115000Y-51408069D01*
X158075956Y-51604355D01*
X157999368Y-51789256D01*
X157888177Y-51955665D01*
X157746665Y-52097177D01*
X157746662Y-52097179D01*
X157580256Y-52208368D01*
X157395356Y-52284956D01*
X157329926Y-52297971D01*
X157199069Y-52324000D01*
X156998931Y-52324000D01*
X156868074Y-52297971D01*
X156802644Y-52284956D01*
X156617744Y-52208368D01*
X156451338Y-52097179D01*
X156451335Y-52097177D01*
X156309823Y-51955665D01*
X156198632Y-51789256D01*
X156122044Y-51604355D01*
X156083000Y-51408069D01*
X156083000Y-51207931D01*
X156122044Y-51011645D01*
X156198632Y-50826744D01*
X156309823Y-50660335D01*
X156451335Y-50518823D01*
X156617744Y-50407632D01*
X156802644Y-50331044D01*
X156868074Y-50318029D01*
X156998931Y-50292000D01*
X157199069Y-50292000D01*
X157329926Y-50318029D01*
X157329926Y-50318029D01*
G37*
G36*
X159869926Y-50318029D02*
X159935356Y-50331044D01*
X160120256Y-50407632D01*
X160286665Y-50518823D01*
X160428177Y-50660335D01*
X160539368Y-50826744D01*
X160615956Y-51011645D01*
X160655000Y-51207931D01*
X160655000Y-51408069D01*
X160615956Y-51604355D01*
X160539368Y-51789256D01*
X160428177Y-51955665D01*
X160286665Y-52097177D01*
X160286662Y-52097179D01*
X160120256Y-52208368D01*
X159935356Y-52284956D01*
X159869926Y-52297971D01*
X159739069Y-52324000D01*
X159538931Y-52324000D01*
X159408074Y-52297971D01*
X159342644Y-52284956D01*
X159157744Y-52208368D01*
X158991338Y-52097179D01*
X158991335Y-52097177D01*
X158849823Y-51955665D01*
X158738632Y-51789256D01*
X158662044Y-51604355D01*
X158623000Y-51408069D01*
X158623000Y-51207931D01*
X158662044Y-51011645D01*
X158738632Y-50826744D01*
X158849823Y-50660335D01*
X158991335Y-50518823D01*
X159157744Y-50407632D01*
X159342644Y-50331044D01*
X159408074Y-50318029D01*
X159538931Y-50292000D01*
X159739069Y-50292000D01*
X159869926Y-50318029D01*
X159869926Y-50318029D01*
G37*
G36*
X162409926Y-50318029D02*
X162475356Y-50331044D01*
X162660256Y-50407632D01*
X162826665Y-50518823D01*
X162968177Y-50660335D01*
X163079368Y-50826744D01*
X163155956Y-51011645D01*
X163195000Y-51207931D01*
X163195000Y-51408069D01*
X163155956Y-51604355D01*
X163079368Y-51789256D01*
X162968177Y-51955665D01*
X162826665Y-52097177D01*
X162826662Y-52097179D01*
X162660256Y-52208368D01*
X162475356Y-52284956D01*
X162409926Y-52297971D01*
X162279069Y-52324000D01*
X162078931Y-52324000D01*
X161948074Y-52297971D01*
X161882644Y-52284956D01*
X161697744Y-52208368D01*
X161531338Y-52097179D01*
X161531335Y-52097177D01*
X161389823Y-51955665D01*
X161278632Y-51789256D01*
X161202044Y-51604355D01*
X161163000Y-51408069D01*
X161163000Y-51207931D01*
X161202044Y-51011645D01*
X161278632Y-50826744D01*
X161389823Y-50660335D01*
X161531335Y-50518823D01*
X161697744Y-50407632D01*
X161882644Y-50331044D01*
X161948074Y-50318029D01*
X162078931Y-50292000D01*
X162279069Y-50292000D01*
X162409926Y-50318029D01*
X162409926Y-50318029D01*
G37*
G36*
X164949926Y-50318029D02*
X165015356Y-50331044D01*
X165200256Y-50407632D01*
X165366665Y-50518823D01*
X165508177Y-50660335D01*
X165619368Y-50826744D01*
X165695956Y-51011645D01*
X165735000Y-51207931D01*
X165735000Y-51408069D01*
X165695956Y-51604355D01*
X165619368Y-51789256D01*
X165508177Y-51955665D01*
X165366665Y-52097177D01*
X165366662Y-52097179D01*
X165200256Y-52208368D01*
X165015356Y-52284956D01*
X164949926Y-52297971D01*
X164819069Y-52324000D01*
X164618931Y-52324000D01*
X164488074Y-52297971D01*
X164422644Y-52284956D01*
X164237744Y-52208368D01*
X164071338Y-52097179D01*
X164071335Y-52097177D01*
X163929823Y-51955665D01*
X163818632Y-51789256D01*
X163742044Y-51604355D01*
X163703000Y-51408069D01*
X163703000Y-51207931D01*
X163742044Y-51011645D01*
X163818632Y-50826744D01*
X163929823Y-50660335D01*
X164071335Y-50518823D01*
X164237744Y-50407632D01*
X164422644Y-50331044D01*
X164488074Y-50318029D01*
X164618931Y-50292000D01*
X164819069Y-50292000D01*
X164949926Y-50318029D01*
X164949926Y-50318029D01*
G37*
G36*
X121041224Y-46173128D02*
X121173175Y-46213155D01*
X121294781Y-46278155D01*
X121401370Y-46365630D01*
X121488845Y-46472219D01*
X121553845Y-46593825D01*
X121593872Y-46725776D01*
X121607387Y-46863000D01*
X121593872Y-47000224D01*
X121553845Y-47132175D01*
X121488845Y-47253781D01*
X121401370Y-47360370D01*
X121294781Y-47447845D01*
X121173175Y-47512845D01*
X121041224Y-47552872D01*
X120938390Y-47563000D01*
X120869610Y-47563000D01*
X120766776Y-47552872D01*
X120634825Y-47512845D01*
X120513219Y-47447845D01*
X120406630Y-47360370D01*
X120319155Y-47253781D01*
X120254155Y-47132175D01*
X120214128Y-47000224D01*
X120200613Y-46863000D01*
X120214128Y-46725776D01*
X120254155Y-46593825D01*
X120319155Y-46472219D01*
X120406630Y-46365630D01*
X120513219Y-46278155D01*
X120634825Y-46213155D01*
X120766776Y-46173128D01*
X120869610Y-46163000D01*
X120938390Y-46163000D01*
X121041224Y-46173128D01*
X121041224Y-46173128D01*
G37*
G36*
X128728183Y-46189900D02*
X128855574Y-46242668D01*
X128908685Y-46278155D01*
X128970225Y-46319275D01*
X129067725Y-46416775D01*
X129144332Y-46531426D01*
X129197100Y-46658817D01*
X129224000Y-46794055D01*
X129224000Y-46931945D01*
X129197100Y-47067183D01*
X129144332Y-47194574D01*
X129067726Y-47309224D01*
X128970224Y-47406726D01*
X128855574Y-47483332D01*
X128728183Y-47536100D01*
X128592945Y-47563000D01*
X128455055Y-47563000D01*
X128319817Y-47536100D01*
X128192426Y-47483332D01*
X128077776Y-47406726D01*
X127980274Y-47309224D01*
X127903668Y-47194574D01*
X127850900Y-47067183D01*
X127824000Y-46931945D01*
X127824000Y-46794055D01*
X127850900Y-46658817D01*
X127903668Y-46531426D01*
X127980275Y-46416775D01*
X128077775Y-46319275D01*
X128139316Y-46278155D01*
X128192426Y-46242668D01*
X128319817Y-46189900D01*
X128455055Y-46163000D01*
X128592945Y-46163000D01*
X128728183Y-46189900D01*
X128728183Y-46189900D01*
G37*
G36*
X139456224Y-46173128D02*
X139588175Y-46213155D01*
X139709781Y-46278155D01*
X139816370Y-46365630D01*
X139903845Y-46472219D01*
X139968845Y-46593825D01*
X140008872Y-46725776D01*
X140022387Y-46863000D01*
X140008872Y-47000224D01*
X139968845Y-47132175D01*
X139903845Y-47253781D01*
X139816370Y-47360370D01*
X139709781Y-47447845D01*
X139588175Y-47512845D01*
X139456224Y-47552872D01*
X139353390Y-47563000D01*
X139284610Y-47563000D01*
X139181776Y-47552872D01*
X139049825Y-47512845D01*
X138928219Y-47447845D01*
X138821630Y-47360370D01*
X138734155Y-47253781D01*
X138669155Y-47132175D01*
X138629128Y-47000224D01*
X138615613Y-46863000D01*
X138629128Y-46725776D01*
X138669155Y-46593825D01*
X138734155Y-46472219D01*
X138821630Y-46365630D01*
X138928219Y-46278155D01*
X139049825Y-46213155D01*
X139181776Y-46173128D01*
X139284610Y-46163000D01*
X139353390Y-46163000D01*
X139456224Y-46173128D01*
X139456224Y-46173128D01*
G37*
G36*
X147143183Y-46189900D02*
X147270574Y-46242668D01*
X147323685Y-46278155D01*
X147385225Y-46319275D01*
X147482725Y-46416775D01*
X147559332Y-46531426D01*
X147612100Y-46658817D01*
X147639000Y-46794055D01*
X147639000Y-46931945D01*
X147612100Y-47067183D01*
X147559332Y-47194574D01*
X147482726Y-47309224D01*
X147385224Y-47406726D01*
X147270574Y-47483332D01*
X147143183Y-47536100D01*
X147007945Y-47563000D01*
X146870055Y-47563000D01*
X146734817Y-47536100D01*
X146607426Y-47483332D01*
X146492776Y-47406726D01*
X146395274Y-47309224D01*
X146318668Y-47194574D01*
X146265900Y-47067183D01*
X146239000Y-46931945D01*
X146239000Y-46794055D01*
X146265900Y-46658817D01*
X146318668Y-46531426D01*
X146395275Y-46416775D01*
X146492775Y-46319275D01*
X146554316Y-46278155D01*
X146607426Y-46242668D01*
X146734817Y-46189900D01*
X146870055Y-46163000D01*
X147007945Y-46163000D01*
X147143183Y-46189900D01*
X147143183Y-46189900D01*
G37*
M02*
