G04 #@! TF.GenerationSoftware,KiCad,Pcbnew,(5.0.1-3-g963ef8bb5)*
G04 #@! TF.CreationDate,2018-12-12T19:15:58+01:00*
G04 #@! TF.ProjectId,kim-uno-rev1,6B696D2D756E6F2D726576312E6B6963,1*
G04 #@! TF.SameCoordinates,Original*
G04 #@! TF.FileFunction,Copper,L1,Top,Signal*
G04 #@! TF.FilePolarity,Positive*
%FSLAX46Y46*%
G04 Gerber Fmt 4.6, Leading zero omitted, Abs format (unit mm)*
G04 Created by KiCad (PCBNEW (5.0.1-3-g963ef8bb5)) date Wednesday, 12 December 2018 at 19:15:58*
%MOMM*%
%LPD*%
G01*
G04 APERTURE LIST*
G04 #@! TA.AperFunction,NonConductor*
%ADD10C,0.300000*%
G04 #@! TD*
G04 #@! TA.AperFunction,ComponentPad*
%ADD11C,2.032000*%
G04 #@! TD*
G04 #@! TA.AperFunction,ComponentPad*
%ADD12R,2.032000X2.032000*%
G04 #@! TD*
G04 #@! TA.AperFunction,ComponentPad*
%ADD13C,1.600000*%
G04 #@! TD*
G04 #@! TA.AperFunction,ComponentPad*
%ADD14R,1.700000X1.700000*%
G04 #@! TD*
G04 #@! TA.AperFunction,ComponentPad*
%ADD15O,1.700000X1.700000*%
G04 #@! TD*
G04 #@! TA.AperFunction,ComponentPad*
%ADD16O,1.400000X1.400000*%
G04 #@! TD*
G04 #@! TA.AperFunction,ComponentPad*
%ADD17C,1.400000*%
G04 #@! TD*
G04 #@! TA.AperFunction,SMDPad,CuDef*
%ADD18R,1.400000X2.200000*%
G04 #@! TD*
G04 #@! TA.AperFunction,ComponentPad*
%ADD19C,2.000000*%
G04 #@! TD*
G04 #@! TA.AperFunction,ComponentPad*
%ADD20O,1.600000X1.600000*%
G04 #@! TD*
G04 #@! TA.AperFunction,ViaPad*
%ADD21C,0.800000*%
G04 #@! TD*
G04 #@! TA.AperFunction,Conductor*
%ADD22C,0.508000*%
G04 #@! TD*
G04 #@! TA.AperFunction,Conductor*
%ADD23C,0.762000*%
G04 #@! TD*
G04 #@! TA.AperFunction,Conductor*
%ADD24C,0.254000*%
G04 #@! TD*
G04 APERTURE END LIST*
D10*
X111618571Y-48244285D02*
X111618571Y-47387142D01*
X113118571Y-47815714D02*
X111618571Y-47815714D01*
X111618571Y-46601428D02*
X111618571Y-46315714D01*
X111690000Y-46172857D01*
X111832857Y-46030000D01*
X112118571Y-45958571D01*
X112618571Y-45958571D01*
X112904285Y-46030000D01*
X113047142Y-46172857D01*
X113118571Y-46315714D01*
X113118571Y-46601428D01*
X113047142Y-46744285D01*
X112904285Y-46887142D01*
X112618571Y-46958571D01*
X112118571Y-46958571D01*
X111832857Y-46887142D01*
X111690000Y-46744285D01*
X111618571Y-46601428D01*
X113118571Y-45315714D02*
X111618571Y-45315714D01*
X111618571Y-44744285D01*
X111690000Y-44601428D01*
X111761428Y-44530000D01*
X111904285Y-44458571D01*
X112118571Y-44458571D01*
X112261428Y-44530000D01*
X112332857Y-44601428D01*
X112404285Y-44744285D01*
X112404285Y-45315714D01*
D11*
G04 #@! TO.P,7SEG1,2*
G04 #@! TO.N,Net-(7SEG1-Pad2)*
X127889000Y-61468000D03*
D12*
G04 #@! TO.P,7SEG1,1*
G04 #@! TO.N,Net-(7SEG1-Pad1)*
X125349000Y-61468000D03*
D11*
G04 #@! TO.P,7SEG1,3*
G04 #@! TO.N,N/C*
X130429000Y-61468000D03*
G04 #@! TO.P,7SEG1,4*
G04 #@! TO.N,Net-(7SEG1-Pad4)*
X132969000Y-61468000D03*
G04 #@! TO.P,7SEG1,5*
G04 #@! TO.N,Net-(7SEG1-Pad5)*
X135509000Y-61468000D03*
G04 #@! TO.P,7SEG1,6*
G04 #@! TO.N,/DIG2*
X138049000Y-61468000D03*
G04 #@! TO.P,7SEG1,7*
G04 #@! TO.N,Net-(7SEG1-Pad7)*
X138049000Y-51308000D03*
G04 #@! TO.P,7SEG1,8*
G04 #@! TO.N,/DIG3*
X135509000Y-51308000D03*
G04 #@! TO.P,7SEG1,9*
G04 #@! TO.N,/DIG4*
X132969000Y-51308000D03*
G04 #@! TO.P,7SEG1,10*
G04 #@! TO.N,Net-(7SEG1-Pad10)*
X130429000Y-51308000D03*
G04 #@! TO.P,7SEG1,11*
G04 #@! TO.N,Net-(7SEG1-Pad11)*
X127889000Y-51308000D03*
G04 #@! TO.P,7SEG1,12*
G04 #@! TO.N,/DIG5*
X125349000Y-51308000D03*
G04 #@! TD*
G04 #@! TO.P,7SEG2,2*
G04 #@! TO.N,N/C*
X157099000Y-61468000D03*
D12*
G04 #@! TO.P,7SEG2,1*
G04 #@! TO.N,Net-(7SEG1-Pad5)*
X154559000Y-61468000D03*
D11*
G04 #@! TO.P,7SEG2,3*
G04 #@! TO.N,Net-(7SEG1-Pad11)*
X159639000Y-61468000D03*
G04 #@! TO.P,7SEG2,4*
G04 #@! TO.N,Net-(7SEG1-Pad10)*
X162179000Y-61468000D03*
G04 #@! TO.P,7SEG2,5*
G04 #@! TO.N,/DIG0*
X164719000Y-61468000D03*
G04 #@! TO.P,7SEG2,6*
G04 #@! TO.N,Net-(7SEG1-Pad2)*
X164719000Y-51308000D03*
G04 #@! TO.P,7SEG2,7*
G04 #@! TO.N,Net-(7SEG1-Pad1)*
X162179000Y-51308000D03*
G04 #@! TO.P,7SEG2,8*
G04 #@! TO.N,Net-(7SEG1-Pad4)*
X159639000Y-51308000D03*
G04 #@! TO.P,7SEG2,9*
G04 #@! TO.N,Net-(7SEG1-Pad7)*
X157099000Y-51308000D03*
G04 #@! TO.P,7SEG2,10*
G04 #@! TO.N,/DIG1*
X154559000Y-51308000D03*
G04 #@! TD*
D13*
G04 #@! TO.P,C1,1*
G04 #@! TO.N,VPP*
X122174000Y-76708000D03*
G04 #@! TO.P,C1,2*
G04 #@! TO.N,GND*
X122174000Y-74208000D03*
G04 #@! TD*
D14*
G04 #@! TO.P,J1,1*
G04 #@! TO.N,GND*
X172720000Y-68072000D03*
D15*
G04 #@! TO.P,J1,2*
G04 #@! TO.N,/RESET*
X172720000Y-70612000D03*
G04 #@! TO.P,J1,3*
G04 #@! TO.N,/SEG_C*
X172720000Y-73152000D03*
G04 #@! TO.P,J1,4*
G04 #@! TO.N,/SEG_D*
X172720000Y-75692000D03*
G04 #@! TO.P,J1,5*
G04 #@! TO.N,/SEG_E*
X172720000Y-78232000D03*
G04 #@! TO.P,J1,6*
G04 #@! TO.N,VPP*
X172720000Y-80772000D03*
G04 #@! TD*
D16*
G04 #@! TO.P,R1,2*
G04 #@! TO.N,Net-(7SEG1-Pad5)*
X146939000Y-67183000D03*
D17*
G04 #@! TO.P,R1,1*
G04 #@! TO.N,/SEG_A*
X139319000Y-67183000D03*
G04 #@! TD*
G04 #@! TO.P,R2,1*
G04 #@! TO.N,/SEG_B*
X154559000Y-67183000D03*
D16*
G04 #@! TO.P,R2,2*
G04 #@! TO.N,Net-(7SEG1-Pad10)*
X162179000Y-67183000D03*
G04 #@! TD*
G04 #@! TO.P,R3,2*
G04 #@! TO.N,Net-(7SEG1-Pad1)*
X122174000Y-67183000D03*
D17*
G04 #@! TO.P,R3,1*
G04 #@! TO.N,/SEG_C*
X129794000Y-67183000D03*
G04 #@! TD*
G04 #@! TO.P,R4,1*
G04 #@! TO.N,/SEG_D*
X149479000Y-60198000D03*
D16*
G04 #@! TO.P,R4,2*
G04 #@! TO.N,Net-(7SEG1-Pad2)*
X149479000Y-52578000D03*
G04 #@! TD*
G04 #@! TO.P,R5,2*
G04 #@! TO.N,Net-(7SEG1-Pad4)*
X171196000Y-52578000D03*
D17*
G04 #@! TO.P,R5,1*
G04 #@! TO.N,/SEG_E*
X171196000Y-60198000D03*
G04 #@! TD*
G04 #@! TO.P,R6,1*
G04 #@! TO.N,/SEG_F*
X146939000Y-46863000D03*
D16*
G04 #@! TO.P,R6,2*
G04 #@! TO.N,Net-(7SEG1-Pad7)*
X139319000Y-46863000D03*
G04 #@! TD*
G04 #@! TO.P,R7,2*
G04 #@! TO.N,Net-(7SEG1-Pad11)*
X120904000Y-46863000D03*
D17*
G04 #@! TO.P,R7,1*
G04 #@! TO.N,/SEG_G*
X128524000Y-46863000D03*
G04 #@! TD*
G04 #@! TO.P,R8,1*
G04 #@! TO.N,/RESET*
X113792000Y-56896000D03*
D16*
G04 #@! TO.P,R8,2*
G04 #@! TO.N,VPP*
X113792000Y-64516000D03*
G04 #@! TD*
D18*
G04 #@! TO.P,SW1,4*
G04 #@! TO.N,/ROW0*
X115454000Y-94178000D03*
G04 #@! TO.P,SW1,2*
X115454000Y-87178000D03*
G04 #@! TO.P,SW1,3*
G04 #@! TO.N,Net-(SW1-Pad3)*
X120004000Y-94178000D03*
G04 #@! TO.P,SW1,1*
G04 #@! TO.N,/COL0*
X120004000Y-87178000D03*
G04 #@! TD*
G04 #@! TO.P,SW2,1*
G04 #@! TO.N,Net-(SW1-Pad3)*
X120004000Y-100823000D03*
G04 #@! TO.P,SW2,3*
G04 #@! TO.N,Net-(SW2-Pad3)*
X120004000Y-107823000D03*
G04 #@! TO.P,SW2,2*
G04 #@! TO.N,/ROW1*
X115454000Y-100823000D03*
G04 #@! TO.P,SW2,4*
X115454000Y-107823000D03*
G04 #@! TD*
G04 #@! TO.P,SW3,1*
G04 #@! TO.N,Net-(SW2-Pad3)*
X120004000Y-114483000D03*
G04 #@! TO.P,SW3,3*
G04 #@! TO.N,Net-(SW3-Pad3)*
X120004000Y-121483000D03*
G04 #@! TO.P,SW3,2*
G04 #@! TO.N,/ROW2*
X115454000Y-114483000D03*
G04 #@! TO.P,SW3,4*
X115454000Y-121483000D03*
G04 #@! TD*
G04 #@! TO.P,SW4,4*
G04 #@! TO.N,/ROW3*
X115454000Y-134818000D03*
G04 #@! TO.P,SW4,2*
X115454000Y-127818000D03*
G04 #@! TO.P,SW4,3*
G04 #@! TO.N,N/C*
X120004000Y-134818000D03*
G04 #@! TO.P,SW4,1*
G04 #@! TO.N,Net-(SW3-Pad3)*
X120004000Y-127818000D03*
G04 #@! TD*
G04 #@! TO.P,SW5,4*
G04 #@! TO.N,/ROW0*
X127519000Y-94178000D03*
G04 #@! TO.P,SW5,2*
X127519000Y-87178000D03*
G04 #@! TO.P,SW5,3*
G04 #@! TO.N,Net-(SW5-Pad3)*
X132069000Y-94178000D03*
G04 #@! TO.P,SW5,1*
G04 #@! TO.N,/COL1*
X132069000Y-87178000D03*
G04 #@! TD*
G04 #@! TO.P,SW6,1*
G04 #@! TO.N,Net-(SW5-Pad3)*
X132069000Y-100823000D03*
G04 #@! TO.P,SW6,3*
G04 #@! TO.N,Net-(SW6-Pad3)*
X132069000Y-107823000D03*
G04 #@! TO.P,SW6,2*
G04 #@! TO.N,/ROW1*
X127519000Y-100823000D03*
G04 #@! TO.P,SW6,4*
X127519000Y-107823000D03*
G04 #@! TD*
G04 #@! TO.P,SW7,4*
G04 #@! TO.N,/ROW2*
X127519000Y-121483000D03*
G04 #@! TO.P,SW7,2*
X127519000Y-114483000D03*
G04 #@! TO.P,SW7,3*
G04 #@! TO.N,Net-(SW7-Pad3)*
X132069000Y-121483000D03*
G04 #@! TO.P,SW7,1*
G04 #@! TO.N,Net-(SW6-Pad3)*
X132069000Y-114483000D03*
G04 #@! TD*
G04 #@! TO.P,SW8,1*
G04 #@! TO.N,Net-(SW7-Pad3)*
X132069000Y-127818000D03*
G04 #@! TO.P,SW8,3*
G04 #@! TO.N,N/C*
X132069000Y-134818000D03*
G04 #@! TO.P,SW8,2*
G04 #@! TO.N,/ROW3*
X127519000Y-127818000D03*
G04 #@! TO.P,SW8,4*
X127519000Y-134818000D03*
G04 #@! TD*
G04 #@! TO.P,SW9,4*
G04 #@! TO.N,/ROW0*
X139584000Y-94178000D03*
G04 #@! TO.P,SW9,2*
X139584000Y-87178000D03*
G04 #@! TO.P,SW9,3*
G04 #@! TO.N,Net-(SW10-Pad1)*
X144134000Y-94178000D03*
G04 #@! TO.P,SW9,1*
G04 #@! TO.N,/COL2*
X144134000Y-87178000D03*
G04 #@! TD*
G04 #@! TO.P,SW10,1*
G04 #@! TO.N,Net-(SW10-Pad1)*
X144134000Y-100823000D03*
G04 #@! TO.P,SW10,3*
G04 #@! TO.N,Net-(SW10-Pad3)*
X144134000Y-107823000D03*
G04 #@! TO.P,SW10,2*
G04 #@! TO.N,/ROW1*
X139584000Y-100823000D03*
G04 #@! TO.P,SW10,4*
X139584000Y-107823000D03*
G04 #@! TD*
G04 #@! TO.P,SW11,4*
G04 #@! TO.N,/ROW2*
X139584000Y-121483000D03*
G04 #@! TO.P,SW11,2*
X139584000Y-114483000D03*
G04 #@! TO.P,SW11,3*
G04 #@! TO.N,Net-(SW11-Pad3)*
X144134000Y-121483000D03*
G04 #@! TO.P,SW11,1*
G04 #@! TO.N,Net-(SW10-Pad3)*
X144134000Y-114483000D03*
G04 #@! TD*
G04 #@! TO.P,SW12,4*
G04 #@! TO.N,/ROW3*
X139584000Y-134818000D03*
G04 #@! TO.P,SW12,2*
X139584000Y-127818000D03*
G04 #@! TO.P,SW12,3*
G04 #@! TO.N,N/C*
X144134000Y-134818000D03*
G04 #@! TO.P,SW12,1*
G04 #@! TO.N,Net-(SW11-Pad3)*
X144134000Y-127818000D03*
G04 #@! TD*
G04 #@! TO.P,SW13,1*
G04 #@! TO.N,/COL3*
X156199000Y-87178000D03*
G04 #@! TO.P,SW13,3*
G04 #@! TO.N,Net-(SW13-Pad3)*
X156199000Y-94178000D03*
G04 #@! TO.P,SW13,2*
G04 #@! TO.N,/ROW0*
X151649000Y-87178000D03*
G04 #@! TO.P,SW13,4*
X151649000Y-94178000D03*
G04 #@! TD*
G04 #@! TO.P,SW14,4*
G04 #@! TO.N,/ROW1*
X151649000Y-107823000D03*
G04 #@! TO.P,SW14,2*
X151649000Y-100823000D03*
G04 #@! TO.P,SW14,3*
G04 #@! TO.N,Net-(SW14-Pad3)*
X156199000Y-107823000D03*
G04 #@! TO.P,SW14,1*
G04 #@! TO.N,Net-(SW13-Pad3)*
X156199000Y-100823000D03*
G04 #@! TD*
G04 #@! TO.P,SW15,1*
G04 #@! TO.N,Net-(SW14-Pad3)*
X156199000Y-114483000D03*
G04 #@! TO.P,SW15,3*
G04 #@! TO.N,Net-(SW15-Pad3)*
X156199000Y-121483000D03*
G04 #@! TO.P,SW15,2*
G04 #@! TO.N,/ROW2*
X151649000Y-114483000D03*
G04 #@! TO.P,SW15,4*
X151649000Y-121483000D03*
G04 #@! TD*
G04 #@! TO.P,SW16,4*
G04 #@! TO.N,/ROW3*
X151649000Y-134818000D03*
G04 #@! TO.P,SW16,2*
X151649000Y-127818000D03*
G04 #@! TO.P,SW16,3*
G04 #@! TO.N,N/C*
X156199000Y-134818000D03*
G04 #@! TO.P,SW16,1*
G04 #@! TO.N,Net-(SW15-Pad3)*
X156199000Y-127818000D03*
G04 #@! TD*
G04 #@! TO.P,SW17,1*
G04 #@! TO.N,/COL4*
X170804000Y-87178000D03*
G04 #@! TO.P,SW17,3*
G04 #@! TO.N,Net-(SW17-Pad3)*
X170804000Y-94178000D03*
G04 #@! TO.P,SW17,2*
G04 #@! TO.N,/ROW0*
X166254000Y-87178000D03*
G04 #@! TO.P,SW17,4*
X166254000Y-94178000D03*
G04 #@! TD*
G04 #@! TO.P,SW18,4*
G04 #@! TO.N,/ROW1*
X166254000Y-107823000D03*
G04 #@! TO.P,SW18,2*
X166254000Y-100823000D03*
G04 #@! TO.P,SW18,3*
G04 #@! TO.N,Net-(SW18-Pad3)*
X170804000Y-107823000D03*
G04 #@! TO.P,SW18,1*
G04 #@! TO.N,Net-(SW17-Pad3)*
X170804000Y-100823000D03*
G04 #@! TD*
G04 #@! TO.P,SW19,1*
G04 #@! TO.N,Net-(SW18-Pad3)*
X170804000Y-114483000D03*
G04 #@! TO.P,SW19,3*
G04 #@! TO.N,Net-(SW19-Pad3)*
X170804000Y-121483000D03*
G04 #@! TO.P,SW19,2*
G04 #@! TO.N,/ROW2*
X166254000Y-114483000D03*
G04 #@! TO.P,SW19,4*
X166254000Y-121483000D03*
G04 #@! TD*
G04 #@! TO.P,SW20,1*
G04 #@! TO.N,Net-(SW19-Pad3)*
X170804000Y-127818000D03*
G04 #@! TO.P,SW20,3*
G04 #@! TO.N,N/C*
X170804000Y-134818000D03*
G04 #@! TO.P,SW20,2*
G04 #@! TO.N,/ROW3*
X166254000Y-127818000D03*
G04 #@! TO.P,SW20,4*
X166254000Y-134818000D03*
G04 #@! TD*
D19*
G04 #@! TO.P,SW21,1*
G04 #@! TO.N,VPP*
X113919000Y-70533000D03*
G04 #@! TO.P,SW21,2*
G04 #@! TO.N,Net-(BT1-Pad1)*
X113919000Y-73533000D03*
G04 #@! TO.P,SW21,3*
G04 #@! TO.N,N/C*
X113919000Y-76533000D03*
G04 #@! TD*
D20*
G04 #@! TO.P,U1,1*
G04 #@! TO.N,/RESET*
X128524000Y-79248000D03*
G04 #@! TO.P,U1,2*
G04 #@! TO.N,/ROW0*
X131064000Y-79248000D03*
G04 #@! TO.P,U1,3*
G04 #@! TO.N,/ROW1*
X133604000Y-79248000D03*
G04 #@! TO.P,U1,4*
G04 #@! TO.N,/ROW2*
X136144000Y-79248000D03*
G04 #@! TO.P,U1,5*
G04 #@! TO.N,/ROW3*
X138684000Y-79248000D03*
G04 #@! TO.P,U1,6*
G04 #@! TO.N,/COL0*
X141224000Y-79248000D03*
G04 #@! TO.P,U1,7*
G04 #@! TO.N,VPP*
X143764000Y-79248000D03*
G04 #@! TO.P,U1,8*
G04 #@! TO.N,GND*
X146304000Y-79248000D03*
G04 #@! TO.P,U1,9*
G04 #@! TO.N,/SEG_F*
X148844000Y-79248000D03*
G04 #@! TO.P,U1,10*
G04 #@! TO.N,/SEG_G*
X151384000Y-79248000D03*
G04 #@! TO.P,U1,11*
G04 #@! TO.N,/COL1*
X153924000Y-79248000D03*
G04 #@! TO.P,U1,12*
G04 #@! TO.N,/COL2*
X156464000Y-79248000D03*
G04 #@! TO.P,U1,13*
G04 #@! TO.N,/COL3*
X159004000Y-79248000D03*
G04 #@! TO.P,U1,14*
G04 #@! TO.N,/COL4*
X161544000Y-79248000D03*
G04 #@! TO.P,U1,15*
G04 #@! TO.N,/SEG_A*
X161544000Y-71628000D03*
G04 #@! TO.P,U1,16*
G04 #@! TO.N,/SEG_B*
X159004000Y-71628000D03*
G04 #@! TO.P,U1,17*
G04 #@! TO.N,/SEG_C*
X156464000Y-71628000D03*
G04 #@! TO.P,U1,18*
G04 #@! TO.N,/SEG_D*
X153924000Y-71628000D03*
G04 #@! TO.P,U1,19*
G04 #@! TO.N,/SEG_E*
X151384000Y-71628000D03*
G04 #@! TO.P,U1,20*
G04 #@! TO.N,N/C*
X148844000Y-71628000D03*
G04 #@! TO.P,U1,21*
X146304000Y-71628000D03*
G04 #@! TO.P,U1,22*
G04 #@! TO.N,GND*
X143764000Y-71628000D03*
G04 #@! TO.P,U1,23*
G04 #@! TO.N,/DIG0*
X141224000Y-71628000D03*
G04 #@! TO.P,U1,24*
G04 #@! TO.N,/DIG1*
X138684000Y-71628000D03*
G04 #@! TO.P,U1,25*
G04 #@! TO.N,/DIG2*
X136144000Y-71628000D03*
G04 #@! TO.P,U1,26*
G04 #@! TO.N,/DIG3*
X133604000Y-71628000D03*
G04 #@! TO.P,U1,27*
G04 #@! TO.N,/DIG4*
X131064000Y-71628000D03*
G04 #@! TO.P,U1,28*
G04 #@! TO.N,/DIG5*
X128524000Y-71628000D03*
G04 #@! TD*
D21*
G04 #@! TO.N,Net-(7SEG1-Pad2)*
X133096000Y-59182000D03*
X138430000Y-59182000D03*
G04 #@! TO.N,Net-(7SEG1-Pad5)*
X141732000Y-64770000D03*
G04 #@! TO.N,/DIG3*
X133604000Y-69723000D03*
X125984000Y-64643000D03*
G04 #@! TO.N,/DIG5*
X119634000Y-51308000D03*
G04 #@! TO.N,Net-(BT1-Pad1)*
X113919000Y-81153000D03*
G04 #@! TO.N,VPP*
X159004000Y-92202000D03*
X164084000Y-92202000D03*
G04 #@! TO.N,/RESET*
X125222000Y-83566000D03*
X124968000Y-88900000D03*
X133096000Y-97536000D03*
X141224000Y-97536000D03*
X162052000Y-97536000D03*
X166624000Y-97536000D03*
X168910000Y-91694000D03*
X168910000Y-87122000D03*
G04 #@! TO.N,/SEG_C*
X166370000Y-74422000D03*
G04 #@! TO.N,/SEG_D*
X149606000Y-65786000D03*
X155956000Y-73660000D03*
X166116000Y-75946000D03*
G04 #@! TO.N,/SEG_E*
X147574000Y-76200000D03*
X165354000Y-77470000D03*
G04 #@! TO.N,/SEG_A*
X154432000Y-58674000D03*
X168656000Y-62738000D03*
G04 #@! TO.N,/SEG_F*
X164846000Y-67564000D03*
G04 #@! TO.N,/SEG_G*
X167640000Y-66802000D03*
G04 #@! TO.N,/ROW1*
X134874000Y-100838000D03*
X133604000Y-81788000D03*
G04 #@! TO.N,/ROW2*
X136779000Y-105918000D03*
X136144000Y-81788000D03*
G04 #@! TO.N,/ROW3*
X120904000Y-80518000D03*
G04 #@! TD*
D22*
G04 #@! TO.N,Net-(7SEG1-Pad2)*
X127889000Y-60031160D02*
X128738160Y-59182000D01*
X127889000Y-61468000D02*
X127889000Y-60031160D01*
X128738160Y-59182000D02*
X133096000Y-59182000D01*
X138430000Y-59182000D02*
X145034000Y-52578000D01*
X145034000Y-52578000D02*
X149479000Y-52578000D01*
G04 #@! TO.N,Net-(7SEG1-Pad1)*
X125349000Y-61468000D02*
X125349000Y-59055000D01*
X125349000Y-59055000D02*
X126746000Y-57658000D01*
X126746000Y-57658000D02*
X135382000Y-57658000D01*
X135382000Y-57658000D02*
X143764000Y-49276000D01*
X143764000Y-49276000D02*
X149098000Y-49276000D01*
X149098000Y-49276000D02*
X150114000Y-48260000D01*
X150114000Y-48260000D02*
X161290000Y-48260000D01*
X162179000Y-49149000D02*
X162179000Y-51308000D01*
X161290000Y-48260000D02*
X162179000Y-49149000D01*
G04 #@! TO.N,Net-(7SEG1-Pad4)*
X159639000Y-49871160D02*
X159639000Y-51308000D01*
X144526000Y-50546000D02*
X149860000Y-50546000D01*
X136398000Y-58674000D02*
X144526000Y-50546000D01*
X159043840Y-49276000D02*
X159639000Y-49871160D01*
X151130000Y-49276000D02*
X159043840Y-49276000D01*
X135763000Y-58674000D02*
X136398000Y-58674000D01*
X149860000Y-50546000D02*
X151130000Y-49276000D01*
X132969000Y-61468000D02*
X135763000Y-58674000D01*
X169672000Y-54102000D02*
X171196000Y-52578000D01*
X160996160Y-54102000D02*
X169672000Y-54102000D01*
X159639000Y-52744840D02*
X160996160Y-54102000D01*
X159639000Y-51308000D02*
X159639000Y-52744840D01*
G04 #@! TO.N,Net-(7SEG1-Pad5)*
X146939000Y-67183000D02*
X146939000Y-65405000D01*
X146304000Y-64770000D02*
X141732000Y-64770000D01*
X146939000Y-65405000D02*
X146304000Y-64770000D01*
G04 #@! TO.N,/DIG2*
X136144000Y-71628000D02*
X136144000Y-66548000D01*
X138049000Y-64643000D02*
X138049000Y-61468000D01*
X136144000Y-66548000D02*
X138049000Y-64643000D01*
G04 #@! TO.N,/DIG3*
X133604000Y-71628000D02*
X133604000Y-69723000D01*
X125984000Y-64643000D02*
X120904000Y-64643000D01*
X120904000Y-64643000D02*
X119634000Y-63373000D01*
X119634000Y-63373000D02*
X119634000Y-57658000D01*
X119634000Y-57658000D02*
X120904000Y-56388000D01*
X120904000Y-56388000D02*
X134239000Y-56388000D01*
X134239000Y-56388000D02*
X135509000Y-55118000D01*
X135509000Y-55118000D02*
X135509000Y-51308000D01*
G04 #@! TO.N,/DIG4*
X132969000Y-49403000D02*
X132969000Y-51308000D01*
X122809000Y-48768000D02*
X132334000Y-48768000D01*
X121539000Y-50038000D02*
X122809000Y-48768000D01*
X121539000Y-51943000D02*
X121539000Y-50038000D01*
X118364000Y-67183000D02*
X118364000Y-55118000D01*
X132334000Y-48768000D02*
X132969000Y-49403000D01*
X120904000Y-69723000D02*
X118364000Y-67183000D01*
X130290370Y-69723000D02*
X120904000Y-69723000D01*
X131064000Y-70496630D02*
X130290370Y-69723000D01*
X118364000Y-55118000D02*
X121539000Y-51943000D01*
X131064000Y-71628000D02*
X131064000Y-70496630D01*
G04 #@! TO.N,/DIG5*
X128524000Y-71628000D02*
X120904000Y-71628000D01*
X120904000Y-71628000D02*
X117094000Y-67818000D01*
X117094000Y-53848000D02*
X119634000Y-51308000D01*
X117094000Y-67818000D02*
X117094000Y-53848000D01*
G04 #@! TO.N,/DIG0*
X164719000Y-63627000D02*
X164719000Y-61468000D01*
X148082000Y-69342000D02*
X152908000Y-64516000D01*
X141224000Y-71628000D02*
X141224000Y-69850000D01*
X152908000Y-64516000D02*
X163830000Y-64516000D01*
X141732000Y-69342000D02*
X148082000Y-69342000D01*
X163830000Y-64516000D02*
X164719000Y-63627000D01*
X141224000Y-69850000D02*
X141732000Y-69342000D01*
G04 #@! TO.N,/DIG1*
X154559000Y-53467000D02*
X154559000Y-51308000D01*
X145542000Y-55372000D02*
X152654000Y-55372000D01*
X152654000Y-55372000D02*
X154559000Y-53467000D01*
X137414000Y-66802000D02*
X141732000Y-62484000D01*
X137414000Y-69088000D02*
X137414000Y-66802000D01*
X138684000Y-70358000D02*
X137414000Y-69088000D01*
X141732000Y-59182000D02*
X145542000Y-55372000D01*
X141732000Y-62484000D02*
X141732000Y-59182000D01*
X138684000Y-71628000D02*
X138684000Y-70358000D01*
G04 #@! TO.N,GND*
X146304000Y-79248000D02*
X146304000Y-77343000D01*
X143764000Y-74803000D02*
X143764000Y-71628000D01*
X146304000Y-77343000D02*
X143764000Y-74803000D01*
X143764000Y-71628000D02*
X143764000Y-73533000D01*
X143089000Y-74208000D02*
X122174000Y-74208000D01*
X143764000Y-73533000D02*
X143089000Y-74208000D01*
D23*
G04 #@! TO.N,Net-(BT1-Pad1)*
X117729000Y-74803000D02*
X116459000Y-73533000D01*
X116459000Y-73533000D02*
X113919000Y-73533000D01*
X117729000Y-77978000D02*
X117729000Y-74803000D01*
X114554000Y-81153000D02*
X117729000Y-77978000D01*
X113919000Y-81153000D02*
X114554000Y-81153000D01*
D22*
G04 #@! TO.N,VPP*
X142494000Y-76073000D02*
X143764000Y-77343000D01*
X143764000Y-77343000D02*
X143764000Y-79248000D01*
X125349000Y-76073000D02*
X142494000Y-76073000D01*
X124714000Y-76708000D02*
X125349000Y-76073000D01*
X122174000Y-76708000D02*
X124714000Y-76708000D01*
X113919000Y-70533000D02*
X116634000Y-70533000D01*
X116634000Y-70533000D02*
X118999000Y-72898000D01*
X118999000Y-72898000D02*
X118999000Y-74168000D01*
X118999000Y-74168000D02*
X119634000Y-74803000D01*
X119634000Y-74803000D02*
X119634000Y-75438000D01*
X119634000Y-75438000D02*
X120904000Y-76708000D01*
X120904000Y-76708000D02*
X122174000Y-76708000D01*
X113919000Y-64643000D02*
X113792000Y-64516000D01*
X113919000Y-70533000D02*
X113919000Y-64643000D01*
X159004000Y-92202000D02*
X164084000Y-92202000D01*
G04 #@! TO.N,/RESET*
X127724001Y-80047999D02*
X127724001Y-82079999D01*
X128524000Y-79248000D02*
X127724001Y-80047999D01*
X126238000Y-83566000D02*
X125222000Y-83566000D01*
X127724001Y-82079999D02*
X126238000Y-83566000D01*
X129323999Y-80047999D02*
X129323999Y-80226001D01*
X128524000Y-79248000D02*
X129323999Y-80047999D01*
X129323999Y-80226001D02*
X129286000Y-80264000D01*
X129286000Y-80264000D02*
X129286000Y-82804000D01*
X124968000Y-87122000D02*
X124968000Y-88900000D01*
X129286000Y-82804000D02*
X124968000Y-87122000D01*
X133096000Y-97536000D02*
X141224000Y-97536000D01*
X162052000Y-97536000D02*
X166624000Y-97536000D01*
X168910000Y-91694000D02*
X168910000Y-87122000D01*
G04 #@! TO.N,/SEG_C*
X166370000Y-74422000D02*
X169418000Y-74422000D01*
X170688000Y-73152000D02*
X172720000Y-73152000D01*
X169418000Y-74422000D02*
X170688000Y-73152000D01*
G04 #@! TO.N,/SEG_D*
X149606000Y-60325000D02*
X149479000Y-60198000D01*
X149606000Y-65786000D02*
X149606000Y-60325000D01*
X153924000Y-71628000D02*
X155956000Y-73660000D01*
X166116000Y-75946000D02*
X169926000Y-75946000D01*
X170180000Y-75692000D02*
X172720000Y-75692000D01*
X169926000Y-75946000D02*
X170180000Y-75692000D01*
G04 #@! TO.N,/SEG_E*
X147574000Y-75438000D02*
X147574000Y-76200000D01*
X151384000Y-71628000D02*
X147574000Y-75438000D01*
X165354000Y-77470000D02*
X169418000Y-77470000D01*
X170180000Y-78232000D02*
X172720000Y-78232000D01*
X169418000Y-77470000D02*
X170180000Y-78232000D01*
X169418000Y-65532000D02*
X171196000Y-63754000D01*
X171196000Y-63754000D02*
X171196000Y-60198000D01*
X153416000Y-65532000D02*
X169418000Y-65532000D01*
X151384000Y-67564000D02*
X153416000Y-65532000D01*
X151384000Y-71628000D02*
X151384000Y-67564000D01*
G04 #@! TO.N,/SEG_A*
X154432000Y-58674000D02*
X167386000Y-58674000D01*
X168656000Y-59944000D02*
X168656000Y-62738000D01*
X167386000Y-58674000D02*
X168656000Y-59944000D01*
G04 #@! TO.N,/SEG_B*
X154559000Y-67183000D02*
X158115000Y-67183000D01*
X159004000Y-68072000D02*
X159004000Y-71628000D01*
X158115000Y-67183000D02*
X159004000Y-68072000D01*
G04 #@! TO.N,/SEG_F*
X148844000Y-79248000D02*
X148844000Y-76708000D01*
X148844000Y-76708000D02*
X150622000Y-74930000D01*
X150622000Y-74930000D02*
X156210000Y-74930000D01*
X156210000Y-74930000D02*
X157734000Y-73406000D01*
X157734000Y-73406000D02*
X163322000Y-73406000D01*
X163322000Y-73406000D02*
X163576000Y-73406000D01*
X164846000Y-72136000D02*
X164846000Y-67564000D01*
X163576000Y-73406000D02*
X164846000Y-72136000D01*
G04 #@! TO.N,/SEG_G*
X151384000Y-79248000D02*
X151384000Y-77978000D01*
X151384000Y-77978000D02*
X151384000Y-77724000D01*
X151384000Y-77724000D02*
X152908000Y-76200000D01*
X152908000Y-76200000D02*
X157226000Y-76200000D01*
X157226000Y-76200000D02*
X158496000Y-74930000D01*
X158496000Y-74930000D02*
X164338000Y-74930000D01*
X164338000Y-74930000D02*
X166624000Y-72644000D01*
X166624000Y-72644000D02*
X166624000Y-68580000D01*
X167640000Y-67564000D02*
X167640000Y-66802000D01*
X166624000Y-68580000D02*
X167640000Y-67564000D01*
G04 #@! TO.N,/ROW0*
X127519000Y-90678000D02*
X127519000Y-87178000D01*
X127519000Y-94178000D02*
X127519000Y-90678000D01*
X115454000Y-90678000D02*
X127519000Y-90678000D01*
X115454000Y-94178000D02*
X115454000Y-90678000D01*
X115454000Y-90678000D02*
X115454000Y-87178000D01*
X127519000Y-90678000D02*
X139584000Y-90678000D01*
X139584000Y-90678000D02*
X139584000Y-87178000D01*
X139584000Y-94178000D02*
X139584000Y-90678000D01*
X139584000Y-90678000D02*
X151649000Y-90678000D01*
X151649000Y-90678000D02*
X151649000Y-87178000D01*
X151649000Y-94178000D02*
X151649000Y-90678000D01*
X151649000Y-90678000D02*
X166254000Y-90678000D01*
X166254000Y-90678000D02*
X166254000Y-87178000D01*
X166254000Y-94178000D02*
X166254000Y-90678000D01*
X127519000Y-86778000D02*
X131064000Y-83233000D01*
X127519000Y-87178000D02*
X127519000Y-86778000D01*
X131064000Y-83233000D02*
X131064000Y-79248000D01*
G04 #@! TO.N,Net-(SW1-Pad3)*
X120004000Y-100823000D02*
X120004000Y-94178000D01*
G04 #@! TO.N,/COL0*
X141224000Y-77978000D02*
X141224000Y-79248000D01*
X140589000Y-77343000D02*
X141224000Y-77978000D01*
X125349000Y-77978000D02*
X125984000Y-77343000D01*
X125349000Y-80225000D02*
X125349000Y-77978000D01*
X120004000Y-85570000D02*
X125349000Y-80225000D01*
X125984000Y-77343000D02*
X140589000Y-77343000D01*
X120004000Y-87178000D02*
X120004000Y-85570000D01*
G04 #@! TO.N,Net-(SW2-Pad3)*
X120004000Y-114483000D02*
X120004000Y-107823000D01*
G04 #@! TO.N,/ROW1*
X127519000Y-107823000D02*
X127519000Y-106215000D01*
X127519000Y-106215000D02*
X127519000Y-104013000D01*
X115454000Y-104013000D02*
X127519000Y-104013000D01*
X127519000Y-104013000D02*
X127519000Y-100823000D01*
X115454000Y-107823000D02*
X115454000Y-104013000D01*
X115454000Y-104013000D02*
X115454000Y-100823000D01*
X139584000Y-104013000D02*
X139584000Y-100823000D01*
X139584000Y-107823000D02*
X139584000Y-104013000D01*
X166254000Y-107823000D02*
X166254000Y-106215000D01*
X139584000Y-104013000D02*
X151649000Y-104013000D01*
X151649000Y-104013000D02*
X151649000Y-100823000D01*
X151649000Y-107823000D02*
X151649000Y-104013000D01*
X151649000Y-104013000D02*
X166254000Y-104013000D01*
X166254000Y-104013000D02*
X166254000Y-100823000D01*
X166254000Y-106215000D02*
X166254000Y-104013000D01*
X134874000Y-104013000D02*
X134874000Y-100838000D01*
X127519000Y-104013000D02*
X134874000Y-104013000D01*
X134874000Y-104013000D02*
X139584000Y-104013000D01*
X133604000Y-81788000D02*
X133604000Y-79248000D01*
G04 #@! TO.N,Net-(SW3-Pad3)*
X120004000Y-127818000D02*
X120004000Y-121483000D01*
G04 #@! TO.N,/ROW2*
X115454000Y-117983000D02*
X127519000Y-117983000D01*
X127519000Y-121483000D02*
X127519000Y-117983000D01*
X127519000Y-117983000D02*
X127519000Y-114483000D01*
X115454000Y-121483000D02*
X115454000Y-117983000D01*
X115454000Y-117983000D02*
X115454000Y-114483000D01*
X139584000Y-117983000D02*
X139584000Y-114483000D01*
X139584000Y-121483000D02*
X139584000Y-117983000D01*
X139319000Y-117983000D02*
X151649000Y-117983000D01*
X151649000Y-117983000D02*
X151649000Y-114483000D01*
X151649000Y-121483000D02*
X151649000Y-117983000D01*
X139319000Y-117983000D02*
X139584000Y-117983000D01*
X151649000Y-117983000D02*
X166254000Y-117983000D01*
X166254000Y-117983000D02*
X166254000Y-114483000D01*
X166254000Y-121483000D02*
X166254000Y-117983000D01*
X136779000Y-117983000D02*
X136779000Y-107823000D01*
X127519000Y-117983000D02*
X136779000Y-117983000D01*
X136779000Y-117983000D02*
X139319000Y-117983000D01*
X136779000Y-107823000D02*
X136779000Y-105918000D01*
X136144000Y-81788000D02*
X136144000Y-79248000D01*
G04 #@! TO.N,/ROW3*
X166254000Y-131318000D02*
X166254000Y-127818000D01*
X166254000Y-134818000D02*
X166254000Y-131318000D01*
X151649000Y-134818000D02*
X151649000Y-131318000D01*
X151649000Y-131318000D02*
X151649000Y-127818000D01*
X151649000Y-131318000D02*
X152019000Y-131318000D01*
X152019000Y-131318000D02*
X166254000Y-131318000D01*
X139584000Y-134818000D02*
X139584000Y-131318000D01*
X139584000Y-131318000D02*
X139584000Y-127818000D01*
X127519000Y-131318000D02*
X139954000Y-131318000D01*
X139954000Y-131318000D02*
X152019000Y-131318000D01*
X139584000Y-131318000D02*
X139954000Y-131318000D01*
X127519000Y-134818000D02*
X127519000Y-131318000D01*
X127519000Y-131318000D02*
X127519000Y-127818000D01*
X115454000Y-131318000D02*
X127519000Y-131318000D01*
X115454000Y-134818000D02*
X115454000Y-131318000D01*
X115454000Y-131318000D02*
X115454000Y-127818000D01*
X115454000Y-131318000D02*
X114554000Y-131318000D01*
X114554000Y-131318000D02*
X113919000Y-131318000D01*
X113919000Y-131318000D02*
X112649000Y-130048000D01*
X112649000Y-130048000D02*
X112649000Y-85598000D01*
X112649000Y-85598000D02*
X116459000Y-81788000D01*
X119634000Y-81788000D02*
X120904000Y-80518000D01*
X116459000Y-81788000D02*
X119634000Y-81788000D01*
G04 #@! TO.N,Net-(SW5-Pad3)*
X132069000Y-100823000D02*
X132069000Y-94178000D01*
G04 #@! TO.N,/COL1*
X132069000Y-87178000D02*
X132069000Y-85228000D01*
X132069000Y-85228000D02*
X134239000Y-83058000D01*
X134239000Y-83058000D02*
X153289000Y-83058000D01*
X153924000Y-82423000D02*
X153924000Y-79248000D01*
X153289000Y-83058000D02*
X153924000Y-82423000D01*
G04 #@! TO.N,Net-(SW6-Pad3)*
X132069000Y-114483000D02*
X132069000Y-107823000D01*
G04 #@! TO.N,Net-(SW7-Pad3)*
X132069000Y-127818000D02*
X132069000Y-121483000D01*
G04 #@! TO.N,Net-(SW10-Pad1)*
X144134000Y-100823000D02*
X144134000Y-94178000D01*
G04 #@! TO.N,/COL2*
X144134000Y-85570000D02*
X145376000Y-84328000D01*
X144134000Y-87178000D02*
X144134000Y-85570000D01*
X145376000Y-84328000D02*
X154559000Y-84328000D01*
X156464000Y-82423000D02*
X156464000Y-79248000D01*
X154559000Y-84328000D02*
X156464000Y-82423000D01*
G04 #@! TO.N,Net-(SW10-Pad3)*
X144134000Y-114483000D02*
X144134000Y-107823000D01*
G04 #@! TO.N,Net-(SW11-Pad3)*
X144134000Y-127818000D02*
X144134000Y-121483000D01*
G04 #@! TO.N,/COL3*
X156199000Y-87178000D02*
X156199000Y-85228000D01*
X156199000Y-85228000D02*
X159004000Y-82423000D01*
X159004000Y-82423000D02*
X159004000Y-79248000D01*
G04 #@! TO.N,Net-(SW13-Pad3)*
X156199000Y-100823000D02*
X156199000Y-94178000D01*
G04 #@! TO.N,Net-(SW14-Pad3)*
X156199000Y-114483000D02*
X156199000Y-107823000D01*
G04 #@! TO.N,Net-(SW15-Pad3)*
X156199000Y-127818000D02*
X156199000Y-121483000D01*
G04 #@! TO.N,/COL4*
X170804000Y-87178000D02*
X170804000Y-85333000D01*
X170804000Y-85333000D02*
X169799000Y-84328000D01*
X169799000Y-84328000D02*
X163449000Y-84328000D01*
X161544000Y-80379370D02*
X161544000Y-79248000D01*
X161544000Y-82423000D02*
X161544000Y-80379370D01*
X163449000Y-84328000D02*
X161544000Y-82423000D01*
G04 #@! TO.N,Net-(SW17-Pad3)*
X170804000Y-100823000D02*
X170804000Y-94178000D01*
G04 #@! TO.N,Net-(SW18-Pad3)*
X170804000Y-114483000D02*
X170804000Y-107823000D01*
G04 #@! TO.N,Net-(SW19-Pad3)*
X170804000Y-127818000D02*
X170804000Y-121483000D01*
G04 #@! TD*
D24*
G04 #@! TO.N,GND*
G36*
X176215001Y-139215000D02*
X109585000Y-139215000D01*
X109585000Y-85598000D01*
X111742584Y-85598000D01*
X111760001Y-85685560D01*
X111760000Y-129960445D01*
X111742584Y-130048000D01*
X111760000Y-130135555D01*
X111811581Y-130394869D01*
X112008067Y-130688933D01*
X112082296Y-130738531D01*
X113228471Y-131884707D01*
X113278067Y-131958933D01*
X113572130Y-132155419D01*
X113831444Y-132207000D01*
X113831448Y-132207000D01*
X113918999Y-132224415D01*
X114006550Y-132207000D01*
X114565001Y-132207000D01*
X114565000Y-133108154D01*
X114506235Y-133119843D01*
X114296191Y-133260191D01*
X114155843Y-133470235D01*
X114106560Y-133718000D01*
X114106560Y-135918000D01*
X114155843Y-136165765D01*
X114296191Y-136375809D01*
X114506235Y-136516157D01*
X114754000Y-136565440D01*
X116154000Y-136565440D01*
X116401765Y-136516157D01*
X116611809Y-136375809D01*
X116752157Y-136165765D01*
X116801440Y-135918000D01*
X116801440Y-133718000D01*
X118656560Y-133718000D01*
X118656560Y-135918000D01*
X118705843Y-136165765D01*
X118846191Y-136375809D01*
X119056235Y-136516157D01*
X119304000Y-136565440D01*
X120704000Y-136565440D01*
X120951765Y-136516157D01*
X121161809Y-136375809D01*
X121302157Y-136165765D01*
X121351440Y-135918000D01*
X121351440Y-133718000D01*
X121302157Y-133470235D01*
X121161809Y-133260191D01*
X120951765Y-133119843D01*
X120704000Y-133070560D01*
X119304000Y-133070560D01*
X119056235Y-133119843D01*
X118846191Y-133260191D01*
X118705843Y-133470235D01*
X118656560Y-133718000D01*
X116801440Y-133718000D01*
X116752157Y-133470235D01*
X116611809Y-133260191D01*
X116401765Y-133119843D01*
X116343000Y-133108154D01*
X116343000Y-132207000D01*
X126630001Y-132207000D01*
X126630000Y-133108154D01*
X126571235Y-133119843D01*
X126361191Y-133260191D01*
X126220843Y-133470235D01*
X126171560Y-133718000D01*
X126171560Y-135918000D01*
X126220843Y-136165765D01*
X126361191Y-136375809D01*
X126571235Y-136516157D01*
X126819000Y-136565440D01*
X128219000Y-136565440D01*
X128466765Y-136516157D01*
X128676809Y-136375809D01*
X128817157Y-136165765D01*
X128866440Y-135918000D01*
X128866440Y-133718000D01*
X130721560Y-133718000D01*
X130721560Y-135918000D01*
X130770843Y-136165765D01*
X130911191Y-136375809D01*
X131121235Y-136516157D01*
X131369000Y-136565440D01*
X132769000Y-136565440D01*
X133016765Y-136516157D01*
X133226809Y-136375809D01*
X133367157Y-136165765D01*
X133416440Y-135918000D01*
X133416440Y-133718000D01*
X133367157Y-133470235D01*
X133226809Y-133260191D01*
X133016765Y-133119843D01*
X132769000Y-133070560D01*
X131369000Y-133070560D01*
X131121235Y-133119843D01*
X130911191Y-133260191D01*
X130770843Y-133470235D01*
X130721560Y-133718000D01*
X128866440Y-133718000D01*
X128817157Y-133470235D01*
X128676809Y-133260191D01*
X128466765Y-133119843D01*
X128408000Y-133108154D01*
X128408000Y-132207000D01*
X138695001Y-132207000D01*
X138695000Y-133108154D01*
X138636235Y-133119843D01*
X138426191Y-133260191D01*
X138285843Y-133470235D01*
X138236560Y-133718000D01*
X138236560Y-135918000D01*
X138285843Y-136165765D01*
X138426191Y-136375809D01*
X138636235Y-136516157D01*
X138884000Y-136565440D01*
X140284000Y-136565440D01*
X140531765Y-136516157D01*
X140741809Y-136375809D01*
X140882157Y-136165765D01*
X140931440Y-135918000D01*
X140931440Y-133718000D01*
X142786560Y-133718000D01*
X142786560Y-135918000D01*
X142835843Y-136165765D01*
X142976191Y-136375809D01*
X143186235Y-136516157D01*
X143434000Y-136565440D01*
X144834000Y-136565440D01*
X145081765Y-136516157D01*
X145291809Y-136375809D01*
X145432157Y-136165765D01*
X145481440Y-135918000D01*
X145481440Y-133718000D01*
X145432157Y-133470235D01*
X145291809Y-133260191D01*
X145081765Y-133119843D01*
X144834000Y-133070560D01*
X143434000Y-133070560D01*
X143186235Y-133119843D01*
X142976191Y-133260191D01*
X142835843Y-133470235D01*
X142786560Y-133718000D01*
X140931440Y-133718000D01*
X140882157Y-133470235D01*
X140741809Y-133260191D01*
X140531765Y-133119843D01*
X140473000Y-133108154D01*
X140473000Y-132207000D01*
X150760001Y-132207000D01*
X150760000Y-133108154D01*
X150701235Y-133119843D01*
X150491191Y-133260191D01*
X150350843Y-133470235D01*
X150301560Y-133718000D01*
X150301560Y-135918000D01*
X150350843Y-136165765D01*
X150491191Y-136375809D01*
X150701235Y-136516157D01*
X150949000Y-136565440D01*
X152349000Y-136565440D01*
X152596765Y-136516157D01*
X152806809Y-136375809D01*
X152947157Y-136165765D01*
X152996440Y-135918000D01*
X152996440Y-133718000D01*
X154851560Y-133718000D01*
X154851560Y-135918000D01*
X154900843Y-136165765D01*
X155041191Y-136375809D01*
X155251235Y-136516157D01*
X155499000Y-136565440D01*
X156899000Y-136565440D01*
X157146765Y-136516157D01*
X157356809Y-136375809D01*
X157497157Y-136165765D01*
X157546440Y-135918000D01*
X157546440Y-133718000D01*
X157497157Y-133470235D01*
X157356809Y-133260191D01*
X157146765Y-133119843D01*
X156899000Y-133070560D01*
X155499000Y-133070560D01*
X155251235Y-133119843D01*
X155041191Y-133260191D01*
X154900843Y-133470235D01*
X154851560Y-133718000D01*
X152996440Y-133718000D01*
X152947157Y-133470235D01*
X152806809Y-133260191D01*
X152596765Y-133119843D01*
X152538000Y-133108154D01*
X152538000Y-132207000D01*
X165365001Y-132207000D01*
X165365000Y-133108154D01*
X165306235Y-133119843D01*
X165096191Y-133260191D01*
X164955843Y-133470235D01*
X164906560Y-133718000D01*
X164906560Y-135918000D01*
X164955843Y-136165765D01*
X165096191Y-136375809D01*
X165306235Y-136516157D01*
X165554000Y-136565440D01*
X166954000Y-136565440D01*
X167201765Y-136516157D01*
X167411809Y-136375809D01*
X167552157Y-136165765D01*
X167601440Y-135918000D01*
X167601440Y-133718000D01*
X169456560Y-133718000D01*
X169456560Y-135918000D01*
X169505843Y-136165765D01*
X169646191Y-136375809D01*
X169856235Y-136516157D01*
X170104000Y-136565440D01*
X171504000Y-136565440D01*
X171751765Y-136516157D01*
X171961809Y-136375809D01*
X172102157Y-136165765D01*
X172151440Y-135918000D01*
X172151440Y-133718000D01*
X172102157Y-133470235D01*
X171961809Y-133260191D01*
X171751765Y-133119843D01*
X171504000Y-133070560D01*
X170104000Y-133070560D01*
X169856235Y-133119843D01*
X169646191Y-133260191D01*
X169505843Y-133470235D01*
X169456560Y-133718000D01*
X167601440Y-133718000D01*
X167552157Y-133470235D01*
X167411809Y-133260191D01*
X167201765Y-133119843D01*
X167143000Y-133108154D01*
X167143000Y-131405555D01*
X167160416Y-131318000D01*
X167143000Y-131230444D01*
X167143000Y-129527846D01*
X167201765Y-129516157D01*
X167411809Y-129375809D01*
X167552157Y-129165765D01*
X167601440Y-128918000D01*
X167601440Y-126718000D01*
X167552157Y-126470235D01*
X167411809Y-126260191D01*
X167201765Y-126119843D01*
X166954000Y-126070560D01*
X165554000Y-126070560D01*
X165306235Y-126119843D01*
X165096191Y-126260191D01*
X164955843Y-126470235D01*
X164906560Y-126718000D01*
X164906560Y-128918000D01*
X164955843Y-129165765D01*
X165096191Y-129375809D01*
X165306235Y-129516157D01*
X165365001Y-129527846D01*
X165365000Y-130429000D01*
X152538000Y-130429000D01*
X152538000Y-129527846D01*
X152596765Y-129516157D01*
X152806809Y-129375809D01*
X152947157Y-129165765D01*
X152996440Y-128918000D01*
X152996440Y-126718000D01*
X152947157Y-126470235D01*
X152806809Y-126260191D01*
X152596765Y-126119843D01*
X152349000Y-126070560D01*
X150949000Y-126070560D01*
X150701235Y-126119843D01*
X150491191Y-126260191D01*
X150350843Y-126470235D01*
X150301560Y-126718000D01*
X150301560Y-128918000D01*
X150350843Y-129165765D01*
X150491191Y-129375809D01*
X150701235Y-129516157D01*
X150760001Y-129527846D01*
X150760000Y-130429000D01*
X140473000Y-130429000D01*
X140473000Y-129527846D01*
X140531765Y-129516157D01*
X140741809Y-129375809D01*
X140882157Y-129165765D01*
X140931440Y-128918000D01*
X140931440Y-126718000D01*
X140882157Y-126470235D01*
X140741809Y-126260191D01*
X140531765Y-126119843D01*
X140284000Y-126070560D01*
X138884000Y-126070560D01*
X138636235Y-126119843D01*
X138426191Y-126260191D01*
X138285843Y-126470235D01*
X138236560Y-126718000D01*
X138236560Y-128918000D01*
X138285843Y-129165765D01*
X138426191Y-129375809D01*
X138636235Y-129516157D01*
X138695001Y-129527846D01*
X138695000Y-130429000D01*
X128408000Y-130429000D01*
X128408000Y-129527846D01*
X128466765Y-129516157D01*
X128676809Y-129375809D01*
X128817157Y-129165765D01*
X128866440Y-128918000D01*
X128866440Y-126718000D01*
X128817157Y-126470235D01*
X128676809Y-126260191D01*
X128466765Y-126119843D01*
X128219000Y-126070560D01*
X126819000Y-126070560D01*
X126571235Y-126119843D01*
X126361191Y-126260191D01*
X126220843Y-126470235D01*
X126171560Y-126718000D01*
X126171560Y-128918000D01*
X126220843Y-129165765D01*
X126361191Y-129375809D01*
X126571235Y-129516157D01*
X126630001Y-129527846D01*
X126630000Y-130429000D01*
X116343000Y-130429000D01*
X116343000Y-129527846D01*
X116401765Y-129516157D01*
X116611809Y-129375809D01*
X116752157Y-129165765D01*
X116801440Y-128918000D01*
X116801440Y-126718000D01*
X116752157Y-126470235D01*
X116611809Y-126260191D01*
X116401765Y-126119843D01*
X116154000Y-126070560D01*
X114754000Y-126070560D01*
X114506235Y-126119843D01*
X114296191Y-126260191D01*
X114155843Y-126470235D01*
X114106560Y-126718000D01*
X114106560Y-128918000D01*
X114155843Y-129165765D01*
X114296191Y-129375809D01*
X114506235Y-129516157D01*
X114565001Y-129527846D01*
X114565000Y-130429000D01*
X114287236Y-130429000D01*
X113538000Y-129679765D01*
X113538000Y-99723000D01*
X114106560Y-99723000D01*
X114106560Y-101923000D01*
X114155843Y-102170765D01*
X114296191Y-102380809D01*
X114506235Y-102521157D01*
X114565000Y-102532846D01*
X114565000Y-103925444D01*
X114547584Y-104013000D01*
X114565001Y-104100561D01*
X114565000Y-106113154D01*
X114506235Y-106124843D01*
X114296191Y-106265191D01*
X114155843Y-106475235D01*
X114106560Y-106723000D01*
X114106560Y-108923000D01*
X114155843Y-109170765D01*
X114296191Y-109380809D01*
X114506235Y-109521157D01*
X114754000Y-109570440D01*
X116154000Y-109570440D01*
X116401765Y-109521157D01*
X116611809Y-109380809D01*
X116752157Y-109170765D01*
X116801440Y-108923000D01*
X116801440Y-106723000D01*
X118656560Y-106723000D01*
X118656560Y-108923000D01*
X118705843Y-109170765D01*
X118846191Y-109380809D01*
X119056235Y-109521157D01*
X119115001Y-109532846D01*
X119115000Y-112773154D01*
X119056235Y-112784843D01*
X118846191Y-112925191D01*
X118705843Y-113135235D01*
X118656560Y-113383000D01*
X118656560Y-115583000D01*
X118705843Y-115830765D01*
X118846191Y-116040809D01*
X119056235Y-116181157D01*
X119304000Y-116230440D01*
X120704000Y-116230440D01*
X120951765Y-116181157D01*
X121161809Y-116040809D01*
X121302157Y-115830765D01*
X121351440Y-115583000D01*
X121351440Y-113383000D01*
X121302157Y-113135235D01*
X121161809Y-112925191D01*
X120951765Y-112784843D01*
X120893000Y-112773154D01*
X120893000Y-109532846D01*
X120951765Y-109521157D01*
X121161809Y-109380809D01*
X121302157Y-109170765D01*
X121351440Y-108923000D01*
X121351440Y-106723000D01*
X121302157Y-106475235D01*
X121161809Y-106265191D01*
X120951765Y-106124843D01*
X120704000Y-106075560D01*
X119304000Y-106075560D01*
X119056235Y-106124843D01*
X118846191Y-106265191D01*
X118705843Y-106475235D01*
X118656560Y-106723000D01*
X116801440Y-106723000D01*
X116752157Y-106475235D01*
X116611809Y-106265191D01*
X116401765Y-106124843D01*
X116343000Y-106113154D01*
X116343000Y-104902000D01*
X126630001Y-104902000D01*
X126630000Y-106113154D01*
X126571235Y-106124843D01*
X126361191Y-106265191D01*
X126220843Y-106475235D01*
X126171560Y-106723000D01*
X126171560Y-108923000D01*
X126220843Y-109170765D01*
X126361191Y-109380809D01*
X126571235Y-109521157D01*
X126819000Y-109570440D01*
X128219000Y-109570440D01*
X128466765Y-109521157D01*
X128676809Y-109380809D01*
X128817157Y-109170765D01*
X128866440Y-108923000D01*
X128866440Y-106723000D01*
X130721560Y-106723000D01*
X130721560Y-108923000D01*
X130770843Y-109170765D01*
X130911191Y-109380809D01*
X131121235Y-109521157D01*
X131180001Y-109532846D01*
X131180000Y-112773154D01*
X131121235Y-112784843D01*
X130911191Y-112925191D01*
X130770843Y-113135235D01*
X130721560Y-113383000D01*
X130721560Y-115583000D01*
X130770843Y-115830765D01*
X130911191Y-116040809D01*
X131121235Y-116181157D01*
X131369000Y-116230440D01*
X132769000Y-116230440D01*
X133016765Y-116181157D01*
X133226809Y-116040809D01*
X133367157Y-115830765D01*
X133416440Y-115583000D01*
X133416440Y-113383000D01*
X133367157Y-113135235D01*
X133226809Y-112925191D01*
X133016765Y-112784843D01*
X132958000Y-112773154D01*
X132958000Y-109532846D01*
X133016765Y-109521157D01*
X133226809Y-109380809D01*
X133367157Y-109170765D01*
X133416440Y-108923000D01*
X133416440Y-106723000D01*
X133367157Y-106475235D01*
X133226809Y-106265191D01*
X133016765Y-106124843D01*
X132769000Y-106075560D01*
X131369000Y-106075560D01*
X131121235Y-106124843D01*
X130911191Y-106265191D01*
X130770843Y-106475235D01*
X130721560Y-106723000D01*
X128866440Y-106723000D01*
X128817157Y-106475235D01*
X128676809Y-106265191D01*
X128466765Y-106124843D01*
X128408000Y-106113154D01*
X128408000Y-104902000D01*
X134786444Y-104902000D01*
X134874000Y-104919416D01*
X134961556Y-104902000D01*
X136527256Y-104902000D01*
X136192720Y-105040569D01*
X135901569Y-105331720D01*
X135744000Y-105712126D01*
X135744000Y-106123874D01*
X135890001Y-106476352D01*
X135890000Y-107910555D01*
X135890001Y-107910560D01*
X135890000Y-117094000D01*
X128408000Y-117094000D01*
X128408000Y-116192846D01*
X128466765Y-116181157D01*
X128676809Y-116040809D01*
X128817157Y-115830765D01*
X128866440Y-115583000D01*
X128866440Y-113383000D01*
X128817157Y-113135235D01*
X128676809Y-112925191D01*
X128466765Y-112784843D01*
X128219000Y-112735560D01*
X126819000Y-112735560D01*
X126571235Y-112784843D01*
X126361191Y-112925191D01*
X126220843Y-113135235D01*
X126171560Y-113383000D01*
X126171560Y-115583000D01*
X126220843Y-115830765D01*
X126361191Y-116040809D01*
X126571235Y-116181157D01*
X126630001Y-116192846D01*
X126630000Y-117094000D01*
X116343000Y-117094000D01*
X116343000Y-116192846D01*
X116401765Y-116181157D01*
X116611809Y-116040809D01*
X116752157Y-115830765D01*
X116801440Y-115583000D01*
X116801440Y-113383000D01*
X116752157Y-113135235D01*
X116611809Y-112925191D01*
X116401765Y-112784843D01*
X116154000Y-112735560D01*
X114754000Y-112735560D01*
X114506235Y-112784843D01*
X114296191Y-112925191D01*
X114155843Y-113135235D01*
X114106560Y-113383000D01*
X114106560Y-115583000D01*
X114155843Y-115830765D01*
X114296191Y-116040809D01*
X114506235Y-116181157D01*
X114565001Y-116192846D01*
X114565000Y-117895444D01*
X114547584Y-117983000D01*
X114565001Y-118070561D01*
X114565000Y-119773154D01*
X114506235Y-119784843D01*
X114296191Y-119925191D01*
X114155843Y-120135235D01*
X114106560Y-120383000D01*
X114106560Y-122583000D01*
X114155843Y-122830765D01*
X114296191Y-123040809D01*
X114506235Y-123181157D01*
X114754000Y-123230440D01*
X116154000Y-123230440D01*
X116401765Y-123181157D01*
X116611809Y-123040809D01*
X116752157Y-122830765D01*
X116801440Y-122583000D01*
X116801440Y-120383000D01*
X118656560Y-120383000D01*
X118656560Y-122583000D01*
X118705843Y-122830765D01*
X118846191Y-123040809D01*
X119056235Y-123181157D01*
X119115001Y-123192846D01*
X119115000Y-126108154D01*
X119056235Y-126119843D01*
X118846191Y-126260191D01*
X118705843Y-126470235D01*
X118656560Y-126718000D01*
X118656560Y-128918000D01*
X118705843Y-129165765D01*
X118846191Y-129375809D01*
X119056235Y-129516157D01*
X119304000Y-129565440D01*
X120704000Y-129565440D01*
X120951765Y-129516157D01*
X121161809Y-129375809D01*
X121302157Y-129165765D01*
X121351440Y-128918000D01*
X121351440Y-126718000D01*
X121302157Y-126470235D01*
X121161809Y-126260191D01*
X120951765Y-126119843D01*
X120893000Y-126108154D01*
X120893000Y-123192846D01*
X120951765Y-123181157D01*
X121161809Y-123040809D01*
X121302157Y-122830765D01*
X121351440Y-122583000D01*
X121351440Y-120383000D01*
X121302157Y-120135235D01*
X121161809Y-119925191D01*
X120951765Y-119784843D01*
X120704000Y-119735560D01*
X119304000Y-119735560D01*
X119056235Y-119784843D01*
X118846191Y-119925191D01*
X118705843Y-120135235D01*
X118656560Y-120383000D01*
X116801440Y-120383000D01*
X116752157Y-120135235D01*
X116611809Y-119925191D01*
X116401765Y-119784843D01*
X116343000Y-119773154D01*
X116343000Y-118872000D01*
X126630001Y-118872000D01*
X126630000Y-119773154D01*
X126571235Y-119784843D01*
X126361191Y-119925191D01*
X126220843Y-120135235D01*
X126171560Y-120383000D01*
X126171560Y-122583000D01*
X126220843Y-122830765D01*
X126361191Y-123040809D01*
X126571235Y-123181157D01*
X126819000Y-123230440D01*
X128219000Y-123230440D01*
X128466765Y-123181157D01*
X128676809Y-123040809D01*
X128817157Y-122830765D01*
X128866440Y-122583000D01*
X128866440Y-120383000D01*
X130721560Y-120383000D01*
X130721560Y-122583000D01*
X130770843Y-122830765D01*
X130911191Y-123040809D01*
X131121235Y-123181157D01*
X131180001Y-123192846D01*
X131180000Y-126108154D01*
X131121235Y-126119843D01*
X130911191Y-126260191D01*
X130770843Y-126470235D01*
X130721560Y-126718000D01*
X130721560Y-128918000D01*
X130770843Y-129165765D01*
X130911191Y-129375809D01*
X131121235Y-129516157D01*
X131369000Y-129565440D01*
X132769000Y-129565440D01*
X133016765Y-129516157D01*
X133226809Y-129375809D01*
X133367157Y-129165765D01*
X133416440Y-128918000D01*
X133416440Y-126718000D01*
X133367157Y-126470235D01*
X133226809Y-126260191D01*
X133016765Y-126119843D01*
X132958000Y-126108154D01*
X132958000Y-123192846D01*
X133016765Y-123181157D01*
X133226809Y-123040809D01*
X133367157Y-122830765D01*
X133416440Y-122583000D01*
X133416440Y-120383000D01*
X133367157Y-120135235D01*
X133226809Y-119925191D01*
X133016765Y-119784843D01*
X132769000Y-119735560D01*
X131369000Y-119735560D01*
X131121235Y-119784843D01*
X130911191Y-119925191D01*
X130770843Y-120135235D01*
X130721560Y-120383000D01*
X128866440Y-120383000D01*
X128817157Y-120135235D01*
X128676809Y-119925191D01*
X128466765Y-119784843D01*
X128408000Y-119773154D01*
X128408000Y-118872000D01*
X136691444Y-118872000D01*
X136779000Y-118889416D01*
X136866556Y-118872000D01*
X138695001Y-118872000D01*
X138695000Y-119773154D01*
X138636235Y-119784843D01*
X138426191Y-119925191D01*
X138285843Y-120135235D01*
X138236560Y-120383000D01*
X138236560Y-122583000D01*
X138285843Y-122830765D01*
X138426191Y-123040809D01*
X138636235Y-123181157D01*
X138884000Y-123230440D01*
X140284000Y-123230440D01*
X140531765Y-123181157D01*
X140741809Y-123040809D01*
X140882157Y-122830765D01*
X140931440Y-122583000D01*
X140931440Y-120383000D01*
X142786560Y-120383000D01*
X142786560Y-122583000D01*
X142835843Y-122830765D01*
X142976191Y-123040809D01*
X143186235Y-123181157D01*
X143245001Y-123192846D01*
X143245000Y-126108154D01*
X143186235Y-126119843D01*
X142976191Y-126260191D01*
X142835843Y-126470235D01*
X142786560Y-126718000D01*
X142786560Y-128918000D01*
X142835843Y-129165765D01*
X142976191Y-129375809D01*
X143186235Y-129516157D01*
X143434000Y-129565440D01*
X144834000Y-129565440D01*
X145081765Y-129516157D01*
X145291809Y-129375809D01*
X145432157Y-129165765D01*
X145481440Y-128918000D01*
X145481440Y-126718000D01*
X145432157Y-126470235D01*
X145291809Y-126260191D01*
X145081765Y-126119843D01*
X145023000Y-126108154D01*
X145023000Y-123192846D01*
X145081765Y-123181157D01*
X145291809Y-123040809D01*
X145432157Y-122830765D01*
X145481440Y-122583000D01*
X145481440Y-120383000D01*
X145432157Y-120135235D01*
X145291809Y-119925191D01*
X145081765Y-119784843D01*
X144834000Y-119735560D01*
X143434000Y-119735560D01*
X143186235Y-119784843D01*
X142976191Y-119925191D01*
X142835843Y-120135235D01*
X142786560Y-120383000D01*
X140931440Y-120383000D01*
X140882157Y-120135235D01*
X140741809Y-119925191D01*
X140531765Y-119784843D01*
X140473000Y-119773154D01*
X140473000Y-118872000D01*
X150760001Y-118872000D01*
X150760000Y-119773154D01*
X150701235Y-119784843D01*
X150491191Y-119925191D01*
X150350843Y-120135235D01*
X150301560Y-120383000D01*
X150301560Y-122583000D01*
X150350843Y-122830765D01*
X150491191Y-123040809D01*
X150701235Y-123181157D01*
X150949000Y-123230440D01*
X152349000Y-123230440D01*
X152596765Y-123181157D01*
X152806809Y-123040809D01*
X152947157Y-122830765D01*
X152996440Y-122583000D01*
X152996440Y-120383000D01*
X154851560Y-120383000D01*
X154851560Y-122583000D01*
X154900843Y-122830765D01*
X155041191Y-123040809D01*
X155251235Y-123181157D01*
X155310001Y-123192846D01*
X155310000Y-126108154D01*
X155251235Y-126119843D01*
X155041191Y-126260191D01*
X154900843Y-126470235D01*
X154851560Y-126718000D01*
X154851560Y-128918000D01*
X154900843Y-129165765D01*
X155041191Y-129375809D01*
X155251235Y-129516157D01*
X155499000Y-129565440D01*
X156899000Y-129565440D01*
X157146765Y-129516157D01*
X157356809Y-129375809D01*
X157497157Y-129165765D01*
X157546440Y-128918000D01*
X157546440Y-126718000D01*
X157497157Y-126470235D01*
X157356809Y-126260191D01*
X157146765Y-126119843D01*
X157088000Y-126108154D01*
X157088000Y-123192846D01*
X157146765Y-123181157D01*
X157356809Y-123040809D01*
X157497157Y-122830765D01*
X157546440Y-122583000D01*
X157546440Y-120383000D01*
X157497157Y-120135235D01*
X157356809Y-119925191D01*
X157146765Y-119784843D01*
X156899000Y-119735560D01*
X155499000Y-119735560D01*
X155251235Y-119784843D01*
X155041191Y-119925191D01*
X154900843Y-120135235D01*
X154851560Y-120383000D01*
X152996440Y-120383000D01*
X152947157Y-120135235D01*
X152806809Y-119925191D01*
X152596765Y-119784843D01*
X152538000Y-119773154D01*
X152538000Y-118872000D01*
X165365001Y-118872000D01*
X165365000Y-119773154D01*
X165306235Y-119784843D01*
X165096191Y-119925191D01*
X164955843Y-120135235D01*
X164906560Y-120383000D01*
X164906560Y-122583000D01*
X164955843Y-122830765D01*
X165096191Y-123040809D01*
X165306235Y-123181157D01*
X165554000Y-123230440D01*
X166954000Y-123230440D01*
X167201765Y-123181157D01*
X167411809Y-123040809D01*
X167552157Y-122830765D01*
X167601440Y-122583000D01*
X167601440Y-120383000D01*
X169456560Y-120383000D01*
X169456560Y-122583000D01*
X169505843Y-122830765D01*
X169646191Y-123040809D01*
X169856235Y-123181157D01*
X169915001Y-123192846D01*
X169915000Y-126108154D01*
X169856235Y-126119843D01*
X169646191Y-126260191D01*
X169505843Y-126470235D01*
X169456560Y-126718000D01*
X169456560Y-128918000D01*
X169505843Y-129165765D01*
X169646191Y-129375809D01*
X169856235Y-129516157D01*
X170104000Y-129565440D01*
X171504000Y-129565440D01*
X171751765Y-129516157D01*
X171961809Y-129375809D01*
X172102157Y-129165765D01*
X172151440Y-128918000D01*
X172151440Y-126718000D01*
X172102157Y-126470235D01*
X171961809Y-126260191D01*
X171751765Y-126119843D01*
X171693000Y-126108154D01*
X171693000Y-123192846D01*
X171751765Y-123181157D01*
X171961809Y-123040809D01*
X172102157Y-122830765D01*
X172151440Y-122583000D01*
X172151440Y-120383000D01*
X172102157Y-120135235D01*
X171961809Y-119925191D01*
X171751765Y-119784843D01*
X171504000Y-119735560D01*
X170104000Y-119735560D01*
X169856235Y-119784843D01*
X169646191Y-119925191D01*
X169505843Y-120135235D01*
X169456560Y-120383000D01*
X167601440Y-120383000D01*
X167552157Y-120135235D01*
X167411809Y-119925191D01*
X167201765Y-119784843D01*
X167143000Y-119773154D01*
X167143000Y-118070555D01*
X167160416Y-117983000D01*
X167143000Y-117895444D01*
X167143000Y-116192846D01*
X167201765Y-116181157D01*
X167411809Y-116040809D01*
X167552157Y-115830765D01*
X167601440Y-115583000D01*
X167601440Y-113383000D01*
X167552157Y-113135235D01*
X167411809Y-112925191D01*
X167201765Y-112784843D01*
X166954000Y-112735560D01*
X165554000Y-112735560D01*
X165306235Y-112784843D01*
X165096191Y-112925191D01*
X164955843Y-113135235D01*
X164906560Y-113383000D01*
X164906560Y-115583000D01*
X164955843Y-115830765D01*
X165096191Y-116040809D01*
X165306235Y-116181157D01*
X165365001Y-116192846D01*
X165365000Y-117094000D01*
X152538000Y-117094000D01*
X152538000Y-116192846D01*
X152596765Y-116181157D01*
X152806809Y-116040809D01*
X152947157Y-115830765D01*
X152996440Y-115583000D01*
X152996440Y-113383000D01*
X152947157Y-113135235D01*
X152806809Y-112925191D01*
X152596765Y-112784843D01*
X152349000Y-112735560D01*
X150949000Y-112735560D01*
X150701235Y-112784843D01*
X150491191Y-112925191D01*
X150350843Y-113135235D01*
X150301560Y-113383000D01*
X150301560Y-115583000D01*
X150350843Y-115830765D01*
X150491191Y-116040809D01*
X150701235Y-116181157D01*
X150760001Y-116192846D01*
X150760000Y-117094000D01*
X140473000Y-117094000D01*
X140473000Y-116192846D01*
X140531765Y-116181157D01*
X140741809Y-116040809D01*
X140882157Y-115830765D01*
X140931440Y-115583000D01*
X140931440Y-113383000D01*
X140882157Y-113135235D01*
X140741809Y-112925191D01*
X140531765Y-112784843D01*
X140284000Y-112735560D01*
X138884000Y-112735560D01*
X138636235Y-112784843D01*
X138426191Y-112925191D01*
X138285843Y-113135235D01*
X138236560Y-113383000D01*
X138236560Y-115583000D01*
X138285843Y-115830765D01*
X138426191Y-116040809D01*
X138636235Y-116181157D01*
X138695001Y-116192846D01*
X138695000Y-117094000D01*
X137668000Y-117094000D01*
X137668000Y-106476350D01*
X137814000Y-106123874D01*
X137814000Y-105712126D01*
X137656431Y-105331720D01*
X137365280Y-105040569D01*
X137030744Y-104902000D01*
X138695001Y-104902000D01*
X138695000Y-106113154D01*
X138636235Y-106124843D01*
X138426191Y-106265191D01*
X138285843Y-106475235D01*
X138236560Y-106723000D01*
X138236560Y-108923000D01*
X138285843Y-109170765D01*
X138426191Y-109380809D01*
X138636235Y-109521157D01*
X138884000Y-109570440D01*
X140284000Y-109570440D01*
X140531765Y-109521157D01*
X140741809Y-109380809D01*
X140882157Y-109170765D01*
X140931440Y-108923000D01*
X140931440Y-106723000D01*
X142786560Y-106723000D01*
X142786560Y-108923000D01*
X142835843Y-109170765D01*
X142976191Y-109380809D01*
X143186235Y-109521157D01*
X143245001Y-109532846D01*
X143245000Y-112773154D01*
X143186235Y-112784843D01*
X142976191Y-112925191D01*
X142835843Y-113135235D01*
X142786560Y-113383000D01*
X142786560Y-115583000D01*
X142835843Y-115830765D01*
X142976191Y-116040809D01*
X143186235Y-116181157D01*
X143434000Y-116230440D01*
X144834000Y-116230440D01*
X145081765Y-116181157D01*
X145291809Y-116040809D01*
X145432157Y-115830765D01*
X145481440Y-115583000D01*
X145481440Y-113383000D01*
X145432157Y-113135235D01*
X145291809Y-112925191D01*
X145081765Y-112784843D01*
X145023000Y-112773154D01*
X145023000Y-109532846D01*
X145081765Y-109521157D01*
X145291809Y-109380809D01*
X145432157Y-109170765D01*
X145481440Y-108923000D01*
X145481440Y-106723000D01*
X145432157Y-106475235D01*
X145291809Y-106265191D01*
X145081765Y-106124843D01*
X144834000Y-106075560D01*
X143434000Y-106075560D01*
X143186235Y-106124843D01*
X142976191Y-106265191D01*
X142835843Y-106475235D01*
X142786560Y-106723000D01*
X140931440Y-106723000D01*
X140882157Y-106475235D01*
X140741809Y-106265191D01*
X140531765Y-106124843D01*
X140473000Y-106113154D01*
X140473000Y-104902000D01*
X150760001Y-104902000D01*
X150760000Y-106113154D01*
X150701235Y-106124843D01*
X150491191Y-106265191D01*
X150350843Y-106475235D01*
X150301560Y-106723000D01*
X150301560Y-108923000D01*
X150350843Y-109170765D01*
X150491191Y-109380809D01*
X150701235Y-109521157D01*
X150949000Y-109570440D01*
X152349000Y-109570440D01*
X152596765Y-109521157D01*
X152806809Y-109380809D01*
X152947157Y-109170765D01*
X152996440Y-108923000D01*
X152996440Y-106723000D01*
X154851560Y-106723000D01*
X154851560Y-108923000D01*
X154900843Y-109170765D01*
X155041191Y-109380809D01*
X155251235Y-109521157D01*
X155310001Y-109532846D01*
X155310000Y-112773154D01*
X155251235Y-112784843D01*
X155041191Y-112925191D01*
X154900843Y-113135235D01*
X154851560Y-113383000D01*
X154851560Y-115583000D01*
X154900843Y-115830765D01*
X155041191Y-116040809D01*
X155251235Y-116181157D01*
X155499000Y-116230440D01*
X156899000Y-116230440D01*
X157146765Y-116181157D01*
X157356809Y-116040809D01*
X157497157Y-115830765D01*
X157546440Y-115583000D01*
X157546440Y-113383000D01*
X157497157Y-113135235D01*
X157356809Y-112925191D01*
X157146765Y-112784843D01*
X157088000Y-112773154D01*
X157088000Y-109532846D01*
X157146765Y-109521157D01*
X157356809Y-109380809D01*
X157497157Y-109170765D01*
X157546440Y-108923000D01*
X157546440Y-106723000D01*
X157497157Y-106475235D01*
X157356809Y-106265191D01*
X157146765Y-106124843D01*
X156899000Y-106075560D01*
X155499000Y-106075560D01*
X155251235Y-106124843D01*
X155041191Y-106265191D01*
X154900843Y-106475235D01*
X154851560Y-106723000D01*
X152996440Y-106723000D01*
X152947157Y-106475235D01*
X152806809Y-106265191D01*
X152596765Y-106124843D01*
X152538000Y-106113154D01*
X152538000Y-104902000D01*
X165365001Y-104902000D01*
X165365000Y-106113154D01*
X165306235Y-106124843D01*
X165096191Y-106265191D01*
X164955843Y-106475235D01*
X164906560Y-106723000D01*
X164906560Y-108923000D01*
X164955843Y-109170765D01*
X165096191Y-109380809D01*
X165306235Y-109521157D01*
X165554000Y-109570440D01*
X166954000Y-109570440D01*
X167201765Y-109521157D01*
X167411809Y-109380809D01*
X167552157Y-109170765D01*
X167601440Y-108923000D01*
X167601440Y-106723000D01*
X169456560Y-106723000D01*
X169456560Y-108923000D01*
X169505843Y-109170765D01*
X169646191Y-109380809D01*
X169856235Y-109521157D01*
X169915001Y-109532846D01*
X169915000Y-112773154D01*
X169856235Y-112784843D01*
X169646191Y-112925191D01*
X169505843Y-113135235D01*
X169456560Y-113383000D01*
X169456560Y-115583000D01*
X169505843Y-115830765D01*
X169646191Y-116040809D01*
X169856235Y-116181157D01*
X170104000Y-116230440D01*
X171504000Y-116230440D01*
X171751765Y-116181157D01*
X171961809Y-116040809D01*
X172102157Y-115830765D01*
X172151440Y-115583000D01*
X172151440Y-113383000D01*
X172102157Y-113135235D01*
X171961809Y-112925191D01*
X171751765Y-112784843D01*
X171693000Y-112773154D01*
X171693000Y-109532846D01*
X171751765Y-109521157D01*
X171961809Y-109380809D01*
X172102157Y-109170765D01*
X172151440Y-108923000D01*
X172151440Y-106723000D01*
X172102157Y-106475235D01*
X171961809Y-106265191D01*
X171751765Y-106124843D01*
X171504000Y-106075560D01*
X170104000Y-106075560D01*
X169856235Y-106124843D01*
X169646191Y-106265191D01*
X169505843Y-106475235D01*
X169456560Y-106723000D01*
X167601440Y-106723000D01*
X167552157Y-106475235D01*
X167411809Y-106265191D01*
X167201765Y-106124843D01*
X167143000Y-106113154D01*
X167143000Y-104100555D01*
X167160416Y-104013000D01*
X167143000Y-103925444D01*
X167143000Y-102532846D01*
X167201765Y-102521157D01*
X167411809Y-102380809D01*
X167552157Y-102170765D01*
X167601440Y-101923000D01*
X167601440Y-99723000D01*
X167552157Y-99475235D01*
X167411809Y-99265191D01*
X167201765Y-99124843D01*
X166954000Y-99075560D01*
X165554000Y-99075560D01*
X165306235Y-99124843D01*
X165096191Y-99265191D01*
X164955843Y-99475235D01*
X164906560Y-99723000D01*
X164906560Y-101923000D01*
X164955843Y-102170765D01*
X165096191Y-102380809D01*
X165306235Y-102521157D01*
X165365000Y-102532846D01*
X165365000Y-103124000D01*
X152538000Y-103124000D01*
X152538000Y-102532846D01*
X152596765Y-102521157D01*
X152806809Y-102380809D01*
X152947157Y-102170765D01*
X152996440Y-101923000D01*
X152996440Y-99723000D01*
X152947157Y-99475235D01*
X152806809Y-99265191D01*
X152596765Y-99124843D01*
X152349000Y-99075560D01*
X150949000Y-99075560D01*
X150701235Y-99124843D01*
X150491191Y-99265191D01*
X150350843Y-99475235D01*
X150301560Y-99723000D01*
X150301560Y-101923000D01*
X150350843Y-102170765D01*
X150491191Y-102380809D01*
X150701235Y-102521157D01*
X150760000Y-102532846D01*
X150760000Y-103124000D01*
X140473000Y-103124000D01*
X140473000Y-102532846D01*
X140531765Y-102521157D01*
X140741809Y-102380809D01*
X140882157Y-102170765D01*
X140931440Y-101923000D01*
X140931440Y-99723000D01*
X140882157Y-99475235D01*
X140741809Y-99265191D01*
X140531765Y-99124843D01*
X140284000Y-99075560D01*
X138884000Y-99075560D01*
X138636235Y-99124843D01*
X138426191Y-99265191D01*
X138285843Y-99475235D01*
X138236560Y-99723000D01*
X138236560Y-101923000D01*
X138285843Y-102170765D01*
X138426191Y-102380809D01*
X138636235Y-102521157D01*
X138695000Y-102532846D01*
X138695000Y-103124000D01*
X135763000Y-103124000D01*
X135763000Y-101396350D01*
X135909000Y-101043874D01*
X135909000Y-100632126D01*
X135751431Y-100251720D01*
X135460280Y-99960569D01*
X135079874Y-99803000D01*
X134668126Y-99803000D01*
X134287720Y-99960569D01*
X133996569Y-100251720D01*
X133839000Y-100632126D01*
X133839000Y-101043874D01*
X133985001Y-101396352D01*
X133985000Y-103124000D01*
X128408000Y-103124000D01*
X128408000Y-102532846D01*
X128466765Y-102521157D01*
X128676809Y-102380809D01*
X128817157Y-102170765D01*
X128866440Y-101923000D01*
X128866440Y-99723000D01*
X128817157Y-99475235D01*
X128676809Y-99265191D01*
X128466765Y-99124843D01*
X128219000Y-99075560D01*
X126819000Y-99075560D01*
X126571235Y-99124843D01*
X126361191Y-99265191D01*
X126220843Y-99475235D01*
X126171560Y-99723000D01*
X126171560Y-101923000D01*
X126220843Y-102170765D01*
X126361191Y-102380809D01*
X126571235Y-102521157D01*
X126630000Y-102532846D01*
X126630000Y-103124000D01*
X116343000Y-103124000D01*
X116343000Y-102532846D01*
X116401765Y-102521157D01*
X116611809Y-102380809D01*
X116752157Y-102170765D01*
X116801440Y-101923000D01*
X116801440Y-99723000D01*
X116752157Y-99475235D01*
X116611809Y-99265191D01*
X116401765Y-99124843D01*
X116154000Y-99075560D01*
X114754000Y-99075560D01*
X114506235Y-99124843D01*
X114296191Y-99265191D01*
X114155843Y-99475235D01*
X114106560Y-99723000D01*
X113538000Y-99723000D01*
X113538000Y-85966235D01*
X116827236Y-82677000D01*
X119546445Y-82677000D01*
X119634000Y-82694416D01*
X119721555Y-82677000D01*
X119721556Y-82677000D01*
X119980870Y-82625419D01*
X120274933Y-82428933D01*
X120324531Y-82354704D01*
X121137805Y-81541431D01*
X121490280Y-81395431D01*
X121781431Y-81104280D01*
X121939000Y-80723874D01*
X121939000Y-80312126D01*
X121781431Y-79931720D01*
X121490280Y-79640569D01*
X121109874Y-79483000D01*
X120698126Y-79483000D01*
X120317720Y-79640569D01*
X120026569Y-79931720D01*
X119880569Y-80284195D01*
X119265765Y-80899000D01*
X116546556Y-80899000D01*
X116459000Y-80881584D01*
X116213404Y-80930436D01*
X118376664Y-78767177D01*
X118461495Y-78710495D01*
X118686051Y-78374423D01*
X118745000Y-78078065D01*
X118745000Y-78078064D01*
X118764904Y-77978001D01*
X118745000Y-77877937D01*
X118745000Y-75525556D01*
X118796582Y-75784870D01*
X118993068Y-76078933D01*
X119067294Y-76128529D01*
X120213471Y-77274707D01*
X120263067Y-77348933D01*
X120557130Y-77545419D01*
X120816444Y-77597000D01*
X120816448Y-77597000D01*
X120903999Y-77614415D01*
X120991550Y-77597000D01*
X121033604Y-77597000D01*
X121361138Y-77924534D01*
X121888561Y-78143000D01*
X122459439Y-78143000D01*
X122986862Y-77924534D01*
X123314396Y-77597000D01*
X124534387Y-77597000D01*
X124511582Y-77631130D01*
X124442584Y-77978000D01*
X124460001Y-78065559D01*
X124460000Y-79856764D01*
X119437294Y-84879471D01*
X119363068Y-84929067D01*
X119313472Y-85003293D01*
X119313471Y-85003294D01*
X119166582Y-85223130D01*
X119117960Y-85467565D01*
X119056235Y-85479843D01*
X118846191Y-85620191D01*
X118705843Y-85830235D01*
X118656560Y-86078000D01*
X118656560Y-88278000D01*
X118705843Y-88525765D01*
X118846191Y-88735809D01*
X119056235Y-88876157D01*
X119304000Y-88925440D01*
X120704000Y-88925440D01*
X120951765Y-88876157D01*
X121161809Y-88735809D01*
X121302157Y-88525765D01*
X121351440Y-88278000D01*
X121351440Y-86078000D01*
X121302157Y-85830235D01*
X121181530Y-85649705D01*
X125915707Y-80915529D01*
X125989933Y-80865933D01*
X126186419Y-80571870D01*
X126238000Y-80312556D01*
X126238000Y-80312552D01*
X126255415Y-80225001D01*
X126238000Y-80137450D01*
X126238000Y-78346235D01*
X126352236Y-78232000D01*
X127477010Y-78232000D01*
X127172260Y-78688091D01*
X127060887Y-79248000D01*
X127091418Y-79401487D01*
X127083068Y-79407066D01*
X126886582Y-79701130D01*
X126843617Y-79917130D01*
X126817585Y-80047999D01*
X126835001Y-80135554D01*
X126835002Y-81711762D01*
X125869765Y-82677000D01*
X125780350Y-82677000D01*
X125427874Y-82531000D01*
X125016126Y-82531000D01*
X124635720Y-82688569D01*
X124344569Y-82979720D01*
X124187000Y-83360126D01*
X124187000Y-83771874D01*
X124344569Y-84152280D01*
X124635720Y-84443431D01*
X125016126Y-84601000D01*
X125427874Y-84601000D01*
X125780350Y-84455000D01*
X126150445Y-84455000D01*
X126238000Y-84472416D01*
X126325555Y-84455000D01*
X126325556Y-84455000D01*
X126390728Y-84442036D01*
X124401296Y-86431469D01*
X124327067Y-86481067D01*
X124130581Y-86775131D01*
X124079000Y-87034444D01*
X124061584Y-87122000D01*
X124079000Y-87209555D01*
X124079001Y-88341648D01*
X123933000Y-88694126D01*
X123933000Y-89105874D01*
X124090569Y-89486280D01*
X124381720Y-89777431D01*
X124409650Y-89789000D01*
X116343000Y-89789000D01*
X116343000Y-88887846D01*
X116401765Y-88876157D01*
X116611809Y-88735809D01*
X116752157Y-88525765D01*
X116801440Y-88278000D01*
X116801440Y-86078000D01*
X116752157Y-85830235D01*
X116611809Y-85620191D01*
X116401765Y-85479843D01*
X116154000Y-85430560D01*
X114754000Y-85430560D01*
X114506235Y-85479843D01*
X114296191Y-85620191D01*
X114155843Y-85830235D01*
X114106560Y-86078000D01*
X114106560Y-88278000D01*
X114155843Y-88525765D01*
X114296191Y-88735809D01*
X114506235Y-88876157D01*
X114565001Y-88887846D01*
X114565000Y-90590444D01*
X114547584Y-90678000D01*
X114565001Y-90765561D01*
X114565000Y-92468154D01*
X114506235Y-92479843D01*
X114296191Y-92620191D01*
X114155843Y-92830235D01*
X114106560Y-93078000D01*
X114106560Y-95278000D01*
X114155843Y-95525765D01*
X114296191Y-95735809D01*
X114506235Y-95876157D01*
X114754000Y-95925440D01*
X116154000Y-95925440D01*
X116401765Y-95876157D01*
X116611809Y-95735809D01*
X116752157Y-95525765D01*
X116801440Y-95278000D01*
X116801440Y-93078000D01*
X118656560Y-93078000D01*
X118656560Y-95278000D01*
X118705843Y-95525765D01*
X118846191Y-95735809D01*
X119056235Y-95876157D01*
X119115001Y-95887846D01*
X119115000Y-99113154D01*
X119056235Y-99124843D01*
X118846191Y-99265191D01*
X118705843Y-99475235D01*
X118656560Y-99723000D01*
X118656560Y-101923000D01*
X118705843Y-102170765D01*
X118846191Y-102380809D01*
X119056235Y-102521157D01*
X119304000Y-102570440D01*
X120704000Y-102570440D01*
X120951765Y-102521157D01*
X121161809Y-102380809D01*
X121302157Y-102170765D01*
X121351440Y-101923000D01*
X121351440Y-99723000D01*
X121302157Y-99475235D01*
X121161809Y-99265191D01*
X120951765Y-99124843D01*
X120893000Y-99113154D01*
X120893000Y-95887846D01*
X120951765Y-95876157D01*
X121161809Y-95735809D01*
X121302157Y-95525765D01*
X121351440Y-95278000D01*
X121351440Y-93078000D01*
X121302157Y-92830235D01*
X121161809Y-92620191D01*
X120951765Y-92479843D01*
X120704000Y-92430560D01*
X119304000Y-92430560D01*
X119056235Y-92479843D01*
X118846191Y-92620191D01*
X118705843Y-92830235D01*
X118656560Y-93078000D01*
X116801440Y-93078000D01*
X116752157Y-92830235D01*
X116611809Y-92620191D01*
X116401765Y-92479843D01*
X116343000Y-92468154D01*
X116343000Y-91567000D01*
X126630001Y-91567000D01*
X126630000Y-92468154D01*
X126571235Y-92479843D01*
X126361191Y-92620191D01*
X126220843Y-92830235D01*
X126171560Y-93078000D01*
X126171560Y-95278000D01*
X126220843Y-95525765D01*
X126361191Y-95735809D01*
X126571235Y-95876157D01*
X126819000Y-95925440D01*
X128219000Y-95925440D01*
X128466765Y-95876157D01*
X128676809Y-95735809D01*
X128817157Y-95525765D01*
X128866440Y-95278000D01*
X128866440Y-93078000D01*
X130721560Y-93078000D01*
X130721560Y-95278000D01*
X130770843Y-95525765D01*
X130911191Y-95735809D01*
X131121235Y-95876157D01*
X131180001Y-95887846D01*
X131180000Y-99113154D01*
X131121235Y-99124843D01*
X130911191Y-99265191D01*
X130770843Y-99475235D01*
X130721560Y-99723000D01*
X130721560Y-101923000D01*
X130770843Y-102170765D01*
X130911191Y-102380809D01*
X131121235Y-102521157D01*
X131369000Y-102570440D01*
X132769000Y-102570440D01*
X133016765Y-102521157D01*
X133226809Y-102380809D01*
X133367157Y-102170765D01*
X133416440Y-101923000D01*
X133416440Y-99723000D01*
X133367157Y-99475235D01*
X133226809Y-99265191D01*
X133016765Y-99124843D01*
X132958000Y-99113154D01*
X132958000Y-98571000D01*
X133301874Y-98571000D01*
X133654350Y-98425000D01*
X140665650Y-98425000D01*
X141018126Y-98571000D01*
X141429874Y-98571000D01*
X141810280Y-98413431D01*
X142101431Y-98122280D01*
X142259000Y-97741874D01*
X142259000Y-97330126D01*
X142101431Y-96949720D01*
X141810280Y-96658569D01*
X141429874Y-96501000D01*
X141018126Y-96501000D01*
X140665650Y-96647000D01*
X133654350Y-96647000D01*
X133301874Y-96501000D01*
X132958000Y-96501000D01*
X132958000Y-95887846D01*
X133016765Y-95876157D01*
X133226809Y-95735809D01*
X133367157Y-95525765D01*
X133416440Y-95278000D01*
X133416440Y-93078000D01*
X133367157Y-92830235D01*
X133226809Y-92620191D01*
X133016765Y-92479843D01*
X132769000Y-92430560D01*
X131369000Y-92430560D01*
X131121235Y-92479843D01*
X130911191Y-92620191D01*
X130770843Y-92830235D01*
X130721560Y-93078000D01*
X128866440Y-93078000D01*
X128817157Y-92830235D01*
X128676809Y-92620191D01*
X128466765Y-92479843D01*
X128408000Y-92468154D01*
X128408000Y-91567000D01*
X138695001Y-91567000D01*
X138695000Y-92468154D01*
X138636235Y-92479843D01*
X138426191Y-92620191D01*
X138285843Y-92830235D01*
X138236560Y-93078000D01*
X138236560Y-95278000D01*
X138285843Y-95525765D01*
X138426191Y-95735809D01*
X138636235Y-95876157D01*
X138884000Y-95925440D01*
X140284000Y-95925440D01*
X140531765Y-95876157D01*
X140741809Y-95735809D01*
X140882157Y-95525765D01*
X140931440Y-95278000D01*
X140931440Y-93078000D01*
X142786560Y-93078000D01*
X142786560Y-95278000D01*
X142835843Y-95525765D01*
X142976191Y-95735809D01*
X143186235Y-95876157D01*
X143245001Y-95887846D01*
X143245000Y-99113154D01*
X143186235Y-99124843D01*
X142976191Y-99265191D01*
X142835843Y-99475235D01*
X142786560Y-99723000D01*
X142786560Y-101923000D01*
X142835843Y-102170765D01*
X142976191Y-102380809D01*
X143186235Y-102521157D01*
X143434000Y-102570440D01*
X144834000Y-102570440D01*
X145081765Y-102521157D01*
X145291809Y-102380809D01*
X145432157Y-102170765D01*
X145481440Y-101923000D01*
X145481440Y-99723000D01*
X145432157Y-99475235D01*
X145291809Y-99265191D01*
X145081765Y-99124843D01*
X145023000Y-99113154D01*
X145023000Y-95887846D01*
X145081765Y-95876157D01*
X145291809Y-95735809D01*
X145432157Y-95525765D01*
X145481440Y-95278000D01*
X145481440Y-93078000D01*
X145432157Y-92830235D01*
X145291809Y-92620191D01*
X145081765Y-92479843D01*
X144834000Y-92430560D01*
X143434000Y-92430560D01*
X143186235Y-92479843D01*
X142976191Y-92620191D01*
X142835843Y-92830235D01*
X142786560Y-93078000D01*
X140931440Y-93078000D01*
X140882157Y-92830235D01*
X140741809Y-92620191D01*
X140531765Y-92479843D01*
X140473000Y-92468154D01*
X140473000Y-91567000D01*
X150760001Y-91567000D01*
X150760000Y-92468154D01*
X150701235Y-92479843D01*
X150491191Y-92620191D01*
X150350843Y-92830235D01*
X150301560Y-93078000D01*
X150301560Y-95278000D01*
X150350843Y-95525765D01*
X150491191Y-95735809D01*
X150701235Y-95876157D01*
X150949000Y-95925440D01*
X152349000Y-95925440D01*
X152596765Y-95876157D01*
X152806809Y-95735809D01*
X152947157Y-95525765D01*
X152996440Y-95278000D01*
X152996440Y-93078000D01*
X154851560Y-93078000D01*
X154851560Y-95278000D01*
X154900843Y-95525765D01*
X155041191Y-95735809D01*
X155251235Y-95876157D01*
X155310001Y-95887846D01*
X155310000Y-99113154D01*
X155251235Y-99124843D01*
X155041191Y-99265191D01*
X154900843Y-99475235D01*
X154851560Y-99723000D01*
X154851560Y-101923000D01*
X154900843Y-102170765D01*
X155041191Y-102380809D01*
X155251235Y-102521157D01*
X155499000Y-102570440D01*
X156899000Y-102570440D01*
X157146765Y-102521157D01*
X157356809Y-102380809D01*
X157497157Y-102170765D01*
X157546440Y-101923000D01*
X157546440Y-99723000D01*
X157497157Y-99475235D01*
X157356809Y-99265191D01*
X157146765Y-99124843D01*
X157088000Y-99113154D01*
X157088000Y-97330126D01*
X161017000Y-97330126D01*
X161017000Y-97741874D01*
X161174569Y-98122280D01*
X161465720Y-98413431D01*
X161846126Y-98571000D01*
X162257874Y-98571000D01*
X162610350Y-98425000D01*
X166065650Y-98425000D01*
X166418126Y-98571000D01*
X166829874Y-98571000D01*
X167210280Y-98413431D01*
X167501431Y-98122280D01*
X167659000Y-97741874D01*
X167659000Y-97330126D01*
X167501431Y-96949720D01*
X167210280Y-96658569D01*
X166829874Y-96501000D01*
X166418126Y-96501000D01*
X166065650Y-96647000D01*
X162610350Y-96647000D01*
X162257874Y-96501000D01*
X161846126Y-96501000D01*
X161465720Y-96658569D01*
X161174569Y-96949720D01*
X161017000Y-97330126D01*
X157088000Y-97330126D01*
X157088000Y-95887846D01*
X157146765Y-95876157D01*
X157356809Y-95735809D01*
X157497157Y-95525765D01*
X157546440Y-95278000D01*
X157546440Y-93078000D01*
X157497157Y-92830235D01*
X157356809Y-92620191D01*
X157146765Y-92479843D01*
X156899000Y-92430560D01*
X155499000Y-92430560D01*
X155251235Y-92479843D01*
X155041191Y-92620191D01*
X154900843Y-92830235D01*
X154851560Y-93078000D01*
X152996440Y-93078000D01*
X152947157Y-92830235D01*
X152806809Y-92620191D01*
X152596765Y-92479843D01*
X152538000Y-92468154D01*
X152538000Y-91567000D01*
X158175289Y-91567000D01*
X158126569Y-91615720D01*
X157969000Y-91996126D01*
X157969000Y-92407874D01*
X158126569Y-92788280D01*
X158417720Y-93079431D01*
X158798126Y-93237000D01*
X159209874Y-93237000D01*
X159562350Y-93091000D01*
X163525650Y-93091000D01*
X163878126Y-93237000D01*
X164289874Y-93237000D01*
X164670280Y-93079431D01*
X164961431Y-92788280D01*
X165119000Y-92407874D01*
X165119000Y-91996126D01*
X164961431Y-91615720D01*
X164912711Y-91567000D01*
X165365001Y-91567000D01*
X165365000Y-92468154D01*
X165306235Y-92479843D01*
X165096191Y-92620191D01*
X164955843Y-92830235D01*
X164906560Y-93078000D01*
X164906560Y-95278000D01*
X164955843Y-95525765D01*
X165096191Y-95735809D01*
X165306235Y-95876157D01*
X165554000Y-95925440D01*
X166954000Y-95925440D01*
X167201765Y-95876157D01*
X167411809Y-95735809D01*
X167552157Y-95525765D01*
X167601440Y-95278000D01*
X167601440Y-93078000D01*
X169456560Y-93078000D01*
X169456560Y-95278000D01*
X169505843Y-95525765D01*
X169646191Y-95735809D01*
X169856235Y-95876157D01*
X169915001Y-95887846D01*
X169915000Y-99113154D01*
X169856235Y-99124843D01*
X169646191Y-99265191D01*
X169505843Y-99475235D01*
X169456560Y-99723000D01*
X169456560Y-101923000D01*
X169505843Y-102170765D01*
X169646191Y-102380809D01*
X169856235Y-102521157D01*
X170104000Y-102570440D01*
X171504000Y-102570440D01*
X171751765Y-102521157D01*
X171961809Y-102380809D01*
X172102157Y-102170765D01*
X172151440Y-101923000D01*
X172151440Y-99723000D01*
X172102157Y-99475235D01*
X171961809Y-99265191D01*
X171751765Y-99124843D01*
X171693000Y-99113154D01*
X171693000Y-95887846D01*
X171751765Y-95876157D01*
X171961809Y-95735809D01*
X172102157Y-95525765D01*
X172151440Y-95278000D01*
X172151440Y-93078000D01*
X172102157Y-92830235D01*
X171961809Y-92620191D01*
X171751765Y-92479843D01*
X171504000Y-92430560D01*
X170104000Y-92430560D01*
X169856235Y-92479843D01*
X169646191Y-92620191D01*
X169505843Y-92830235D01*
X169456560Y-93078000D01*
X167601440Y-93078000D01*
X167552157Y-92830235D01*
X167411809Y-92620191D01*
X167201765Y-92479843D01*
X167143000Y-92468154D01*
X167143000Y-90765555D01*
X167160416Y-90678000D01*
X167143000Y-90590444D01*
X167143000Y-88887846D01*
X167201765Y-88876157D01*
X167411809Y-88735809D01*
X167552157Y-88525765D01*
X167601440Y-88278000D01*
X167601440Y-86078000D01*
X167552157Y-85830235D01*
X167411809Y-85620191D01*
X167201765Y-85479843D01*
X166954000Y-85430560D01*
X165554000Y-85430560D01*
X165306235Y-85479843D01*
X165096191Y-85620191D01*
X164955843Y-85830235D01*
X164906560Y-86078000D01*
X164906560Y-88278000D01*
X164955843Y-88525765D01*
X165096191Y-88735809D01*
X165306235Y-88876157D01*
X165365001Y-88887846D01*
X165365000Y-89789000D01*
X152538000Y-89789000D01*
X152538000Y-88887846D01*
X152596765Y-88876157D01*
X152806809Y-88735809D01*
X152947157Y-88525765D01*
X152996440Y-88278000D01*
X152996440Y-86078000D01*
X152947157Y-85830235D01*
X152806809Y-85620191D01*
X152596765Y-85479843D01*
X152349000Y-85430560D01*
X150949000Y-85430560D01*
X150701235Y-85479843D01*
X150491191Y-85620191D01*
X150350843Y-85830235D01*
X150301560Y-86078000D01*
X150301560Y-88278000D01*
X150350843Y-88525765D01*
X150491191Y-88735809D01*
X150701235Y-88876157D01*
X150760001Y-88887846D01*
X150760000Y-89789000D01*
X140473000Y-89789000D01*
X140473000Y-88887846D01*
X140531765Y-88876157D01*
X140741809Y-88735809D01*
X140882157Y-88525765D01*
X140931440Y-88278000D01*
X140931440Y-86078000D01*
X140882157Y-85830235D01*
X140741809Y-85620191D01*
X140531765Y-85479843D01*
X140284000Y-85430560D01*
X138884000Y-85430560D01*
X138636235Y-85479843D01*
X138426191Y-85620191D01*
X138285843Y-85830235D01*
X138236560Y-86078000D01*
X138236560Y-88278000D01*
X138285843Y-88525765D01*
X138426191Y-88735809D01*
X138636235Y-88876157D01*
X138695001Y-88887846D01*
X138695000Y-89789000D01*
X128408000Y-89789000D01*
X128408000Y-88887846D01*
X128466765Y-88876157D01*
X128676809Y-88735809D01*
X128817157Y-88525765D01*
X128866440Y-88278000D01*
X128866440Y-86687795D01*
X131630707Y-83923529D01*
X131704933Y-83873933D01*
X131901419Y-83579870D01*
X131953000Y-83320556D01*
X131953000Y-83320555D01*
X131970416Y-83233001D01*
X131953000Y-83145446D01*
X131953000Y-80379848D01*
X132098577Y-80282577D01*
X132334000Y-79930242D01*
X132569423Y-80282577D01*
X132715001Y-80379849D01*
X132715000Y-81229650D01*
X132569000Y-81582126D01*
X132569000Y-81993874D01*
X132726569Y-82374280D01*
X133017720Y-82665431D01*
X133269884Y-82769880D01*
X131502294Y-84537471D01*
X131428068Y-84587067D01*
X131378472Y-84661293D01*
X131378471Y-84661294D01*
X131231582Y-84881130D01*
X131162584Y-85228000D01*
X131180001Y-85315559D01*
X131180001Y-85468154D01*
X131121235Y-85479843D01*
X130911191Y-85620191D01*
X130770843Y-85830235D01*
X130721560Y-86078000D01*
X130721560Y-88278000D01*
X130770843Y-88525765D01*
X130911191Y-88735809D01*
X131121235Y-88876157D01*
X131369000Y-88925440D01*
X132769000Y-88925440D01*
X133016765Y-88876157D01*
X133226809Y-88735809D01*
X133367157Y-88525765D01*
X133416440Y-88278000D01*
X133416440Y-86078000D01*
X133367157Y-85830235D01*
X133226809Y-85620191D01*
X133051310Y-85502925D01*
X134607236Y-83947000D01*
X144499764Y-83947000D01*
X143567294Y-84879471D01*
X143493068Y-84929067D01*
X143443472Y-85003293D01*
X143443471Y-85003294D01*
X143296582Y-85223130D01*
X143247960Y-85467565D01*
X143186235Y-85479843D01*
X142976191Y-85620191D01*
X142835843Y-85830235D01*
X142786560Y-86078000D01*
X142786560Y-88278000D01*
X142835843Y-88525765D01*
X142976191Y-88735809D01*
X143186235Y-88876157D01*
X143434000Y-88925440D01*
X144834000Y-88925440D01*
X145081765Y-88876157D01*
X145291809Y-88735809D01*
X145432157Y-88525765D01*
X145481440Y-88278000D01*
X145481440Y-86078000D01*
X145432157Y-85830235D01*
X145311530Y-85649705D01*
X145744236Y-85217000D01*
X154471445Y-85217000D01*
X154559000Y-85234416D01*
X154646555Y-85217000D01*
X154646556Y-85217000D01*
X154905870Y-85165419D01*
X155199933Y-84968933D01*
X155249531Y-84894704D01*
X157030707Y-83113529D01*
X157104933Y-83063933D01*
X157301419Y-82769870D01*
X157353000Y-82510556D01*
X157353000Y-82510555D01*
X157370416Y-82423000D01*
X157353000Y-82335445D01*
X157353000Y-80379848D01*
X157498577Y-80282577D01*
X157734000Y-79930242D01*
X157969423Y-80282577D01*
X158115001Y-80379849D01*
X158115000Y-82054764D01*
X155632294Y-84537471D01*
X155558068Y-84587067D01*
X155508472Y-84661293D01*
X155508471Y-84661294D01*
X155361582Y-84881130D01*
X155292584Y-85228000D01*
X155310001Y-85315559D01*
X155310001Y-85468154D01*
X155251235Y-85479843D01*
X155041191Y-85620191D01*
X154900843Y-85830235D01*
X154851560Y-86078000D01*
X154851560Y-88278000D01*
X154900843Y-88525765D01*
X155041191Y-88735809D01*
X155251235Y-88876157D01*
X155499000Y-88925440D01*
X156899000Y-88925440D01*
X157146765Y-88876157D01*
X157356809Y-88735809D01*
X157497157Y-88525765D01*
X157546440Y-88278000D01*
X157546440Y-86078000D01*
X157497157Y-85830235D01*
X157356809Y-85620191D01*
X157181310Y-85502925D01*
X159570707Y-83113529D01*
X159644933Y-83063933D01*
X159841419Y-82769870D01*
X159893000Y-82510556D01*
X159893000Y-82510555D01*
X159910416Y-82423001D01*
X159893000Y-82335446D01*
X159893000Y-80379848D01*
X160038577Y-80282577D01*
X160274000Y-79930242D01*
X160509423Y-80282577D01*
X160655000Y-80379848D01*
X160655000Y-80466925D01*
X160655001Y-80466930D01*
X160655000Y-82335445D01*
X160637584Y-82423000D01*
X160655000Y-82510555D01*
X160706581Y-82769869D01*
X160903067Y-83063933D01*
X160977296Y-83113531D01*
X162758470Y-84894706D01*
X162808067Y-84968933D01*
X163102130Y-85165419D01*
X163361444Y-85217000D01*
X163361445Y-85217000D01*
X163449000Y-85234416D01*
X163536555Y-85217000D01*
X169430765Y-85217000D01*
X169758747Y-85544983D01*
X169646191Y-85620191D01*
X169505843Y-85830235D01*
X169456560Y-86078000D01*
X169456560Y-86228116D01*
X169115874Y-86087000D01*
X168704126Y-86087000D01*
X168323720Y-86244569D01*
X168032569Y-86535720D01*
X167875000Y-86916126D01*
X167875000Y-87327874D01*
X168021001Y-87680352D01*
X168021000Y-91135650D01*
X167875000Y-91488126D01*
X167875000Y-91899874D01*
X168032569Y-92280280D01*
X168323720Y-92571431D01*
X168704126Y-92729000D01*
X169115874Y-92729000D01*
X169496280Y-92571431D01*
X169787431Y-92280280D01*
X169945000Y-91899874D01*
X169945000Y-91488126D01*
X169799000Y-91135650D01*
X169799000Y-88837913D01*
X169856235Y-88876157D01*
X170104000Y-88925440D01*
X171504000Y-88925440D01*
X171751765Y-88876157D01*
X171961809Y-88735809D01*
X172102157Y-88525765D01*
X172151440Y-88278000D01*
X172151440Y-86078000D01*
X172102157Y-85830235D01*
X171961809Y-85620191D01*
X171751765Y-85479843D01*
X171693000Y-85468154D01*
X171693000Y-85420556D01*
X171710416Y-85333000D01*
X171641419Y-84986129D01*
X171494529Y-84766293D01*
X171444933Y-84692067D01*
X171370706Y-84642471D01*
X170489531Y-83761296D01*
X170439933Y-83687067D01*
X170145870Y-83490581D01*
X169886556Y-83439000D01*
X169886555Y-83439000D01*
X169799000Y-83421584D01*
X169711445Y-83439000D01*
X163817236Y-83439000D01*
X162433000Y-82054765D01*
X162433000Y-80379848D01*
X162578577Y-80282577D01*
X162895740Y-79807909D01*
X163007113Y-79248000D01*
X162895740Y-78688091D01*
X162578577Y-78213423D01*
X162103909Y-77896260D01*
X161685333Y-77813000D01*
X161402667Y-77813000D01*
X160984091Y-77896260D01*
X160509423Y-78213423D01*
X160274000Y-78565758D01*
X160038577Y-78213423D01*
X159563909Y-77896260D01*
X159145333Y-77813000D01*
X158862667Y-77813000D01*
X158444091Y-77896260D01*
X157969423Y-78213423D01*
X157734000Y-78565758D01*
X157498577Y-78213423D01*
X157023909Y-77896260D01*
X156605333Y-77813000D01*
X156322667Y-77813000D01*
X155904091Y-77896260D01*
X155429423Y-78213423D01*
X155194000Y-78565758D01*
X154958577Y-78213423D01*
X154483909Y-77896260D01*
X154065333Y-77813000D01*
X153782667Y-77813000D01*
X153364091Y-77896260D01*
X152889423Y-78213423D01*
X152654000Y-78565758D01*
X152418577Y-78213423D01*
X152273000Y-78116152D01*
X152273000Y-78092235D01*
X153276236Y-77089000D01*
X157138445Y-77089000D01*
X157226000Y-77106416D01*
X157313555Y-77089000D01*
X157313556Y-77089000D01*
X157572870Y-77037419D01*
X157866933Y-76840933D01*
X157916531Y-76766704D01*
X158864236Y-75819000D01*
X164250445Y-75819000D01*
X164338000Y-75836416D01*
X164425555Y-75819000D01*
X164425556Y-75819000D01*
X164684870Y-75767419D01*
X164978933Y-75570933D01*
X165028531Y-75496704D01*
X165504762Y-75020473D01*
X165546081Y-75061792D01*
X165529720Y-75068569D01*
X165238569Y-75359720D01*
X165081000Y-75740126D01*
X165081000Y-76151874D01*
X165198274Y-76435000D01*
X165148126Y-76435000D01*
X164767720Y-76592569D01*
X164476569Y-76883720D01*
X164319000Y-77264126D01*
X164319000Y-77675874D01*
X164476569Y-78056280D01*
X164767720Y-78347431D01*
X165148126Y-78505000D01*
X165559874Y-78505000D01*
X165912350Y-78359000D01*
X169049765Y-78359000D01*
X169489471Y-78798706D01*
X169539067Y-78872933D01*
X169833130Y-79069419D01*
X170092444Y-79121000D01*
X170092445Y-79121000D01*
X170180000Y-79138416D01*
X170267555Y-79121000D01*
X171528017Y-79121000D01*
X171649375Y-79302625D01*
X171947761Y-79502000D01*
X171649375Y-79701375D01*
X171321161Y-80192582D01*
X171205908Y-80772000D01*
X171321161Y-81351418D01*
X171649375Y-81842625D01*
X172140582Y-82170839D01*
X172573744Y-82257000D01*
X172866256Y-82257000D01*
X173299418Y-82170839D01*
X173790625Y-81842625D01*
X174118839Y-81351418D01*
X174234092Y-80772000D01*
X174118839Y-80192582D01*
X173790625Y-79701375D01*
X173492239Y-79502000D01*
X173790625Y-79302625D01*
X174118839Y-78811418D01*
X174234092Y-78232000D01*
X174118839Y-77652582D01*
X173790625Y-77161375D01*
X173492239Y-76962000D01*
X173790625Y-76762625D01*
X174118839Y-76271418D01*
X174234092Y-75692000D01*
X174118839Y-75112582D01*
X173790625Y-74621375D01*
X173492239Y-74422000D01*
X173790625Y-74222625D01*
X174118839Y-73731418D01*
X174234092Y-73152000D01*
X174118839Y-72572582D01*
X173790625Y-72081375D01*
X173492239Y-71882000D01*
X173790625Y-71682625D01*
X174118839Y-71191418D01*
X174234092Y-70612000D01*
X174118839Y-70032582D01*
X173790625Y-69541375D01*
X173768967Y-69526904D01*
X173929698Y-69460327D01*
X174108327Y-69281699D01*
X174205000Y-69048310D01*
X174205000Y-68357750D01*
X174046250Y-68199000D01*
X172847000Y-68199000D01*
X172847000Y-68219000D01*
X172593000Y-68219000D01*
X172593000Y-68199000D01*
X171393750Y-68199000D01*
X171235000Y-68357750D01*
X171235000Y-69048310D01*
X171331673Y-69281699D01*
X171510302Y-69460327D01*
X171671033Y-69526904D01*
X171649375Y-69541375D01*
X171321161Y-70032582D01*
X171205908Y-70612000D01*
X171321161Y-71191418D01*
X171649375Y-71682625D01*
X171947761Y-71882000D01*
X171649375Y-72081375D01*
X171528017Y-72263000D01*
X170775550Y-72263000D01*
X170687999Y-72245585D01*
X170600448Y-72263000D01*
X170600444Y-72263000D01*
X170341130Y-72314581D01*
X170047067Y-72511067D01*
X169997471Y-72585293D01*
X169049765Y-73533000D01*
X166992236Y-73533000D01*
X167190707Y-73334529D01*
X167264933Y-73284933D01*
X167461419Y-72990870D01*
X167513000Y-72731556D01*
X167513000Y-72731552D01*
X167530415Y-72644001D01*
X167513000Y-72556450D01*
X167513000Y-68948235D01*
X168206707Y-68254529D01*
X168280933Y-68204933D01*
X168477419Y-67910870D01*
X168529000Y-67651556D01*
X168529000Y-67651555D01*
X168546416Y-67564000D01*
X168529000Y-67476444D01*
X168529000Y-67360350D01*
X168638625Y-67095690D01*
X171235000Y-67095690D01*
X171235000Y-67786250D01*
X171393750Y-67945000D01*
X172593000Y-67945000D01*
X172593000Y-66745750D01*
X172847000Y-66745750D01*
X172847000Y-67945000D01*
X174046250Y-67945000D01*
X174205000Y-67786250D01*
X174205000Y-67095690D01*
X174108327Y-66862301D01*
X173929698Y-66683673D01*
X173696309Y-66587000D01*
X173005750Y-66587000D01*
X172847000Y-66745750D01*
X172593000Y-66745750D01*
X172434250Y-66587000D01*
X171743691Y-66587000D01*
X171510302Y-66683673D01*
X171331673Y-66862301D01*
X171235000Y-67095690D01*
X168638625Y-67095690D01*
X168675000Y-67007874D01*
X168675000Y-66596126D01*
X168602461Y-66421000D01*
X169330445Y-66421000D01*
X169418000Y-66438416D01*
X169505555Y-66421000D01*
X169505556Y-66421000D01*
X169764870Y-66369419D01*
X170058933Y-66172933D01*
X170108531Y-66098704D01*
X171762707Y-64444529D01*
X171836933Y-64394933D01*
X172033419Y-64100870D01*
X172085000Y-63841556D01*
X172085000Y-63841555D01*
X172102416Y-63754000D01*
X172085000Y-63666445D01*
X172085000Y-61196975D01*
X172327758Y-60954217D01*
X172531000Y-60463548D01*
X172531000Y-59932452D01*
X172327758Y-59441783D01*
X171952217Y-59066242D01*
X171461548Y-58863000D01*
X170930452Y-58863000D01*
X170439783Y-59066242D01*
X170064242Y-59441783D01*
X169861000Y-59932452D01*
X169861000Y-60463548D01*
X170064242Y-60954217D01*
X170307001Y-61196976D01*
X170307000Y-63385764D01*
X169049765Y-64643000D01*
X164960236Y-64643000D01*
X165285707Y-64317529D01*
X165359933Y-64267933D01*
X165556419Y-63973870D01*
X165608000Y-63714556D01*
X165608000Y-63714555D01*
X165625416Y-63627000D01*
X165608000Y-63539445D01*
X165608000Y-62886793D01*
X165654216Y-62867650D01*
X166118650Y-62403216D01*
X166370000Y-61796404D01*
X166370000Y-61139596D01*
X166118650Y-60532784D01*
X165654216Y-60068350D01*
X165047404Y-59817000D01*
X164390596Y-59817000D01*
X163783784Y-60068350D01*
X163449000Y-60403134D01*
X163114216Y-60068350D01*
X162507404Y-59817000D01*
X161850596Y-59817000D01*
X161243784Y-60068350D01*
X160909000Y-60403134D01*
X160574216Y-60068350D01*
X159967404Y-59817000D01*
X159310596Y-59817000D01*
X158703784Y-60068350D01*
X158369000Y-60403134D01*
X158034216Y-60068350D01*
X157427404Y-59817000D01*
X156770596Y-59817000D01*
X156163784Y-60068350D01*
X156114975Y-60117159D01*
X156032809Y-59994191D01*
X155822765Y-59853843D01*
X155575000Y-59804560D01*
X153543000Y-59804560D01*
X153295235Y-59853843D01*
X153085191Y-59994191D01*
X152944843Y-60204235D01*
X152895560Y-60452000D01*
X152895560Y-62484000D01*
X152944843Y-62731765D01*
X153085191Y-62941809D01*
X153295235Y-63082157D01*
X153543000Y-63131440D01*
X155575000Y-63131440D01*
X155822765Y-63082157D01*
X156032809Y-62941809D01*
X156114975Y-62818841D01*
X156163784Y-62867650D01*
X156770596Y-63119000D01*
X157427404Y-63119000D01*
X158034216Y-62867650D01*
X158369000Y-62532866D01*
X158703784Y-62867650D01*
X159310596Y-63119000D01*
X159967404Y-63119000D01*
X160574216Y-62867650D01*
X160909000Y-62532866D01*
X161243784Y-62867650D01*
X161850596Y-63119000D01*
X162507404Y-63119000D01*
X163114216Y-62867650D01*
X163449000Y-62532866D01*
X163783784Y-62867650D01*
X163830000Y-62886793D01*
X163830000Y-63258764D01*
X163461765Y-63627000D01*
X152995556Y-63627000D01*
X152908000Y-63609584D01*
X152561129Y-63678581D01*
X152371060Y-63805581D01*
X152267067Y-63875067D01*
X152217471Y-63949293D01*
X150625078Y-65541686D01*
X150495000Y-65227650D01*
X150495000Y-61069975D01*
X150610758Y-60954217D01*
X150814000Y-60463548D01*
X150814000Y-59932452D01*
X150610758Y-59441783D01*
X150235217Y-59066242D01*
X149744548Y-58863000D01*
X149213452Y-58863000D01*
X148722783Y-59066242D01*
X148347242Y-59441783D01*
X148144000Y-59932452D01*
X148144000Y-60463548D01*
X148347242Y-60954217D01*
X148717001Y-61323976D01*
X148717000Y-65227650D01*
X148571000Y-65580126D01*
X148571000Y-65991874D01*
X148728569Y-66372280D01*
X149019720Y-66663431D01*
X149361687Y-66805078D01*
X147713765Y-68453000D01*
X147397261Y-68453000D01*
X147459891Y-68440542D01*
X147901481Y-68145481D01*
X148196542Y-67703891D01*
X148300154Y-67183000D01*
X148196542Y-66662109D01*
X147901481Y-66220519D01*
X147828000Y-66171421D01*
X147828000Y-65492556D01*
X147845416Y-65405000D01*
X147776419Y-65058129D01*
X147636599Y-64848874D01*
X147579933Y-64764067D01*
X147505706Y-64714470D01*
X146994531Y-64203296D01*
X146944933Y-64129067D01*
X146650870Y-63932581D01*
X146391556Y-63881000D01*
X146391555Y-63881000D01*
X146304000Y-63863584D01*
X146216445Y-63881000D01*
X142290350Y-63881000D01*
X141937874Y-63735000D01*
X141738236Y-63735000D01*
X142298707Y-63174529D01*
X142372933Y-63124933D01*
X142569419Y-62830870D01*
X142621000Y-62571556D01*
X142621000Y-62571555D01*
X142638416Y-62484001D01*
X142621000Y-62396446D01*
X142621000Y-59550235D01*
X143703109Y-58468126D01*
X153397000Y-58468126D01*
X153397000Y-58879874D01*
X153554569Y-59260280D01*
X153845720Y-59551431D01*
X154226126Y-59709000D01*
X154637874Y-59709000D01*
X154990350Y-59563000D01*
X167017765Y-59563000D01*
X167767000Y-60312236D01*
X167767001Y-62179648D01*
X167621000Y-62532126D01*
X167621000Y-62943874D01*
X167778569Y-63324280D01*
X168069720Y-63615431D01*
X168450126Y-63773000D01*
X168861874Y-63773000D01*
X169242280Y-63615431D01*
X169533431Y-63324280D01*
X169691000Y-62943874D01*
X169691000Y-62532126D01*
X169545000Y-62179650D01*
X169545000Y-60031550D01*
X169562415Y-59943999D01*
X169545000Y-59856448D01*
X169545000Y-59856444D01*
X169493419Y-59597130D01*
X169296933Y-59303067D01*
X169222707Y-59253471D01*
X168076531Y-58107296D01*
X168026933Y-58033067D01*
X167732870Y-57836581D01*
X167473556Y-57785000D01*
X167473555Y-57785000D01*
X167386000Y-57767584D01*
X167298445Y-57785000D01*
X154990350Y-57785000D01*
X154637874Y-57639000D01*
X154226126Y-57639000D01*
X153845720Y-57796569D01*
X153554569Y-58087720D01*
X153397000Y-58468126D01*
X143703109Y-58468126D01*
X145910236Y-56261000D01*
X152566445Y-56261000D01*
X152654000Y-56278416D01*
X152741555Y-56261000D01*
X152741556Y-56261000D01*
X153000870Y-56209419D01*
X153294933Y-56012933D01*
X153344531Y-55938704D01*
X155125707Y-54157529D01*
X155199933Y-54107933D01*
X155396419Y-53813870D01*
X155448000Y-53554556D01*
X155448000Y-53554555D01*
X155465416Y-53467000D01*
X155448000Y-53379445D01*
X155448000Y-52726793D01*
X155494216Y-52707650D01*
X155829000Y-52372866D01*
X156163784Y-52707650D01*
X156770596Y-52959000D01*
X157427404Y-52959000D01*
X158034216Y-52707650D01*
X158369000Y-52372866D01*
X158703784Y-52707650D01*
X158737226Y-52721502D01*
X158732584Y-52744840D01*
X158801582Y-53091710D01*
X158928258Y-53281294D01*
X158998068Y-53385773D01*
X159072294Y-53435369D01*
X160305631Y-54668707D01*
X160355227Y-54742933D01*
X160649290Y-54939419D01*
X160908604Y-54991000D01*
X160996159Y-55008416D01*
X161083714Y-54991000D01*
X169584445Y-54991000D01*
X169672000Y-55008416D01*
X169759555Y-54991000D01*
X169759556Y-54991000D01*
X170018870Y-54939419D01*
X170312933Y-54742933D01*
X170362531Y-54668704D01*
X171118236Y-53913000D01*
X171327485Y-53913000D01*
X171716891Y-53835542D01*
X172158481Y-53540481D01*
X172453542Y-53098891D01*
X172557154Y-52578000D01*
X172453542Y-52057109D01*
X172158481Y-51615519D01*
X171716891Y-51320458D01*
X171327485Y-51243000D01*
X171064515Y-51243000D01*
X170675109Y-51320458D01*
X170233519Y-51615519D01*
X169938458Y-52057109D01*
X169834846Y-52578000D01*
X169852087Y-52664677D01*
X169303765Y-53213000D01*
X161364396Y-53213000D01*
X160716631Y-52565235D01*
X160909000Y-52372866D01*
X161243784Y-52707650D01*
X161850596Y-52959000D01*
X162507404Y-52959000D01*
X163114216Y-52707650D01*
X163449000Y-52372866D01*
X163783784Y-52707650D01*
X164390596Y-52959000D01*
X165047404Y-52959000D01*
X165654216Y-52707650D01*
X166118650Y-52243216D01*
X166370000Y-51636404D01*
X166370000Y-50979596D01*
X166118650Y-50372784D01*
X165654216Y-49908350D01*
X165047404Y-49657000D01*
X164390596Y-49657000D01*
X163783784Y-49908350D01*
X163449000Y-50243134D01*
X163114216Y-49908350D01*
X163068000Y-49889207D01*
X163068000Y-49236555D01*
X163085416Y-49149000D01*
X163066943Y-49056129D01*
X163016419Y-48802130D01*
X162819933Y-48508067D01*
X162745707Y-48458471D01*
X161980531Y-47693296D01*
X161930933Y-47619067D01*
X161636870Y-47422581D01*
X161377556Y-47371000D01*
X161377555Y-47371000D01*
X161290000Y-47353584D01*
X161202445Y-47371000D01*
X150201555Y-47371000D01*
X150114000Y-47353584D01*
X150026445Y-47371000D01*
X150026444Y-47371000D01*
X149767130Y-47422581D01*
X149473067Y-47619067D01*
X149423471Y-47693294D01*
X148729765Y-48387000D01*
X143851554Y-48387000D01*
X143763999Y-48369584D01*
X143676444Y-48387000D01*
X143417130Y-48438581D01*
X143123067Y-48635067D01*
X143073471Y-48709293D01*
X136353502Y-55429263D01*
X136398000Y-55205556D01*
X136398000Y-55205552D01*
X136415415Y-55118001D01*
X136398000Y-55030450D01*
X136398000Y-52726793D01*
X136444216Y-52707650D01*
X136779000Y-52372866D01*
X137113784Y-52707650D01*
X137720596Y-52959000D01*
X138377404Y-52959000D01*
X138984216Y-52707650D01*
X139448650Y-52243216D01*
X139700000Y-51636404D01*
X139700000Y-50979596D01*
X139448650Y-50372784D01*
X138984216Y-49908350D01*
X138377404Y-49657000D01*
X137720596Y-49657000D01*
X137113784Y-49908350D01*
X136779000Y-50243134D01*
X136444216Y-49908350D01*
X135837404Y-49657000D01*
X135180596Y-49657000D01*
X134573784Y-49908350D01*
X134239000Y-50243134D01*
X133904216Y-49908350D01*
X133858000Y-49889207D01*
X133858000Y-49490556D01*
X133875416Y-49403000D01*
X133806419Y-49056129D01*
X133659529Y-48836293D01*
X133609933Y-48762067D01*
X133535707Y-48712471D01*
X133024531Y-48201296D01*
X132974933Y-48127067D01*
X132680870Y-47930581D01*
X132421556Y-47879000D01*
X132421555Y-47879000D01*
X132334000Y-47861584D01*
X132246445Y-47879000D01*
X129395975Y-47879000D01*
X129655758Y-47619217D01*
X129859000Y-47128548D01*
X129859000Y-46863000D01*
X137957846Y-46863000D01*
X138061458Y-47383891D01*
X138356519Y-47825481D01*
X138798109Y-48120542D01*
X139187515Y-48198000D01*
X139450485Y-48198000D01*
X139839891Y-48120542D01*
X140281481Y-47825481D01*
X140576542Y-47383891D01*
X140680154Y-46863000D01*
X140627334Y-46597452D01*
X145604000Y-46597452D01*
X145604000Y-47128548D01*
X145807242Y-47619217D01*
X146182783Y-47994758D01*
X146673452Y-48198000D01*
X147204548Y-48198000D01*
X147695217Y-47994758D01*
X148070758Y-47619217D01*
X148274000Y-47128548D01*
X148274000Y-46597452D01*
X148070758Y-46106783D01*
X147695217Y-45731242D01*
X147204548Y-45528000D01*
X146673452Y-45528000D01*
X146182783Y-45731242D01*
X145807242Y-46106783D01*
X145604000Y-46597452D01*
X140627334Y-46597452D01*
X140576542Y-46342109D01*
X140281481Y-45900519D01*
X139839891Y-45605458D01*
X139450485Y-45528000D01*
X139187515Y-45528000D01*
X138798109Y-45605458D01*
X138356519Y-45900519D01*
X138061458Y-46342109D01*
X137957846Y-46863000D01*
X129859000Y-46863000D01*
X129859000Y-46597452D01*
X129655758Y-46106783D01*
X129280217Y-45731242D01*
X128789548Y-45528000D01*
X128258452Y-45528000D01*
X127767783Y-45731242D01*
X127392242Y-46106783D01*
X127189000Y-46597452D01*
X127189000Y-47128548D01*
X127392242Y-47619217D01*
X127652025Y-47879000D01*
X122896550Y-47879000D01*
X122808999Y-47861585D01*
X122721448Y-47879000D01*
X122721444Y-47879000D01*
X122462130Y-47930581D01*
X122168067Y-48127067D01*
X122118471Y-48201293D01*
X120972294Y-49347471D01*
X120898068Y-49397067D01*
X120848472Y-49471293D01*
X120848471Y-49471294D01*
X120701582Y-49691130D01*
X120632584Y-50038000D01*
X120650001Y-50125559D01*
X120650000Y-51056257D01*
X120511431Y-50721720D01*
X120220280Y-50430569D01*
X119839874Y-50273000D01*
X119428126Y-50273000D01*
X119047720Y-50430569D01*
X118756569Y-50721720D01*
X118610570Y-51074195D01*
X116527294Y-53157471D01*
X116453068Y-53207067D01*
X116403472Y-53281293D01*
X116403471Y-53281294D01*
X116256582Y-53501130D01*
X116187584Y-53848000D01*
X116205001Y-53935560D01*
X116205000Y-67730445D01*
X116187584Y-67818000D01*
X116205000Y-67905555D01*
X116256581Y-68164869D01*
X116453067Y-68458933D01*
X116527296Y-68508531D01*
X120213470Y-72194706D01*
X120263067Y-72268933D01*
X120337293Y-72318529D01*
X120557129Y-72465419D01*
X120904000Y-72534416D01*
X120991556Y-72517000D01*
X127392152Y-72517000D01*
X127489423Y-72662577D01*
X127964091Y-72979740D01*
X128382667Y-73063000D01*
X128665333Y-73063000D01*
X129083909Y-72979740D01*
X129558577Y-72662577D01*
X129794000Y-72310242D01*
X130029423Y-72662577D01*
X130504091Y-72979740D01*
X130922667Y-73063000D01*
X131205333Y-73063000D01*
X131623909Y-72979740D01*
X132098577Y-72662577D01*
X132334000Y-72310242D01*
X132569423Y-72662577D01*
X133044091Y-72979740D01*
X133462667Y-73063000D01*
X133745333Y-73063000D01*
X134163909Y-72979740D01*
X134638577Y-72662577D01*
X134874000Y-72310242D01*
X135109423Y-72662577D01*
X135584091Y-72979740D01*
X136002667Y-73063000D01*
X136285333Y-73063000D01*
X136703909Y-72979740D01*
X137178577Y-72662577D01*
X137414000Y-72310242D01*
X137649423Y-72662577D01*
X138124091Y-72979740D01*
X138542667Y-73063000D01*
X138825333Y-73063000D01*
X139243909Y-72979740D01*
X139718577Y-72662577D01*
X139954000Y-72310242D01*
X140189423Y-72662577D01*
X140664091Y-72979740D01*
X141082667Y-73063000D01*
X141365333Y-73063000D01*
X141783909Y-72979740D01*
X142258577Y-72662577D01*
X142514947Y-72278892D01*
X142611611Y-72483134D01*
X143026577Y-72859041D01*
X143414961Y-73019904D01*
X143637000Y-72897915D01*
X143637000Y-71755000D01*
X143617000Y-71755000D01*
X143617000Y-71501000D01*
X143637000Y-71501000D01*
X143637000Y-71481000D01*
X143891000Y-71481000D01*
X143891000Y-71501000D01*
X143911000Y-71501000D01*
X143911000Y-71755000D01*
X143891000Y-71755000D01*
X143891000Y-72897915D01*
X144113039Y-73019904D01*
X144501423Y-72859041D01*
X144916389Y-72483134D01*
X145013053Y-72278892D01*
X145269423Y-72662577D01*
X145744091Y-72979740D01*
X146162667Y-73063000D01*
X146445333Y-73063000D01*
X146863909Y-72979740D01*
X147338577Y-72662577D01*
X147574000Y-72310242D01*
X147809423Y-72662577D01*
X148284091Y-72979740D01*
X148693573Y-73061191D01*
X147007296Y-74747469D01*
X146933067Y-74797067D01*
X146736581Y-75091131D01*
X146692846Y-75311000D01*
X146667584Y-75438000D01*
X146685000Y-75525555D01*
X146685000Y-75641650D01*
X146539000Y-75994126D01*
X146539000Y-76405874D01*
X146696569Y-76786280D01*
X146987720Y-77077431D01*
X147368126Y-77235000D01*
X147779874Y-77235000D01*
X147955001Y-77162460D01*
X147955000Y-78116151D01*
X147809423Y-78213423D01*
X147553053Y-78597108D01*
X147456389Y-78392866D01*
X147041423Y-78016959D01*
X146653039Y-77856096D01*
X146431000Y-77978085D01*
X146431000Y-79121000D01*
X146451000Y-79121000D01*
X146451000Y-79375000D01*
X146431000Y-79375000D01*
X146431000Y-80517915D01*
X146653039Y-80639904D01*
X147041423Y-80479041D01*
X147456389Y-80103134D01*
X147553053Y-79898892D01*
X147809423Y-80282577D01*
X148284091Y-80599740D01*
X148702667Y-80683000D01*
X148985333Y-80683000D01*
X149403909Y-80599740D01*
X149878577Y-80282577D01*
X150114000Y-79930242D01*
X150349423Y-80282577D01*
X150824091Y-80599740D01*
X151242667Y-80683000D01*
X151525333Y-80683000D01*
X151943909Y-80599740D01*
X152418577Y-80282577D01*
X152654000Y-79930242D01*
X152889423Y-80282577D01*
X153035001Y-80379849D01*
X153035000Y-82054764D01*
X152920765Y-82169000D01*
X137106461Y-82169000D01*
X137179000Y-81993874D01*
X137179000Y-81582126D01*
X137033000Y-81229650D01*
X137033000Y-80379848D01*
X137178577Y-80282577D01*
X137414000Y-79930242D01*
X137649423Y-80282577D01*
X138124091Y-80599740D01*
X138542667Y-80683000D01*
X138825333Y-80683000D01*
X139243909Y-80599740D01*
X139718577Y-80282577D01*
X139954000Y-79930242D01*
X140189423Y-80282577D01*
X140664091Y-80599740D01*
X141082667Y-80683000D01*
X141365333Y-80683000D01*
X141783909Y-80599740D01*
X142258577Y-80282577D01*
X142494000Y-79930242D01*
X142729423Y-80282577D01*
X143204091Y-80599740D01*
X143622667Y-80683000D01*
X143905333Y-80683000D01*
X144323909Y-80599740D01*
X144798577Y-80282577D01*
X145054947Y-79898892D01*
X145151611Y-80103134D01*
X145566577Y-80479041D01*
X145954961Y-80639904D01*
X146177000Y-80517915D01*
X146177000Y-79375000D01*
X146157000Y-79375000D01*
X146157000Y-79121000D01*
X146177000Y-79121000D01*
X146177000Y-77978085D01*
X145954961Y-77856096D01*
X145566577Y-78016959D01*
X145151611Y-78392866D01*
X145054947Y-78597108D01*
X144798577Y-78213423D01*
X144653000Y-78116152D01*
X144653000Y-77430550D01*
X144670415Y-77342999D01*
X144653000Y-77255448D01*
X144653000Y-77255444D01*
X144601419Y-76996130D01*
X144404933Y-76702067D01*
X144330707Y-76652471D01*
X143184531Y-75506296D01*
X143134933Y-75432067D01*
X142840870Y-75235581D01*
X142581556Y-75184000D01*
X142581555Y-75184000D01*
X142494000Y-75166584D01*
X142406445Y-75184000D01*
X125436556Y-75184000D01*
X125349000Y-75166584D01*
X125002129Y-75235581D01*
X124889257Y-75311000D01*
X124708067Y-75432067D01*
X124658470Y-75506294D01*
X124345765Y-75819000D01*
X123314396Y-75819000D01*
X122986862Y-75491466D01*
X122921701Y-75464475D01*
X122928005Y-75461864D01*
X123002139Y-75215745D01*
X122174000Y-74387605D01*
X121345861Y-75215745D01*
X121419995Y-75461864D01*
X121426746Y-75464290D01*
X121361138Y-75491466D01*
X121152920Y-75699684D01*
X120523000Y-75069765D01*
X120523000Y-74890556D01*
X120540416Y-74803000D01*
X120471419Y-74456129D01*
X120329290Y-74243418D01*
X120274933Y-74162067D01*
X120200707Y-74112471D01*
X120079459Y-73991223D01*
X120727035Y-73991223D01*
X120754222Y-74561454D01*
X120920136Y-74962005D01*
X121166255Y-75036139D01*
X121994395Y-74208000D01*
X122353605Y-74208000D01*
X123181745Y-75036139D01*
X123427864Y-74962005D01*
X123620965Y-74424777D01*
X123593778Y-73854546D01*
X123427864Y-73453995D01*
X123181745Y-73379861D01*
X122353605Y-74208000D01*
X121994395Y-74208000D01*
X121166255Y-73379861D01*
X120920136Y-73453995D01*
X120727035Y-73991223D01*
X120079459Y-73991223D01*
X119888000Y-73799765D01*
X119888000Y-73200255D01*
X121345861Y-73200255D01*
X122174000Y-74028395D01*
X123002139Y-73200255D01*
X122928005Y-72954136D01*
X122390777Y-72761035D01*
X121820546Y-72788222D01*
X121419995Y-72954136D01*
X121345861Y-73200255D01*
X119888000Y-73200255D01*
X119888000Y-72985554D01*
X119905416Y-72897999D01*
X119872308Y-72731555D01*
X119836419Y-72551130D01*
X119639933Y-72257067D01*
X119565707Y-72207471D01*
X117324531Y-69966296D01*
X117274933Y-69892067D01*
X116980870Y-69695581D01*
X116721556Y-69644000D01*
X116721555Y-69644000D01*
X116634000Y-69626584D01*
X116546445Y-69644000D01*
X115320475Y-69644000D01*
X115305086Y-69606847D01*
X114845153Y-69146914D01*
X114808000Y-69131525D01*
X114808000Y-65398384D01*
X115049542Y-65036891D01*
X115153154Y-64516000D01*
X115049542Y-63995109D01*
X114754481Y-63553519D01*
X114312891Y-63258458D01*
X113923485Y-63181000D01*
X113660515Y-63181000D01*
X113271109Y-63258458D01*
X112829519Y-63553519D01*
X112534458Y-63995109D01*
X112430846Y-64516000D01*
X112534458Y-65036891D01*
X112829519Y-65478481D01*
X113030001Y-65612439D01*
X113030000Y-69131525D01*
X112992847Y-69146914D01*
X112532914Y-69606847D01*
X112284000Y-70207778D01*
X112284000Y-70858222D01*
X112532914Y-71459153D01*
X112992847Y-71919086D01*
X113267859Y-72033000D01*
X112992847Y-72146914D01*
X112532914Y-72606847D01*
X112284000Y-73207778D01*
X112284000Y-73858222D01*
X112532914Y-74459153D01*
X112992847Y-74919086D01*
X113267859Y-75033000D01*
X112992847Y-75146914D01*
X112532914Y-75606847D01*
X112284000Y-76207778D01*
X112284000Y-76858222D01*
X112532914Y-77459153D01*
X112992847Y-77919086D01*
X113593778Y-78168000D01*
X114244222Y-78168000D01*
X114845153Y-77919086D01*
X115305086Y-77459153D01*
X115554000Y-76858222D01*
X115554000Y-76207778D01*
X115305086Y-75606847D01*
X114845153Y-75146914D01*
X114570141Y-75033000D01*
X114845153Y-74919086D01*
X115215239Y-74549000D01*
X116038160Y-74549000D01*
X116713001Y-75223842D01*
X116713000Y-77557159D01*
X114144168Y-80125992D01*
X114124874Y-80118000D01*
X113713126Y-80118000D01*
X113527123Y-80195045D01*
X113522577Y-80195949D01*
X113518723Y-80198524D01*
X113332720Y-80275569D01*
X113190359Y-80417930D01*
X113186505Y-80420505D01*
X113183930Y-80424359D01*
X113041569Y-80566720D01*
X112964524Y-80752723D01*
X112961949Y-80756577D01*
X112961045Y-80761123D01*
X112884000Y-80947126D01*
X112884000Y-81148455D01*
X112883096Y-81153000D01*
X112884000Y-81157545D01*
X112884000Y-81358874D01*
X112961045Y-81544877D01*
X112961949Y-81549423D01*
X112964524Y-81553277D01*
X113041569Y-81739280D01*
X113183930Y-81881641D01*
X113186505Y-81885495D01*
X113190359Y-81888070D01*
X113332720Y-82030431D01*
X113518723Y-82107476D01*
X113522577Y-82110051D01*
X113527123Y-82110955D01*
X113713126Y-82188000D01*
X114124874Y-82188000D01*
X114170744Y-82169000D01*
X114453937Y-82169000D01*
X114554000Y-82188904D01*
X114654063Y-82169000D01*
X114654065Y-82169000D01*
X114862156Y-82127608D01*
X112082294Y-84907471D01*
X112008068Y-84957067D01*
X111958472Y-85031293D01*
X111958471Y-85031294D01*
X111811582Y-85251130D01*
X111742584Y-85598000D01*
X109585000Y-85598000D01*
X109585000Y-56630452D01*
X112457000Y-56630452D01*
X112457000Y-57161548D01*
X112660242Y-57652217D01*
X113035783Y-58027758D01*
X113526452Y-58231000D01*
X114057548Y-58231000D01*
X114548217Y-58027758D01*
X114923758Y-57652217D01*
X115127000Y-57161548D01*
X115127000Y-56630452D01*
X114923758Y-56139783D01*
X114548217Y-55764242D01*
X114057548Y-55561000D01*
X113526452Y-55561000D01*
X113035783Y-55764242D01*
X112660242Y-56139783D01*
X112457000Y-56630452D01*
X109585000Y-56630452D01*
X109585000Y-43387857D01*
X110650000Y-43387857D01*
X110650000Y-49172143D01*
X114470000Y-49172143D01*
X114470000Y-46863000D01*
X119542846Y-46863000D01*
X119646458Y-47383891D01*
X119941519Y-47825481D01*
X120383109Y-48120542D01*
X120772515Y-48198000D01*
X121035485Y-48198000D01*
X121424891Y-48120542D01*
X121866481Y-47825481D01*
X122161542Y-47383891D01*
X122265154Y-46863000D01*
X122161542Y-46342109D01*
X121866481Y-45900519D01*
X121424891Y-45605458D01*
X121035485Y-45528000D01*
X120772515Y-45528000D01*
X120383109Y-45605458D01*
X119941519Y-45900519D01*
X119646458Y-46342109D01*
X119542846Y-46863000D01*
X114470000Y-46863000D01*
X114470000Y-43387857D01*
X110650000Y-43387857D01*
X109585000Y-43387857D01*
X109585000Y-42585000D01*
X176215000Y-42585000D01*
X176215001Y-139215000D01*
X176215001Y-139215000D01*
G37*
X176215001Y-139215000D02*
X109585000Y-139215000D01*
X109585000Y-85598000D01*
X111742584Y-85598000D01*
X111760001Y-85685560D01*
X111760000Y-129960445D01*
X111742584Y-130048000D01*
X111760000Y-130135555D01*
X111811581Y-130394869D01*
X112008067Y-130688933D01*
X112082296Y-130738531D01*
X113228471Y-131884707D01*
X113278067Y-131958933D01*
X113572130Y-132155419D01*
X113831444Y-132207000D01*
X113831448Y-132207000D01*
X113918999Y-132224415D01*
X114006550Y-132207000D01*
X114565001Y-132207000D01*
X114565000Y-133108154D01*
X114506235Y-133119843D01*
X114296191Y-133260191D01*
X114155843Y-133470235D01*
X114106560Y-133718000D01*
X114106560Y-135918000D01*
X114155843Y-136165765D01*
X114296191Y-136375809D01*
X114506235Y-136516157D01*
X114754000Y-136565440D01*
X116154000Y-136565440D01*
X116401765Y-136516157D01*
X116611809Y-136375809D01*
X116752157Y-136165765D01*
X116801440Y-135918000D01*
X116801440Y-133718000D01*
X118656560Y-133718000D01*
X118656560Y-135918000D01*
X118705843Y-136165765D01*
X118846191Y-136375809D01*
X119056235Y-136516157D01*
X119304000Y-136565440D01*
X120704000Y-136565440D01*
X120951765Y-136516157D01*
X121161809Y-136375809D01*
X121302157Y-136165765D01*
X121351440Y-135918000D01*
X121351440Y-133718000D01*
X121302157Y-133470235D01*
X121161809Y-133260191D01*
X120951765Y-133119843D01*
X120704000Y-133070560D01*
X119304000Y-133070560D01*
X119056235Y-133119843D01*
X118846191Y-133260191D01*
X118705843Y-133470235D01*
X118656560Y-133718000D01*
X116801440Y-133718000D01*
X116752157Y-133470235D01*
X116611809Y-133260191D01*
X116401765Y-133119843D01*
X116343000Y-133108154D01*
X116343000Y-132207000D01*
X126630001Y-132207000D01*
X126630000Y-133108154D01*
X126571235Y-133119843D01*
X126361191Y-133260191D01*
X126220843Y-133470235D01*
X126171560Y-133718000D01*
X126171560Y-135918000D01*
X126220843Y-136165765D01*
X126361191Y-136375809D01*
X126571235Y-136516157D01*
X126819000Y-136565440D01*
X128219000Y-136565440D01*
X128466765Y-136516157D01*
X128676809Y-136375809D01*
X128817157Y-136165765D01*
X128866440Y-135918000D01*
X128866440Y-133718000D01*
X130721560Y-133718000D01*
X130721560Y-135918000D01*
X130770843Y-136165765D01*
X130911191Y-136375809D01*
X131121235Y-136516157D01*
X131369000Y-136565440D01*
X132769000Y-136565440D01*
X133016765Y-136516157D01*
X133226809Y-136375809D01*
X133367157Y-136165765D01*
X133416440Y-135918000D01*
X133416440Y-133718000D01*
X133367157Y-133470235D01*
X133226809Y-133260191D01*
X133016765Y-133119843D01*
X132769000Y-133070560D01*
X131369000Y-133070560D01*
X131121235Y-133119843D01*
X130911191Y-133260191D01*
X130770843Y-133470235D01*
X130721560Y-133718000D01*
X128866440Y-133718000D01*
X128817157Y-133470235D01*
X128676809Y-133260191D01*
X128466765Y-133119843D01*
X128408000Y-133108154D01*
X128408000Y-132207000D01*
X138695001Y-132207000D01*
X138695000Y-133108154D01*
X138636235Y-133119843D01*
X138426191Y-133260191D01*
X138285843Y-133470235D01*
X138236560Y-133718000D01*
X138236560Y-135918000D01*
X138285843Y-136165765D01*
X138426191Y-136375809D01*
X138636235Y-136516157D01*
X138884000Y-136565440D01*
X140284000Y-136565440D01*
X140531765Y-136516157D01*
X140741809Y-136375809D01*
X140882157Y-136165765D01*
X140931440Y-135918000D01*
X140931440Y-133718000D01*
X142786560Y-133718000D01*
X142786560Y-135918000D01*
X142835843Y-136165765D01*
X142976191Y-136375809D01*
X143186235Y-136516157D01*
X143434000Y-136565440D01*
X144834000Y-136565440D01*
X145081765Y-136516157D01*
X145291809Y-136375809D01*
X145432157Y-136165765D01*
X145481440Y-135918000D01*
X145481440Y-133718000D01*
X145432157Y-133470235D01*
X145291809Y-133260191D01*
X145081765Y-133119843D01*
X144834000Y-133070560D01*
X143434000Y-133070560D01*
X143186235Y-133119843D01*
X142976191Y-133260191D01*
X142835843Y-133470235D01*
X142786560Y-133718000D01*
X140931440Y-133718000D01*
X140882157Y-133470235D01*
X140741809Y-133260191D01*
X140531765Y-133119843D01*
X140473000Y-133108154D01*
X140473000Y-132207000D01*
X150760001Y-132207000D01*
X150760000Y-133108154D01*
X150701235Y-133119843D01*
X150491191Y-133260191D01*
X150350843Y-133470235D01*
X150301560Y-133718000D01*
X150301560Y-135918000D01*
X150350843Y-136165765D01*
X150491191Y-136375809D01*
X150701235Y-136516157D01*
X150949000Y-136565440D01*
X152349000Y-136565440D01*
X152596765Y-136516157D01*
X152806809Y-136375809D01*
X152947157Y-136165765D01*
X152996440Y-135918000D01*
X152996440Y-133718000D01*
X154851560Y-133718000D01*
X154851560Y-135918000D01*
X154900843Y-136165765D01*
X155041191Y-136375809D01*
X155251235Y-136516157D01*
X155499000Y-136565440D01*
X156899000Y-136565440D01*
X157146765Y-136516157D01*
X157356809Y-136375809D01*
X157497157Y-136165765D01*
X157546440Y-135918000D01*
X157546440Y-133718000D01*
X157497157Y-133470235D01*
X157356809Y-133260191D01*
X157146765Y-133119843D01*
X156899000Y-133070560D01*
X155499000Y-133070560D01*
X155251235Y-133119843D01*
X155041191Y-133260191D01*
X154900843Y-133470235D01*
X154851560Y-133718000D01*
X152996440Y-133718000D01*
X152947157Y-133470235D01*
X152806809Y-133260191D01*
X152596765Y-133119843D01*
X152538000Y-133108154D01*
X152538000Y-132207000D01*
X165365001Y-132207000D01*
X165365000Y-133108154D01*
X165306235Y-133119843D01*
X165096191Y-133260191D01*
X164955843Y-133470235D01*
X164906560Y-133718000D01*
X164906560Y-135918000D01*
X164955843Y-136165765D01*
X165096191Y-136375809D01*
X165306235Y-136516157D01*
X165554000Y-136565440D01*
X166954000Y-136565440D01*
X167201765Y-136516157D01*
X167411809Y-136375809D01*
X167552157Y-136165765D01*
X167601440Y-135918000D01*
X167601440Y-133718000D01*
X169456560Y-133718000D01*
X169456560Y-135918000D01*
X169505843Y-136165765D01*
X169646191Y-136375809D01*
X169856235Y-136516157D01*
X170104000Y-136565440D01*
X171504000Y-136565440D01*
X171751765Y-136516157D01*
X171961809Y-136375809D01*
X172102157Y-136165765D01*
X172151440Y-135918000D01*
X172151440Y-133718000D01*
X172102157Y-133470235D01*
X171961809Y-133260191D01*
X171751765Y-133119843D01*
X171504000Y-133070560D01*
X170104000Y-133070560D01*
X169856235Y-133119843D01*
X169646191Y-133260191D01*
X169505843Y-133470235D01*
X169456560Y-133718000D01*
X167601440Y-133718000D01*
X167552157Y-133470235D01*
X167411809Y-133260191D01*
X167201765Y-133119843D01*
X167143000Y-133108154D01*
X167143000Y-131405555D01*
X167160416Y-131318000D01*
X167143000Y-131230444D01*
X167143000Y-129527846D01*
X167201765Y-129516157D01*
X167411809Y-129375809D01*
X167552157Y-129165765D01*
X167601440Y-128918000D01*
X167601440Y-126718000D01*
X167552157Y-126470235D01*
X167411809Y-126260191D01*
X167201765Y-126119843D01*
X166954000Y-126070560D01*
X165554000Y-126070560D01*
X165306235Y-126119843D01*
X165096191Y-126260191D01*
X164955843Y-126470235D01*
X164906560Y-126718000D01*
X164906560Y-128918000D01*
X164955843Y-129165765D01*
X165096191Y-129375809D01*
X165306235Y-129516157D01*
X165365001Y-129527846D01*
X165365000Y-130429000D01*
X152538000Y-130429000D01*
X152538000Y-129527846D01*
X152596765Y-129516157D01*
X152806809Y-129375809D01*
X152947157Y-129165765D01*
X152996440Y-128918000D01*
X152996440Y-126718000D01*
X152947157Y-126470235D01*
X152806809Y-126260191D01*
X152596765Y-126119843D01*
X152349000Y-126070560D01*
X150949000Y-126070560D01*
X150701235Y-126119843D01*
X150491191Y-126260191D01*
X150350843Y-126470235D01*
X150301560Y-126718000D01*
X150301560Y-128918000D01*
X150350843Y-129165765D01*
X150491191Y-129375809D01*
X150701235Y-129516157D01*
X150760001Y-129527846D01*
X150760000Y-130429000D01*
X140473000Y-130429000D01*
X140473000Y-129527846D01*
X140531765Y-129516157D01*
X140741809Y-129375809D01*
X140882157Y-129165765D01*
X140931440Y-128918000D01*
X140931440Y-126718000D01*
X140882157Y-126470235D01*
X140741809Y-126260191D01*
X140531765Y-126119843D01*
X140284000Y-126070560D01*
X138884000Y-126070560D01*
X138636235Y-126119843D01*
X138426191Y-126260191D01*
X138285843Y-126470235D01*
X138236560Y-126718000D01*
X138236560Y-128918000D01*
X138285843Y-129165765D01*
X138426191Y-129375809D01*
X138636235Y-129516157D01*
X138695001Y-129527846D01*
X138695000Y-130429000D01*
X128408000Y-130429000D01*
X128408000Y-129527846D01*
X128466765Y-129516157D01*
X128676809Y-129375809D01*
X128817157Y-129165765D01*
X128866440Y-128918000D01*
X128866440Y-126718000D01*
X128817157Y-126470235D01*
X128676809Y-126260191D01*
X128466765Y-126119843D01*
X128219000Y-126070560D01*
X126819000Y-126070560D01*
X126571235Y-126119843D01*
X126361191Y-126260191D01*
X126220843Y-126470235D01*
X126171560Y-126718000D01*
X126171560Y-128918000D01*
X126220843Y-129165765D01*
X126361191Y-129375809D01*
X126571235Y-129516157D01*
X126630001Y-129527846D01*
X126630000Y-130429000D01*
X116343000Y-130429000D01*
X116343000Y-129527846D01*
X116401765Y-129516157D01*
X116611809Y-129375809D01*
X116752157Y-129165765D01*
X116801440Y-128918000D01*
X116801440Y-126718000D01*
X116752157Y-126470235D01*
X116611809Y-126260191D01*
X116401765Y-126119843D01*
X116154000Y-126070560D01*
X114754000Y-126070560D01*
X114506235Y-126119843D01*
X114296191Y-126260191D01*
X114155843Y-126470235D01*
X114106560Y-126718000D01*
X114106560Y-128918000D01*
X114155843Y-129165765D01*
X114296191Y-129375809D01*
X114506235Y-129516157D01*
X114565001Y-129527846D01*
X114565000Y-130429000D01*
X114287236Y-130429000D01*
X113538000Y-129679765D01*
X113538000Y-99723000D01*
X114106560Y-99723000D01*
X114106560Y-101923000D01*
X114155843Y-102170765D01*
X114296191Y-102380809D01*
X114506235Y-102521157D01*
X114565000Y-102532846D01*
X114565000Y-103925444D01*
X114547584Y-104013000D01*
X114565001Y-104100561D01*
X114565000Y-106113154D01*
X114506235Y-106124843D01*
X114296191Y-106265191D01*
X114155843Y-106475235D01*
X114106560Y-106723000D01*
X114106560Y-108923000D01*
X114155843Y-109170765D01*
X114296191Y-109380809D01*
X114506235Y-109521157D01*
X114754000Y-109570440D01*
X116154000Y-109570440D01*
X116401765Y-109521157D01*
X116611809Y-109380809D01*
X116752157Y-109170765D01*
X116801440Y-108923000D01*
X116801440Y-106723000D01*
X118656560Y-106723000D01*
X118656560Y-108923000D01*
X118705843Y-109170765D01*
X118846191Y-109380809D01*
X119056235Y-109521157D01*
X119115001Y-109532846D01*
X119115000Y-112773154D01*
X119056235Y-112784843D01*
X118846191Y-112925191D01*
X118705843Y-113135235D01*
X118656560Y-113383000D01*
X118656560Y-115583000D01*
X118705843Y-115830765D01*
X118846191Y-116040809D01*
X119056235Y-116181157D01*
X119304000Y-116230440D01*
X120704000Y-116230440D01*
X120951765Y-116181157D01*
X121161809Y-116040809D01*
X121302157Y-115830765D01*
X121351440Y-115583000D01*
X121351440Y-113383000D01*
X121302157Y-113135235D01*
X121161809Y-112925191D01*
X120951765Y-112784843D01*
X120893000Y-112773154D01*
X120893000Y-109532846D01*
X120951765Y-109521157D01*
X121161809Y-109380809D01*
X121302157Y-109170765D01*
X121351440Y-108923000D01*
X121351440Y-106723000D01*
X121302157Y-106475235D01*
X121161809Y-106265191D01*
X120951765Y-106124843D01*
X120704000Y-106075560D01*
X119304000Y-106075560D01*
X119056235Y-106124843D01*
X118846191Y-106265191D01*
X118705843Y-106475235D01*
X118656560Y-106723000D01*
X116801440Y-106723000D01*
X116752157Y-106475235D01*
X116611809Y-106265191D01*
X116401765Y-106124843D01*
X116343000Y-106113154D01*
X116343000Y-104902000D01*
X126630001Y-104902000D01*
X126630000Y-106113154D01*
X126571235Y-106124843D01*
X126361191Y-106265191D01*
X126220843Y-106475235D01*
X126171560Y-106723000D01*
X126171560Y-108923000D01*
X126220843Y-109170765D01*
X126361191Y-109380809D01*
X126571235Y-109521157D01*
X126819000Y-109570440D01*
X128219000Y-109570440D01*
X128466765Y-109521157D01*
X128676809Y-109380809D01*
X128817157Y-109170765D01*
X128866440Y-108923000D01*
X128866440Y-106723000D01*
X130721560Y-106723000D01*
X130721560Y-108923000D01*
X130770843Y-109170765D01*
X130911191Y-109380809D01*
X131121235Y-109521157D01*
X131180001Y-109532846D01*
X131180000Y-112773154D01*
X131121235Y-112784843D01*
X130911191Y-112925191D01*
X130770843Y-113135235D01*
X130721560Y-113383000D01*
X130721560Y-115583000D01*
X130770843Y-115830765D01*
X130911191Y-116040809D01*
X131121235Y-116181157D01*
X131369000Y-116230440D01*
X132769000Y-116230440D01*
X133016765Y-116181157D01*
X133226809Y-116040809D01*
X133367157Y-115830765D01*
X133416440Y-115583000D01*
X133416440Y-113383000D01*
X133367157Y-113135235D01*
X133226809Y-112925191D01*
X133016765Y-112784843D01*
X132958000Y-112773154D01*
X132958000Y-109532846D01*
X133016765Y-109521157D01*
X133226809Y-109380809D01*
X133367157Y-109170765D01*
X133416440Y-108923000D01*
X133416440Y-106723000D01*
X133367157Y-106475235D01*
X133226809Y-106265191D01*
X133016765Y-106124843D01*
X132769000Y-106075560D01*
X131369000Y-106075560D01*
X131121235Y-106124843D01*
X130911191Y-106265191D01*
X130770843Y-106475235D01*
X130721560Y-106723000D01*
X128866440Y-106723000D01*
X128817157Y-106475235D01*
X128676809Y-106265191D01*
X128466765Y-106124843D01*
X128408000Y-106113154D01*
X128408000Y-104902000D01*
X134786444Y-104902000D01*
X134874000Y-104919416D01*
X134961556Y-104902000D01*
X136527256Y-104902000D01*
X136192720Y-105040569D01*
X135901569Y-105331720D01*
X135744000Y-105712126D01*
X135744000Y-106123874D01*
X135890001Y-106476352D01*
X135890000Y-107910555D01*
X135890001Y-107910560D01*
X135890000Y-117094000D01*
X128408000Y-117094000D01*
X128408000Y-116192846D01*
X128466765Y-116181157D01*
X128676809Y-116040809D01*
X128817157Y-115830765D01*
X128866440Y-115583000D01*
X128866440Y-113383000D01*
X128817157Y-113135235D01*
X128676809Y-112925191D01*
X128466765Y-112784843D01*
X128219000Y-112735560D01*
X126819000Y-112735560D01*
X126571235Y-112784843D01*
X126361191Y-112925191D01*
X126220843Y-113135235D01*
X126171560Y-113383000D01*
X126171560Y-115583000D01*
X126220843Y-115830765D01*
X126361191Y-116040809D01*
X126571235Y-116181157D01*
X126630001Y-116192846D01*
X126630000Y-117094000D01*
X116343000Y-117094000D01*
X116343000Y-116192846D01*
X116401765Y-116181157D01*
X116611809Y-116040809D01*
X116752157Y-115830765D01*
X116801440Y-115583000D01*
X116801440Y-113383000D01*
X116752157Y-113135235D01*
X116611809Y-112925191D01*
X116401765Y-112784843D01*
X116154000Y-112735560D01*
X114754000Y-112735560D01*
X114506235Y-112784843D01*
X114296191Y-112925191D01*
X114155843Y-113135235D01*
X114106560Y-113383000D01*
X114106560Y-115583000D01*
X114155843Y-115830765D01*
X114296191Y-116040809D01*
X114506235Y-116181157D01*
X114565001Y-116192846D01*
X114565000Y-117895444D01*
X114547584Y-117983000D01*
X114565001Y-118070561D01*
X114565000Y-119773154D01*
X114506235Y-119784843D01*
X114296191Y-119925191D01*
X114155843Y-120135235D01*
X114106560Y-120383000D01*
X114106560Y-122583000D01*
X114155843Y-122830765D01*
X114296191Y-123040809D01*
X114506235Y-123181157D01*
X114754000Y-123230440D01*
X116154000Y-123230440D01*
X116401765Y-123181157D01*
X116611809Y-123040809D01*
X116752157Y-122830765D01*
X116801440Y-122583000D01*
X116801440Y-120383000D01*
X118656560Y-120383000D01*
X118656560Y-122583000D01*
X118705843Y-122830765D01*
X118846191Y-123040809D01*
X119056235Y-123181157D01*
X119115001Y-123192846D01*
X119115000Y-126108154D01*
X119056235Y-126119843D01*
X118846191Y-126260191D01*
X118705843Y-126470235D01*
X118656560Y-126718000D01*
X118656560Y-128918000D01*
X118705843Y-129165765D01*
X118846191Y-129375809D01*
X119056235Y-129516157D01*
X119304000Y-129565440D01*
X120704000Y-129565440D01*
X120951765Y-129516157D01*
X121161809Y-129375809D01*
X121302157Y-129165765D01*
X121351440Y-128918000D01*
X121351440Y-126718000D01*
X121302157Y-126470235D01*
X121161809Y-126260191D01*
X120951765Y-126119843D01*
X120893000Y-126108154D01*
X120893000Y-123192846D01*
X120951765Y-123181157D01*
X121161809Y-123040809D01*
X121302157Y-122830765D01*
X121351440Y-122583000D01*
X121351440Y-120383000D01*
X121302157Y-120135235D01*
X121161809Y-119925191D01*
X120951765Y-119784843D01*
X120704000Y-119735560D01*
X119304000Y-119735560D01*
X119056235Y-119784843D01*
X118846191Y-119925191D01*
X118705843Y-120135235D01*
X118656560Y-120383000D01*
X116801440Y-120383000D01*
X116752157Y-120135235D01*
X116611809Y-119925191D01*
X116401765Y-119784843D01*
X116343000Y-119773154D01*
X116343000Y-118872000D01*
X126630001Y-118872000D01*
X126630000Y-119773154D01*
X126571235Y-119784843D01*
X126361191Y-119925191D01*
X126220843Y-120135235D01*
X126171560Y-120383000D01*
X126171560Y-122583000D01*
X126220843Y-122830765D01*
X126361191Y-123040809D01*
X126571235Y-123181157D01*
X126819000Y-123230440D01*
X128219000Y-123230440D01*
X128466765Y-123181157D01*
X128676809Y-123040809D01*
X128817157Y-122830765D01*
X128866440Y-122583000D01*
X128866440Y-120383000D01*
X130721560Y-120383000D01*
X130721560Y-122583000D01*
X130770843Y-122830765D01*
X130911191Y-123040809D01*
X131121235Y-123181157D01*
X131180001Y-123192846D01*
X131180000Y-126108154D01*
X131121235Y-126119843D01*
X130911191Y-126260191D01*
X130770843Y-126470235D01*
X130721560Y-126718000D01*
X130721560Y-128918000D01*
X130770843Y-129165765D01*
X130911191Y-129375809D01*
X131121235Y-129516157D01*
X131369000Y-129565440D01*
X132769000Y-129565440D01*
X133016765Y-129516157D01*
X133226809Y-129375809D01*
X133367157Y-129165765D01*
X133416440Y-128918000D01*
X133416440Y-126718000D01*
X133367157Y-126470235D01*
X133226809Y-126260191D01*
X133016765Y-126119843D01*
X132958000Y-126108154D01*
X132958000Y-123192846D01*
X133016765Y-123181157D01*
X133226809Y-123040809D01*
X133367157Y-122830765D01*
X133416440Y-122583000D01*
X133416440Y-120383000D01*
X133367157Y-120135235D01*
X133226809Y-119925191D01*
X133016765Y-119784843D01*
X132769000Y-119735560D01*
X131369000Y-119735560D01*
X131121235Y-119784843D01*
X130911191Y-119925191D01*
X130770843Y-120135235D01*
X130721560Y-120383000D01*
X128866440Y-120383000D01*
X128817157Y-120135235D01*
X128676809Y-119925191D01*
X128466765Y-119784843D01*
X128408000Y-119773154D01*
X128408000Y-118872000D01*
X136691444Y-118872000D01*
X136779000Y-118889416D01*
X136866556Y-118872000D01*
X138695001Y-118872000D01*
X138695000Y-119773154D01*
X138636235Y-119784843D01*
X138426191Y-119925191D01*
X138285843Y-120135235D01*
X138236560Y-120383000D01*
X138236560Y-122583000D01*
X138285843Y-122830765D01*
X138426191Y-123040809D01*
X138636235Y-123181157D01*
X138884000Y-123230440D01*
X140284000Y-123230440D01*
X140531765Y-123181157D01*
X140741809Y-123040809D01*
X140882157Y-122830765D01*
X140931440Y-122583000D01*
X140931440Y-120383000D01*
X142786560Y-120383000D01*
X142786560Y-122583000D01*
X142835843Y-122830765D01*
X142976191Y-123040809D01*
X143186235Y-123181157D01*
X143245001Y-123192846D01*
X143245000Y-126108154D01*
X143186235Y-126119843D01*
X142976191Y-126260191D01*
X142835843Y-126470235D01*
X142786560Y-126718000D01*
X142786560Y-128918000D01*
X142835843Y-129165765D01*
X142976191Y-129375809D01*
X143186235Y-129516157D01*
X143434000Y-129565440D01*
X144834000Y-129565440D01*
X145081765Y-129516157D01*
X145291809Y-129375809D01*
X145432157Y-129165765D01*
X145481440Y-128918000D01*
X145481440Y-126718000D01*
X145432157Y-126470235D01*
X145291809Y-126260191D01*
X145081765Y-126119843D01*
X145023000Y-126108154D01*
X145023000Y-123192846D01*
X145081765Y-123181157D01*
X145291809Y-123040809D01*
X145432157Y-122830765D01*
X145481440Y-122583000D01*
X145481440Y-120383000D01*
X145432157Y-120135235D01*
X145291809Y-119925191D01*
X145081765Y-119784843D01*
X144834000Y-119735560D01*
X143434000Y-119735560D01*
X143186235Y-119784843D01*
X142976191Y-119925191D01*
X142835843Y-120135235D01*
X142786560Y-120383000D01*
X140931440Y-120383000D01*
X140882157Y-120135235D01*
X140741809Y-119925191D01*
X140531765Y-119784843D01*
X140473000Y-119773154D01*
X140473000Y-118872000D01*
X150760001Y-118872000D01*
X150760000Y-119773154D01*
X150701235Y-119784843D01*
X150491191Y-119925191D01*
X150350843Y-120135235D01*
X150301560Y-120383000D01*
X150301560Y-122583000D01*
X150350843Y-122830765D01*
X150491191Y-123040809D01*
X150701235Y-123181157D01*
X150949000Y-123230440D01*
X152349000Y-123230440D01*
X152596765Y-123181157D01*
X152806809Y-123040809D01*
X152947157Y-122830765D01*
X152996440Y-122583000D01*
X152996440Y-120383000D01*
X154851560Y-120383000D01*
X154851560Y-122583000D01*
X154900843Y-122830765D01*
X155041191Y-123040809D01*
X155251235Y-123181157D01*
X155310001Y-123192846D01*
X155310000Y-126108154D01*
X155251235Y-126119843D01*
X155041191Y-126260191D01*
X154900843Y-126470235D01*
X154851560Y-126718000D01*
X154851560Y-128918000D01*
X154900843Y-129165765D01*
X155041191Y-129375809D01*
X155251235Y-129516157D01*
X155499000Y-129565440D01*
X156899000Y-129565440D01*
X157146765Y-129516157D01*
X157356809Y-129375809D01*
X157497157Y-129165765D01*
X157546440Y-128918000D01*
X157546440Y-126718000D01*
X157497157Y-126470235D01*
X157356809Y-126260191D01*
X157146765Y-126119843D01*
X157088000Y-126108154D01*
X157088000Y-123192846D01*
X157146765Y-123181157D01*
X157356809Y-123040809D01*
X157497157Y-122830765D01*
X157546440Y-122583000D01*
X157546440Y-120383000D01*
X157497157Y-120135235D01*
X157356809Y-119925191D01*
X157146765Y-119784843D01*
X156899000Y-119735560D01*
X155499000Y-119735560D01*
X155251235Y-119784843D01*
X155041191Y-119925191D01*
X154900843Y-120135235D01*
X154851560Y-120383000D01*
X152996440Y-120383000D01*
X152947157Y-120135235D01*
X152806809Y-119925191D01*
X152596765Y-119784843D01*
X152538000Y-119773154D01*
X152538000Y-118872000D01*
X165365001Y-118872000D01*
X165365000Y-119773154D01*
X165306235Y-119784843D01*
X165096191Y-119925191D01*
X164955843Y-120135235D01*
X164906560Y-120383000D01*
X164906560Y-122583000D01*
X164955843Y-122830765D01*
X165096191Y-123040809D01*
X165306235Y-123181157D01*
X165554000Y-123230440D01*
X166954000Y-123230440D01*
X167201765Y-123181157D01*
X167411809Y-123040809D01*
X167552157Y-122830765D01*
X167601440Y-122583000D01*
X167601440Y-120383000D01*
X169456560Y-120383000D01*
X169456560Y-122583000D01*
X169505843Y-122830765D01*
X169646191Y-123040809D01*
X169856235Y-123181157D01*
X169915001Y-123192846D01*
X169915000Y-126108154D01*
X169856235Y-126119843D01*
X169646191Y-126260191D01*
X169505843Y-126470235D01*
X169456560Y-126718000D01*
X169456560Y-128918000D01*
X169505843Y-129165765D01*
X169646191Y-129375809D01*
X169856235Y-129516157D01*
X170104000Y-129565440D01*
X171504000Y-129565440D01*
X171751765Y-129516157D01*
X171961809Y-129375809D01*
X172102157Y-129165765D01*
X172151440Y-128918000D01*
X172151440Y-126718000D01*
X172102157Y-126470235D01*
X171961809Y-126260191D01*
X171751765Y-126119843D01*
X171693000Y-126108154D01*
X171693000Y-123192846D01*
X171751765Y-123181157D01*
X171961809Y-123040809D01*
X172102157Y-122830765D01*
X172151440Y-122583000D01*
X172151440Y-120383000D01*
X172102157Y-120135235D01*
X171961809Y-119925191D01*
X171751765Y-119784843D01*
X171504000Y-119735560D01*
X170104000Y-119735560D01*
X169856235Y-119784843D01*
X169646191Y-119925191D01*
X169505843Y-120135235D01*
X169456560Y-120383000D01*
X167601440Y-120383000D01*
X167552157Y-120135235D01*
X167411809Y-119925191D01*
X167201765Y-119784843D01*
X167143000Y-119773154D01*
X167143000Y-118070555D01*
X167160416Y-117983000D01*
X167143000Y-117895444D01*
X167143000Y-116192846D01*
X167201765Y-116181157D01*
X167411809Y-116040809D01*
X167552157Y-115830765D01*
X167601440Y-115583000D01*
X167601440Y-113383000D01*
X167552157Y-113135235D01*
X167411809Y-112925191D01*
X167201765Y-112784843D01*
X166954000Y-112735560D01*
X165554000Y-112735560D01*
X165306235Y-112784843D01*
X165096191Y-112925191D01*
X164955843Y-113135235D01*
X164906560Y-113383000D01*
X164906560Y-115583000D01*
X164955843Y-115830765D01*
X165096191Y-116040809D01*
X165306235Y-116181157D01*
X165365001Y-116192846D01*
X165365000Y-117094000D01*
X152538000Y-117094000D01*
X152538000Y-116192846D01*
X152596765Y-116181157D01*
X152806809Y-116040809D01*
X152947157Y-115830765D01*
X152996440Y-115583000D01*
X152996440Y-113383000D01*
X152947157Y-113135235D01*
X152806809Y-112925191D01*
X152596765Y-112784843D01*
X152349000Y-112735560D01*
X150949000Y-112735560D01*
X150701235Y-112784843D01*
X150491191Y-112925191D01*
X150350843Y-113135235D01*
X150301560Y-113383000D01*
X150301560Y-115583000D01*
X150350843Y-115830765D01*
X150491191Y-116040809D01*
X150701235Y-116181157D01*
X150760001Y-116192846D01*
X150760000Y-117094000D01*
X140473000Y-117094000D01*
X140473000Y-116192846D01*
X140531765Y-116181157D01*
X140741809Y-116040809D01*
X140882157Y-115830765D01*
X140931440Y-115583000D01*
X140931440Y-113383000D01*
X140882157Y-113135235D01*
X140741809Y-112925191D01*
X140531765Y-112784843D01*
X140284000Y-112735560D01*
X138884000Y-112735560D01*
X138636235Y-112784843D01*
X138426191Y-112925191D01*
X138285843Y-113135235D01*
X138236560Y-113383000D01*
X138236560Y-115583000D01*
X138285843Y-115830765D01*
X138426191Y-116040809D01*
X138636235Y-116181157D01*
X138695001Y-116192846D01*
X138695000Y-117094000D01*
X137668000Y-117094000D01*
X137668000Y-106476350D01*
X137814000Y-106123874D01*
X137814000Y-105712126D01*
X137656431Y-105331720D01*
X137365280Y-105040569D01*
X137030744Y-104902000D01*
X138695001Y-104902000D01*
X138695000Y-106113154D01*
X138636235Y-106124843D01*
X138426191Y-106265191D01*
X138285843Y-106475235D01*
X138236560Y-106723000D01*
X138236560Y-108923000D01*
X138285843Y-109170765D01*
X138426191Y-109380809D01*
X138636235Y-109521157D01*
X138884000Y-109570440D01*
X140284000Y-109570440D01*
X140531765Y-109521157D01*
X140741809Y-109380809D01*
X140882157Y-109170765D01*
X140931440Y-108923000D01*
X140931440Y-106723000D01*
X142786560Y-106723000D01*
X142786560Y-108923000D01*
X142835843Y-109170765D01*
X142976191Y-109380809D01*
X143186235Y-109521157D01*
X143245001Y-109532846D01*
X143245000Y-112773154D01*
X143186235Y-112784843D01*
X142976191Y-112925191D01*
X142835843Y-113135235D01*
X142786560Y-113383000D01*
X142786560Y-115583000D01*
X142835843Y-115830765D01*
X142976191Y-116040809D01*
X143186235Y-116181157D01*
X143434000Y-116230440D01*
X144834000Y-116230440D01*
X145081765Y-116181157D01*
X145291809Y-116040809D01*
X145432157Y-115830765D01*
X145481440Y-115583000D01*
X145481440Y-113383000D01*
X145432157Y-113135235D01*
X145291809Y-112925191D01*
X145081765Y-112784843D01*
X145023000Y-112773154D01*
X145023000Y-109532846D01*
X145081765Y-109521157D01*
X145291809Y-109380809D01*
X145432157Y-109170765D01*
X145481440Y-108923000D01*
X145481440Y-106723000D01*
X145432157Y-106475235D01*
X145291809Y-106265191D01*
X145081765Y-106124843D01*
X144834000Y-106075560D01*
X143434000Y-106075560D01*
X143186235Y-106124843D01*
X142976191Y-106265191D01*
X142835843Y-106475235D01*
X142786560Y-106723000D01*
X140931440Y-106723000D01*
X140882157Y-106475235D01*
X140741809Y-106265191D01*
X140531765Y-106124843D01*
X140473000Y-106113154D01*
X140473000Y-104902000D01*
X150760001Y-104902000D01*
X150760000Y-106113154D01*
X150701235Y-106124843D01*
X150491191Y-106265191D01*
X150350843Y-106475235D01*
X150301560Y-106723000D01*
X150301560Y-108923000D01*
X150350843Y-109170765D01*
X150491191Y-109380809D01*
X150701235Y-109521157D01*
X150949000Y-109570440D01*
X152349000Y-109570440D01*
X152596765Y-109521157D01*
X152806809Y-109380809D01*
X152947157Y-109170765D01*
X152996440Y-108923000D01*
X152996440Y-106723000D01*
X154851560Y-106723000D01*
X154851560Y-108923000D01*
X154900843Y-109170765D01*
X155041191Y-109380809D01*
X155251235Y-109521157D01*
X155310001Y-109532846D01*
X155310000Y-112773154D01*
X155251235Y-112784843D01*
X155041191Y-112925191D01*
X154900843Y-113135235D01*
X154851560Y-113383000D01*
X154851560Y-115583000D01*
X154900843Y-115830765D01*
X155041191Y-116040809D01*
X155251235Y-116181157D01*
X155499000Y-116230440D01*
X156899000Y-116230440D01*
X157146765Y-116181157D01*
X157356809Y-116040809D01*
X157497157Y-115830765D01*
X157546440Y-115583000D01*
X157546440Y-113383000D01*
X157497157Y-113135235D01*
X157356809Y-112925191D01*
X157146765Y-112784843D01*
X157088000Y-112773154D01*
X157088000Y-109532846D01*
X157146765Y-109521157D01*
X157356809Y-109380809D01*
X157497157Y-109170765D01*
X157546440Y-108923000D01*
X157546440Y-106723000D01*
X157497157Y-106475235D01*
X157356809Y-106265191D01*
X157146765Y-106124843D01*
X156899000Y-106075560D01*
X155499000Y-106075560D01*
X155251235Y-106124843D01*
X155041191Y-106265191D01*
X154900843Y-106475235D01*
X154851560Y-106723000D01*
X152996440Y-106723000D01*
X152947157Y-106475235D01*
X152806809Y-106265191D01*
X152596765Y-106124843D01*
X152538000Y-106113154D01*
X152538000Y-104902000D01*
X165365001Y-104902000D01*
X165365000Y-106113154D01*
X165306235Y-106124843D01*
X165096191Y-106265191D01*
X164955843Y-106475235D01*
X164906560Y-106723000D01*
X164906560Y-108923000D01*
X164955843Y-109170765D01*
X165096191Y-109380809D01*
X165306235Y-109521157D01*
X165554000Y-109570440D01*
X166954000Y-109570440D01*
X167201765Y-109521157D01*
X167411809Y-109380809D01*
X167552157Y-109170765D01*
X167601440Y-108923000D01*
X167601440Y-106723000D01*
X169456560Y-106723000D01*
X169456560Y-108923000D01*
X169505843Y-109170765D01*
X169646191Y-109380809D01*
X169856235Y-109521157D01*
X169915001Y-109532846D01*
X169915000Y-112773154D01*
X169856235Y-112784843D01*
X169646191Y-112925191D01*
X169505843Y-113135235D01*
X169456560Y-113383000D01*
X169456560Y-115583000D01*
X169505843Y-115830765D01*
X169646191Y-116040809D01*
X169856235Y-116181157D01*
X170104000Y-116230440D01*
X171504000Y-116230440D01*
X171751765Y-116181157D01*
X171961809Y-116040809D01*
X172102157Y-115830765D01*
X172151440Y-115583000D01*
X172151440Y-113383000D01*
X172102157Y-113135235D01*
X171961809Y-112925191D01*
X171751765Y-112784843D01*
X171693000Y-112773154D01*
X171693000Y-109532846D01*
X171751765Y-109521157D01*
X171961809Y-109380809D01*
X172102157Y-109170765D01*
X172151440Y-108923000D01*
X172151440Y-106723000D01*
X172102157Y-106475235D01*
X171961809Y-106265191D01*
X171751765Y-106124843D01*
X171504000Y-106075560D01*
X170104000Y-106075560D01*
X169856235Y-106124843D01*
X169646191Y-106265191D01*
X169505843Y-106475235D01*
X169456560Y-106723000D01*
X167601440Y-106723000D01*
X167552157Y-106475235D01*
X167411809Y-106265191D01*
X167201765Y-106124843D01*
X167143000Y-106113154D01*
X167143000Y-104100555D01*
X167160416Y-104013000D01*
X167143000Y-103925444D01*
X167143000Y-102532846D01*
X167201765Y-102521157D01*
X167411809Y-102380809D01*
X167552157Y-102170765D01*
X167601440Y-101923000D01*
X167601440Y-99723000D01*
X167552157Y-99475235D01*
X167411809Y-99265191D01*
X167201765Y-99124843D01*
X166954000Y-99075560D01*
X165554000Y-99075560D01*
X165306235Y-99124843D01*
X165096191Y-99265191D01*
X164955843Y-99475235D01*
X164906560Y-99723000D01*
X164906560Y-101923000D01*
X164955843Y-102170765D01*
X165096191Y-102380809D01*
X165306235Y-102521157D01*
X165365000Y-102532846D01*
X165365000Y-103124000D01*
X152538000Y-103124000D01*
X152538000Y-102532846D01*
X152596765Y-102521157D01*
X152806809Y-102380809D01*
X152947157Y-102170765D01*
X152996440Y-101923000D01*
X152996440Y-99723000D01*
X152947157Y-99475235D01*
X152806809Y-99265191D01*
X152596765Y-99124843D01*
X152349000Y-99075560D01*
X150949000Y-99075560D01*
X150701235Y-99124843D01*
X150491191Y-99265191D01*
X150350843Y-99475235D01*
X150301560Y-99723000D01*
X150301560Y-101923000D01*
X150350843Y-102170765D01*
X150491191Y-102380809D01*
X150701235Y-102521157D01*
X150760000Y-102532846D01*
X150760000Y-103124000D01*
X140473000Y-103124000D01*
X140473000Y-102532846D01*
X140531765Y-102521157D01*
X140741809Y-102380809D01*
X140882157Y-102170765D01*
X140931440Y-101923000D01*
X140931440Y-99723000D01*
X140882157Y-99475235D01*
X140741809Y-99265191D01*
X140531765Y-99124843D01*
X140284000Y-99075560D01*
X138884000Y-99075560D01*
X138636235Y-99124843D01*
X138426191Y-99265191D01*
X138285843Y-99475235D01*
X138236560Y-99723000D01*
X138236560Y-101923000D01*
X138285843Y-102170765D01*
X138426191Y-102380809D01*
X138636235Y-102521157D01*
X138695000Y-102532846D01*
X138695000Y-103124000D01*
X135763000Y-103124000D01*
X135763000Y-101396350D01*
X135909000Y-101043874D01*
X135909000Y-100632126D01*
X135751431Y-100251720D01*
X135460280Y-99960569D01*
X135079874Y-99803000D01*
X134668126Y-99803000D01*
X134287720Y-99960569D01*
X133996569Y-100251720D01*
X133839000Y-100632126D01*
X133839000Y-101043874D01*
X133985001Y-101396352D01*
X133985000Y-103124000D01*
X128408000Y-103124000D01*
X128408000Y-102532846D01*
X128466765Y-102521157D01*
X128676809Y-102380809D01*
X128817157Y-102170765D01*
X128866440Y-101923000D01*
X128866440Y-99723000D01*
X128817157Y-99475235D01*
X128676809Y-99265191D01*
X128466765Y-99124843D01*
X128219000Y-99075560D01*
X126819000Y-99075560D01*
X126571235Y-99124843D01*
X126361191Y-99265191D01*
X126220843Y-99475235D01*
X126171560Y-99723000D01*
X126171560Y-101923000D01*
X126220843Y-102170765D01*
X126361191Y-102380809D01*
X126571235Y-102521157D01*
X126630000Y-102532846D01*
X126630000Y-103124000D01*
X116343000Y-103124000D01*
X116343000Y-102532846D01*
X116401765Y-102521157D01*
X116611809Y-102380809D01*
X116752157Y-102170765D01*
X116801440Y-101923000D01*
X116801440Y-99723000D01*
X116752157Y-99475235D01*
X116611809Y-99265191D01*
X116401765Y-99124843D01*
X116154000Y-99075560D01*
X114754000Y-99075560D01*
X114506235Y-99124843D01*
X114296191Y-99265191D01*
X114155843Y-99475235D01*
X114106560Y-99723000D01*
X113538000Y-99723000D01*
X113538000Y-85966235D01*
X116827236Y-82677000D01*
X119546445Y-82677000D01*
X119634000Y-82694416D01*
X119721555Y-82677000D01*
X119721556Y-82677000D01*
X119980870Y-82625419D01*
X120274933Y-82428933D01*
X120324531Y-82354704D01*
X121137805Y-81541431D01*
X121490280Y-81395431D01*
X121781431Y-81104280D01*
X121939000Y-80723874D01*
X121939000Y-80312126D01*
X121781431Y-79931720D01*
X121490280Y-79640569D01*
X121109874Y-79483000D01*
X120698126Y-79483000D01*
X120317720Y-79640569D01*
X120026569Y-79931720D01*
X119880569Y-80284195D01*
X119265765Y-80899000D01*
X116546556Y-80899000D01*
X116459000Y-80881584D01*
X116213404Y-80930436D01*
X118376664Y-78767177D01*
X118461495Y-78710495D01*
X118686051Y-78374423D01*
X118745000Y-78078065D01*
X118745000Y-78078064D01*
X118764904Y-77978001D01*
X118745000Y-77877937D01*
X118745000Y-75525556D01*
X118796582Y-75784870D01*
X118993068Y-76078933D01*
X119067294Y-76128529D01*
X120213471Y-77274707D01*
X120263067Y-77348933D01*
X120557130Y-77545419D01*
X120816444Y-77597000D01*
X120816448Y-77597000D01*
X120903999Y-77614415D01*
X120991550Y-77597000D01*
X121033604Y-77597000D01*
X121361138Y-77924534D01*
X121888561Y-78143000D01*
X122459439Y-78143000D01*
X122986862Y-77924534D01*
X123314396Y-77597000D01*
X124534387Y-77597000D01*
X124511582Y-77631130D01*
X124442584Y-77978000D01*
X124460001Y-78065559D01*
X124460000Y-79856764D01*
X119437294Y-84879471D01*
X119363068Y-84929067D01*
X119313472Y-85003293D01*
X119313471Y-85003294D01*
X119166582Y-85223130D01*
X119117960Y-85467565D01*
X119056235Y-85479843D01*
X118846191Y-85620191D01*
X118705843Y-85830235D01*
X118656560Y-86078000D01*
X118656560Y-88278000D01*
X118705843Y-88525765D01*
X118846191Y-88735809D01*
X119056235Y-88876157D01*
X119304000Y-88925440D01*
X120704000Y-88925440D01*
X120951765Y-88876157D01*
X121161809Y-88735809D01*
X121302157Y-88525765D01*
X121351440Y-88278000D01*
X121351440Y-86078000D01*
X121302157Y-85830235D01*
X121181530Y-85649705D01*
X125915707Y-80915529D01*
X125989933Y-80865933D01*
X126186419Y-80571870D01*
X126238000Y-80312556D01*
X126238000Y-80312552D01*
X126255415Y-80225001D01*
X126238000Y-80137450D01*
X126238000Y-78346235D01*
X126352236Y-78232000D01*
X127477010Y-78232000D01*
X127172260Y-78688091D01*
X127060887Y-79248000D01*
X127091418Y-79401487D01*
X127083068Y-79407066D01*
X126886582Y-79701130D01*
X126843617Y-79917130D01*
X126817585Y-80047999D01*
X126835001Y-80135554D01*
X126835002Y-81711762D01*
X125869765Y-82677000D01*
X125780350Y-82677000D01*
X125427874Y-82531000D01*
X125016126Y-82531000D01*
X124635720Y-82688569D01*
X124344569Y-82979720D01*
X124187000Y-83360126D01*
X124187000Y-83771874D01*
X124344569Y-84152280D01*
X124635720Y-84443431D01*
X125016126Y-84601000D01*
X125427874Y-84601000D01*
X125780350Y-84455000D01*
X126150445Y-84455000D01*
X126238000Y-84472416D01*
X126325555Y-84455000D01*
X126325556Y-84455000D01*
X126390728Y-84442036D01*
X124401296Y-86431469D01*
X124327067Y-86481067D01*
X124130581Y-86775131D01*
X124079000Y-87034444D01*
X124061584Y-87122000D01*
X124079000Y-87209555D01*
X124079001Y-88341648D01*
X123933000Y-88694126D01*
X123933000Y-89105874D01*
X124090569Y-89486280D01*
X124381720Y-89777431D01*
X124409650Y-89789000D01*
X116343000Y-89789000D01*
X116343000Y-88887846D01*
X116401765Y-88876157D01*
X116611809Y-88735809D01*
X116752157Y-88525765D01*
X116801440Y-88278000D01*
X116801440Y-86078000D01*
X116752157Y-85830235D01*
X116611809Y-85620191D01*
X116401765Y-85479843D01*
X116154000Y-85430560D01*
X114754000Y-85430560D01*
X114506235Y-85479843D01*
X114296191Y-85620191D01*
X114155843Y-85830235D01*
X114106560Y-86078000D01*
X114106560Y-88278000D01*
X114155843Y-88525765D01*
X114296191Y-88735809D01*
X114506235Y-88876157D01*
X114565001Y-88887846D01*
X114565000Y-90590444D01*
X114547584Y-90678000D01*
X114565001Y-90765561D01*
X114565000Y-92468154D01*
X114506235Y-92479843D01*
X114296191Y-92620191D01*
X114155843Y-92830235D01*
X114106560Y-93078000D01*
X114106560Y-95278000D01*
X114155843Y-95525765D01*
X114296191Y-95735809D01*
X114506235Y-95876157D01*
X114754000Y-95925440D01*
X116154000Y-95925440D01*
X116401765Y-95876157D01*
X116611809Y-95735809D01*
X116752157Y-95525765D01*
X116801440Y-95278000D01*
X116801440Y-93078000D01*
X118656560Y-93078000D01*
X118656560Y-95278000D01*
X118705843Y-95525765D01*
X118846191Y-95735809D01*
X119056235Y-95876157D01*
X119115001Y-95887846D01*
X119115000Y-99113154D01*
X119056235Y-99124843D01*
X118846191Y-99265191D01*
X118705843Y-99475235D01*
X118656560Y-99723000D01*
X118656560Y-101923000D01*
X118705843Y-102170765D01*
X118846191Y-102380809D01*
X119056235Y-102521157D01*
X119304000Y-102570440D01*
X120704000Y-102570440D01*
X120951765Y-102521157D01*
X121161809Y-102380809D01*
X121302157Y-102170765D01*
X121351440Y-101923000D01*
X121351440Y-99723000D01*
X121302157Y-99475235D01*
X121161809Y-99265191D01*
X120951765Y-99124843D01*
X120893000Y-99113154D01*
X120893000Y-95887846D01*
X120951765Y-95876157D01*
X121161809Y-95735809D01*
X121302157Y-95525765D01*
X121351440Y-95278000D01*
X121351440Y-93078000D01*
X121302157Y-92830235D01*
X121161809Y-92620191D01*
X120951765Y-92479843D01*
X120704000Y-92430560D01*
X119304000Y-92430560D01*
X119056235Y-92479843D01*
X118846191Y-92620191D01*
X118705843Y-92830235D01*
X118656560Y-93078000D01*
X116801440Y-93078000D01*
X116752157Y-92830235D01*
X116611809Y-92620191D01*
X116401765Y-92479843D01*
X116343000Y-92468154D01*
X116343000Y-91567000D01*
X126630001Y-91567000D01*
X126630000Y-92468154D01*
X126571235Y-92479843D01*
X126361191Y-92620191D01*
X126220843Y-92830235D01*
X126171560Y-93078000D01*
X126171560Y-95278000D01*
X126220843Y-95525765D01*
X126361191Y-95735809D01*
X126571235Y-95876157D01*
X126819000Y-95925440D01*
X128219000Y-95925440D01*
X128466765Y-95876157D01*
X128676809Y-95735809D01*
X128817157Y-95525765D01*
X128866440Y-95278000D01*
X128866440Y-93078000D01*
X130721560Y-93078000D01*
X130721560Y-95278000D01*
X130770843Y-95525765D01*
X130911191Y-95735809D01*
X131121235Y-95876157D01*
X131180001Y-95887846D01*
X131180000Y-99113154D01*
X131121235Y-99124843D01*
X130911191Y-99265191D01*
X130770843Y-99475235D01*
X130721560Y-99723000D01*
X130721560Y-101923000D01*
X130770843Y-102170765D01*
X130911191Y-102380809D01*
X131121235Y-102521157D01*
X131369000Y-102570440D01*
X132769000Y-102570440D01*
X133016765Y-102521157D01*
X133226809Y-102380809D01*
X133367157Y-102170765D01*
X133416440Y-101923000D01*
X133416440Y-99723000D01*
X133367157Y-99475235D01*
X133226809Y-99265191D01*
X133016765Y-99124843D01*
X132958000Y-99113154D01*
X132958000Y-98571000D01*
X133301874Y-98571000D01*
X133654350Y-98425000D01*
X140665650Y-98425000D01*
X141018126Y-98571000D01*
X141429874Y-98571000D01*
X141810280Y-98413431D01*
X142101431Y-98122280D01*
X142259000Y-97741874D01*
X142259000Y-97330126D01*
X142101431Y-96949720D01*
X141810280Y-96658569D01*
X141429874Y-96501000D01*
X141018126Y-96501000D01*
X140665650Y-96647000D01*
X133654350Y-96647000D01*
X133301874Y-96501000D01*
X132958000Y-96501000D01*
X132958000Y-95887846D01*
X133016765Y-95876157D01*
X133226809Y-95735809D01*
X133367157Y-95525765D01*
X133416440Y-95278000D01*
X133416440Y-93078000D01*
X133367157Y-92830235D01*
X133226809Y-92620191D01*
X133016765Y-92479843D01*
X132769000Y-92430560D01*
X131369000Y-92430560D01*
X131121235Y-92479843D01*
X130911191Y-92620191D01*
X130770843Y-92830235D01*
X130721560Y-93078000D01*
X128866440Y-93078000D01*
X128817157Y-92830235D01*
X128676809Y-92620191D01*
X128466765Y-92479843D01*
X128408000Y-92468154D01*
X128408000Y-91567000D01*
X138695001Y-91567000D01*
X138695000Y-92468154D01*
X138636235Y-92479843D01*
X138426191Y-92620191D01*
X138285843Y-92830235D01*
X138236560Y-93078000D01*
X138236560Y-95278000D01*
X138285843Y-95525765D01*
X138426191Y-95735809D01*
X138636235Y-95876157D01*
X138884000Y-95925440D01*
X140284000Y-95925440D01*
X140531765Y-95876157D01*
X140741809Y-95735809D01*
X140882157Y-95525765D01*
X140931440Y-95278000D01*
X140931440Y-93078000D01*
X142786560Y-93078000D01*
X142786560Y-95278000D01*
X142835843Y-95525765D01*
X142976191Y-95735809D01*
X143186235Y-95876157D01*
X143245001Y-95887846D01*
X143245000Y-99113154D01*
X143186235Y-99124843D01*
X142976191Y-99265191D01*
X142835843Y-99475235D01*
X142786560Y-99723000D01*
X142786560Y-101923000D01*
X142835843Y-102170765D01*
X142976191Y-102380809D01*
X143186235Y-102521157D01*
X143434000Y-102570440D01*
X144834000Y-102570440D01*
X145081765Y-102521157D01*
X145291809Y-102380809D01*
X145432157Y-102170765D01*
X145481440Y-101923000D01*
X145481440Y-99723000D01*
X145432157Y-99475235D01*
X145291809Y-99265191D01*
X145081765Y-99124843D01*
X145023000Y-99113154D01*
X145023000Y-95887846D01*
X145081765Y-95876157D01*
X145291809Y-95735809D01*
X145432157Y-95525765D01*
X145481440Y-95278000D01*
X145481440Y-93078000D01*
X145432157Y-92830235D01*
X145291809Y-92620191D01*
X145081765Y-92479843D01*
X144834000Y-92430560D01*
X143434000Y-92430560D01*
X143186235Y-92479843D01*
X142976191Y-92620191D01*
X142835843Y-92830235D01*
X142786560Y-93078000D01*
X140931440Y-93078000D01*
X140882157Y-92830235D01*
X140741809Y-92620191D01*
X140531765Y-92479843D01*
X140473000Y-92468154D01*
X140473000Y-91567000D01*
X150760001Y-91567000D01*
X150760000Y-92468154D01*
X150701235Y-92479843D01*
X150491191Y-92620191D01*
X150350843Y-92830235D01*
X150301560Y-93078000D01*
X150301560Y-95278000D01*
X150350843Y-95525765D01*
X150491191Y-95735809D01*
X150701235Y-95876157D01*
X150949000Y-95925440D01*
X152349000Y-95925440D01*
X152596765Y-95876157D01*
X152806809Y-95735809D01*
X152947157Y-95525765D01*
X152996440Y-95278000D01*
X152996440Y-93078000D01*
X154851560Y-93078000D01*
X154851560Y-95278000D01*
X154900843Y-95525765D01*
X155041191Y-95735809D01*
X155251235Y-95876157D01*
X155310001Y-95887846D01*
X155310000Y-99113154D01*
X155251235Y-99124843D01*
X155041191Y-99265191D01*
X154900843Y-99475235D01*
X154851560Y-99723000D01*
X154851560Y-101923000D01*
X154900843Y-102170765D01*
X155041191Y-102380809D01*
X155251235Y-102521157D01*
X155499000Y-102570440D01*
X156899000Y-102570440D01*
X157146765Y-102521157D01*
X157356809Y-102380809D01*
X157497157Y-102170765D01*
X157546440Y-101923000D01*
X157546440Y-99723000D01*
X157497157Y-99475235D01*
X157356809Y-99265191D01*
X157146765Y-99124843D01*
X157088000Y-99113154D01*
X157088000Y-97330126D01*
X161017000Y-97330126D01*
X161017000Y-97741874D01*
X161174569Y-98122280D01*
X161465720Y-98413431D01*
X161846126Y-98571000D01*
X162257874Y-98571000D01*
X162610350Y-98425000D01*
X166065650Y-98425000D01*
X166418126Y-98571000D01*
X166829874Y-98571000D01*
X167210280Y-98413431D01*
X167501431Y-98122280D01*
X167659000Y-97741874D01*
X167659000Y-97330126D01*
X167501431Y-96949720D01*
X167210280Y-96658569D01*
X166829874Y-96501000D01*
X166418126Y-96501000D01*
X166065650Y-96647000D01*
X162610350Y-96647000D01*
X162257874Y-96501000D01*
X161846126Y-96501000D01*
X161465720Y-96658569D01*
X161174569Y-96949720D01*
X161017000Y-97330126D01*
X157088000Y-97330126D01*
X157088000Y-95887846D01*
X157146765Y-95876157D01*
X157356809Y-95735809D01*
X157497157Y-95525765D01*
X157546440Y-95278000D01*
X157546440Y-93078000D01*
X157497157Y-92830235D01*
X157356809Y-92620191D01*
X157146765Y-92479843D01*
X156899000Y-92430560D01*
X155499000Y-92430560D01*
X155251235Y-92479843D01*
X155041191Y-92620191D01*
X154900843Y-92830235D01*
X154851560Y-93078000D01*
X152996440Y-93078000D01*
X152947157Y-92830235D01*
X152806809Y-92620191D01*
X152596765Y-92479843D01*
X152538000Y-92468154D01*
X152538000Y-91567000D01*
X158175289Y-91567000D01*
X158126569Y-91615720D01*
X157969000Y-91996126D01*
X157969000Y-92407874D01*
X158126569Y-92788280D01*
X158417720Y-93079431D01*
X158798126Y-93237000D01*
X159209874Y-93237000D01*
X159562350Y-93091000D01*
X163525650Y-93091000D01*
X163878126Y-93237000D01*
X164289874Y-93237000D01*
X164670280Y-93079431D01*
X164961431Y-92788280D01*
X165119000Y-92407874D01*
X165119000Y-91996126D01*
X164961431Y-91615720D01*
X164912711Y-91567000D01*
X165365001Y-91567000D01*
X165365000Y-92468154D01*
X165306235Y-92479843D01*
X165096191Y-92620191D01*
X164955843Y-92830235D01*
X164906560Y-93078000D01*
X164906560Y-95278000D01*
X164955843Y-95525765D01*
X165096191Y-95735809D01*
X165306235Y-95876157D01*
X165554000Y-95925440D01*
X166954000Y-95925440D01*
X167201765Y-95876157D01*
X167411809Y-95735809D01*
X167552157Y-95525765D01*
X167601440Y-95278000D01*
X167601440Y-93078000D01*
X169456560Y-93078000D01*
X169456560Y-95278000D01*
X169505843Y-95525765D01*
X169646191Y-95735809D01*
X169856235Y-95876157D01*
X169915001Y-95887846D01*
X169915000Y-99113154D01*
X169856235Y-99124843D01*
X169646191Y-99265191D01*
X169505843Y-99475235D01*
X169456560Y-99723000D01*
X169456560Y-101923000D01*
X169505843Y-102170765D01*
X169646191Y-102380809D01*
X169856235Y-102521157D01*
X170104000Y-102570440D01*
X171504000Y-102570440D01*
X171751765Y-102521157D01*
X171961809Y-102380809D01*
X172102157Y-102170765D01*
X172151440Y-101923000D01*
X172151440Y-99723000D01*
X172102157Y-99475235D01*
X171961809Y-99265191D01*
X171751765Y-99124843D01*
X171693000Y-99113154D01*
X171693000Y-95887846D01*
X171751765Y-95876157D01*
X171961809Y-95735809D01*
X172102157Y-95525765D01*
X172151440Y-95278000D01*
X172151440Y-93078000D01*
X172102157Y-92830235D01*
X171961809Y-92620191D01*
X171751765Y-92479843D01*
X171504000Y-92430560D01*
X170104000Y-92430560D01*
X169856235Y-92479843D01*
X169646191Y-92620191D01*
X169505843Y-92830235D01*
X169456560Y-93078000D01*
X167601440Y-93078000D01*
X167552157Y-92830235D01*
X167411809Y-92620191D01*
X167201765Y-92479843D01*
X167143000Y-92468154D01*
X167143000Y-90765555D01*
X167160416Y-90678000D01*
X167143000Y-90590444D01*
X167143000Y-88887846D01*
X167201765Y-88876157D01*
X167411809Y-88735809D01*
X167552157Y-88525765D01*
X167601440Y-88278000D01*
X167601440Y-86078000D01*
X167552157Y-85830235D01*
X167411809Y-85620191D01*
X167201765Y-85479843D01*
X166954000Y-85430560D01*
X165554000Y-85430560D01*
X165306235Y-85479843D01*
X165096191Y-85620191D01*
X164955843Y-85830235D01*
X164906560Y-86078000D01*
X164906560Y-88278000D01*
X164955843Y-88525765D01*
X165096191Y-88735809D01*
X165306235Y-88876157D01*
X165365001Y-88887846D01*
X165365000Y-89789000D01*
X152538000Y-89789000D01*
X152538000Y-88887846D01*
X152596765Y-88876157D01*
X152806809Y-88735809D01*
X152947157Y-88525765D01*
X152996440Y-88278000D01*
X152996440Y-86078000D01*
X152947157Y-85830235D01*
X152806809Y-85620191D01*
X152596765Y-85479843D01*
X152349000Y-85430560D01*
X150949000Y-85430560D01*
X150701235Y-85479843D01*
X150491191Y-85620191D01*
X150350843Y-85830235D01*
X150301560Y-86078000D01*
X150301560Y-88278000D01*
X150350843Y-88525765D01*
X150491191Y-88735809D01*
X150701235Y-88876157D01*
X150760001Y-88887846D01*
X150760000Y-89789000D01*
X140473000Y-89789000D01*
X140473000Y-88887846D01*
X140531765Y-88876157D01*
X140741809Y-88735809D01*
X140882157Y-88525765D01*
X140931440Y-88278000D01*
X140931440Y-86078000D01*
X140882157Y-85830235D01*
X140741809Y-85620191D01*
X140531765Y-85479843D01*
X140284000Y-85430560D01*
X138884000Y-85430560D01*
X138636235Y-85479843D01*
X138426191Y-85620191D01*
X138285843Y-85830235D01*
X138236560Y-86078000D01*
X138236560Y-88278000D01*
X138285843Y-88525765D01*
X138426191Y-88735809D01*
X138636235Y-88876157D01*
X138695001Y-88887846D01*
X138695000Y-89789000D01*
X128408000Y-89789000D01*
X128408000Y-88887846D01*
X128466765Y-88876157D01*
X128676809Y-88735809D01*
X128817157Y-88525765D01*
X128866440Y-88278000D01*
X128866440Y-86687795D01*
X131630707Y-83923529D01*
X131704933Y-83873933D01*
X131901419Y-83579870D01*
X131953000Y-83320556D01*
X131953000Y-83320555D01*
X131970416Y-83233001D01*
X131953000Y-83145446D01*
X131953000Y-80379848D01*
X132098577Y-80282577D01*
X132334000Y-79930242D01*
X132569423Y-80282577D01*
X132715001Y-80379849D01*
X132715000Y-81229650D01*
X132569000Y-81582126D01*
X132569000Y-81993874D01*
X132726569Y-82374280D01*
X133017720Y-82665431D01*
X133269884Y-82769880D01*
X131502294Y-84537471D01*
X131428068Y-84587067D01*
X131378472Y-84661293D01*
X131378471Y-84661294D01*
X131231582Y-84881130D01*
X131162584Y-85228000D01*
X131180001Y-85315559D01*
X131180001Y-85468154D01*
X131121235Y-85479843D01*
X130911191Y-85620191D01*
X130770843Y-85830235D01*
X130721560Y-86078000D01*
X130721560Y-88278000D01*
X130770843Y-88525765D01*
X130911191Y-88735809D01*
X131121235Y-88876157D01*
X131369000Y-88925440D01*
X132769000Y-88925440D01*
X133016765Y-88876157D01*
X133226809Y-88735809D01*
X133367157Y-88525765D01*
X133416440Y-88278000D01*
X133416440Y-86078000D01*
X133367157Y-85830235D01*
X133226809Y-85620191D01*
X133051310Y-85502925D01*
X134607236Y-83947000D01*
X144499764Y-83947000D01*
X143567294Y-84879471D01*
X143493068Y-84929067D01*
X143443472Y-85003293D01*
X143443471Y-85003294D01*
X143296582Y-85223130D01*
X143247960Y-85467565D01*
X143186235Y-85479843D01*
X142976191Y-85620191D01*
X142835843Y-85830235D01*
X142786560Y-86078000D01*
X142786560Y-88278000D01*
X142835843Y-88525765D01*
X142976191Y-88735809D01*
X143186235Y-88876157D01*
X143434000Y-88925440D01*
X144834000Y-88925440D01*
X145081765Y-88876157D01*
X145291809Y-88735809D01*
X145432157Y-88525765D01*
X145481440Y-88278000D01*
X145481440Y-86078000D01*
X145432157Y-85830235D01*
X145311530Y-85649705D01*
X145744236Y-85217000D01*
X154471445Y-85217000D01*
X154559000Y-85234416D01*
X154646555Y-85217000D01*
X154646556Y-85217000D01*
X154905870Y-85165419D01*
X155199933Y-84968933D01*
X155249531Y-84894704D01*
X157030707Y-83113529D01*
X157104933Y-83063933D01*
X157301419Y-82769870D01*
X157353000Y-82510556D01*
X157353000Y-82510555D01*
X157370416Y-82423000D01*
X157353000Y-82335445D01*
X157353000Y-80379848D01*
X157498577Y-80282577D01*
X157734000Y-79930242D01*
X157969423Y-80282577D01*
X158115001Y-80379849D01*
X158115000Y-82054764D01*
X155632294Y-84537471D01*
X155558068Y-84587067D01*
X155508472Y-84661293D01*
X155508471Y-84661294D01*
X155361582Y-84881130D01*
X155292584Y-85228000D01*
X155310001Y-85315559D01*
X155310001Y-85468154D01*
X155251235Y-85479843D01*
X155041191Y-85620191D01*
X154900843Y-85830235D01*
X154851560Y-86078000D01*
X154851560Y-88278000D01*
X154900843Y-88525765D01*
X155041191Y-88735809D01*
X155251235Y-88876157D01*
X155499000Y-88925440D01*
X156899000Y-88925440D01*
X157146765Y-88876157D01*
X157356809Y-88735809D01*
X157497157Y-88525765D01*
X157546440Y-88278000D01*
X157546440Y-86078000D01*
X157497157Y-85830235D01*
X157356809Y-85620191D01*
X157181310Y-85502925D01*
X159570707Y-83113529D01*
X159644933Y-83063933D01*
X159841419Y-82769870D01*
X159893000Y-82510556D01*
X159893000Y-82510555D01*
X159910416Y-82423001D01*
X159893000Y-82335446D01*
X159893000Y-80379848D01*
X160038577Y-80282577D01*
X160274000Y-79930242D01*
X160509423Y-80282577D01*
X160655000Y-80379848D01*
X160655000Y-80466925D01*
X160655001Y-80466930D01*
X160655000Y-82335445D01*
X160637584Y-82423000D01*
X160655000Y-82510555D01*
X160706581Y-82769869D01*
X160903067Y-83063933D01*
X160977296Y-83113531D01*
X162758470Y-84894706D01*
X162808067Y-84968933D01*
X163102130Y-85165419D01*
X163361444Y-85217000D01*
X163361445Y-85217000D01*
X163449000Y-85234416D01*
X163536555Y-85217000D01*
X169430765Y-85217000D01*
X169758747Y-85544983D01*
X169646191Y-85620191D01*
X169505843Y-85830235D01*
X169456560Y-86078000D01*
X169456560Y-86228116D01*
X169115874Y-86087000D01*
X168704126Y-86087000D01*
X168323720Y-86244569D01*
X168032569Y-86535720D01*
X167875000Y-86916126D01*
X167875000Y-87327874D01*
X168021001Y-87680352D01*
X168021000Y-91135650D01*
X167875000Y-91488126D01*
X167875000Y-91899874D01*
X168032569Y-92280280D01*
X168323720Y-92571431D01*
X168704126Y-92729000D01*
X169115874Y-92729000D01*
X169496280Y-92571431D01*
X169787431Y-92280280D01*
X169945000Y-91899874D01*
X169945000Y-91488126D01*
X169799000Y-91135650D01*
X169799000Y-88837913D01*
X169856235Y-88876157D01*
X170104000Y-88925440D01*
X171504000Y-88925440D01*
X171751765Y-88876157D01*
X171961809Y-88735809D01*
X172102157Y-88525765D01*
X172151440Y-88278000D01*
X172151440Y-86078000D01*
X172102157Y-85830235D01*
X171961809Y-85620191D01*
X171751765Y-85479843D01*
X171693000Y-85468154D01*
X171693000Y-85420556D01*
X171710416Y-85333000D01*
X171641419Y-84986129D01*
X171494529Y-84766293D01*
X171444933Y-84692067D01*
X171370706Y-84642471D01*
X170489531Y-83761296D01*
X170439933Y-83687067D01*
X170145870Y-83490581D01*
X169886556Y-83439000D01*
X169886555Y-83439000D01*
X169799000Y-83421584D01*
X169711445Y-83439000D01*
X163817236Y-83439000D01*
X162433000Y-82054765D01*
X162433000Y-80379848D01*
X162578577Y-80282577D01*
X162895740Y-79807909D01*
X163007113Y-79248000D01*
X162895740Y-78688091D01*
X162578577Y-78213423D01*
X162103909Y-77896260D01*
X161685333Y-77813000D01*
X161402667Y-77813000D01*
X160984091Y-77896260D01*
X160509423Y-78213423D01*
X160274000Y-78565758D01*
X160038577Y-78213423D01*
X159563909Y-77896260D01*
X159145333Y-77813000D01*
X158862667Y-77813000D01*
X158444091Y-77896260D01*
X157969423Y-78213423D01*
X157734000Y-78565758D01*
X157498577Y-78213423D01*
X157023909Y-77896260D01*
X156605333Y-77813000D01*
X156322667Y-77813000D01*
X155904091Y-77896260D01*
X155429423Y-78213423D01*
X155194000Y-78565758D01*
X154958577Y-78213423D01*
X154483909Y-77896260D01*
X154065333Y-77813000D01*
X153782667Y-77813000D01*
X153364091Y-77896260D01*
X152889423Y-78213423D01*
X152654000Y-78565758D01*
X152418577Y-78213423D01*
X152273000Y-78116152D01*
X152273000Y-78092235D01*
X153276236Y-77089000D01*
X157138445Y-77089000D01*
X157226000Y-77106416D01*
X157313555Y-77089000D01*
X157313556Y-77089000D01*
X157572870Y-77037419D01*
X157866933Y-76840933D01*
X157916531Y-76766704D01*
X158864236Y-75819000D01*
X164250445Y-75819000D01*
X164338000Y-75836416D01*
X164425555Y-75819000D01*
X164425556Y-75819000D01*
X164684870Y-75767419D01*
X164978933Y-75570933D01*
X165028531Y-75496704D01*
X165504762Y-75020473D01*
X165546081Y-75061792D01*
X165529720Y-75068569D01*
X165238569Y-75359720D01*
X165081000Y-75740126D01*
X165081000Y-76151874D01*
X165198274Y-76435000D01*
X165148126Y-76435000D01*
X164767720Y-76592569D01*
X164476569Y-76883720D01*
X164319000Y-77264126D01*
X164319000Y-77675874D01*
X164476569Y-78056280D01*
X164767720Y-78347431D01*
X165148126Y-78505000D01*
X165559874Y-78505000D01*
X165912350Y-78359000D01*
X169049765Y-78359000D01*
X169489471Y-78798706D01*
X169539067Y-78872933D01*
X169833130Y-79069419D01*
X170092444Y-79121000D01*
X170092445Y-79121000D01*
X170180000Y-79138416D01*
X170267555Y-79121000D01*
X171528017Y-79121000D01*
X171649375Y-79302625D01*
X171947761Y-79502000D01*
X171649375Y-79701375D01*
X171321161Y-80192582D01*
X171205908Y-80772000D01*
X171321161Y-81351418D01*
X171649375Y-81842625D01*
X172140582Y-82170839D01*
X172573744Y-82257000D01*
X172866256Y-82257000D01*
X173299418Y-82170839D01*
X173790625Y-81842625D01*
X174118839Y-81351418D01*
X174234092Y-80772000D01*
X174118839Y-80192582D01*
X173790625Y-79701375D01*
X173492239Y-79502000D01*
X173790625Y-79302625D01*
X174118839Y-78811418D01*
X174234092Y-78232000D01*
X174118839Y-77652582D01*
X173790625Y-77161375D01*
X173492239Y-76962000D01*
X173790625Y-76762625D01*
X174118839Y-76271418D01*
X174234092Y-75692000D01*
X174118839Y-75112582D01*
X173790625Y-74621375D01*
X173492239Y-74422000D01*
X173790625Y-74222625D01*
X174118839Y-73731418D01*
X174234092Y-73152000D01*
X174118839Y-72572582D01*
X173790625Y-72081375D01*
X173492239Y-71882000D01*
X173790625Y-71682625D01*
X174118839Y-71191418D01*
X174234092Y-70612000D01*
X174118839Y-70032582D01*
X173790625Y-69541375D01*
X173768967Y-69526904D01*
X173929698Y-69460327D01*
X174108327Y-69281699D01*
X174205000Y-69048310D01*
X174205000Y-68357750D01*
X174046250Y-68199000D01*
X172847000Y-68199000D01*
X172847000Y-68219000D01*
X172593000Y-68219000D01*
X172593000Y-68199000D01*
X171393750Y-68199000D01*
X171235000Y-68357750D01*
X171235000Y-69048310D01*
X171331673Y-69281699D01*
X171510302Y-69460327D01*
X171671033Y-69526904D01*
X171649375Y-69541375D01*
X171321161Y-70032582D01*
X171205908Y-70612000D01*
X171321161Y-71191418D01*
X171649375Y-71682625D01*
X171947761Y-71882000D01*
X171649375Y-72081375D01*
X171528017Y-72263000D01*
X170775550Y-72263000D01*
X170687999Y-72245585D01*
X170600448Y-72263000D01*
X170600444Y-72263000D01*
X170341130Y-72314581D01*
X170047067Y-72511067D01*
X169997471Y-72585293D01*
X169049765Y-73533000D01*
X166992236Y-73533000D01*
X167190707Y-73334529D01*
X167264933Y-73284933D01*
X167461419Y-72990870D01*
X167513000Y-72731556D01*
X167513000Y-72731552D01*
X167530415Y-72644001D01*
X167513000Y-72556450D01*
X167513000Y-68948235D01*
X168206707Y-68254529D01*
X168280933Y-68204933D01*
X168477419Y-67910870D01*
X168529000Y-67651556D01*
X168529000Y-67651555D01*
X168546416Y-67564000D01*
X168529000Y-67476444D01*
X168529000Y-67360350D01*
X168638625Y-67095690D01*
X171235000Y-67095690D01*
X171235000Y-67786250D01*
X171393750Y-67945000D01*
X172593000Y-67945000D01*
X172593000Y-66745750D01*
X172847000Y-66745750D01*
X172847000Y-67945000D01*
X174046250Y-67945000D01*
X174205000Y-67786250D01*
X174205000Y-67095690D01*
X174108327Y-66862301D01*
X173929698Y-66683673D01*
X173696309Y-66587000D01*
X173005750Y-66587000D01*
X172847000Y-66745750D01*
X172593000Y-66745750D01*
X172434250Y-66587000D01*
X171743691Y-66587000D01*
X171510302Y-66683673D01*
X171331673Y-66862301D01*
X171235000Y-67095690D01*
X168638625Y-67095690D01*
X168675000Y-67007874D01*
X168675000Y-66596126D01*
X168602461Y-66421000D01*
X169330445Y-66421000D01*
X169418000Y-66438416D01*
X169505555Y-66421000D01*
X169505556Y-66421000D01*
X169764870Y-66369419D01*
X170058933Y-66172933D01*
X170108531Y-66098704D01*
X171762707Y-64444529D01*
X171836933Y-64394933D01*
X172033419Y-64100870D01*
X172085000Y-63841556D01*
X172085000Y-63841555D01*
X172102416Y-63754000D01*
X172085000Y-63666445D01*
X172085000Y-61196975D01*
X172327758Y-60954217D01*
X172531000Y-60463548D01*
X172531000Y-59932452D01*
X172327758Y-59441783D01*
X171952217Y-59066242D01*
X171461548Y-58863000D01*
X170930452Y-58863000D01*
X170439783Y-59066242D01*
X170064242Y-59441783D01*
X169861000Y-59932452D01*
X169861000Y-60463548D01*
X170064242Y-60954217D01*
X170307001Y-61196976D01*
X170307000Y-63385764D01*
X169049765Y-64643000D01*
X164960236Y-64643000D01*
X165285707Y-64317529D01*
X165359933Y-64267933D01*
X165556419Y-63973870D01*
X165608000Y-63714556D01*
X165608000Y-63714555D01*
X165625416Y-63627000D01*
X165608000Y-63539445D01*
X165608000Y-62886793D01*
X165654216Y-62867650D01*
X166118650Y-62403216D01*
X166370000Y-61796404D01*
X166370000Y-61139596D01*
X166118650Y-60532784D01*
X165654216Y-60068350D01*
X165047404Y-59817000D01*
X164390596Y-59817000D01*
X163783784Y-60068350D01*
X163449000Y-60403134D01*
X163114216Y-60068350D01*
X162507404Y-59817000D01*
X161850596Y-59817000D01*
X161243784Y-60068350D01*
X160909000Y-60403134D01*
X160574216Y-60068350D01*
X159967404Y-59817000D01*
X159310596Y-59817000D01*
X158703784Y-60068350D01*
X158369000Y-60403134D01*
X158034216Y-60068350D01*
X157427404Y-59817000D01*
X156770596Y-59817000D01*
X156163784Y-60068350D01*
X156114975Y-60117159D01*
X156032809Y-59994191D01*
X155822765Y-59853843D01*
X155575000Y-59804560D01*
X153543000Y-59804560D01*
X153295235Y-59853843D01*
X153085191Y-59994191D01*
X152944843Y-60204235D01*
X152895560Y-60452000D01*
X152895560Y-62484000D01*
X152944843Y-62731765D01*
X153085191Y-62941809D01*
X153295235Y-63082157D01*
X153543000Y-63131440D01*
X155575000Y-63131440D01*
X155822765Y-63082157D01*
X156032809Y-62941809D01*
X156114975Y-62818841D01*
X156163784Y-62867650D01*
X156770596Y-63119000D01*
X157427404Y-63119000D01*
X158034216Y-62867650D01*
X158369000Y-62532866D01*
X158703784Y-62867650D01*
X159310596Y-63119000D01*
X159967404Y-63119000D01*
X160574216Y-62867650D01*
X160909000Y-62532866D01*
X161243784Y-62867650D01*
X161850596Y-63119000D01*
X162507404Y-63119000D01*
X163114216Y-62867650D01*
X163449000Y-62532866D01*
X163783784Y-62867650D01*
X163830000Y-62886793D01*
X163830000Y-63258764D01*
X163461765Y-63627000D01*
X152995556Y-63627000D01*
X152908000Y-63609584D01*
X152561129Y-63678581D01*
X152371060Y-63805581D01*
X152267067Y-63875067D01*
X152217471Y-63949293D01*
X150625078Y-65541686D01*
X150495000Y-65227650D01*
X150495000Y-61069975D01*
X150610758Y-60954217D01*
X150814000Y-60463548D01*
X150814000Y-59932452D01*
X150610758Y-59441783D01*
X150235217Y-59066242D01*
X149744548Y-58863000D01*
X149213452Y-58863000D01*
X148722783Y-59066242D01*
X148347242Y-59441783D01*
X148144000Y-59932452D01*
X148144000Y-60463548D01*
X148347242Y-60954217D01*
X148717001Y-61323976D01*
X148717000Y-65227650D01*
X148571000Y-65580126D01*
X148571000Y-65991874D01*
X148728569Y-66372280D01*
X149019720Y-66663431D01*
X149361687Y-66805078D01*
X147713765Y-68453000D01*
X147397261Y-68453000D01*
X147459891Y-68440542D01*
X147901481Y-68145481D01*
X148196542Y-67703891D01*
X148300154Y-67183000D01*
X148196542Y-66662109D01*
X147901481Y-66220519D01*
X147828000Y-66171421D01*
X147828000Y-65492556D01*
X147845416Y-65405000D01*
X147776419Y-65058129D01*
X147636599Y-64848874D01*
X147579933Y-64764067D01*
X147505706Y-64714470D01*
X146994531Y-64203296D01*
X146944933Y-64129067D01*
X146650870Y-63932581D01*
X146391556Y-63881000D01*
X146391555Y-63881000D01*
X146304000Y-63863584D01*
X146216445Y-63881000D01*
X142290350Y-63881000D01*
X141937874Y-63735000D01*
X141738236Y-63735000D01*
X142298707Y-63174529D01*
X142372933Y-63124933D01*
X142569419Y-62830870D01*
X142621000Y-62571556D01*
X142621000Y-62571555D01*
X142638416Y-62484001D01*
X142621000Y-62396446D01*
X142621000Y-59550235D01*
X143703109Y-58468126D01*
X153397000Y-58468126D01*
X153397000Y-58879874D01*
X153554569Y-59260280D01*
X153845720Y-59551431D01*
X154226126Y-59709000D01*
X154637874Y-59709000D01*
X154990350Y-59563000D01*
X167017765Y-59563000D01*
X167767000Y-60312236D01*
X167767001Y-62179648D01*
X167621000Y-62532126D01*
X167621000Y-62943874D01*
X167778569Y-63324280D01*
X168069720Y-63615431D01*
X168450126Y-63773000D01*
X168861874Y-63773000D01*
X169242280Y-63615431D01*
X169533431Y-63324280D01*
X169691000Y-62943874D01*
X169691000Y-62532126D01*
X169545000Y-62179650D01*
X169545000Y-60031550D01*
X169562415Y-59943999D01*
X169545000Y-59856448D01*
X169545000Y-59856444D01*
X169493419Y-59597130D01*
X169296933Y-59303067D01*
X169222707Y-59253471D01*
X168076531Y-58107296D01*
X168026933Y-58033067D01*
X167732870Y-57836581D01*
X167473556Y-57785000D01*
X167473555Y-57785000D01*
X167386000Y-57767584D01*
X167298445Y-57785000D01*
X154990350Y-57785000D01*
X154637874Y-57639000D01*
X154226126Y-57639000D01*
X153845720Y-57796569D01*
X153554569Y-58087720D01*
X153397000Y-58468126D01*
X143703109Y-58468126D01*
X145910236Y-56261000D01*
X152566445Y-56261000D01*
X152654000Y-56278416D01*
X152741555Y-56261000D01*
X152741556Y-56261000D01*
X153000870Y-56209419D01*
X153294933Y-56012933D01*
X153344531Y-55938704D01*
X155125707Y-54157529D01*
X155199933Y-54107933D01*
X155396419Y-53813870D01*
X155448000Y-53554556D01*
X155448000Y-53554555D01*
X155465416Y-53467000D01*
X155448000Y-53379445D01*
X155448000Y-52726793D01*
X155494216Y-52707650D01*
X155829000Y-52372866D01*
X156163784Y-52707650D01*
X156770596Y-52959000D01*
X157427404Y-52959000D01*
X158034216Y-52707650D01*
X158369000Y-52372866D01*
X158703784Y-52707650D01*
X158737226Y-52721502D01*
X158732584Y-52744840D01*
X158801582Y-53091710D01*
X158928258Y-53281294D01*
X158998068Y-53385773D01*
X159072294Y-53435369D01*
X160305631Y-54668707D01*
X160355227Y-54742933D01*
X160649290Y-54939419D01*
X160908604Y-54991000D01*
X160996159Y-55008416D01*
X161083714Y-54991000D01*
X169584445Y-54991000D01*
X169672000Y-55008416D01*
X169759555Y-54991000D01*
X169759556Y-54991000D01*
X170018870Y-54939419D01*
X170312933Y-54742933D01*
X170362531Y-54668704D01*
X171118236Y-53913000D01*
X171327485Y-53913000D01*
X171716891Y-53835542D01*
X172158481Y-53540481D01*
X172453542Y-53098891D01*
X172557154Y-52578000D01*
X172453542Y-52057109D01*
X172158481Y-51615519D01*
X171716891Y-51320458D01*
X171327485Y-51243000D01*
X171064515Y-51243000D01*
X170675109Y-51320458D01*
X170233519Y-51615519D01*
X169938458Y-52057109D01*
X169834846Y-52578000D01*
X169852087Y-52664677D01*
X169303765Y-53213000D01*
X161364396Y-53213000D01*
X160716631Y-52565235D01*
X160909000Y-52372866D01*
X161243784Y-52707650D01*
X161850596Y-52959000D01*
X162507404Y-52959000D01*
X163114216Y-52707650D01*
X163449000Y-52372866D01*
X163783784Y-52707650D01*
X164390596Y-52959000D01*
X165047404Y-52959000D01*
X165654216Y-52707650D01*
X166118650Y-52243216D01*
X166370000Y-51636404D01*
X166370000Y-50979596D01*
X166118650Y-50372784D01*
X165654216Y-49908350D01*
X165047404Y-49657000D01*
X164390596Y-49657000D01*
X163783784Y-49908350D01*
X163449000Y-50243134D01*
X163114216Y-49908350D01*
X163068000Y-49889207D01*
X163068000Y-49236555D01*
X163085416Y-49149000D01*
X163066943Y-49056129D01*
X163016419Y-48802130D01*
X162819933Y-48508067D01*
X162745707Y-48458471D01*
X161980531Y-47693296D01*
X161930933Y-47619067D01*
X161636870Y-47422581D01*
X161377556Y-47371000D01*
X161377555Y-47371000D01*
X161290000Y-47353584D01*
X161202445Y-47371000D01*
X150201555Y-47371000D01*
X150114000Y-47353584D01*
X150026445Y-47371000D01*
X150026444Y-47371000D01*
X149767130Y-47422581D01*
X149473067Y-47619067D01*
X149423471Y-47693294D01*
X148729765Y-48387000D01*
X143851554Y-48387000D01*
X143763999Y-48369584D01*
X143676444Y-48387000D01*
X143417130Y-48438581D01*
X143123067Y-48635067D01*
X143073471Y-48709293D01*
X136353502Y-55429263D01*
X136398000Y-55205556D01*
X136398000Y-55205552D01*
X136415415Y-55118001D01*
X136398000Y-55030450D01*
X136398000Y-52726793D01*
X136444216Y-52707650D01*
X136779000Y-52372866D01*
X137113784Y-52707650D01*
X137720596Y-52959000D01*
X138377404Y-52959000D01*
X138984216Y-52707650D01*
X139448650Y-52243216D01*
X139700000Y-51636404D01*
X139700000Y-50979596D01*
X139448650Y-50372784D01*
X138984216Y-49908350D01*
X138377404Y-49657000D01*
X137720596Y-49657000D01*
X137113784Y-49908350D01*
X136779000Y-50243134D01*
X136444216Y-49908350D01*
X135837404Y-49657000D01*
X135180596Y-49657000D01*
X134573784Y-49908350D01*
X134239000Y-50243134D01*
X133904216Y-49908350D01*
X133858000Y-49889207D01*
X133858000Y-49490556D01*
X133875416Y-49403000D01*
X133806419Y-49056129D01*
X133659529Y-48836293D01*
X133609933Y-48762067D01*
X133535707Y-48712471D01*
X133024531Y-48201296D01*
X132974933Y-48127067D01*
X132680870Y-47930581D01*
X132421556Y-47879000D01*
X132421555Y-47879000D01*
X132334000Y-47861584D01*
X132246445Y-47879000D01*
X129395975Y-47879000D01*
X129655758Y-47619217D01*
X129859000Y-47128548D01*
X129859000Y-46863000D01*
X137957846Y-46863000D01*
X138061458Y-47383891D01*
X138356519Y-47825481D01*
X138798109Y-48120542D01*
X139187515Y-48198000D01*
X139450485Y-48198000D01*
X139839891Y-48120542D01*
X140281481Y-47825481D01*
X140576542Y-47383891D01*
X140680154Y-46863000D01*
X140627334Y-46597452D01*
X145604000Y-46597452D01*
X145604000Y-47128548D01*
X145807242Y-47619217D01*
X146182783Y-47994758D01*
X146673452Y-48198000D01*
X147204548Y-48198000D01*
X147695217Y-47994758D01*
X148070758Y-47619217D01*
X148274000Y-47128548D01*
X148274000Y-46597452D01*
X148070758Y-46106783D01*
X147695217Y-45731242D01*
X147204548Y-45528000D01*
X146673452Y-45528000D01*
X146182783Y-45731242D01*
X145807242Y-46106783D01*
X145604000Y-46597452D01*
X140627334Y-46597452D01*
X140576542Y-46342109D01*
X140281481Y-45900519D01*
X139839891Y-45605458D01*
X139450485Y-45528000D01*
X139187515Y-45528000D01*
X138798109Y-45605458D01*
X138356519Y-45900519D01*
X138061458Y-46342109D01*
X137957846Y-46863000D01*
X129859000Y-46863000D01*
X129859000Y-46597452D01*
X129655758Y-46106783D01*
X129280217Y-45731242D01*
X128789548Y-45528000D01*
X128258452Y-45528000D01*
X127767783Y-45731242D01*
X127392242Y-46106783D01*
X127189000Y-46597452D01*
X127189000Y-47128548D01*
X127392242Y-47619217D01*
X127652025Y-47879000D01*
X122896550Y-47879000D01*
X122808999Y-47861585D01*
X122721448Y-47879000D01*
X122721444Y-47879000D01*
X122462130Y-47930581D01*
X122168067Y-48127067D01*
X122118471Y-48201293D01*
X120972294Y-49347471D01*
X120898068Y-49397067D01*
X120848472Y-49471293D01*
X120848471Y-49471294D01*
X120701582Y-49691130D01*
X120632584Y-50038000D01*
X120650001Y-50125559D01*
X120650000Y-51056257D01*
X120511431Y-50721720D01*
X120220280Y-50430569D01*
X119839874Y-50273000D01*
X119428126Y-50273000D01*
X119047720Y-50430569D01*
X118756569Y-50721720D01*
X118610570Y-51074195D01*
X116527294Y-53157471D01*
X116453068Y-53207067D01*
X116403472Y-53281293D01*
X116403471Y-53281294D01*
X116256582Y-53501130D01*
X116187584Y-53848000D01*
X116205001Y-53935560D01*
X116205000Y-67730445D01*
X116187584Y-67818000D01*
X116205000Y-67905555D01*
X116256581Y-68164869D01*
X116453067Y-68458933D01*
X116527296Y-68508531D01*
X120213470Y-72194706D01*
X120263067Y-72268933D01*
X120337293Y-72318529D01*
X120557129Y-72465419D01*
X120904000Y-72534416D01*
X120991556Y-72517000D01*
X127392152Y-72517000D01*
X127489423Y-72662577D01*
X127964091Y-72979740D01*
X128382667Y-73063000D01*
X128665333Y-73063000D01*
X129083909Y-72979740D01*
X129558577Y-72662577D01*
X129794000Y-72310242D01*
X130029423Y-72662577D01*
X130504091Y-72979740D01*
X130922667Y-73063000D01*
X131205333Y-73063000D01*
X131623909Y-72979740D01*
X132098577Y-72662577D01*
X132334000Y-72310242D01*
X132569423Y-72662577D01*
X133044091Y-72979740D01*
X133462667Y-73063000D01*
X133745333Y-73063000D01*
X134163909Y-72979740D01*
X134638577Y-72662577D01*
X134874000Y-72310242D01*
X135109423Y-72662577D01*
X135584091Y-72979740D01*
X136002667Y-73063000D01*
X136285333Y-73063000D01*
X136703909Y-72979740D01*
X137178577Y-72662577D01*
X137414000Y-72310242D01*
X137649423Y-72662577D01*
X138124091Y-72979740D01*
X138542667Y-73063000D01*
X138825333Y-73063000D01*
X139243909Y-72979740D01*
X139718577Y-72662577D01*
X139954000Y-72310242D01*
X140189423Y-72662577D01*
X140664091Y-72979740D01*
X141082667Y-73063000D01*
X141365333Y-73063000D01*
X141783909Y-72979740D01*
X142258577Y-72662577D01*
X142514947Y-72278892D01*
X142611611Y-72483134D01*
X143026577Y-72859041D01*
X143414961Y-73019904D01*
X143637000Y-72897915D01*
X143637000Y-71755000D01*
X143617000Y-71755000D01*
X143617000Y-71501000D01*
X143637000Y-71501000D01*
X143637000Y-71481000D01*
X143891000Y-71481000D01*
X143891000Y-71501000D01*
X143911000Y-71501000D01*
X143911000Y-71755000D01*
X143891000Y-71755000D01*
X143891000Y-72897915D01*
X144113039Y-73019904D01*
X144501423Y-72859041D01*
X144916389Y-72483134D01*
X145013053Y-72278892D01*
X145269423Y-72662577D01*
X145744091Y-72979740D01*
X146162667Y-73063000D01*
X146445333Y-73063000D01*
X146863909Y-72979740D01*
X147338577Y-72662577D01*
X147574000Y-72310242D01*
X147809423Y-72662577D01*
X148284091Y-72979740D01*
X148693573Y-73061191D01*
X147007296Y-74747469D01*
X146933067Y-74797067D01*
X146736581Y-75091131D01*
X146692846Y-75311000D01*
X146667584Y-75438000D01*
X146685000Y-75525555D01*
X146685000Y-75641650D01*
X146539000Y-75994126D01*
X146539000Y-76405874D01*
X146696569Y-76786280D01*
X146987720Y-77077431D01*
X147368126Y-77235000D01*
X147779874Y-77235000D01*
X147955001Y-77162460D01*
X147955000Y-78116151D01*
X147809423Y-78213423D01*
X147553053Y-78597108D01*
X147456389Y-78392866D01*
X147041423Y-78016959D01*
X146653039Y-77856096D01*
X146431000Y-77978085D01*
X146431000Y-79121000D01*
X146451000Y-79121000D01*
X146451000Y-79375000D01*
X146431000Y-79375000D01*
X146431000Y-80517915D01*
X146653039Y-80639904D01*
X147041423Y-80479041D01*
X147456389Y-80103134D01*
X147553053Y-79898892D01*
X147809423Y-80282577D01*
X148284091Y-80599740D01*
X148702667Y-80683000D01*
X148985333Y-80683000D01*
X149403909Y-80599740D01*
X149878577Y-80282577D01*
X150114000Y-79930242D01*
X150349423Y-80282577D01*
X150824091Y-80599740D01*
X151242667Y-80683000D01*
X151525333Y-80683000D01*
X151943909Y-80599740D01*
X152418577Y-80282577D01*
X152654000Y-79930242D01*
X152889423Y-80282577D01*
X153035001Y-80379849D01*
X153035000Y-82054764D01*
X152920765Y-82169000D01*
X137106461Y-82169000D01*
X137179000Y-81993874D01*
X137179000Y-81582126D01*
X137033000Y-81229650D01*
X137033000Y-80379848D01*
X137178577Y-80282577D01*
X137414000Y-79930242D01*
X137649423Y-80282577D01*
X138124091Y-80599740D01*
X138542667Y-80683000D01*
X138825333Y-80683000D01*
X139243909Y-80599740D01*
X139718577Y-80282577D01*
X139954000Y-79930242D01*
X140189423Y-80282577D01*
X140664091Y-80599740D01*
X141082667Y-80683000D01*
X141365333Y-80683000D01*
X141783909Y-80599740D01*
X142258577Y-80282577D01*
X142494000Y-79930242D01*
X142729423Y-80282577D01*
X143204091Y-80599740D01*
X143622667Y-80683000D01*
X143905333Y-80683000D01*
X144323909Y-80599740D01*
X144798577Y-80282577D01*
X145054947Y-79898892D01*
X145151611Y-80103134D01*
X145566577Y-80479041D01*
X145954961Y-80639904D01*
X146177000Y-80517915D01*
X146177000Y-79375000D01*
X146157000Y-79375000D01*
X146157000Y-79121000D01*
X146177000Y-79121000D01*
X146177000Y-77978085D01*
X145954961Y-77856096D01*
X145566577Y-78016959D01*
X145151611Y-78392866D01*
X145054947Y-78597108D01*
X144798577Y-78213423D01*
X144653000Y-78116152D01*
X144653000Y-77430550D01*
X144670415Y-77342999D01*
X144653000Y-77255448D01*
X144653000Y-77255444D01*
X144601419Y-76996130D01*
X144404933Y-76702067D01*
X144330707Y-76652471D01*
X143184531Y-75506296D01*
X143134933Y-75432067D01*
X142840870Y-75235581D01*
X142581556Y-75184000D01*
X142581555Y-75184000D01*
X142494000Y-75166584D01*
X142406445Y-75184000D01*
X125436556Y-75184000D01*
X125349000Y-75166584D01*
X125002129Y-75235581D01*
X124889257Y-75311000D01*
X124708067Y-75432067D01*
X124658470Y-75506294D01*
X124345765Y-75819000D01*
X123314396Y-75819000D01*
X122986862Y-75491466D01*
X122921701Y-75464475D01*
X122928005Y-75461864D01*
X123002139Y-75215745D01*
X122174000Y-74387605D01*
X121345861Y-75215745D01*
X121419995Y-75461864D01*
X121426746Y-75464290D01*
X121361138Y-75491466D01*
X121152920Y-75699684D01*
X120523000Y-75069765D01*
X120523000Y-74890556D01*
X120540416Y-74803000D01*
X120471419Y-74456129D01*
X120329290Y-74243418D01*
X120274933Y-74162067D01*
X120200707Y-74112471D01*
X120079459Y-73991223D01*
X120727035Y-73991223D01*
X120754222Y-74561454D01*
X120920136Y-74962005D01*
X121166255Y-75036139D01*
X121994395Y-74208000D01*
X122353605Y-74208000D01*
X123181745Y-75036139D01*
X123427864Y-74962005D01*
X123620965Y-74424777D01*
X123593778Y-73854546D01*
X123427864Y-73453995D01*
X123181745Y-73379861D01*
X122353605Y-74208000D01*
X121994395Y-74208000D01*
X121166255Y-73379861D01*
X120920136Y-73453995D01*
X120727035Y-73991223D01*
X120079459Y-73991223D01*
X119888000Y-73799765D01*
X119888000Y-73200255D01*
X121345861Y-73200255D01*
X122174000Y-74028395D01*
X123002139Y-73200255D01*
X122928005Y-72954136D01*
X122390777Y-72761035D01*
X121820546Y-72788222D01*
X121419995Y-72954136D01*
X121345861Y-73200255D01*
X119888000Y-73200255D01*
X119888000Y-72985554D01*
X119905416Y-72897999D01*
X119872308Y-72731555D01*
X119836419Y-72551130D01*
X119639933Y-72257067D01*
X119565707Y-72207471D01*
X117324531Y-69966296D01*
X117274933Y-69892067D01*
X116980870Y-69695581D01*
X116721556Y-69644000D01*
X116721555Y-69644000D01*
X116634000Y-69626584D01*
X116546445Y-69644000D01*
X115320475Y-69644000D01*
X115305086Y-69606847D01*
X114845153Y-69146914D01*
X114808000Y-69131525D01*
X114808000Y-65398384D01*
X115049542Y-65036891D01*
X115153154Y-64516000D01*
X115049542Y-63995109D01*
X114754481Y-63553519D01*
X114312891Y-63258458D01*
X113923485Y-63181000D01*
X113660515Y-63181000D01*
X113271109Y-63258458D01*
X112829519Y-63553519D01*
X112534458Y-63995109D01*
X112430846Y-64516000D01*
X112534458Y-65036891D01*
X112829519Y-65478481D01*
X113030001Y-65612439D01*
X113030000Y-69131525D01*
X112992847Y-69146914D01*
X112532914Y-69606847D01*
X112284000Y-70207778D01*
X112284000Y-70858222D01*
X112532914Y-71459153D01*
X112992847Y-71919086D01*
X113267859Y-72033000D01*
X112992847Y-72146914D01*
X112532914Y-72606847D01*
X112284000Y-73207778D01*
X112284000Y-73858222D01*
X112532914Y-74459153D01*
X112992847Y-74919086D01*
X113267859Y-75033000D01*
X112992847Y-75146914D01*
X112532914Y-75606847D01*
X112284000Y-76207778D01*
X112284000Y-76858222D01*
X112532914Y-77459153D01*
X112992847Y-77919086D01*
X113593778Y-78168000D01*
X114244222Y-78168000D01*
X114845153Y-77919086D01*
X115305086Y-77459153D01*
X115554000Y-76858222D01*
X115554000Y-76207778D01*
X115305086Y-75606847D01*
X114845153Y-75146914D01*
X114570141Y-75033000D01*
X114845153Y-74919086D01*
X115215239Y-74549000D01*
X116038160Y-74549000D01*
X116713001Y-75223842D01*
X116713000Y-77557159D01*
X114144168Y-80125992D01*
X114124874Y-80118000D01*
X113713126Y-80118000D01*
X113527123Y-80195045D01*
X113522577Y-80195949D01*
X113518723Y-80198524D01*
X113332720Y-80275569D01*
X113190359Y-80417930D01*
X113186505Y-80420505D01*
X113183930Y-80424359D01*
X113041569Y-80566720D01*
X112964524Y-80752723D01*
X112961949Y-80756577D01*
X112961045Y-80761123D01*
X112884000Y-80947126D01*
X112884000Y-81148455D01*
X112883096Y-81153000D01*
X112884000Y-81157545D01*
X112884000Y-81358874D01*
X112961045Y-81544877D01*
X112961949Y-81549423D01*
X112964524Y-81553277D01*
X113041569Y-81739280D01*
X113183930Y-81881641D01*
X113186505Y-81885495D01*
X113190359Y-81888070D01*
X113332720Y-82030431D01*
X113518723Y-82107476D01*
X113522577Y-82110051D01*
X113527123Y-82110955D01*
X113713126Y-82188000D01*
X114124874Y-82188000D01*
X114170744Y-82169000D01*
X114453937Y-82169000D01*
X114554000Y-82188904D01*
X114654063Y-82169000D01*
X114654065Y-82169000D01*
X114862156Y-82127608D01*
X112082294Y-84907471D01*
X112008068Y-84957067D01*
X111958472Y-85031293D01*
X111958471Y-85031294D01*
X111811582Y-85251130D01*
X111742584Y-85598000D01*
X109585000Y-85598000D01*
X109585000Y-56630452D01*
X112457000Y-56630452D01*
X112457000Y-57161548D01*
X112660242Y-57652217D01*
X113035783Y-58027758D01*
X113526452Y-58231000D01*
X114057548Y-58231000D01*
X114548217Y-58027758D01*
X114923758Y-57652217D01*
X115127000Y-57161548D01*
X115127000Y-56630452D01*
X114923758Y-56139783D01*
X114548217Y-55764242D01*
X114057548Y-55561000D01*
X113526452Y-55561000D01*
X113035783Y-55764242D01*
X112660242Y-56139783D01*
X112457000Y-56630452D01*
X109585000Y-56630452D01*
X109585000Y-43387857D01*
X110650000Y-43387857D01*
X110650000Y-49172143D01*
X114470000Y-49172143D01*
X114470000Y-46863000D01*
X119542846Y-46863000D01*
X119646458Y-47383891D01*
X119941519Y-47825481D01*
X120383109Y-48120542D01*
X120772515Y-48198000D01*
X121035485Y-48198000D01*
X121424891Y-48120542D01*
X121866481Y-47825481D01*
X122161542Y-47383891D01*
X122265154Y-46863000D01*
X122161542Y-46342109D01*
X121866481Y-45900519D01*
X121424891Y-45605458D01*
X121035485Y-45528000D01*
X120772515Y-45528000D01*
X120383109Y-45605458D01*
X119941519Y-45900519D01*
X119646458Y-46342109D01*
X119542846Y-46863000D01*
X114470000Y-46863000D01*
X114470000Y-43387857D01*
X110650000Y-43387857D01*
X109585000Y-43387857D01*
X109585000Y-42585000D01*
X176215000Y-42585000D01*
X176215001Y-139215000D01*
G04 #@! TD*
M02*
