G04 #@! TF.GenerationSoftware,KiCad,Pcbnew,(5.0.1-3-g963ef8bb5)*
G04 #@! TF.CreationDate,2018-12-12T19:15:58+01:00*
G04 #@! TF.ProjectId,kim-uno-rev1,6B696D2D756E6F2D726576312E6B6963,1*
G04 #@! TF.SameCoordinates,Original*
G04 #@! TF.FileFunction,Paste,Top*
G04 #@! TF.FilePolarity,Positive*
%FSLAX46Y46*%
G04 Gerber Fmt 4.6, Leading zero omitted, Abs format (unit mm)*
G04 Created by KiCad (PCBNEW (5.0.1-3-g963ef8bb5)) date Wednesday, 12 December 2018 at 19:15:58*
%MOMM*%
%LPD*%
G01*
G04 APERTURE LIST*
%ADD10R,1.400000X2.200000*%
G04 APERTURE END LIST*
D10*
G04 #@! TO.C,SW1*
X115454000Y-94178000D03*
X115454000Y-87178000D03*
X120004000Y-94178000D03*
X120004000Y-87178000D03*
G04 #@! TD*
G04 #@! TO.C,SW2*
X120004000Y-100823000D03*
X120004000Y-107823000D03*
X115454000Y-100823000D03*
X115454000Y-107823000D03*
G04 #@! TD*
G04 #@! TO.C,SW3*
X120004000Y-114483000D03*
X120004000Y-121483000D03*
X115454000Y-114483000D03*
X115454000Y-121483000D03*
G04 #@! TD*
G04 #@! TO.C,SW4*
X115454000Y-134818000D03*
X115454000Y-127818000D03*
X120004000Y-134818000D03*
X120004000Y-127818000D03*
G04 #@! TD*
G04 #@! TO.C,SW5*
X127519000Y-94178000D03*
X127519000Y-87178000D03*
X132069000Y-94178000D03*
X132069000Y-87178000D03*
G04 #@! TD*
G04 #@! TO.C,SW6*
X132069000Y-100823000D03*
X132069000Y-107823000D03*
X127519000Y-100823000D03*
X127519000Y-107823000D03*
G04 #@! TD*
G04 #@! TO.C,SW7*
X127519000Y-121483000D03*
X127519000Y-114483000D03*
X132069000Y-121483000D03*
X132069000Y-114483000D03*
G04 #@! TD*
G04 #@! TO.C,SW8*
X132069000Y-127818000D03*
X132069000Y-134818000D03*
X127519000Y-127818000D03*
X127519000Y-134818000D03*
G04 #@! TD*
G04 #@! TO.C,SW9*
X139584000Y-94178000D03*
X139584000Y-87178000D03*
X144134000Y-94178000D03*
X144134000Y-87178000D03*
G04 #@! TD*
G04 #@! TO.C,SW10*
X144134000Y-100823000D03*
X144134000Y-107823000D03*
X139584000Y-100823000D03*
X139584000Y-107823000D03*
G04 #@! TD*
G04 #@! TO.C,SW11*
X139584000Y-121483000D03*
X139584000Y-114483000D03*
X144134000Y-121483000D03*
X144134000Y-114483000D03*
G04 #@! TD*
G04 #@! TO.C,SW12*
X139584000Y-134818000D03*
X139584000Y-127818000D03*
X144134000Y-134818000D03*
X144134000Y-127818000D03*
G04 #@! TD*
G04 #@! TO.C,SW13*
X156199000Y-87178000D03*
X156199000Y-94178000D03*
X151649000Y-87178000D03*
X151649000Y-94178000D03*
G04 #@! TD*
G04 #@! TO.C,SW14*
X151649000Y-107823000D03*
X151649000Y-100823000D03*
X156199000Y-107823000D03*
X156199000Y-100823000D03*
G04 #@! TD*
G04 #@! TO.C,SW15*
X156199000Y-114483000D03*
X156199000Y-121483000D03*
X151649000Y-114483000D03*
X151649000Y-121483000D03*
G04 #@! TD*
G04 #@! TO.C,SW16*
X151649000Y-134818000D03*
X151649000Y-127818000D03*
X156199000Y-134818000D03*
X156199000Y-127818000D03*
G04 #@! TD*
G04 #@! TO.C,SW17*
X170804000Y-87178000D03*
X170804000Y-94178000D03*
X166254000Y-87178000D03*
X166254000Y-94178000D03*
G04 #@! TD*
G04 #@! TO.C,SW18*
X166254000Y-107823000D03*
X166254000Y-100823000D03*
X170804000Y-107823000D03*
X170804000Y-100823000D03*
G04 #@! TD*
G04 #@! TO.C,SW19*
X170804000Y-114483000D03*
X170804000Y-121483000D03*
X166254000Y-114483000D03*
X166254000Y-121483000D03*
G04 #@! TD*
G04 #@! TO.C,SW20*
X170804000Y-127818000D03*
X170804000Y-134818000D03*
X166254000Y-127818000D03*
X166254000Y-134818000D03*
G04 #@! TD*
M02*
