M48
INCH,TZ
T1C0.0157
T2C0.0276
T3C0.0315
T4C0.0394
T5C0.0400
T6C0.0433
%
G90
G05
T1
X44850Y-31950
X47100Y-20200
X47600Y-31700
X49200Y-35000
X49300Y-32900
X49600Y-25450
X52400Y-23300
X52400Y-38400
X52600Y-27450
X52600Y-32200
X53100Y-39700
X53600Y-32200
X53850Y-41700
X54500Y-23300
X55600Y-38400
X55800Y-25500
X58100Y-30000
X58900Y-25900
X60800Y-23100
X61400Y-29000
X62600Y-36300
X63800Y-38400
X64600Y-36300
X64900Y-26600
X65100Y-30500
X65400Y-29900
X65500Y-29300
X65600Y-38400
X66000Y-26300
X66400Y-24700
X66500Y-34300
X66500Y-36100
T2
X54850Y-18450
X57850Y-18450
X44800Y-22400
X44800Y-25400
X58850Y-20700
X58850Y-23700
X47600Y-18450
X50600Y-18450
X67400Y-20700
X67400Y-23700
X48100Y-26450
X51100Y-26450
X54850Y-26450
X57850Y-26450
X60850Y-26450
X63850Y-26450
T3
X50600Y-28200
X50600Y-31200
X51600Y-28200
X51600Y-31200
X52600Y-28200
X52600Y-31200
X53600Y-28200
X53600Y-31200
X54600Y-28200
X54600Y-31200
X55600Y-28200
X55600Y-31200
X56600Y-28200
X56600Y-31200
X57600Y-28200
X57600Y-31200
X58600Y-28200
X58600Y-31200
X59600Y-28200
X59600Y-31200
X60600Y-28200
X60600Y-31200
X61600Y-28200
X61600Y-31200
X62600Y-28200
X62600Y-31200
X63600Y-28200
X63600Y-31200
X48100Y-29216
X48100Y-30200
T4
X68000Y-26800
X68000Y-27800
X68000Y-28800
X68000Y-29800
X68000Y-30800
X68000Y-31800
T5
X60850Y-20200
X60850Y-24200
X61850Y-20200
X61850Y-24200
X62850Y-20200
X62850Y-24200
X63850Y-20200
X63850Y-24200
X64850Y-20200
X64850Y-24200
X49350Y-20200
X49350Y-24200
X50350Y-20200
X50350Y-24200
X51350Y-20200
X51350Y-24200
X52350Y-20200
X52350Y-24200
X53350Y-20200
X53350Y-24200
X54350Y-20200
X54350Y-24200
T6
X44850Y-27769
X44850Y-28950
X44850Y-30131
T0
M30
